<svg width="442" height="281" viewBox="0 0 442 281" fill="none" xmlns="http://www.w3.org/2000/svg">
<g filter="url(#filter0_d)">
<path d="M383.63 8H58.3628V225.581H383.63V8Z" fill="#EBEBEB"/>
<path d="M381.264 10.6554H60.7285V222.925H381.264V10.6554Z" fill="#263238"/>
<path d="M425.993 241.893H16V256.825H425.993V241.893Z" fill="#D6D6D6"/>
<path d="M16 241.893L58.3698 225.581H383.63L426 241.893H16Z" fill="#EBEBEB"/>
<path d="M62.1494 236.106L89.4901 225.581H352.51L379.85 236.106H62.1494Z" fill="#263238"/>
<path d="M363.16 26.7812H78.8486V206.799H363.16V26.7812Z" fill="white"/>
<path d="M363.158 26.7812H78.6055V33.7061H363.158V26.7812Z" fill="#455A64"/>
<path d="M84.1101 30.2437C84.1101 30.5833 84.0094 30.9154 83.8207 31.1978C83.632 31.4802 83.3637 31.7004 83.0499 31.8303C82.7361 31.9603 82.3908 31.9943 82.0577 31.9281C81.7245 31.8618 81.4185 31.6982 81.1783 31.4581C80.9381 31.2179 80.7746 30.9119 80.7083 30.5787C80.642 30.2456 80.676 29.9003 80.806 29.5864C80.936 29.2726 81.1561 29.0044 81.4386 28.8157C81.721 28.627 82.053 28.5262 82.3927 28.5262C82.8482 28.5262 83.285 28.7072 83.6071 29.0293C83.9292 29.3513 84.1101 29.7882 84.1101 30.2437Z" fill="#C7C7C7"/>
<path d="M91.1258 30.2437C91.1258 30.5834 91.025 30.9154 90.8363 31.1978C90.6476 31.4802 90.3794 31.7004 90.0656 31.8304C89.7517 31.9603 89.4064 31.9944 89.0733 31.9281C88.7401 31.8618 88.4341 31.6983 88.1939 31.4581C87.9538 31.2179 87.7902 30.9119 87.7239 30.5787C87.6577 30.2456 87.6917 29.9003 87.8216 29.5865C87.9516 29.2726 88.1718 29.0044 88.4542 28.8157C88.7366 28.627 89.0687 28.5263 89.4083 28.5263C89.6341 28.5253 89.8579 28.5692 90.0666 28.6551C90.2754 28.7411 90.4651 28.8676 90.6248 29.0272C90.7844 29.1869 90.9109 29.3766 90.9969 29.5854C91.0829 29.7942 91.1267 30.0179 91.1258 30.2437V30.2437Z" fill="white"/>
<path d="M98.1189 30.2437C98.1189 30.5834 98.0182 30.9154 97.8295 31.1978C97.6408 31.4802 97.3725 31.7004 97.0587 31.8304C96.7449 31.9603 96.3996 31.9944 96.0665 31.9281C95.7333 31.8618 95.4273 31.6983 95.1871 31.4581C94.9469 31.2179 94.7833 30.9119 94.7171 30.5787C94.6508 30.2456 94.6848 29.9003 94.8148 29.5865C94.9448 29.2726 95.1649 29.0044 95.4474 28.8157C95.7298 28.627 96.0618 28.5263 96.4015 28.5263C96.6273 28.5253 96.851 28.5692 97.0598 28.6551C97.2686 28.7411 97.4583 28.8676 97.6179 29.0272C97.7776 29.1869 97.9041 29.3766 97.99 29.5854C98.076 29.7942 98.1198 30.0179 98.1189 30.2437V30.2437Z" fill="#219EBC"/>
<path d="M363.159 33.7061H358.11V206.792H363.159V33.7061Z" fill="#DBDBDB"/>
<path d="M360.628 93.7121C360.282 93.7121 359.95 93.5748 359.706 93.3303C359.462 93.0859 359.324 92.7543 359.324 92.4086V36.0236C359.324 35.6778 359.462 35.3462 359.706 35.1018C359.95 34.8573 360.282 34.72 360.628 34.72V34.72C360.973 34.72 361.305 34.8573 361.55 35.1018C361.794 35.3462 361.931 35.6778 361.931 36.0236V92.4086C361.931 92.7543 361.794 93.0859 361.55 93.3303C361.305 93.5748 360.973 93.7121 360.628 93.7121V93.7121Z" fill="#A6A6A6"/>
<path d="M323.368 78.6002H119.789V109.458H323.368V78.6002Z" fill="white"/>
<path d="M323.714 109.796H119.445V78.2554H323.714V109.796ZM120.135 109.107H323.024V78.9451H120.135V109.107Z" fill="#DBDBDB"/>
<path d="M137.763 86.9597C138.159 88.1042 138.429 89.2882 138.57 90.4911C138.869 92.8382 138.869 95.2137 138.57 97.5608C138.426 98.7638 138.153 99.9477 137.756 101.092C137.355 99.9487 137.082 98.7643 136.942 97.5608C136.648 95.2134 136.648 92.8385 136.942 90.4911C137.09 89.2883 137.365 88.1046 137.763 86.9597V86.9597Z" fill="#37474F"/>
<path d="M144.826 94.0224C143.683 94.4293 142.499 94.707 141.294 94.8501C140.123 94.9992 138.944 95.0729 137.763 95.0708C136.582 95.0766 135.402 95.0028 134.232 94.8501C133.026 94.7107 131.839 94.4377 130.693 94.0362C131.841 93.6412 133.027 93.3684 134.232 93.2223C135.403 93.0731 136.582 92.9993 137.763 93.0016C138.944 93.0053 140.123 93.0813 141.294 93.2292C142.497 93.3644 143.681 93.6303 144.826 94.0224V94.0224Z" fill="#37474F"/>
<path d="M142.756 89.0289C142.227 90.1182 141.582 91.1472 140.832 92.0982C140.112 93.0337 139.331 93.9208 138.494 94.7536C137.66 95.5912 136.773 96.3745 135.838 97.0987C134.885 97.8487 133.854 98.4938 132.762 99.023C133.291 97.9316 133.937 96.9003 134.687 95.9469C135.411 95.0126 136.194 94.1256 137.032 93.2914C137.868 92.458 138.754 91.6771 139.687 90.9533C140.639 90.2049 141.668 89.5598 142.756 89.0289V89.0289Z" fill="#37474F"/>
<path d="M142.757 99.0229C141.669 98.4921 140.64 97.847 139.688 97.0986C138.754 96.3744 137.867 95.5911 137.033 94.7535C136.188 93.9193 135.4 93.0299 134.674 92.0912C133.924 91.1378 133.279 90.1065 132.75 89.015C133.842 89.5418 134.874 90.1871 135.826 90.9394C137.697 92.3856 139.376 94.0662 140.819 95.9399C141.575 96.8945 142.225 97.9282 142.757 99.0229V99.0229Z" fill="#37474F"/>
<path d="M165.311 86.9597C165.707 88.1042 165.978 89.2882 166.118 90.4911C166.266 91.6625 166.342 92.8418 166.346 94.0225C166.348 95.2054 166.274 96.3873 166.125 97.5608C165.978 98.7632 165.705 99.9468 165.311 101.092C164.911 99.9487 164.638 98.7643 164.497 97.5608C164.345 96.3876 164.271 95.2055 164.277 94.0225C164.275 92.8419 164.349 91.6623 164.497 90.4911C164.64 89.288 164.913 88.1039 165.311 86.9597V86.9597Z" fill="#37474F"/>
<path d="M172.374 94.0224C171.23 94.4239 170.046 94.6968 168.842 94.8363C167.671 94.9851 166.492 95.0589 165.311 95.057C164.128 95.0625 162.946 94.9888 161.773 94.8363C160.569 94.6961 159.385 94.4232 158.241 94.0224C159.387 93.6282 160.57 93.3554 161.773 93.2085C162.946 93.0595 164.128 92.9858 165.311 92.9878C166.492 92.9917 167.671 93.0677 168.842 93.2154C170.045 93.3558 171.229 93.6264 172.374 94.0224V94.0224Z" fill="#37474F"/>
<path d="M170.304 89.0289C169.775 90.1182 169.13 91.1472 168.38 92.0982C167.66 93.0337 166.878 93.9208 166.042 94.7536C165.207 95.5912 164.321 96.3745 163.386 97.0987C162.433 97.8487 161.402 98.4938 160.31 99.023C160.839 97.9316 161.484 96.9003 162.234 95.9469C162.959 95.0126 163.742 94.1256 164.579 93.2914C165.412 92.4546 166.299 91.6735 167.235 90.9533C168.186 90.2034 169.215 89.5582 170.304 89.0289Z" fill="#37474F"/>
<path d="M170.304 99.0229C169.215 98.4936 168.186 97.8485 167.235 97.0986C166.297 96.3779 165.41 95.5944 164.579 94.7535C163.749 93.918 162.975 93.0286 162.262 92.0912C161.512 91.1378 160.867 90.1065 160.337 89.015C161.43 89.5418 162.462 90.1871 163.414 90.9394C165.285 92.3856 166.963 94.0662 168.407 95.9399C169.148 96.8965 169.784 97.9301 170.304 99.0229V99.0229Z" fill="#37474F"/>
<path d="M192.851 86.9597C193.252 88.103 193.525 89.2874 193.665 90.4911C193.814 91.6623 193.887 92.8419 193.886 94.0225C193.891 95.2055 193.817 96.3876 193.665 97.5608C193.525 98.7643 193.252 99.9487 192.851 101.092C192.456 99.9475 192.185 98.7635 192.044 97.5608C191.893 96.3874 191.817 95.2056 191.816 94.0225C191.82 92.8418 191.896 91.6625 192.044 90.4911C192.184 89.2882 192.455 88.1042 192.851 86.9597V86.9597Z" fill="#37474F"/>
<path d="M199.922 94.0225C198.779 94.4233 197.594 94.6962 196.391 94.8364C195.217 94.9855 194.035 95.0592 192.852 95.0571C191.672 95.0624 190.492 94.9887 189.321 94.8364C188.117 94.697 186.933 94.424 185.79 94.0225C186.935 93.6276 188.118 93.3547 189.321 93.2087C190.492 93.0598 191.672 92.9861 192.852 92.9879C194.035 92.9916 195.217 93.0676 196.391 93.2156C197.593 93.3567 198.777 93.6272 199.922 94.0225V94.0225Z" fill="#37474F"/>
<path d="M197.853 89.0289C197.323 90.1182 196.678 91.1472 195.928 92.0982C195.208 93.0337 194.427 93.9208 193.59 94.7536C192.756 95.5912 191.869 96.3745 190.935 97.0987C189.981 97.8487 188.95 98.4938 187.858 99.023C188.385 97.9302 189.031 96.8986 189.783 95.9469C190.507 95.0143 191.287 94.1275 192.121 93.2914C192.958 92.4563 193.847 91.6753 194.783 90.9533C195.734 90.2034 196.763 89.5582 197.853 89.0289Z" fill="#37474F"/>
<path d="M197.853 99.0229C196.763 98.4936 195.734 97.8485 194.783 97.0986C193.845 96.3762 192.956 95.5928 192.121 94.7535C191.285 93.917 190.504 93.0277 189.783 92.0912C189.031 91.1394 188.385 90.1078 187.858 89.015C188.951 89.5418 189.983 90.1871 190.935 90.9394C192.806 92.3856 194.484 94.0662 195.928 95.9399C196.679 96.8952 197.324 97.9289 197.853 99.0229V99.0229Z" fill="#37474F"/>
<path d="M220.399 86.9597C220.797 88.1039 221.07 89.288 221.213 90.4911C221.507 92.8385 221.507 95.2134 221.213 97.5608C221.073 98.7643 220.8 99.9487 220.399 101.092C220.001 99.9477 219.728 98.7638 219.585 97.5608C219.436 96.3873 219.362 95.2054 219.364 94.0225C219.368 92.8418 219.444 91.6625 219.592 90.4911C219.732 89.2882 220.003 88.1042 220.399 86.9597V86.9597Z" fill="#37474F"/>
<path d="M227.469 94.0225C226.325 94.4233 225.141 94.6962 223.938 94.8364C222.764 94.9855 221.582 95.0592 220.399 95.0571C219.218 95.0624 218.039 94.9887 216.868 94.8364C215.664 94.697 214.48 94.424 213.336 94.0225C214.482 93.6276 215.665 93.3547 216.868 93.2087C218.039 93.0598 219.219 92.9861 220.399 92.9879C221.582 92.9916 222.764 93.0676 223.938 93.2156C225.14 93.3567 226.324 93.6272 227.469 94.0225V94.0225Z" fill="#37474F"/>
<path d="M225.399 89.0289C224.87 90.1182 224.225 91.1472 223.475 92.0982C222.752 93.0338 221.969 93.9208 221.13 94.7536C220.299 95.5945 219.412 96.378 218.475 97.0987C217.524 97.8486 216.495 98.4938 215.405 99.023C215.929 97.9288 216.575 96.8969 217.33 95.9469C218.051 95.0127 218.832 94.1257 219.668 93.2914C220.504 92.458 221.391 91.6771 222.323 90.9533C223.278 90.2048 224.309 89.5598 225.399 89.0289V89.0289Z" fill="#37474F"/>
<path d="M225.399 99.023C224.309 98.4922 223.278 97.8471 222.323 97.0987C221.389 96.3745 220.502 95.5912 219.668 94.7536C218.831 93.9233 218.05 93.0385 217.33 92.1051C216.575 91.1551 215.929 90.1232 215.405 89.0289C216.496 89.5556 217.525 90.201 218.475 90.9533C219.412 91.6716 220.299 92.4528 221.13 93.2914C221.967 94.1282 222.751 95.0175 223.475 95.9538C224.225 96.9047 224.87 97.9338 225.399 99.023V99.023Z" fill="#37474F"/>
<path d="M247.947 86.9597C248.342 88.1049 248.615 89.2886 248.761 90.4911C249.055 92.8385 249.055 95.2134 248.761 97.5608C248.62 98.7643 248.347 99.9487 247.947 101.092C247.549 99.9477 247.276 98.7638 247.133 97.5608C246.834 95.2137 246.834 92.8382 247.133 90.4911C247.275 89.288 247.548 88.1039 247.947 86.9597V86.9597Z" fill="#37474F"/>
<path d="M255.017 94.0224C253.871 94.4239 252.684 94.6969 251.478 94.8363C250.307 94.9856 249.128 95.0593 247.947 95.057C246.766 95.0625 245.586 94.9888 244.416 94.8363C243.214 94.6971 242.032 94.4241 240.891 94.0224C242.036 93.6267 243.22 93.3539 244.423 93.2085C245.594 93.0595 246.773 92.9858 247.954 92.9878C249.135 92.9913 250.314 93.0673 251.485 93.2154C252.688 93.3563 253.872 93.6268 255.017 94.0224V94.0224Z" fill="#37474F"/>
<path d="M252.948 89.0289C252.419 90.1198 251.772 91.1492 251.017 92.0982C249.568 93.9675 247.891 95.6475 246.023 97.0987C245.072 97.8486 244.043 98.4938 242.954 99.023C243.478 97.9288 244.124 96.8969 244.878 95.9469C245.6 95.0127 246.381 94.1257 247.217 93.2914C248.053 92.458 248.939 91.6771 249.872 90.9533C250.825 90.2033 251.857 89.5582 252.948 89.0289V89.0289Z" fill="#37474F"/>
<path d="M252.948 99.023C251.857 98.4938 250.825 97.8487 249.872 97.0987C248.938 96.3745 248.051 95.5912 247.217 94.7536C246.38 93.9233 245.599 93.0385 244.878 92.1051C244.124 91.1551 243.478 90.1232 242.954 89.0289C244.045 89.5556 245.074 90.201 246.023 90.9533C246.96 91.6716 247.848 92.4528 248.679 93.2914C249.516 94.1265 250.297 95.0159 251.017 95.9538C251.772 96.9028 252.419 97.9321 252.948 99.023V99.023Z" fill="#37474F"/>
<path d="M275.494 86.9597C275.89 88.1042 276.161 89.2882 276.301 90.4911C276.6 92.8382 276.6 95.2137 276.301 97.5608C276.158 98.7638 275.885 99.9477 275.487 101.092C275.086 99.9487 274.814 98.7643 274.673 97.5608C274.379 95.2134 274.379 92.8385 274.673 90.4911C274.822 89.2883 275.097 88.1046 275.494 86.9597V86.9597Z" fill="#37474F"/>
<path d="M282.556 94.0224C281.413 94.4247 280.229 94.6976 279.025 94.8363C277.854 94.9854 276.674 95.0591 275.494 95.057C274.313 95.0628 273.133 94.989 271.962 94.8363C270.756 94.6969 269.569 94.4239 268.424 94.0224C269.571 93.6274 270.757 93.3546 271.962 93.2086C273.133 93.0593 274.313 92.9856 275.494 92.9878C276.674 92.9915 277.854 93.0675 279.025 93.2155C280.228 93.3551 281.412 93.6256 282.556 94.0224V94.0224Z" fill="#37474F"/>
<path d="M280.488 89.0289C279.964 90.1211 279.318 91.1506 278.563 92.0982C277.845 93.0353 277.064 93.9225 276.225 94.7536C275.391 95.5912 274.504 96.3745 273.57 97.0987C272.618 97.8471 271.589 98.4922 270.5 99.023C271.025 97.9304 271.668 96.8988 272.418 95.9469C273.869 94.0795 275.549 92.4019 277.418 90.9533C278.37 90.2049 279.399 89.5598 280.488 89.0289V89.0289Z" fill="#37474F"/>
<path d="M280.488 99.023C279.399 98.4922 278.37 97.8471 277.418 97.0987C275.553 95.6452 273.874 93.9681 272.418 92.1051C271.668 91.1532 271.025 90.1216 270.5 89.0289C271.59 89.5573 272.619 90.2025 273.57 90.9533C274.504 91.6751 275.391 92.4561 276.225 93.2914C277.062 94.1265 277.843 95.0159 278.563 95.9538C279.318 96.9013 279.964 97.9309 280.488 99.023V99.023Z" fill="#37474F"/>
<path d="M256.387 87.7874V125.35H245.773V87.7874C245.773 73.5032 234.923 61.8882 221.577 61.8882C208.231 61.8882 197.381 73.5032 197.381 87.7874V125.35H186.767V87.7874C186.767 67.3301 202.382 50.7078 221.577 50.7078C240.772 50.7078 256.387 67.3301 256.387 87.7874Z" fill="#455A64"/>
<path d="M186.767 97.5538L197.381 97.9815V125.35H186.767V97.5538Z" fill="#263238"/>
<path d="M256.388 100.389V125.35H245.773V99.9541L256.388 100.389Z" fill="#263238"/>
<path d="M269.996 103.961H173.166V191.812H269.996V103.961Z" fill="#219EBC"/>
<path opacity="0.1" d="M269.99 103.961H221.578V191.812H269.99V103.961Z" fill="black"/>
<path d="M225.674 151.104L229.723 170.327H212.521L216.577 151.104C214.991 150.116 213.77 148.638 213.099 146.894C212.427 145.15 212.342 143.235 212.856 141.439C213.37 139.642 214.455 138.062 215.947 136.937C217.439 135.812 219.257 135.204 221.125 135.204C222.994 135.204 224.812 135.812 226.304 136.937C227.796 138.062 228.881 139.642 229.394 141.439C229.908 143.235 229.823 145.15 229.152 146.894C228.481 148.638 227.26 150.116 225.674 151.104Z" fill="#263238"/>
<path d="M111.972 218.967L113.582 210.722L209.897 229.531C210.777 229.703 211.552 230.217 212.053 230.961C212.553 231.704 212.738 232.616 212.566 233.496L212.252 235.107C212.08 235.987 211.566 236.762 210.822 237.263C210.079 237.763 209.167 237.948 208.287 237.776L111.972 218.967V218.967Z" fill="#219EBC"/>
<path opacity="0.1" d="M113.575 210.713L111.963 218.965L123.593 221.236L125.205 212.984L113.575 210.713Z" fill="black"/>
<path d="M76.737 200.199L73.9023 214.862C73.4227 217.321 73.4319 219.849 73.9296 222.304C74.4272 224.758 75.4034 227.091 76.8025 229.168C78.2016 231.246 79.9962 233.027 82.0838 234.411C84.1714 235.795 86.5111 236.754 88.9693 237.234C91.4275 237.713 93.9562 237.704 96.4108 237.206C98.8654 236.709 101.198 235.732 103.275 234.333C105.353 232.934 107.134 231.14 108.518 229.052C109.902 226.964 110.861 224.625 111.341 222.166L114.196 207.537C115.169 202.57 114.129 197.42 111.305 193.219C108.481 189.018 104.103 186.112 99.1358 185.139C94.1685 184.165 89.018 185.205 84.8174 188.03C80.6168 190.854 77.7102 195.231 76.737 200.199ZM108.182 203.861C107.333 208.213 103.533 211.352 98.8358 212.103C102.905 214.58 105.25 218.904 104.395 223.256C103.264 229.078 96.8425 232.733 90.0625 231.409C83.2825 230.085 78.7234 224.284 79.8615 218.47C80.7098 214.117 84.5102 210.979 89.2141 210.193C85.1379 207.731 82.7997 203.392 83.6481 199.04C84.7861 193.212 91.1937 189.57 97.9667 190.894C104.74 192.219 109.347 198.04 108.209 203.861H108.182Z" fill="#219EBC"/>
<path d="M114.298 206.997L111.235 222.682C111.07 223.526 111.621 224.345 112.466 224.51L113.211 224.656C114.056 224.821 114.875 224.269 115.04 223.424L118.103 207.74C118.268 206.895 117.716 206.076 116.872 205.911L116.127 205.766C115.282 205.601 114.463 206.152 114.298 206.997Z" fill="#219EBC"/>
<path d="M118.102 207.741L115.039 223.426C114.874 224.271 115.426 225.09 116.271 225.255L117.015 225.4C117.86 225.565 118.679 225.014 118.844 224.169L121.907 208.484C122.072 207.639 121.521 206.821 120.676 206.656L119.931 206.51C119.086 206.345 118.267 206.896 118.102 207.741Z" fill="#219EBC"/>
<path d="M186.879 221.497L189.748 222.056L191.369 213.724L193.824 214.2L192.976 218.545L195.838 219.104L196.687 214.759L198.859 215.18L197.514 222.049L200.384 222.615L201.728 215.745L204.805 216.345L203.018 225.519L205.888 226.077L207.681 216.904L210.591 217.476L208.302 229.202L182.671 224.194L184.954 212.469L188.5 213.159L186.879 221.497Z" fill="#219EBC"/>
<path d="M285.723 178.548L266.928 193.722C263.32 196.605 260.21 199.199 258.727 200.695C258.344 201.01 258.035 201.406 257.823 201.854C257.823 201.854 257.823 201.854 257.823 201.895C257.954 203.544 280.163 233.043 281.274 233.809C282.384 234.575 284.674 231.443 284.723 229.615C284.771 227.788 281.322 212.683 281.322 212.683L299.945 197.329L285.723 178.548Z" fill="#C95F50"/>
<path d="M270.763 190.625L266.907 193.736C263.3 196.619 260.189 199.212 258.706 200.709C258.36 201.058 258.057 201.447 257.803 201.868C257.803 201.868 257.803 201.868 257.803 201.909C257.934 203.558 280.143 233.057 281.253 233.823C282.364 234.588 284.654 231.457 284.702 229.629C284.75 227.801 281.302 212.696 281.302 212.696L285.261 209.586L270.763 190.625Z" fill="#EBEBEB"/>
<path d="M281.233 233.843C280.108 233.078 257.906 203.585 257.782 201.923C257.72 201.295 261.831 197.785 266.914 193.743L267.079 193.612L281.584 212.483L281.26 212.717C281.26 212.717 284.709 227.808 284.661 229.65C284.612 231.492 282.35 234.616 281.233 233.843Z" fill="#219EBC"/>
<path d="M282.122 232.65C278.501 227.588 263.424 207.51 259.458 202.778C259.458 202.737 259.403 202.778 259.458 202.778C262.907 207.875 278.177 227.836 282.074 232.692C282.129 232.795 282.205 232.795 282.122 232.65Z" fill="#263238"/>
<path d="M282.425 214.359C281.315 212.131 279.218 209.958 276.694 209.531C276.597 209.531 276.577 209.648 276.646 209.703C278.653 211.11 280.502 212.729 282.163 214.531C282.189 214.559 282.223 214.578 282.261 214.583C282.299 214.587 282.337 214.579 282.369 214.558C282.4 214.537 282.424 214.505 282.434 214.469C282.444 214.432 282.441 214.393 282.425 214.359V214.359Z" fill="#263238"/>
<path d="M282.639 216.414C281.529 214.179 279.425 212.014 276.907 211.586C276.811 211.586 276.79 211.71 276.852 211.758C278.859 213.166 280.709 214.785 282.37 216.587C282.381 216.604 282.396 216.619 282.413 216.631C282.43 216.643 282.45 216.652 282.47 216.656C282.491 216.661 282.512 216.661 282.533 216.658C282.553 216.654 282.573 216.646 282.591 216.635C282.608 216.624 282.624 216.609 282.636 216.592C282.648 216.574 282.656 216.555 282.661 216.534C282.665 216.514 282.665 216.493 282.662 216.472C282.658 216.452 282.65 216.432 282.639 216.414Z" fill="#263238"/>
<path d="M282.847 218.463C281.743 216.235 279.639 214.069 277.122 213.635C277.025 213.635 276.998 213.759 277.067 213.807C279.072 215.216 280.922 216.834 282.584 218.635C282.596 218.652 282.61 218.667 282.627 218.679C282.644 218.69 282.664 218.698 282.684 218.702C282.704 218.707 282.725 218.707 282.745 218.703C282.765 218.699 282.784 218.691 282.802 218.68C282.819 218.669 282.834 218.654 282.845 218.637C282.857 218.62 282.865 218.601 282.869 218.581C282.873 218.56 282.873 218.54 282.87 218.519C282.866 218.499 282.858 218.48 282.847 218.463V218.463Z" fill="#263238"/>
<path d="M295.862 160.464C294.53 167.037 267.266 193.253 267.266 193.253L286.274 215.193C286.274 215.193 324.982 176.569 322.961 162.036C321.202 149.407 302.269 98.6229 302.269 98.6229H280.488C280.488 98.6229 297.165 154.001 295.862 160.464Z" fill="#37474F"/>
<path d="M295.862 160.464C294.53 167.037 267.266 193.253 267.266 193.253L286.274 215.193C286.274 215.193 324.982 176.569 322.961 162.036C321.202 149.407 302.269 98.6229 302.269 98.6229H280.488C280.488 98.6229 297.165 154.001 295.862 160.464Z" fill="#37474F"/>
<path d="M288.433 209.979C285.909 206.834 286.681 207.703 284.122 204.585C282.867 203.061 274.625 193.053 273.204 191.832C273.204 191.832 273.121 191.832 273.142 191.887C274.094 193.495 282.508 203.358 283.791 204.861C286.412 207.924 285.695 207.02 288.344 210.055C288.399 210.11 288.481 210.034 288.433 209.979Z" fill="#263238"/>
<path d="M298.572 157.263C298.254 155.622 297.882 153.987 297.558 152.353C296.845 149.014 296.093 145.687 295.302 142.372C293.73 135.792 292.022 129.249 290.178 122.743C288.322 116.218 286.357 109.7 284.087 103.299C283.812 102.506 283.522 101.72 283.232 100.934C283.232 100.921 283.227 100.908 283.218 100.899C283.209 100.89 283.197 100.885 283.184 100.885C283.171 100.885 283.159 100.89 283.15 100.899C283.141 100.908 283.136 100.921 283.136 100.934C285.101 107.348 287.122 113.742 288.957 120.184C290.792 126.626 292.481 133.068 294.082 139.551C294.882 142.807 295.627 146.076 296.358 149.345C296.716 150.952 297.047 152.566 297.406 154.173C297.832 155.809 298.138 157.473 298.323 159.153C298.373 160.745 297.925 162.312 297.04 163.636C296.22 164.974 295.261 166.23 294.33 167.492C292.468 170.016 274.714 189.805 274.142 190.343C274.093 190.384 274.142 190.446 274.211 190.405C276.59 188.267 291.654 171.961 293.564 169.437C294.516 168.189 295.433 166.926 296.323 165.644C297.229 164.486 297.959 163.2 298.489 161.829C298.908 160.34 298.936 158.767 298.572 157.263V157.263Z" fill="#263238"/>
<path d="M298.524 98.6229L294.565 150.594C290.785 132.806 280.488 98.6229 280.488 98.6229H298.524Z" fill="#263238"/>
<path d="M334.335 241.879C333.045 242.293 296.124 241.72 294.738 240.81C294.513 240.369 294.39 239.883 294.379 239.389C294.376 239.375 294.376 239.361 294.379 239.347C294.11 237.278 293.979 233.223 293.91 228.602L293.096 224.608H316.761L317.685 228.898C317.685 228.898 331.721 235.444 333.149 236.609C334.576 237.775 335.638 241.472 334.335 241.879Z" fill="#EBEBEB"/>
<path d="M334.334 241.879C333.038 242.293 296.123 241.72 294.737 240.81C294.199 240.472 293.972 235.085 293.882 228.574V228.367L317.698 228.471V228.877C317.698 228.877 331.727 235.416 333.148 236.582C334.569 237.747 335.631 241.472 334.334 241.879Z" fill="#219EBC"/>
<path d="M333.941 240.444C327.733 240.196 302.607 239.754 296.441 240.003C296.392 240.003 296.392 240.037 296.441 240.044C302.6 240.423 327.713 240.637 333.941 240.548C334.072 240.541 334.072 240.451 333.941 240.444Z" fill="#263238"/>
<path d="M319.685 228.981C317.244 228.484 314.243 228.815 312.34 230.533C312.271 230.595 312.34 230.698 312.443 230.678C314.796 229.96 317.22 229.497 319.672 229.298C319.692 229.299 319.713 229.296 319.733 229.289C319.752 229.282 319.77 229.271 319.786 229.257C319.801 229.243 319.814 229.226 319.822 229.207C319.831 229.188 319.836 229.167 319.837 229.146C319.838 229.126 319.835 229.105 319.828 229.085C319.82 229.066 319.81 229.048 319.796 229.032C319.781 229.017 319.764 229.004 319.746 228.996C319.727 228.987 319.706 228.982 319.685 228.981V228.981Z" fill="#263238"/>
<path d="M321.43 230.071C318.996 229.574 315.988 229.905 314.092 231.623C314.023 231.692 314.092 231.795 314.195 231.767C316.546 231.05 318.967 230.587 321.417 230.388C321.459 230.39 321.5 230.375 321.531 230.346C321.562 230.318 321.58 230.278 321.582 230.236C321.584 230.194 321.569 230.153 321.541 230.122C321.512 230.091 321.472 230.072 321.43 230.071V230.071Z" fill="#263238"/>
<path d="M323.181 231.167C320.739 230.671 317.739 231.002 315.842 232.712C315.766 232.781 315.842 232.885 315.946 232.864C318.297 232.15 320.718 231.688 323.167 231.485C323.188 231.486 323.209 231.482 323.228 231.475C323.248 231.468 323.266 231.457 323.281 231.443C323.297 231.429 323.309 231.412 323.318 231.393C323.327 231.374 323.332 231.354 323.333 231.333C323.334 231.312 323.33 231.291 323.323 231.272C323.316 231.252 323.305 231.234 323.291 231.219C323.277 231.203 323.26 231.191 323.241 231.182C323.222 231.173 323.202 231.168 323.181 231.167V231.167Z" fill="#263238"/>
<path d="M300.206 98.623C299.357 102.209 298.731 105.844 298.33 109.507C297.882 114.073 297.31 118.115 296.703 118.618C296.096 119.122 292.564 121.377 291.406 122.067C291.406 122.067 302.151 154.649 304.924 165.519C308.945 181.259 318.574 228.498 318.574 228.498H292.916C292.916 228.498 285.115 183.535 281.701 168.54C278.777 155.691 267.576 117.142 267.576 117.142C266.394 114.17 265.863 110.979 266.019 107.785C266.175 104.59 267.014 101.466 268.479 98.623C268.479 98.623 300.206 98.6092 300.206 98.623Z" fill="#37474F"/>
<path d="M317.637 223.532C313.602 223.532 314.76 223.463 310.739 223.484C308.767 223.484 295.8 223.58 293.965 223.918C293.954 223.918 293.944 223.923 293.936 223.931C293.928 223.938 293.924 223.949 293.924 223.96C293.924 223.971 293.928 223.981 293.936 223.989C293.944 223.997 293.954 224.001 293.965 224.001C295.814 224.277 308.774 223.96 310.746 223.911C314.781 223.808 313.622 223.794 317.643 223.649C317.655 223.644 317.666 223.636 317.672 223.625C317.679 223.614 317.683 223.601 317.682 223.588C317.681 223.575 317.676 223.563 317.668 223.553C317.66 223.543 317.649 223.536 317.637 223.532V223.532Z" fill="#263238"/>
<path d="M298.503 117.328C296.012 118.7 293.644 120.285 291.427 122.067C291.413 122.081 291.405 122.1 291.404 122.12C291.402 122.14 291.407 122.16 291.418 122.177C291.429 122.194 291.446 122.206 291.465 122.212C291.484 122.219 291.504 122.218 291.523 122.211C293.924 120.708 296.351 119.246 298.69 117.611C298.718 117.583 298.736 117.546 298.741 117.506C298.745 117.466 298.735 117.426 298.713 117.393C298.691 117.359 298.658 117.335 298.62 117.323C298.582 117.311 298.54 117.313 298.503 117.328Z" fill="#263238"/>
<path d="M296.545 99.6023C296.545 99.5126 296.365 99.5195 296.379 99.6023C296.826 102.471 297.127 105.36 297.283 108.258C297.372 109.596 297.441 117.08 295.062 116.901C294.662 116.901 294.372 116.528 294.255 115.956C294.148 115.197 294.134 114.428 294.213 113.666C294.213 112.093 294.213 110.528 294.089 108.955C293.906 106.051 293.425 103.174 292.655 100.368C292.655 100.348 292.647 100.328 292.632 100.314C292.618 100.3 292.599 100.292 292.579 100.292C292.559 100.292 292.539 100.3 292.525 100.314C292.511 100.328 292.503 100.348 292.503 100.368C293.192 104.352 293.579 108.382 293.662 112.424C293.662 114.376 293.158 117.39 295.193 117.37C297.228 117.349 297.835 112.348 297.876 111.003C297.928 107.161 297.48 103.329 296.545 99.6023V99.6023Z" fill="#263238"/>
<path d="M295.152 117.108C295.025 117.632 294.933 118.164 294.876 118.701C294.8 119.125 294.8 119.559 294.876 119.984C294.882 120 294.894 120.014 294.909 120.024C294.923 120.034 294.941 120.039 294.958 120.039C294.976 120.039 294.993 120.034 295.008 120.024C295.023 120.014 295.034 120 295.041 119.984C295.226 119.573 295.342 119.135 295.386 118.687C295.49 118.19 295.6 117.701 295.69 117.197C295.701 117.126 295.685 117.053 295.642 116.994C295.6 116.935 295.537 116.895 295.465 116.883C295.394 116.871 295.321 116.888 295.262 116.93C295.203 116.972 295.163 117.036 295.152 117.108V117.108Z" fill="#263238"/>
<path d="M271.24 116.977C273.45 116.854 275.634 116.441 277.737 115.749C280.124 114.986 282.289 113.65 284.041 111.859C285.033 110.874 285.851 109.729 286.462 108.472C286.462 108.424 286.559 108.472 286.545 108.514C286.17 109.731 285.592 110.876 284.834 111.9C284.051 112.914 283.121 113.807 282.075 114.549C280.006 116.066 277.571 117.006 275.019 117.273C273.761 117.469 272.478 117.45 271.226 117.218C271.026 117.19 271.081 116.99 271.24 116.977Z" fill="#263238"/>
<path d="M289.915 209.393C289.853 208.799 289.77 208.206 289.688 207.613C289.529 206.482 289.336 205.344 289.157 204.213C288.812 201.93 288.419 199.654 288.012 197.385C287.212 192.853 286.28 188.335 285.301 183.838C284.742 181.3 284.101 178.79 283.418 176.251C283.377 176.072 283.128 176.162 283.156 176.327C283.57 178.631 283.97 180.928 284.439 183.224C284.908 185.521 285.377 187.784 285.818 190.067C286.715 194.577 287.549 199.109 288.446 203.62C288.694 204.896 288.929 206.172 289.177 207.448C289.301 208.082 289.426 208.724 289.563 209.351C289.701 209.979 289.895 210.607 289.998 211.241C289.998 211.303 290.101 211.276 290.095 211.241C289.998 210.627 289.991 210.034 289.915 209.393Z" fill="#263238"/>
<path d="M307.615 175.3C306.759 171.044 305.607 166.844 304.449 162.657C302.117 154.242 299.372 145.945 296.634 137.647C295.843 135.261 295.052 132.872 294.262 130.481C293.868 129.288 291.937 122.839 291.696 122.205C291.692 122.194 291.685 122.185 291.676 122.178C291.666 122.172 291.655 122.169 291.644 122.169C291.633 122.169 291.622 122.172 291.613 122.178C291.603 122.185 291.596 122.194 291.592 122.205C292.151 124.398 292.91 127.598 293.551 129.792C294.193 131.985 294.875 134.075 295.544 136.206C296.855 140.406 298.186 144.607 299.455 148.814C301.973 157.139 304.469 165.464 306.511 173.92C307.084 176.293 307.656 178.659 308.173 181.038C308.691 183.418 309.146 185.804 309.642 188.184C309.642 188.253 309.767 188.232 309.76 188.184C309.332 183.866 308.484 179.576 307.615 175.3Z" fill="#263238"/>
<path d="M291.662 197.571C290.248 189.453 288.558 181.376 286.682 173.348C284.806 165.319 282.702 157.263 280.392 149.311C278.081 141.358 275.522 133.447 272.805 125.653C271.42 121.976 270.257 118.22 269.321 114.404C268.473 110.61 268.045 106.506 268.928 102.679C269.144 101.707 269.437 100.755 269.804 99.83C269.804 99.7679 269.735 99.7127 269.708 99.7748C266.625 106.969 268.625 114.831 270.977 121.922C272.26 125.805 273.632 129.661 274.908 133.551C276.184 137.441 277.453 141.551 278.653 145.579C281.019 153.56 283.219 161.588 285.185 169.671C287.151 177.755 288.91 185.894 290.455 194.074C292 202.254 293.303 210.524 294.627 218.766C294.8 219.842 294.931 220.918 295.076 221.994C295.076 222.056 295.172 222.056 295.165 221.994C294.145 213.821 293.069 205.682 291.662 197.571Z" fill="#263238"/>
<path d="M291.137 64.5574C294.158 75.593 302.862 88.9047 307 90.767C310.601 92.3671 327.306 86.1872 333.61 82.173C335.403 81.028 327.989 70.7029 325.83 71.4202C318.774 73.7721 311.097 77.2484 310.504 77.0483C309.304 76.6414 301.814 67.4543 296.358 61.2743C290.24 54.3288 289.936 60.1639 291.137 64.5574Z" fill="#C95F50"/>
<path d="M345.523 72.8134C346.944 72.2203 357.876 71.8754 357.876 69.5028C357.876 67.1301 343.957 67.7922 343.957 67.7922L345.523 72.8134Z" fill="#C95F50"/>
<path d="M324.554 73.0892C326.464 70.7166 328.147 68.1577 329.809 67.6887C330.954 67.3645 343.335 67.8956 345.266 67.7783C347.197 67.6611 354.102 67.8404 354.233 69.5371C354.46 71.9305 346.294 71.9098 345.425 73.1375C342.411 77.3655 330.941 83.6213 330.941 83.6213L324.554 73.0892Z" fill="#C95F50"/>
<path d="M354.447 69.5717C354.321 69.1312 354.039 68.7514 353.654 68.5026C352.75 68.008 351.732 67.7583 350.702 67.7784C349.193 67.6428 347.675 67.6312 346.164 67.7439C346.164 67.7439 346.164 67.7922 346.164 67.7991C347.302 67.7991 348.426 67.7991 349.557 67.9232C350.595 67.9619 351.624 68.1193 352.626 68.3922C353.076 68.508 353.484 68.7469 353.806 69.082C353.917 69.208 353.993 69.3606 354.028 69.5248C354.063 69.6891 354.056 69.8596 354.006 70.02C353.682 71.0615 351.619 71.3994 350.667 71.5857C349.426 71.8616 348.136 72.103 346.888 72.3582C346.833 72.3582 346.888 72.4547 346.888 72.4409C348.184 72.1857 349.55 72.0892 350.854 71.8547C351.942 71.7484 352.986 71.3688 353.888 70.7511C354.085 70.6287 354.242 70.4525 354.341 70.2434C354.44 70.0343 354.477 69.8011 354.447 69.5717Z" fill="#263238"/>
<path d="M324.078 71.6271L333.872 85.9664C333.872 85.9664 318.698 93.5534 312.891 93.4362C307.373 93.3051 305.366 92.4912 303.621 90.8428C302.538 89.822 296.392 81.1384 291.378 66.7024C287.171 54.6047 293.399 56.3566 298.965 63.0883C301.724 66.4265 310.58 76.3793 311.021 76.3448C311.463 76.3103 324.078 71.6271 324.078 71.6271Z" fill="#219EBC"/>
<path d="M321.064 73.9584C322.533 76.0827 323.94 78.2485 325.326 80.428C326.016 81.4902 328.554 85.8354 329.292 87.0701C329.292 87.1183 329.189 87.2011 329.154 87.1528C328.389 86.063 325.623 81.7247 324.954 80.6487C323.575 78.4485 322.271 76.2414 321.002 73.9998C320.999 73.9957 320.997 73.9911 320.996 73.9863C320.995 73.9815 320.995 73.9766 320.996 73.9718C320.997 73.967 320.999 73.9624 321.002 73.9583C321.005 73.9542 321.008 73.9508 321.012 73.948C321.016 73.9453 321.021 73.9434 321.026 73.9425C321.03 73.9415 321.035 73.9415 321.04 73.9425C321.045 73.9435 321.05 73.9454 321.054 73.9481C321.058 73.9508 321.061 73.9543 321.064 73.9584Z" fill="#263238"/>
<path opacity="0.1" d="M315.829 93.0705C314.867 93.3071 313.881 93.4298 312.89 93.4361C307.373 93.3051 305.366 92.4912 303.621 90.8427C302.545 89.8219 296.392 81.1452 291.385 66.7024C290.598 64.7029 290.132 62.5915 290.005 60.4466C290.005 60.3155 290.005 60.1776 290.005 60.0534C289.998 59.9317 289.998 59.8096 290.005 59.6879C290.016 59.5883 290.033 59.4893 290.054 59.3913C290.124 58.9411 290.337 58.5254 290.661 58.205C294.089 62.7985 310.159 84.5042 315.829 93.0705Z" fill="black"/>
<path d="M351.784 65.7437H314.649V67.737H351.784V65.7437Z" fill="#C7C7C7"/>
<path d="M351.784 65.7437V67.737H329.23L330.754 65.7437H351.784Z" fill="#A6A6A6"/>
<path d="M332.396 67.737H357.233L370.158 45.7899H345.321L332.396 67.737Z" fill="#C7C7C7"/>
<path d="M350.351 56.7497C349.889 57.7636 350.227 58.8189 351.11 59.1361C351.604 59.2503 352.122 59.1828 352.571 58.946C353.019 58.7091 353.367 58.3188 353.551 57.8464C354.013 56.8325 353.675 55.7772 352.792 55.4599C352.298 55.3472 351.78 55.4154 351.332 55.652C350.884 55.8887 350.536 56.2781 350.351 56.7497V56.7497Z" fill="white"/>
<path d="M266.086 106.182C266.175 106.279 304.965 106.003 305.317 105.603C305.8 105.037 296.613 63.1021 292.578 57.9498C291.716 56.8463 288.902 56.5704 286.515 56.8876C285.893 56.9649 285.279 57.0965 284.681 57.2808H284.618C284.134 57.4322 283.679 57.6654 283.274 57.9705C276.687 63.3435 271.286 81.9384 270.038 87.5183C267.969 96.7192 265.761 105.817 266.086 106.182Z" fill="#EBEBEB"/>
<path d="M284.205 57.3773C284.205 57.3773 286.736 74.6204 287.336 79.1174C287.937 83.6145 287.336 107.224 287.336 107.224L262.996 109.293C262.996 109.293 268.1 93.5948 268.148 92.6016C268.148 92.6016 272.183 73.7376 276.349 65.9506C278.21 62.481 280.911 59.5334 284.205 57.3773V57.3773Z" fill="#219EBC"/>
<path d="M292.309 57.6808C292.309 57.6808 295.599 75.1446 295.888 76.5861C296.178 78.0277 300.392 106.41 300.392 106.41L306.482 106.541L303.179 93.5741C303.179 93.5741 296.109 60.3638 292.309 57.6808Z" fill="#219EBC"/>
<path d="M290.937 63.2606C289.088 63.4745 285.584 60.9018 284.605 58.1774C284.543 57.9843 285.095 56.2117 285.66 54.039C285.998 52.7079 286.35 51.2249 286.564 49.8455C286.605 49.5627 294.882 53.2941 294.882 53.2941C294.114 54.9386 293.551 56.6713 293.206 58.4533C293.189 58.646 293.189 58.8399 293.206 59.0326V59.1292C293.178 60.2397 292.923 63.0399 290.937 63.2606Z" fill="#C95F50"/>
<path d="M293.178 59.0465C293.181 59.0786 293.181 59.111 293.178 59.1431C292.88 59.1323 292.582 59.1001 292.288 59.0465C287.219 58.1292 286.881 51.5423 286.874 49.887C288.378 50.3491 294.889 53.3356 294.889 53.3356C294.121 54.9826 293.558 56.7176 293.213 58.5016C293.189 58.6823 293.177 58.8643 293.178 59.0465V59.0465Z" fill="#263238"/>
<path d="M286.66 38.8445C285.329 41.8103 285.839 50.9146 287.777 53.17C290.591 56.4462 295.757 57.3774 298.682 53.8598C301.517 50.4594 300.648 38.6031 298.427 36.4925C295.157 33.3887 288.619 34.4716 286.66 38.8445Z" fill="#C95F50"/>
<path d="M293.365 45.2933C293.365 45.2933 293.316 45.2933 293.323 45.3485C293.371 45.9624 293.323 46.6659 292.785 46.9004C292.785 46.9004 292.785 46.9418 292.785 46.9349C293.461 46.8038 293.509 45.8796 293.365 45.2933Z" fill="#263238"/>
<path d="M292.786 44.6796C291.8 44.6796 291.821 46.6384 292.738 46.6591C293.655 46.6798 293.614 44.7003 292.786 44.6796Z" fill="#263238"/>
<path d="M297.144 45.2589C297.144 45.2589 297.192 45.2934 297.192 45.3141C297.192 45.9279 297.268 46.6384 297.827 46.8315C297.827 46.8315 297.827 46.8729 297.827 46.866C297.144 46.7832 297.034 45.8797 297.144 45.2589Z" fill="#263238"/>
<path d="M297.682 44.6175C298.669 44.5278 298.772 46.5073 297.855 46.5901C296.938 46.6728 296.855 44.6864 297.682 44.6175Z" fill="#263238"/>
<path d="M291.992 43.8104C292.261 43.7345 292.496 43.6242 292.758 43.5276C293.041 43.4682 293.296 43.3151 293.482 43.0931C293.527 43.0131 293.544 42.9207 293.532 42.8298C293.52 42.7389 293.478 42.6545 293.413 42.5896C293.261 42.4812 293.084 42.4151 292.898 42.3982C292.713 42.3812 292.526 42.4139 292.358 42.493C291.992 42.6062 291.682 42.8523 291.489 43.1828C291.453 43.2586 291.44 43.3429 291.449 43.4261C291.459 43.5093 291.492 43.588 291.545 43.6533C291.597 43.7187 291.667 43.768 291.746 43.7958C291.825 43.8235 291.91 43.8286 291.992 43.8104V43.8104Z" fill="#263238"/>
<path d="M298.442 42.9484C298.174 42.8978 297.909 42.8334 297.649 42.7552C297.362 42.7235 297.094 42.6001 296.883 42.4035C296.826 42.3291 296.796 42.2382 296.796 42.1448C296.796 42.0514 296.826 41.9606 296.883 41.8862C297.022 41.7639 297.191 41.6805 297.373 41.6441C297.554 41.6078 297.742 41.6199 297.918 41.6793C298.29 41.7487 298.624 41.9524 298.856 42.2517C298.903 42.3222 298.929 42.4046 298.932 42.4894C298.934 42.5742 298.912 42.658 298.869 42.731C298.826 42.8039 298.763 42.8631 298.687 42.9016C298.611 42.9401 298.526 42.9563 298.442 42.9484V42.9484Z" fill="#263238"/>
<path d="M293.164 50.9698C293.309 51.1148 293.461 51.308 293.682 51.3287C293.921 51.3252 294.157 51.2686 294.372 51.1631C294.372 51.1631 294.406 51.1631 294.372 51.1976C294.284 51.3186 294.165 51.4139 294.028 51.4734C293.891 51.5329 293.74 51.5544 293.592 51.5358C293.467 51.5058 293.353 51.4393 293.266 51.3447C293.179 51.25 293.122 51.1316 293.102 51.0043C293.095 50.9629 293.136 50.9491 293.164 50.9698Z" fill="#263238"/>
<path d="M293.785 49.1282C293.94 49.3666 294.143 49.5705 294.38 49.7271C294.618 49.8838 294.885 49.9898 295.165 50.0386C295.414 50.0765 295.667 50.0765 295.917 50.0386C295.965 50.0458 296.013 50.0458 296.061 50.0386H296.193C296.226 50.0326 296.256 50.0158 296.278 49.9909C296.301 49.9659 296.314 49.9342 296.317 49.9007V49.9007C296.32 49.8801 296.32 49.8592 296.317 49.8386V49.8386V49.7834C296.317 49.3075 296.268 48.5902 296.268 48.5902C296.441 48.673 297.331 49.0592 297.31 48.8109C297.229 46.6807 296.933 44.564 296.427 42.493C296.427 42.4784 296.421 42.4644 296.411 42.454C296.401 42.4437 296.387 42.4379 296.372 42.4379C296.357 42.4379 296.343 42.4437 296.333 42.454C296.322 42.4644 296.317 42.4784 296.317 42.493C296.379 44.4588 296.786 46.4038 296.882 48.3833C296.566 48.2409 296.232 48.1434 295.889 48.0936C295.82 48.0936 296.02 49.4731 295.999 49.6938C295.613 49.7383 295.221 49.7044 294.848 49.5942C294.475 49.484 294.127 49.2997 293.827 49.0523C293.799 49.0385 293.751 49.0799 293.785 49.1282Z" fill="#263238"/>
<path d="M295.662 49.8318C295.405 50.1694 295.069 50.4374 294.682 50.6111C294.463 50.6979 294.222 50.7148 293.992 50.6594C293.503 50.5353 293.489 50.087 293.572 49.7007C293.619 49.4952 293.691 49.2961 293.786 49.1075C294.318 49.5426 294.975 49.7963 295.662 49.8318Z" fill="#263238"/>
<path d="M294.691 50.6118C294.471 50.6986 294.23 50.7155 294.001 50.6601C293.511 50.5358 293.497 50.0872 293.58 49.7007C293.84 49.7067 294.091 49.7997 294.292 49.9648C294.493 50.1299 294.634 50.3577 294.691 50.6118V50.6118Z" fill="#FF9BBC"/>
<path d="M285.903 46.7142C285.903 46.7142 283.703 41.2516 284.454 38.4375C284.792 37.1616 286.703 36.5753 286.703 36.5753C286.651 36.0266 286.753 35.4744 286.997 34.98C287.24 34.4857 287.616 34.0685 288.082 33.775C289.855 32.5749 293.524 33.506 293.524 33.506C293.524 33.506 296.504 30.416 299.69 32.3542C302.877 34.2923 300.021 37.7961 300.021 37.7961C300.021 37.7961 300.987 39.7756 297.697 40.6654C294.407 41.5551 288.634 39.21 288.634 39.21C288.573 41.3509 288.194 43.4709 287.51 45.5003C287.378 45.8296 287.158 46.1167 286.875 46.3306C286.592 46.5444 286.256 46.6771 285.903 46.7142V46.7142Z" fill="#263238"/>
<path d="M294.131 33.637C293.417 33.2051 292.625 32.9212 291.799 32.8024C291.066 32.6817 290.318 32.6817 289.585 32.8024C288.931 32.8797 288.31 33.1327 287.787 33.5347C287.265 33.9366 286.862 34.4725 286.619 35.0854C286.515 35.4079 286.477 35.7481 286.506 36.0858C286.536 36.4234 286.633 36.7517 286.792 37.0511C286.792 37.0511 286.84 37.0511 286.826 37.0511C286.199 35.9407 286.826 34.4923 287.806 33.8094C288.947 33.1051 290.305 32.8403 291.627 33.0645C292.475 33.1934 293.304 33.425 294.096 33.7542C294.104 33.7565 294.112 33.7572 294.12 33.7564C294.128 33.7555 294.136 33.7531 294.143 33.7493C294.15 33.7454 294.156 33.7402 294.161 33.734C294.166 33.7277 294.17 33.7206 294.172 33.7129C294.174 33.7052 294.175 33.6971 294.174 33.6891C294.173 33.6811 294.171 33.6734 294.167 33.6664C294.163 33.6593 294.158 33.6531 294.152 33.6481C294.145 33.643 294.138 33.6393 294.131 33.637V33.637Z" fill="#263238"/>
<path d="M301.883 34.3819C301.801 33.9036 301.601 33.4533 301.301 33.0716C301.001 32.6899 300.611 32.3888 300.166 32.1955C299.16 31.6958 298.016 31.55 296.917 31.7817C295.813 32.0174 294.791 32.5436 293.958 33.306C293.958 33.306 293.958 33.3542 293.958 33.306C294.705 32.6361 295.619 32.18 296.603 31.9858C297.588 31.7916 298.606 31.8664 299.552 32.2024C299.992 32.3208 300.396 32.5464 300.728 32.8591C301.059 33.1717 301.309 33.5618 301.453 33.9942C301.597 34.4267 301.632 34.8882 301.554 35.3374C301.476 35.7866 301.288 36.2095 301.007 36.5684C300.346 37.4099 299.462 38.0482 298.455 38.4099C298.455 38.4099 298.455 38.4582 298.455 38.4444C299.398 38.1592 300.254 37.6423 300.945 36.9408C301.274 36.6053 301.528 36.2036 301.689 35.7624C301.851 35.3212 301.917 34.8506 301.883 34.3819V34.3819Z" fill="#263238"/>
<path d="M287.985 46.4797C287.985 46.4797 286.275 43.3828 284.888 43.9691C283.502 44.5554 284.578 48.8868 286.054 49.6249C286.237 49.7314 286.44 49.8 286.651 49.8264C286.861 49.8528 287.075 49.8366 287.279 49.7787C287.483 49.7207 287.673 49.6223 287.839 49.4892C288.004 49.3561 288.14 49.1912 288.24 49.0041L287.985 46.4797Z" fill="#C95F50"/>
<path d="M285.226 45.1899C285.226 45.1899 285.226 45.1899 285.226 45.2313C285.694 45.5283 286.095 45.9207 286.401 46.3831C286.708 46.8454 286.914 47.3672 287.005 47.9144C286.954 47.8006 286.878 47.6992 286.784 47.6172C286.69 47.5352 286.579 47.4744 286.459 47.4391C286.339 47.4038 286.213 47.3946 286.09 47.4124C285.966 47.4301 285.848 47.4743 285.743 47.5419C285.743 47.5419 285.743 47.6109 285.743 47.604C285.94 47.5635 286.144 47.5849 286.328 47.6651C286.512 47.7454 286.666 47.8806 286.771 48.0523C286.936 48.3424 287.075 48.6472 287.184 48.9627C287.226 49.0662 287.405 49.0317 287.378 48.9145C287.55 47.535 286.688 45.5003 285.226 45.1899Z" fill="#263238"/>
<path d="M279.316 61.3501C269.549 72.3167 262.203 87.7597 262.272 91.4014C262.369 95.4018 267.459 109.493 272.308 116.114C272.936 116.963 276.715 116.604 279.895 114.845C283.268 112.99 286.033 109.679 285.371 108.693C282.881 104.989 276.984 90.6427 277.039 88.4011C277.088 86.3319 281.923 73.6272 283.764 66.2816C285.564 59.212 283.861 56.2255 279.316 61.3501Z" fill="#C95F50"/>
<path d="M266.41 115.018L284.598 106.134C284.598 106.134 277.446 90.1738 277.446 88.4495C277.446 86.7252 282.15 73.2341 283.922 66.999C285.695 60.7639 285.012 53.7563 277.246 63.1849C269.48 72.6134 262.693 86.6355 261.92 90.36C261.148 94.0845 266.41 115.018 266.41 115.018Z" fill="#219EBC"/>
<path d="M278.356 83.8697C278.729 82.688 279.115 81.5086 279.515 80.3314C279.963 79.0141 280.425 77.7036 280.894 76.4C281.363 75.0964 281.894 73.8825 282.405 72.6272C282.405 72.5376 282.598 72.6272 282.57 72.6893C281.963 74.3653 281.398 76.0621 280.832 77.7588C281.26 76.9863 281.688 76.2207 282.143 75.462C282.152 75.4532 282.164 75.4477 282.177 75.446C282.19 75.4444 282.203 75.4468 282.214 75.4528C282.225 75.4589 282.235 75.4683 282.24 75.4799C282.246 75.4914 282.248 75.5044 282.246 75.5172C281.736 76.4552 281.198 77.3725 280.653 78.2761C280.522 78.683 280.384 79.0968 280.246 79.5038C279.48 81.7799 278.749 84.0698 278.094 86.401C277.931 86.9172 277.823 87.4488 277.77 87.9874C277.742 88.6015 277.833 89.2151 278.039 89.7945C278.37 90.8635 278.729 91.9188 279.115 92.9672C279.874 95.0847 280.701 97.1676 281.563 99.2368C282.55 101.596 283.674 103.92 284.791 106.217C284.791 106.217 284.102 106.396 284.102 106.41C284.102 106.424 284.046 106.41 284.06 106.375C284.074 106.341 284.488 106.148 284.502 106.148C283.364 104.161 282.281 102.21 281.322 100.12C280.363 98.0298 279.529 95.9813 278.763 93.8156C278.37 92.712 277.991 91.6084 277.646 90.4911C277.254 89.4553 277.147 88.3337 277.335 87.2425C277.591 86.0976 278.004 84.9802 278.356 83.8697Z" fill="#263238"/>
<path d="M266.101 109.893C266.745 109.544 267.408 109.231 268.087 108.955C268.68 108.679 269.266 108.396 269.866 108.127C271.163 107.541 272.46 106.948 273.763 106.369C275.067 105.789 276.364 105.203 277.667 104.637C278.971 104.072 280.254 103.465 281.578 102.975C281.626 102.975 281.661 103.03 281.619 103.058C280.412 103.803 279.123 104.437 277.853 105.051C276.584 105.665 275.336 106.258 274.06 106.831C272.784 107.403 271.446 107.962 270.129 108.493C269.494 108.748 268.853 108.983 268.204 109.224C267.531 109.515 266.84 109.761 266.135 109.962C266.127 109.963 266.118 109.961 266.111 109.957C266.104 109.953 266.098 109.947 266.094 109.939C266.09 109.932 266.089 109.923 266.09 109.915C266.091 109.907 266.095 109.899 266.101 109.893V109.893Z" fill="#263238"/>
</g>
<defs>
<filter id="filter0_d" x="0" y="0" width="442" height="280.825" filterUnits="userSpaceOnUse" color-interpolation-filters="sRGB">
<feFlood flood-opacity="0" result="BackgroundImageFix"/>
<feColorMatrix in="SourceAlpha" type="matrix" values="0 0 0 0 0 0 0 0 0 0 0 0 0 0 0 0 0 0 127 0" result="hardAlpha"/>
<feOffset dy="8"/>
<feGaussianBlur stdDeviation="8"/>
<feComposite in2="hardAlpha" operator="out"/>
<feColorMatrix type="matrix" values="0 0 0 0 0 0 0 0 0 0 0 0 0 0 0 0 0 0 0.08 0"/>
<feBlend mode="normal" in2="BackgroundImageFix" result="effect1_dropShadow"/>
<feBlend mode="normal" in="SourceGraphic" in2="effect1_dropShadow" result="shape"/>
</filter>
</defs>
</svg>
