<svg width="176" height="176" viewBox="0 0 176 176" fill="none" xmlns="http://www.w3.org/2000/svg">
<g filter="url(#filter0_d)">
<rect x="8" y="8" width="160" height="160" fill="white"/>
</g>
<path d="M125.198 106.511C126.902 106.511 128.296 105.117 128.296 103.413C128.296 101.709 126.902 100.315 125.198 100.315C123.494 100.315 122.1 101.709 122.1 103.413C122.1 105.117 123.494 106.511 125.198 106.511ZM125.198 101.864C126.127 101.864 126.747 102.484 126.747 103.413C126.747 104.343 126.127 104.962 125.198 104.962C124.269 104.962 123.649 104.343 123.649 103.413C123.649 102.484 124.269 101.864 125.198 101.864ZM50.8434 106.511C52.5473 106.511 53.9415 105.117 53.9415 103.413C53.9415 101.709 52.5473 100.315 50.8434 100.315C49.1394 100.315 47.7453 101.709 47.7453 103.413C47.7453 105.117 49.1394 106.511 50.8434 106.511ZM50.8434 101.864C51.7728 101.864 52.3924 102.484 52.3924 103.413C52.3924 104.343 51.7728 104.962 50.8434 104.962C49.9139 104.962 49.2943 104.343 49.2943 103.413C49.2943 102.484 49.9139 101.864 50.8434 101.864ZM53.012 123.551H48.3649C47.9002 123.551 47.5904 123.861 47.5904 124.325V127.423C47.5904 127.888 47.9002 128.198 48.3649 128.198H53.012C53.4768 128.198 53.7866 127.888 53.7866 127.423V124.325C53.7866 124.015 53.4768 123.551 53.012 123.551ZM52.2375 126.649H49.1394V125.1H52.2375V126.649ZM54.5611 109.609H46.8158C46.3511 109.609 46.0413 109.919 46.0413 110.384C46.0413 110.849 46.3511 111.158 46.8158 111.158H47.5904V119.678C47.5904 120.143 47.9002 120.453 48.3649 120.453H53.012C53.4768 120.453 53.7866 120.143 53.7866 119.678V111.158H54.5611C55.0258 111.158 55.3356 110.849 55.3356 110.384C55.3356 109.919 55.0258 109.609 54.5611 109.609ZM52.2375 118.904H49.1394V111.158H52.2375V118.904ZM127.367 123.551H122.719C122.255 123.551 121.945 123.861 121.945 124.325V127.423C121.945 127.888 122.255 128.198 122.719 128.198H127.367C127.831 128.198 128.141 127.888 128.141 127.423V124.325C128.141 124.015 127.831 123.551 127.367 123.551ZM126.592 126.649H123.494V125.1H126.592V126.649ZM128.916 109.609H121.17C120.706 109.609 120.396 109.919 120.396 110.384C120.396 110.849 120.706 111.158 121.17 111.158H121.945V119.678C121.945 120.143 122.255 120.453 122.719 120.453H127.367C127.831 120.453 128.141 120.143 128.141 119.678V111.158H128.916C129.38 111.158 129.69 110.849 129.69 110.384C129.69 109.919 129.38 109.609 128.916 109.609ZM126.592 118.904H123.494V111.158H126.592V118.904Z" fill="#1687A7"/>
<path d="M134.957 131.296H132.788V84.0499C132.788 83.5852 132.478 83.2754 132.014 83.2754H131.239V78.3184L131.394 78.1635C132.324 77.0792 132.633 75.5301 132.478 74.136C132.324 72.7418 131.549 71.3477 130.465 70.5731L123.649 65.1515V64.6867C124.114 64.3769 124.578 63.9122 124.578 63.2926C124.578 62.3632 123.804 61.5886 122.874 61.5886C121.945 61.5886 121.17 62.3632 121.17 63.2926C121.17 63.9122 121.48 64.5318 122.1 64.6867V65.1515L115.284 70.5731C114.2 71.5026 113.425 72.7418 113.27 74.136C113.115 75.5301 113.425 76.9243 114.355 78.0086V81.8812H113.58C113.115 81.8812 112.806 82.1911 112.806 82.6558V83.4303H103.201L100.413 79.2478V73.6713L103.511 69.0241C103.666 68.7143 103.666 68.4045 103.511 68.2496C103.356 67.9398 103.046 67.7849 102.892 67.7849H100.413V65.926L100.568 65.7711C101.962 63.9122 102.427 61.5886 101.962 59.42C101.497 57.2513 100.103 55.3924 98.0895 54.3081L92.8227 51.5198V48.4217C92.8227 47.957 92.5129 47.6472 92.0482 47.6472H91.2737V46.0981C91.2737 44.3941 89.8795 43 88.1756 43C86.4716 43 85.0775 44.3941 85.0775 46.0981V47.6472H84.3029C83.8382 47.6472 83.5284 47.957 83.5284 48.4217V51.5198C83.5284 51.5198 83.5284 51.5198 83.5284 51.6747L78.1067 54.3081C75.938 55.5473 74.5439 57.716 74.0792 59.8847C73.7694 61.8985 74.2341 63.7573 75.4733 65.4613V67.7849H73.3046C72.9948 67.7849 72.685 67.9398 72.685 68.2496C72.5301 68.5594 72.5301 68.8692 72.685 69.0241L75.4733 73.2065V79.0929L72.8399 83.1205H63.0809V82.346C63.0809 81.8812 62.7711 81.5714 62.3064 81.5714H61.5318V78.1635L61.6867 78.0086C62.6162 76.9243 62.926 75.3752 62.7711 73.9811C62.6162 72.5869 61.8417 71.1928 60.7573 70.4182L53.9415 64.9966V64.5318C54.4062 64.222 54.8709 63.7573 54.8709 63.1377C54.8709 62.2083 54.0964 61.4337 53.167 61.4337C52.2375 61.4337 51.463 62.2083 51.463 63.1377C51.463 63.7573 51.7728 64.3769 52.3924 64.5318V64.9966L45.5766 70.5731C44.4923 71.5026 43.7177 72.7418 43.5628 74.136C43.4079 75.5301 43.7177 76.9243 44.6472 78.0086V83.4303H43.8726C43.4079 83.4303 43.0981 83.7401 43.0981 84.2048V131.451H40.7745C40.3098 131.451 40 131.761 40 132.225C40 132.69 40.3098 133 40.7745 133H134.957C135.422 133 135.731 132.69 135.731 132.225C135.731 131.761 135.422 131.296 134.957 131.296ZM114.664 74.2909C114.819 73.2065 115.284 72.2771 116.059 71.6575L122.719 66.3907L129.38 71.6575C130.155 72.2771 130.775 73.2065 130.775 74.2909C130.929 75.3752 130.62 76.3046 130 77.0792H115.284C114.819 76.3046 114.664 75.3752 114.664 74.2909ZM115.749 78.6282H129.69V83.2754H118.847V82.5009C118.847 82.0361 118.537 81.7263 118.072 81.7263H115.749V78.6282ZM112.651 111.158H108.933V104.962H112.651V111.158ZM108.933 112.707H112.651V117.355H108.933V112.707ZM112.651 103.413H108.933V98.7659H112.651V103.413ZM55.4905 97.2169V94.1188H120.551V97.2169H55.4905ZM98.864 104.962H102.582V111.158H98.864V104.962ZM102.582 103.413H98.864V98.7659H102.582V103.413ZM98.864 112.707H102.582V117.355H98.864V112.707ZM83.2186 104.962H92.5129V111.158H83.2186V104.962ZM92.5129 103.413H83.2186V98.7659H92.5129V103.413ZM83.2186 112.707H92.5129V117.355H83.2186V112.707ZM73.1497 104.962H76.7126V111.158H73.1497V104.962ZM76.8675 103.413H73.3046V98.7659H76.8675V103.413ZM73.1497 112.707H76.7126V117.355H73.1497V112.707ZM66.7986 103.413H63.2358V98.7659H66.7986V103.413ZM63.2358 104.962H66.7986V111.158H63.2358V104.962ZM63.2358 112.707H66.7986V117.355H63.2358V112.707ZM53.4768 92.5697L56.5749 89.4716H119.466L122.565 92.5697H53.4768ZM58.4337 83.2754H61.5318V87.9225H58.4337V83.2754ZM77.0224 73.9811H80.2754L80.1205 78.6282H77.0224V73.9811ZM84.9225 78.7831H81.6695L81.8244 74.136H94.3718L94.2169 78.7831H90.809L88.1756 77.2341C87.8657 77.0792 87.7108 77.0792 87.401 77.2341L84.9225 78.7831ZM94.062 83.2754V80.9518C94.062 80.642 93.9071 80.4871 93.5972 80.3322L93.4423 80.1773H94.5267L96.5404 83.2754H94.062ZM95.9208 73.9811H98.7091V78.6282H95.7659L95.9208 73.9811ZM81.5146 72.432L79.5009 69.3339H96.6953L94.6816 72.432H81.5146ZM82.2892 80.1773L82.1342 80.3322C81.8244 80.4871 81.6695 80.7969 81.6695 80.9518V83.2754H79.346L81.3597 80.1773H82.2892ZM83.2186 81.4165L87.8657 78.7831L92.5129 81.4165V87.9225H83.2186V81.4165ZM114.2 83.2754H117.298V87.9225H114.2V83.2754ZM112.651 87.9225H94.062V84.8244H112.651V87.9225ZM98.5542 83.2754L96.5404 80.1773H99.1738L101.343 83.2754H98.5542ZM99.1738 72.432H96.5404L98.5542 69.3339H101.343L99.1738 72.432ZM86.3167 46.0981C86.3167 45.3236 87.0912 44.5491 87.8657 44.5491C88.6403 44.5491 89.4148 45.1687 89.4148 46.0981V47.6472H86.3167V46.0981ZM84.7676 49.1962H90.9639V50.7453H84.7676V49.1962ZM75.6282 60.1945C75.938 58.3356 77.1773 56.6317 78.8812 55.7022L85.2324 52.2943H90.654L97.0052 55.7022C98.5542 56.6317 99.7935 58.0258 100.103 59.7298C100.413 61.4337 100.103 63.1377 99.0189 64.6867H90.809V62.9828C90.809 61.5886 90.1893 60.5043 88.9501 59.7298L88.0207 59.1102C87.7108 58.9553 87.401 58.9553 87.2461 59.1102L86.3167 59.7298C85.2324 60.5043 84.6127 61.5886 84.6127 62.9828V64.6867H76.5577C75.7831 63.2926 75.3184 61.7435 75.6282 60.1945ZM89.4148 64.6867H86.3167V62.9828C86.3167 62.2083 86.7814 61.4337 87.401 60.969L87.8657 60.6592L88.3305 60.969C88.9501 61.4337 89.4148 62.0534 89.4148 62.9828V64.6867ZM77.0224 66.2358H98.7091V67.7849H77.0224V66.2358ZM77.4871 69.3339L79.5009 72.432H76.7126L74.6988 69.3339H77.4871ZM76.7126 80.1773H79.5009L77.4871 83.2754H74.6988L76.7126 80.1773ZM63.2358 84.8244H81.6695V87.9225H63.2358V84.8244ZM44.957 74.2909C45.1119 73.2065 45.5766 72.2771 46.3511 71.6575L53.012 66.3907L59.673 71.6575C60.4475 72.2771 61.0671 73.2065 61.0671 74.2909C61.222 75.3752 60.9122 76.3046 60.2926 77.0792H45.5766C45.1119 76.3046 44.957 75.3752 44.957 74.2909ZM46.0413 78.6282H59.9828V81.7263H57.6592C57.1945 81.7263 56.8847 82.0361 56.8847 82.5009V83.2754H46.0413V78.6282ZM56.1102 131.296H44.4923V84.8244H56.8847V87.9225H56.2651C56.1102 87.9225 55.8003 88.0775 55.6454 88.0775L50.9983 92.7246C50.8434 92.8795 50.6885 93.3442 50.8434 93.4991C50.9983 93.654 51.3081 93.9639 51.6179 93.9639H53.7866V97.8365C53.7866 98.3012 54.0964 98.611 54.5611 98.611H56.8847V131.141H56.1102V131.296ZM58.4337 131.296V98.7659H61.6867V131.296H58.4337ZM63.2358 131.296V118.904H66.7986V131.296H63.2358ZM68.3477 131.296V98.7659H71.6007V131.296H68.3477ZM73.1497 131.296V118.904H76.7126V131.296H73.1497ZM78.4165 131.296V98.7659H81.6695V131.296H78.4165ZM83.2186 131.296V118.904H92.5129V131.296H83.2186ZM94.062 131.296V98.7659H97.315V131.296H94.062ZM98.864 131.296V118.904H102.582V131.296H98.864ZM104.131 131.296V98.7659H107.384V131.296H104.131ZM108.933 131.296V118.904H112.651V131.296H108.933ZM114.2 131.296V98.7659H117.453V131.296H114.2ZM119.002 98.7659H121.17C121.635 98.7659 121.945 98.4561 121.945 97.9914V94.1188H124.423C124.733 94.1188 125.043 93.9639 125.198 93.654C125.353 93.3442 125.198 93.0344 125.043 92.8795L120.396 88.2324C120.241 88.0775 120.086 88.0775 119.776 88.0775H118.847V84.9793H131.239V131.451H119.002V98.7659Z" fill="#1687A7"/>
<defs>
<filter id="filter0_d" x="0" y="0" width="176" height="176" filterUnits="userSpaceOnUse" color-interpolation-filters="sRGB">
<feFlood flood-opacity="0" result="BackgroundImageFix"/>
<feColorMatrix in="SourceAlpha" type="matrix" values="0 0 0 0 0 0 0 0 0 0 0 0 0 0 0 0 0 0 127 0" result="hardAlpha"/>
<feOffset/>
<feGaussianBlur stdDeviation="4"/>
<feComposite in2="hardAlpha" operator="out"/>
<feColorMatrix type="matrix" values="0 0 0 0 0.666667 0 0 0 0 0.666667 0 0 0 0 0.666667 0 0 0 0.25 0"/>
<feBlend mode="normal" in2="BackgroundImageFix" result="effect1_dropShadow"/>
<feBlend mode="normal" in="SourceGraphic" in2="effect1_dropShadow" result="shape"/>
</filter>
</defs>
</svg>
