<svg width="160" height="160" viewBox="0 0 160 160" fill="none" xmlns="http://www.w3.org/2000/svg">
<path d="M117.198 98.5112C118.902 98.5112 120.296 97.117 120.296 95.4131C120.296 93.7091 118.902 92.315 117.198 92.315C115.494 92.315 114.1 93.7091 114.1 95.4131C114.1 97.117 115.494 98.5112 117.198 98.5112ZM117.198 93.864C118.127 93.864 118.747 94.4836 118.747 95.4131C118.747 96.3425 118.127 96.9621 117.198 96.9621C116.269 96.9621 115.649 96.3425 115.649 95.4131C115.649 94.4836 116.269 93.864 117.198 93.864ZM42.8434 98.5112C44.5473 98.5112 45.9415 97.117 45.9415 95.4131C45.9415 93.7091 44.5473 92.315 42.8434 92.315C41.1394 92.315 39.7453 93.7091 39.7453 95.4131C39.7453 97.117 41.1394 98.5112 42.8434 98.5112ZM42.8434 93.864C43.7728 93.864 44.3924 94.4836 44.3924 95.4131C44.3924 96.3425 43.7728 96.9621 42.8434 96.9621C41.9139 96.9621 41.2943 96.3425 41.2943 95.4131C41.2943 94.4836 41.9139 93.864 42.8434 93.864ZM45.012 115.551H40.3649C39.9002 115.551 39.5904 115.861 39.5904 116.325V119.423C39.5904 119.888 39.9002 120.198 40.3649 120.198H45.012C45.4768 120.198 45.7866 119.888 45.7866 119.423V116.325C45.7866 116.015 45.4768 115.551 45.012 115.551ZM44.2375 118.649H41.1394V117.1H44.2375V118.649ZM46.5611 101.609H38.8158C38.3511 101.609 38.0413 101.919 38.0413 102.384C38.0413 102.849 38.3511 103.158 38.8158 103.158H39.5904V111.678C39.5904 112.143 39.9002 112.453 40.3649 112.453H45.012C45.4768 112.453 45.7866 112.143 45.7866 111.678V103.158H46.5611C47.0258 103.158 47.3356 102.849 47.3356 102.384C47.3356 101.919 47.0258 101.609 46.5611 101.609ZM44.2375 110.904H41.1394V103.158H44.2375V110.904ZM119.367 115.551H114.719C114.255 115.551 113.945 115.861 113.945 116.325V119.423C113.945 119.888 114.255 120.198 114.719 120.198H119.367C119.831 120.198 120.141 119.888 120.141 119.423V116.325C120.141 116.015 119.831 115.551 119.367 115.551ZM118.592 118.649H115.494V117.1H118.592V118.649ZM120.916 101.609H113.17C112.706 101.609 112.396 101.919 112.396 102.384C112.396 102.849 112.706 103.158 113.17 103.158H113.945V111.678C113.945 112.143 114.255 112.453 114.719 112.453H119.367C119.831 112.453 120.141 112.143 120.141 111.678V103.158H120.916C121.38 103.158 121.69 102.849 121.69 102.384C121.69 101.919 121.38 101.609 120.916 101.609ZM118.592 110.904H115.494V103.158H118.592V110.904Z" fill="#1687A7"/>
<path d="M126.957 123.296H124.788V76.0499C124.788 75.5852 124.478 75.2754 124.014 75.2754H123.239V70.3184L123.394 70.1635C124.324 69.0792 124.633 67.5301 124.478 66.136C124.324 64.7418 123.549 63.3477 122.465 62.5731L115.649 57.1515V56.6867C116.114 56.3769 116.578 55.9122 116.578 55.2926C116.578 54.3632 115.804 53.5886 114.874 53.5886C113.945 53.5886 113.17 54.3632 113.17 55.2926C113.17 55.9122 113.48 56.5318 114.1 56.6867V57.1515L107.284 62.5731C106.2 63.5026 105.425 64.7418 105.27 66.136C105.115 67.5301 105.425 68.9243 106.355 70.0086V73.8812H105.58C105.115 73.8812 104.806 74.1911 104.806 74.6558V75.4303H95.2014L92.4131 71.2478V65.6713L95.5112 61.0241C95.6661 60.7143 95.6661 60.4045 95.5112 60.2496C95.3563 59.9398 95.0465 59.7849 94.8916 59.7849H92.4131V57.926L92.568 57.7711C93.9621 55.9122 94.4268 53.5886 93.9621 51.42C93.4974 49.2513 92.1033 47.3924 90.0895 46.3081L84.8227 43.5198V40.4217C84.8227 39.957 84.5129 39.6472 84.0482 39.6472H83.2737V38.0981C83.2737 36.3941 81.8795 35 80.1756 35C78.4716 35 77.0775 36.3941 77.0775 38.0981V39.6472H76.3029C75.8382 39.6472 75.5284 39.957 75.5284 40.4217V43.5198C75.5284 43.5198 75.5284 43.5198 75.5284 43.6747L70.1067 46.3081C67.938 47.5473 66.5439 49.716 66.0792 51.8847C65.7694 53.8985 66.2341 55.7573 67.4733 57.4613V59.7849H65.3046C64.9948 59.7849 64.685 59.9398 64.685 60.2496C64.5301 60.5594 64.5301 60.8692 64.685 61.0241L67.4733 65.2065V71.0929L64.8399 75.1205H55.0809V74.346C55.0809 73.8812 54.7711 73.5714 54.3064 73.5714H53.5318V70.1635L53.6867 70.0086C54.6162 68.9243 54.926 67.3752 54.7711 65.9811C54.6162 64.5869 53.8417 63.1928 52.7573 62.4182L45.9415 56.9966V56.5318C46.4062 56.222 46.8709 55.7573 46.8709 55.1377C46.8709 54.2083 46.0964 53.4337 45.167 53.4337C44.2375 53.4337 43.463 54.2083 43.463 55.1377C43.463 55.7573 43.7728 56.3769 44.3924 56.5318V56.9966L37.5766 62.5731C36.4923 63.5026 35.7177 64.7418 35.5628 66.136C35.4079 67.5301 35.7177 68.9243 36.6472 70.0086V75.4303H35.8726C35.4079 75.4303 35.0981 75.7401 35.0981 76.2048V123.451H32.7745C32.3098 123.451 32 123.761 32 124.225C32 124.69 32.3098 125 32.7745 125H126.957C127.422 125 127.731 124.69 127.731 124.225C127.731 123.761 127.422 123.296 126.957 123.296ZM106.664 66.2909C106.819 65.2065 107.284 64.2771 108.059 63.6575L114.719 58.3907L121.38 63.6575C122.155 64.2771 122.775 65.2065 122.775 66.2909C122.929 67.3752 122.62 68.3046 122 69.0792H107.284C106.819 68.3046 106.664 67.3752 106.664 66.2909ZM107.749 70.6282H121.69V75.2754H110.847V74.5009C110.847 74.0361 110.537 73.7263 110.072 73.7263H107.749V70.6282ZM104.651 103.158H100.933V96.9621H104.651V103.158ZM100.933 104.707H104.651V109.355H100.933V104.707ZM104.651 95.4131H100.933V90.7659H104.651V95.4131ZM47.4905 89.2169V86.1188H112.551V89.2169H47.4905ZM90.864 96.9621H94.5818V103.158H90.864V96.9621ZM94.5818 95.4131H90.864V90.7659H94.5818V95.4131ZM90.864 104.707H94.5818V109.355H90.864V104.707ZM75.2186 96.9621H84.5129V103.158H75.2186V96.9621ZM84.5129 95.4131H75.2186V90.7659H84.5129V95.4131ZM75.2186 104.707H84.5129V109.355H75.2186V104.707ZM65.1497 96.9621H68.7126V103.158H65.1497V96.9621ZM68.8675 95.4131H65.3046V90.7659H68.8675V95.4131ZM65.1497 104.707H68.7126V109.355H65.1497V104.707ZM58.7986 95.4131H55.2358V90.7659H58.7986V95.4131ZM55.2358 96.9621H58.7986V103.158H55.2358V96.9621ZM55.2358 104.707H58.7986V109.355H55.2358V104.707ZM45.4768 84.5697L48.5749 81.4716H111.466L114.565 84.5697H45.4768ZM50.4337 75.2754H53.5318V79.9225H50.4337V75.2754ZM69.0224 65.9811H72.2754L72.1205 70.6282H69.0224V65.9811ZM76.9226 70.7831H73.6695L73.8244 66.136H86.3718L86.2169 70.7831H82.809L80.1756 69.2341C79.8657 69.0792 79.7108 69.0792 79.401 69.2341L76.9226 70.7831ZM86.062 75.2754V72.9518C86.062 72.642 85.9071 72.4871 85.5972 72.3322L85.4423 72.1773H86.5267L88.5404 75.2754H86.062ZM87.9208 65.9811H90.7091V70.6282H87.7659L87.9208 65.9811ZM73.5146 64.432L71.5009 61.3339H88.6954L86.6816 64.432H73.5146ZM74.2892 72.1773L74.1342 72.3322C73.8244 72.4871 73.6695 72.7969 73.6695 72.9518V75.2754H71.346L73.3597 72.1773H74.2892ZM75.2186 73.4165L79.8657 70.7831L84.5129 73.4165V79.9225H75.2186V73.4165ZM106.2 75.2754H109.298V79.9225H106.2V75.2754ZM104.651 79.9225H86.062V76.8244H104.651V79.9225ZM90.5542 75.2754L88.5404 72.1773H91.1738L93.3425 75.2754H90.5542ZM91.1738 64.432H88.5404L90.5542 61.3339H93.3425L91.1738 64.432ZM78.3167 38.0981C78.3167 37.3236 79.0912 36.5491 79.8657 36.5491C80.6403 36.5491 81.4148 37.1687 81.4148 38.0981V39.6472H78.3167V38.0981ZM76.7676 41.1962H82.9639V42.7453H76.7676V41.1962ZM67.6282 52.1945C67.938 50.3356 69.1773 48.6317 70.8812 47.7022L77.2324 44.2943H82.654L89.0052 47.7022C90.5542 48.6317 91.7935 50.0258 92.1033 51.7298C92.4131 53.4337 92.1033 55.1377 91.0189 56.6867H82.809V54.9828C82.809 53.5886 82.1893 52.5043 80.9501 51.7298L80.0207 51.1102C79.7108 50.9553 79.401 50.9553 79.2461 51.1102L78.3167 51.7298C77.2324 52.5043 76.6127 53.5886 76.6127 54.9828V56.6867H68.5577C67.7831 55.2926 67.3184 53.7435 67.6282 52.1945ZM81.4148 56.6867H78.3167V54.9828C78.3167 54.2083 78.7814 53.4337 79.401 52.969L79.8657 52.6592L80.3305 52.969C80.9501 53.4337 81.4148 54.0534 81.4148 54.9828V56.6867ZM69.0224 58.2358H90.7091V59.7849H69.0224V58.2358ZM69.4871 61.3339L71.5009 64.432H68.7126L66.6988 61.3339H69.4871ZM68.7126 72.1773H71.5009L69.4871 75.2754H66.6988L68.7126 72.1773ZM55.2358 76.8244H73.6695V79.9225H55.2358V76.8244ZM36.957 66.2909C37.1119 65.2065 37.5766 64.2771 38.3511 63.6575L45.012 58.3907L51.673 63.6575C52.4475 64.2771 53.0671 65.2065 53.0671 66.2909C53.222 67.3752 52.9122 68.3046 52.2926 69.0792H37.5766C37.1119 68.3046 36.957 67.3752 36.957 66.2909ZM38.0413 70.6282H51.9828V73.7263H49.6592C49.1945 73.7263 48.8847 74.0361 48.8847 74.5009V75.2754H38.0413V70.6282ZM48.1102 123.296H36.4923V76.8244H48.8847V79.9225H48.2651C48.1102 79.9225 47.8003 80.0775 47.6454 80.0775L42.9983 84.7246C42.8434 84.8795 42.6885 85.3442 42.8434 85.4991C42.9983 85.654 43.3081 85.9639 43.6179 85.9639H45.7866V89.8365C45.7866 90.3012 46.0964 90.611 46.5611 90.611H48.8847V123.141H48.1102V123.296ZM50.4337 123.296V90.7659H53.6867V123.296H50.4337ZM55.2358 123.296V110.904H58.7986V123.296H55.2358ZM60.3477 123.296V90.7659H63.6007V123.296H60.3477ZM65.1497 123.296V110.904H68.7126V123.296H65.1497ZM70.4165 123.296V90.7659H73.6695V123.296H70.4165ZM75.2186 123.296V110.904H84.5129V123.296H75.2186ZM86.062 123.296V90.7659H89.315V123.296H86.062ZM90.864 123.296V110.904H94.5818V123.296H90.864ZM96.1308 123.296V90.7659H99.3838V123.296H96.1308ZM100.933 123.296V110.904H104.651V123.296H100.933ZM106.2 123.296V90.7659H109.453V123.296H106.2ZM111.002 90.7659H113.17C113.635 90.7659 113.945 90.4561 113.945 89.9914V86.1188H116.423C116.733 86.1188 117.043 85.9639 117.198 85.654C117.353 85.3442 117.198 85.0344 117.043 84.8795L112.396 80.2324C112.241 80.0775 112.086 80.0775 111.776 80.0775H110.847V76.9793H123.239V123.451H111.002V90.7659Z" fill="#1687A7"/>
</svg>
