<svg width="60" height="60" viewBox="0 0 60 60" fill="none" xmlns="http://www.w3.org/2000/svg">
<g clip-path="url(#clip0)">
<path d="M53.7773 0.09375C10.9805 0.105469 14.8125 0.0820312 14.5195 0.105469C11.8945 0.128906 9.77344 2.27344 9.77344 4.91016V16.2187H2.03906C1.69922 16.2187 1.41797 16.5 1.41797 16.8398V41.3437C1.41797 43.9453 3.45703 46.0547 6.08203 46.1367C21.1172 46.1367 3.02344 46.1367 18.1406 46.1367V59.4375C18.1406 59.6953 18.3047 59.9297 18.5391 60.0234C18.7852 60.1172 19.0547 60.0469 19.2305 59.8594L22.6641 56.0391L26.1211 59.8945C26.2383 60.0234 26.4141 60.1055 26.5898 60.1055C26.7656 60.1055 26.9414 60.0352 27.0586 59.8945L30.5273 56.0391L33.9844 59.8945C34.1016 60.0234 34.2773 60.1055 34.4531 60.1055C34.6289 60.1055 34.8047 60.0352 34.9219 59.8945L38.3906 56.0391L41.8477 59.8945C41.9648 60.0234 42.1406 60.1055 42.3164 60.1055C42.4922 60.1055 42.668 60.0352 42.7852 59.8945L46.2539 56.0391L49.6875 59.8828C49.8047 60.0117 49.9805 60.0937 50.1562 60.0937C50.332 60.0937 50.5078 60.0234 50.625 59.8828L54.0938 56.0156L57.5156 59.8359C57.6914 60.0234 57.9609 60.0937 58.207 60C58.4531 59.9062 58.6055 59.6719 58.6055 59.4141V4.91016C58.5938 2.26172 56.4375 0.09375 53.7773 0.09375ZM2.66016 41.3437V17.4609H9.76172V41.332C9.76172 43.2891 8.16797 44.8828 6.21094 44.8828H6.09375C4.17188 44.8242 2.66016 43.2656 2.66016 41.3437ZM9.44531 44.8828C10.4062 44.0039 11.0156 42.7031 11.0156 41.3203V4.91016C11.0156 2.95312 12.6094 1.35937 14.5664 1.35937C15.8906 1.45312 16.875 1.88672 17.5898 3.05859C17.9531 3.65625 18.1172 4.28906 18.1172 4.91016V44.8828H9.44531ZM57.3398 57.7969L54.5391 54.6797C54.4219 54.5508 54.2461 54.4687 54.0703 54.4687C53.8945 54.4687 53.7188 54.5391 53.6016 54.6797L50.1328 58.5351L46.6758 54.6797C46.5586 54.5508 46.3828 54.4687 46.207 54.4687C46.0312 54.4687 45.8555 54.5391 45.7383 54.6797L42.2695 58.5351L38.8125 54.6797C38.6953 54.5508 38.5195 54.4687 38.3438 54.4687C38.168 54.4687 37.9922 54.5391 37.875 54.6797L34.4062 58.5351L30.9492 54.6797C30.832 54.5508 30.6562 54.4687 30.4805 54.4687C30.3047 54.4687 30.1289 54.5391 30.0117 54.6797L26.543 58.5351L23.0859 54.6797C22.9688 54.5508 22.793 54.4687 22.6172 54.4687C22.4414 54.4687 22.2656 54.5391 22.1484 54.6797L19.3359 57.8086V45.5156V4.89844C19.3359 4.25391 19.207 3.57422 18.9141 2.92969C18.6445 2.32031 18.2461 1.79297 17.7656 1.34766H53.7422C55.6992 1.34766 57.3047 2.94141 57.3047 4.91016V57.7969H57.3398Z" fill="#3A3A3A"/>
<path d="M42.9141 7.98047H23.7422C23.4023 7.98047 23.1211 7.69922 23.1211 7.35937C23.1211 7.01953 23.4023 6.73828 23.7422 6.73828H42.9141C43.2539 6.73828 43.5352 7.01953 43.5352 7.35937C43.5352 7.69922 43.2539 7.98047 42.9141 7.98047ZM36.1875 11.7773H23.7422C23.4023 11.7773 23.1211 11.4961 23.1211 11.1562C23.1211 10.8164 23.4023 10.5352 23.7422 10.5352H36.1875C36.5273 10.5352 36.8086 10.8164 36.8086 11.1562C36.8086 11.4961 36.5391 11.7773 36.1875 11.7773ZM42.9141 40.5H23.7422C23.4023 40.5 23.1211 40.2188 23.1211 39.8789C23.1211 39.5391 23.4023 39.2578 23.7422 39.2578H42.9141C43.2539 39.2578 43.5352 39.5391 43.5352 39.8789C43.5352 40.2188 43.2539 40.5 42.9141 40.5ZM42.9141 48.082H23.7422C23.4023 48.082 23.1211 47.8008 23.1211 47.4609C23.1211 47.1211 23.4023 46.8398 23.7422 46.8398H42.9141C43.2539 46.8398 43.5352 47.1211 43.5352 47.4609C43.5352 47.8008 43.2539 48.082 42.9141 48.082ZM36.1875 44.2969H23.7422C23.4023 44.2969 23.1211 44.0156 23.1211 43.6758C23.1211 43.3359 23.4023 43.0547 23.7422 43.0547H36.1875C36.5273 43.0547 36.8086 43.3359 36.8086 43.6758C36.8203 44.0156 36.5391 44.2969 36.1875 44.2969ZM53.0273 17.9883H48.4336C48.0937 17.9883 47.8125 17.707 47.8125 17.3672C47.8125 17.0273 48.0937 16.7461 48.4336 16.7461H53.0273C53.3672 16.7461 53.6484 17.0273 53.6484 17.3672C53.6484 17.707 53.3789 17.9883 53.0273 17.9883ZM41.2383 17.9883H23.6836C23.3438 17.9883 23.0625 17.707 23.0625 17.3672C23.0625 17.0273 23.3438 16.7461 23.6836 16.7461H41.2266C41.5664 16.7461 41.8477 17.0273 41.8477 17.3672C41.8594 17.707 41.5781 17.9883 41.2383 17.9883ZM53.0273 22.8281H48.4336C48.0937 22.8281 47.8125 22.5469 47.8125 22.207C47.8125 21.8672 48.0937 21.5859 48.4336 21.5859H53.0273C53.3672 21.5859 53.6484 21.8672 53.6484 22.207C53.6484 22.5469 53.3789 22.8281 53.0273 22.8281ZM41.2383 22.8281H23.6836C23.3438 22.8281 23.0625 22.5469 23.0625 22.207C23.0625 21.8672 23.3438 21.5859 23.6836 21.5859H41.2266C41.5664 21.5859 41.8477 21.8672 41.8477 22.207C41.8594 22.5469 41.5781 22.8281 41.2383 22.8281ZM53.0273 27.668H48.4336C48.0937 27.668 47.8125 27.3867 47.8125 27.0469C47.8125 26.707 48.0937 26.4258 48.4336 26.4258H53.0273C53.3672 26.4258 53.6484 26.707 53.6484 27.0469C53.6484 27.3867 53.3789 27.668 53.0273 27.668ZM41.2383 27.668H23.6836C23.3438 27.668 23.0625 27.3867 23.0625 27.0469C23.0625 26.707 23.3438 26.4258 23.6836 26.4258H41.2266C41.5664 26.4258 41.8477 26.707 41.8477 27.0469C41.8594 27.3867 41.5781 27.668 41.2383 27.668ZM53.0273 32.5078H48.4336C48.0937 32.5078 47.8125 32.2266 47.8125 31.8867C47.8125 31.5469 48.0937 31.2656 48.4336 31.2656H53.0273C53.3672 31.2656 53.6484 31.5469 53.6484 31.8867C53.6484 32.2266 53.3789 32.5078 53.0273 32.5078ZM41.2383 32.5078H23.6836C23.3438 32.5078 23.0625 32.2266 23.0625 31.8867C23.0625 31.5469 23.3438 31.2656 23.6836 31.2656H41.2266C41.5664 31.2656 41.8477 31.5469 41.8477 31.8867C41.8477 32.2266 41.5781 32.5078 41.2383 32.5078ZM51.3516 43.125V40.0898C51.8906 40.3359 52.2773 40.875 52.2773 41.5078C52.2773 41.8477 52.5586 42.1289 52.8984 42.1289C53.2383 42.1289 53.5195 41.8477 53.5195 41.5078C53.5195 40.1836 52.582 39.0703 51.3398 38.7891V38.5547C51.3398 38.2148 51.0586 37.9336 50.7187 37.9336C50.3789 37.9336 50.0977 38.2148 50.0977 38.5547V38.7891C48.8555 39.0703 47.9297 40.1836 47.9297 41.5078C47.9297 42.832 48.8555 43.9453 50.0977 44.2266V47.2617C49.5586 47.0156 49.1836 46.4766 49.1836 45.8555C49.1836 45.5156 48.9023 45.2344 48.5625 45.2344C48.2227 45.2344 47.9414 45.5156 47.9414 45.8555C47.9414 47.1797 48.8672 48.293 50.1094 48.5742V48.8086C50.1094 49.1484 50.3906 49.4297 50.7305 49.4297C51.0703 49.4297 51.3516 49.1484 51.3516 48.8086V48.5742C52.5938 48.293 53.5312 47.1797 53.5312 45.8555C53.5312 44.5195 52.5938 43.4063 51.3516 43.125ZM49.1836 41.4961C49.1836 40.8633 49.5586 40.3242 50.0977 40.0781V42.9023C49.5703 42.668 49.1836 42.1289 49.1836 41.4961ZM51.3516 47.25V44.4258C51.8906 44.6719 52.2773 45.2109 52.2773 45.8438C52.2773 46.4766 51.9023 47.0156 51.3516 47.25Z" fill="#3A3A3A"/>
</g>
<defs>
<clipPath id="clip0">
<rect width="60" height="60" fill="white"/>
</clipPath>
</defs>
</svg>
