<svg width="160" height="160" viewBox="0 0 160 160" fill="none" xmlns="http://www.w3.org/2000/svg">
<path d="M59.6041 44.2215L66.3642 48.4816C67.1966 48.962 68.1314 49.0889 69.0013 48.9158C68.593 48.8393 68.1877 48.7023 67.8068 48.4816L61.0467 44.2215C60.5288 43.8407 59.8796 43.806 59.4396 44.1306C59.493 44.1609 59.5507 44.1826 59.6041 44.2215Z" fill="#1687A7"/>
<path d="M97.4426 123.279H100.328V120.393C100.328 121.988 99.0367 123.279 97.4426 123.279Z" fill="#1687A7"/>
<path d="M83.594 36C82.2408 36 81.1399 37.0982 81.1399 38.4513V41.0492C81.1399 41.4473 81.4658 41.7705 81.864 41.7705C82.2621 41.7705 82.5853 41.4473 82.5853 41.0492V38.4513C82.5853 37.8945 83.0385 37.4426 83.5968 37.4426C84.1522 37.4426 84.6027 37.8945 84.6027 38.4513L84.5633 52.3535C84.5633 52.4222 84.5782 52.4757 84.5802 52.5423C83.5163 52.3307 82.441 52.184 81.3624 52.0717C81.2482 52.0332 81.1273 52.0126 81.0018 52.0351H80.999C79.2484 51.8716 77.4872 51.8268 75.7328 51.9421C75.0325 51.9882 74.3359 52.0604 73.6393 52.1506V51.1475C73.6393 50.7494 73.3162 50.4262 72.918 50.4262C72.5199 50.4262 72.1967 50.7494 72.1967 51.1475V52.3732C68.5489 53.0069 65.0028 54.2439 61.7518 56.0136L59.7147 45.6898C59.6108 45.1935 59.6718 44.8166 59.8753 44.6867C60.0527 44.567 60.37 44.6198 60.6614 44.8304L67.4462 49.1076C69.3923 50.2256 71.8982 49.7379 73.2731 47.9693C73.5688 47.5884 73.7777 47.1391 73.8845 46.676L75.6483 38.6035C75.6584 38.553 75.6652 38.5018 75.6652 38.4513C75.6652 37.8945 76.1157 37.4426 76.6711 37.4426C77.2265 37.4426 77.6798 37.8945 77.6798 38.4513V41.0492C77.6798 41.4473 78.0001 41.7705 78.3983 41.7705C78.7965 41.7705 79.1196 41.4473 79.1196 41.0492V38.4541C79.1196 37.1024 78.0214 36.0028 76.6711 36.0028C75.3468 36.0028 74.2631 37.0582 74.2198 38.3724L72.5884 45.9688L72.4869 46.3125C72.4191 46.6068 72.2949 46.8739 72.1319 47.0845C71.1957 48.2877 69.4899 48.6207 68.1901 47.8735L61.4728 43.6414C60.7342 43.1004 59.78 43.0337 59.0976 43.4752C58.7485 43.6988 57.9713 44.3889 58.3002 45.9772L60.5008 57.1294C62.0042 64.7457 63.8381 68.1887 70.7541 68.5661V79.2787H57.0492C56.651 79.2787 56.3279 79.6018 56.3279 80V122.557H52.7213C52.3231 122.557 52 122.881 52 123.279C52 123.677 52.3231 124 52.7213 124H107.541C107.939 124 108.262 123.677 108.262 123.279C108.262 122.881 107.939 122.557 107.541 122.557H103.934V80C103.934 79.6018 103.611 79.2787 103.213 79.2787H75.082V68.5069L75.9047 68.4534C76.1995 68.4295 76.489 68.3752 76.781 68.335C76.8059 68.3359 76.8292 68.3431 76.8543 68.3435H76.8655C76.9654 68.3435 77.0608 68.3209 77.1473 68.2843C79.0232 67.9811 80.8704 67.3534 82.8614 66.3035C85.0888 65.1278 87.2891 63.5173 89.4011 61.5164L90.5394 60.4372C91.5334 59.4938 92.8875 58.9991 94.2277 59.0482L97.8371 59.375C99.6519 59.5207 100.879 58.8292 101.455 57.2928C101.703 56.5426 101.642 55.7385 101.286 55.033C100.93 54.3276 100.322 53.8033 99.5699 53.5566L94.1883 51.7815C93.6747 51.6142 92.8978 51.4356 92.0553 51.8266C92.0092 51.8482 91.9633 51.8752 91.9229 51.9055C90.3562 53.0928 87.6723 54.5227 86.5976 53.9962C86.2023 53.7985 86.0003 53.245 86.0003 52.3535L86.0453 38.4513C86.0453 37.0996 84.9457 36 83.594 36ZM75.8033 43.5738C75.6042 43.5738 75.4426 43.7353 75.4426 43.9344C75.4426 44.1335 75.6042 44.2951 75.8033 44.2951H77.2459C77.445 44.2951 77.6066 44.1335 77.6066 43.9344C77.6066 43.7353 77.445 43.5738 77.2459 43.5738H75.8033ZM81.5738 43.5738C81.3747 43.5738 81.2131 43.7353 81.2131 43.9344C81.2131 44.1335 81.3747 44.2951 81.5738 44.2951H83.0164C83.2155 44.2951 83.377 44.1335 83.377 43.9344C83.377 43.7353 83.2155 43.5738 83.0164 43.5738H81.5738ZM78.6885 46.459C78.4894 46.459 78.3279 46.6206 78.3279 46.8197C78.3279 47.0188 78.4894 47.1803 78.6885 47.1803H80.1311C80.3302 47.1803 80.4918 47.0188 80.4918 46.8197C80.4918 46.6206 80.3302 46.459 80.1311 46.459H78.6885ZM75.8033 49.3443C75.6042 49.3443 75.4426 49.5058 75.4426 49.7049C75.4426 49.904 75.6042 50.0656 75.8033 50.0656H77.2459C77.445 50.0656 77.6066 49.904 77.6066 49.7049C77.6066 49.5058 77.445 49.3443 77.2459 49.3443H75.8033ZM81.5738 49.3443C81.3747 49.3443 81.2131 49.5058 81.2131 49.7049C81.2131 49.904 81.3747 50.0656 81.5738 50.0656H83.0164C83.2155 50.0656 83.377 49.904 83.377 49.7049C83.377 49.5058 83.2155 49.3443 83.0164 49.3443H81.5738ZM93.2218 53.0325C93.3888 53.0446 93.5598 53.0903 93.7459 53.1509L99.1276 54.9232C99.5113 55.0487 99.8234 55.3204 100.007 55.6811C100.188 56.0432 100.219 56.4532 100.102 56.811C99.8673 57.4327 99.4237 58.0592 97.9667 57.938L94.332 57.6083C92.6023 57.5463 90.83 58.1802 89.5533 59.3891L88.415 60.4682C86.3967 62.3783 84.3056 63.9106 82.1936 65.0243C80.2825 66.0326 78.5265 66.6219 76.7528 66.8868C75.4235 66.797 74.3607 65.6813 74.3607 64.334C74.3607 63.8882 74.4767 63.4527 74.696 63.0661C74.8921 62.7199 74.7717 62.2776 74.4255 62.0799C74.0807 61.888 73.6384 62.007 73.4393 62.3532C73.0974 62.9548 72.9152 63.6387 72.9152 64.334C72.9152 65.4139 73.3537 66.4018 74.0592 67.1263L73.8169 67.1404C73.6308 67.1519 73.4451 67.1573 73.259 67.1573H72.1037C65.3327 67.1573 63.5961 64.834 62.0899 57.6393H72.918C73.0176 57.6393 73.1135 57.6195 73.1998 57.583C73.4587 57.4734 73.6393 57.2167 73.6393 56.918V53.613C74.1913 53.5381 74.7449 53.4891 75.2989 53.4411L75.9047 56.1657C76.1543 57.0371 76.9537 57.6148 77.9419 57.6393H78.0038C78.9733 57.6393 79.7804 57.0955 80.0804 56.1939L80.6411 53.9764L81.03 55.9967C81.2694 56.9589 82.0971 57.6177 83.0897 57.6393H83.1347C84.1042 57.6393 84.9356 57.0171 85.2198 56.0361L85.4621 54.926C85.6116 55.0668 85.7734 55.1923 85.9636 55.2866C86.7071 55.6542 87.6417 55.5663 88.5784 55.2923C89.4403 56.0891 90.5443 56.5574 91.7172 56.5574C92.3173 56.5574 92.9085 56.4416 93.4754 56.2136C93.585 56.1675 93.665 56.0684 93.6895 55.9516C93.7155 55.8347 93.6831 55.7141 93.5994 55.6276C92.9925 54.9984 92.562 54.2293 92.3174 53.3876C92.4434 53.2987 92.6592 53.1575 92.7287 53.1058C92.8918 53.0401 93.0548 53.0204 93.2218 53.0325ZM78.0968 53.3171C78.501 53.3195 78.9042 53.3504 79.3084 53.3678L78.6998 55.7882C78.5945 56.1012 78.3161 56.2197 77.9757 56.1995C77.7146 56.1938 77.3787 56.0747 77.3023 55.8107L76.7585 53.3566C77.2044 53.3407 77.6499 53.3145 78.0968 53.3171ZM82.0359 53.5961C82.7622 53.6883 83.4842 53.805 84.2026 53.9454L83.8222 55.6783C83.6794 56.1659 83.2679 56.2097 83.1178 56.1967C82.988 56.1938 82.5542 56.1469 82.4388 55.6867L82.0359 53.5961ZM91.7088 53.8046C91.937 54.4934 92.2595 55.1423 92.7118 55.7065C91.55 56.0111 90.3275 55.7245 89.3786 55.0133C90.2543 54.6601 91.081 54.2044 91.7088 53.8046ZM72.1967 53.8356V56.1967H64.623C67.0408 55.109 69.5882 54.3094 72.1967 53.8356ZM72.1967 68.6027H73.6393V79.2787H72.1967V68.6027ZM57.7705 80.7213H102.492V122.557H101.049V82.8852C101.049 82.4871 100.726 82.1639 100.328 82.1639H59.9344C59.5363 82.1639 59.2131 82.4871 59.2131 82.8852V122.557H57.7705V80.7213ZM60.6557 83.6066H70.7541V112.459H70.0328C69.6346 112.459 69.3115 112.782 69.3115 113.18V122.557H60.6557V83.6066ZM72.1967 83.6066H73.6393V112.459H72.1967V83.6066ZM75.082 83.6066H99.6066V103.102C99.0018 102.644 98.2583 102.361 97.4426 102.361H83.0164C81.027 102.361 79.4098 103.978 79.4098 105.967V120.393C79.4098 121.209 79.6929 121.953 80.1509 122.557H76.5246V113.18C76.5246 112.782 76.2014 112.459 75.8033 112.459H75.082V83.6066ZM83.0164 103.803H97.4426C98.6357 103.803 99.6066 104.774 99.6066 105.967V120.393C99.6066 121.586 98.6357 122.557 97.4426 122.557H83.0164C81.8233 122.557 80.8525 121.586 80.8525 120.393V105.967C80.8525 104.774 81.8233 103.803 83.0164 103.803ZM70.7541 113.902H75.082V122.557H70.7541V113.902Z" fill="#1687A7"/>
<path d="M81.8623 41.7705C81.4641 41.7705 81.1399 41.4473 81.1399 41.0492L81.141 38.4525C81.141 37.8956 80.6894 37.4426 80.1326 37.4426C79.5743 37.4426 79.1213 37.8956 79.1213 38.4525V41.0492C79.1213 41.4473 78.7982 41.7705 78.4 41.7705C78.0018 41.7705 77.6798 41.4473 77.6798 41.0492L77.6787 38.4525C77.6787 37.0993 78.7808 36 80.134 36C81.4858 36 82.5836 37.1007 82.5836 38.4525V41.0492C82.5836 41.4473 82.2619 41.7705 81.8623 41.7705Z" fill="#1687A7"/>
</svg>
