<svg width="176" height="176" viewBox="0 0 176 176" fill="none" xmlns="http://www.w3.org/2000/svg">
<g filter="url(#filter0_d)">
<rect x="8" y="8" width="160" height="160" fill="white"/>
</g>
<path d="M67.6041 52.2215L74.3642 56.4816C75.1966 56.962 76.1314 57.0889 77.0013 56.9158C76.593 56.8393 76.1877 56.7023 75.8068 56.4816L69.0467 52.2215C68.5288 51.8407 67.8796 51.806 67.4396 52.1306C67.493 52.1609 67.5507 52.1826 67.6041 52.2215Z" fill="#1687A7"/>
<path d="M105.443 131.279H108.328V128.393C108.328 129.988 107.037 131.279 105.443 131.279Z" fill="#1687A7"/>
<path d="M91.594 44C90.2408 44 89.1399 45.0982 89.1399 46.4513V49.0492C89.1399 49.4473 89.4658 49.7705 89.864 49.7705C90.2621 49.7705 90.5853 49.4473 90.5853 49.0492V46.4513C90.5853 45.8945 91.0385 45.4426 91.5968 45.4426C92.1522 45.4426 92.6027 45.8945 92.6027 46.4513L92.5633 60.3535C92.5633 60.4222 92.5782 60.4757 92.5802 60.5423C91.5163 60.3307 90.441 60.184 89.3624 60.0717C89.2482 60.0332 89.1273 60.0126 89.0018 60.0351H88.999C87.2484 59.8716 85.4872 59.8268 83.7328 59.9421C83.0325 59.9882 82.3359 60.0604 81.6393 60.1506V59.1475C81.6393 58.7494 81.3162 58.4262 80.918 58.4262C80.5199 58.4262 80.1967 58.7494 80.1967 59.1475V60.3732C76.5489 61.0069 73.0028 62.2439 69.7518 64.0136L67.7147 53.6898C67.6108 53.1935 67.6718 52.8166 67.8753 52.6867C68.0527 52.567 68.37 52.6198 68.6614 52.8304L75.4462 57.1076C77.3923 58.2256 79.8982 57.7379 81.2731 55.9693C81.5688 55.5884 81.7777 55.1391 81.8845 54.676L83.6483 46.6035C83.6584 46.553 83.6652 46.5018 83.6652 46.4513C83.6652 45.8945 84.1157 45.4426 84.6711 45.4426C85.2265 45.4426 85.6798 45.8945 85.6798 46.4513V49.0492C85.6798 49.4473 86.0001 49.7705 86.3983 49.7705C86.7965 49.7705 87.1196 49.4473 87.1196 49.0492V46.4541C87.1196 45.1024 86.0214 44.0028 84.6711 44.0028C83.3468 44.0028 82.2631 45.0582 82.2198 46.3724L80.5884 53.9687L80.4869 54.3125C80.4191 54.6068 80.2949 54.8739 80.1319 55.0845C79.1957 56.2877 77.4899 56.6207 76.1901 55.8735L69.4728 51.6414C68.7342 51.1004 67.78 51.0337 67.0976 51.4752C66.7485 51.6988 65.9713 52.3889 66.3002 53.9772L68.5008 65.1294C70.0042 72.7457 71.8381 76.1887 78.7541 76.5661V87.2787H65.0492C64.651 87.2787 64.3279 87.6018 64.3279 88V130.557H60.7213C60.3231 130.557 60 130.881 60 131.279C60 131.677 60.3231 132 60.7213 132H115.541C115.939 132 116.262 131.677 116.262 131.279C116.262 130.881 115.939 130.557 115.541 130.557H111.934V88C111.934 87.6018 111.611 87.2787 111.213 87.2787H83.082V76.5069L83.9047 76.4534C84.1995 76.4295 84.489 76.3752 84.781 76.335C84.8059 76.3359 84.8292 76.3431 84.8543 76.3435H84.8655C84.9654 76.3435 85.0608 76.3209 85.1473 76.2843C87.0232 75.9811 88.8704 75.3534 90.8614 74.3035C93.0888 73.1278 95.2891 71.5173 97.4011 69.5164L98.5394 68.4372C99.5334 67.4938 100.888 66.9991 102.228 67.0482L105.837 67.375C107.652 67.5207 108.879 66.8292 109.455 65.2928C109.703 64.5426 109.642 63.7385 109.286 63.033C108.93 62.3276 108.322 61.8033 107.57 61.5566L102.188 59.7815C101.675 59.6142 100.898 59.4356 100.055 59.8266C100.009 59.8482 99.9633 59.8752 99.9229 59.9055C98.3562 61.0928 95.6723 62.5227 94.5976 61.9962C94.2023 61.7985 94.0003 61.245 94.0003 60.3535L94.0453 46.4513C94.0453 45.0996 92.9457 44 91.594 44ZM83.8033 51.5738C83.6042 51.5738 83.4426 51.7353 83.4426 51.9344C83.4426 52.1335 83.6042 52.2951 83.8033 52.2951H85.2459C85.445 52.2951 85.6066 52.1335 85.6066 51.9344C85.6066 51.7353 85.445 51.5738 85.2459 51.5738H83.8033ZM89.5738 51.5738C89.3747 51.5738 89.2131 51.7353 89.2131 51.9344C89.2131 52.1335 89.3747 52.2951 89.5738 52.2951H91.0164C91.2155 52.2951 91.377 52.1335 91.377 51.9344C91.377 51.7353 91.2155 51.5738 91.0164 51.5738H89.5738ZM86.6885 54.459C86.4894 54.459 86.3279 54.6206 86.3279 54.8197C86.3279 55.0188 86.4894 55.1803 86.6885 55.1803H88.1311C88.3302 55.1803 88.4918 55.0188 88.4918 54.8197C88.4918 54.6206 88.3302 54.459 88.1311 54.459H86.6885ZM83.8033 57.3443C83.6042 57.3443 83.4426 57.5058 83.4426 57.7049C83.4426 57.904 83.6042 58.0656 83.8033 58.0656H85.2459C85.445 58.0656 85.6066 57.904 85.6066 57.7049C85.6066 57.5058 85.445 57.3443 85.2459 57.3443H83.8033ZM89.5738 57.3443C89.3747 57.3443 89.2131 57.5058 89.2131 57.7049C89.2131 57.904 89.3747 58.0656 89.5738 58.0656H91.0164C91.2155 58.0656 91.377 57.904 91.377 57.7049C91.377 57.5058 91.2155 57.3443 91.0164 57.3443H89.5738ZM101.222 61.0325C101.389 61.0446 101.56 61.0903 101.746 61.1509L107.128 62.9232C107.511 63.0487 107.823 63.3204 108.007 63.6811C108.188 64.0432 108.219 64.4532 108.102 64.811C107.867 65.4327 107.424 66.0592 105.967 65.938L102.332 65.6083C100.602 65.5463 98.83 66.1802 97.5533 67.3891L96.415 68.4682C94.3967 70.3783 92.3056 71.9106 90.1936 73.0243C88.2825 74.0326 86.5265 74.6219 84.7528 74.8868C83.4234 74.797 82.3607 73.6813 82.3607 72.334C82.3607 71.8882 82.4767 71.4527 82.696 71.0661C82.8921 70.7199 82.7717 70.2776 82.4255 70.0799C82.0807 69.888 81.6384 70.007 81.4393 70.3532C81.0974 70.9548 80.9152 71.6387 80.9152 72.334C80.9152 73.4139 81.3537 74.4018 82.0592 75.1263L81.8169 75.1404C81.6308 75.1519 81.4451 75.1573 81.259 75.1573H80.1037C73.3327 75.1573 71.5961 72.834 70.0899 65.6393H80.918C81.0176 65.6393 81.1135 65.6195 81.1998 65.583C81.4587 65.4734 81.6393 65.2167 81.6393 64.918V61.613C82.1913 61.5381 82.7449 61.4891 83.2989 61.4411L83.9047 64.1657C84.1543 65.0371 84.9537 65.6148 85.9419 65.6393H86.0038C86.9733 65.6393 87.7804 65.0955 88.0804 64.1939L88.6411 61.9764L89.03 63.9967C89.2694 64.9589 90.0971 65.6177 91.0897 65.6393H91.1347C92.1042 65.6393 92.9356 65.0171 93.2198 64.0361L93.4621 62.926C93.6116 63.0668 93.7734 63.1923 93.9636 63.2866C94.7071 63.6542 95.6417 63.5663 96.5784 63.2923C97.4403 64.0891 98.5443 64.5574 99.7172 64.5574C100.317 64.5574 100.908 64.4416 101.475 64.2136C101.585 64.1675 101.665 64.0684 101.69 63.9516C101.716 63.8347 101.683 63.7141 101.599 63.6276C100.993 62.9984 100.562 62.2293 100.317 61.3876C100.443 61.2987 100.659 61.1575 100.729 61.1058C100.892 61.0401 101.055 61.0204 101.222 61.0325ZM86.0968 61.3171C86.501 61.3195 86.9042 61.3504 87.3084 61.3678L86.6998 63.7882C86.5945 64.1012 86.3161 64.2197 85.9757 64.1995C85.7146 64.1938 85.3787 64.0747 85.3023 63.8107L84.7585 61.3566C85.2044 61.3407 85.6499 61.3145 86.0968 61.3171ZM90.0359 61.5961C90.7622 61.6883 91.4842 61.805 92.2026 61.9454L91.8222 63.6783C91.6794 64.1659 91.2679 64.2097 91.1178 64.1967C90.988 64.1938 90.5542 64.1469 90.4388 63.6867L90.0359 61.5961ZM99.7088 61.8046C99.937 62.4934 100.259 63.1423 100.712 63.7065C99.55 64.0111 98.3275 63.7245 97.3786 63.0133C98.2543 62.6601 99.081 62.2044 99.7088 61.8046ZM80.1967 61.8356V64.1967H72.623C75.0408 63.109 77.5882 62.3094 80.1967 61.8356ZM80.1967 76.6027H81.6393V87.2787H80.1967V76.6027ZM65.7705 88.7213H110.492V130.557H109.049V90.8852C109.049 90.4871 108.726 90.1639 108.328 90.1639H67.9344C67.5363 90.1639 67.2131 90.4871 67.2131 90.8852V130.557H65.7705V88.7213ZM68.6557 91.6066H78.7541V120.459H78.0328C77.6346 120.459 77.3115 120.782 77.3115 121.18V130.557H68.6557V91.6066ZM80.1967 91.6066H81.6393V120.459H80.1967V91.6066ZM83.082 91.6066H107.607V111.102C107.002 110.644 106.258 110.361 105.443 110.361H91.0164C89.027 110.361 87.4098 111.978 87.4098 113.967V128.393C87.4098 129.209 87.6929 129.953 88.1509 130.557H84.5246V121.18C84.5246 120.782 84.2014 120.459 83.8033 120.459H83.082V91.6066ZM91.0164 111.803H105.443C106.636 111.803 107.607 112.774 107.607 113.967V128.393C107.607 129.586 106.636 130.557 105.443 130.557H91.0164C89.8233 130.557 88.8525 129.586 88.8525 128.393V113.967C88.8525 112.774 89.8233 111.803 91.0164 111.803ZM78.7541 121.902H83.082V130.557H78.7541V121.902Z" fill="#1687A7"/>
<path d="M89.8623 49.7705C89.4641 49.7705 89.1399 49.4473 89.1399 49.0492L89.141 46.4525C89.141 45.8956 88.6894 45.4426 88.1326 45.4426C87.5743 45.4426 87.1213 45.8956 87.1213 46.4525V49.0492C87.1213 49.4473 86.7982 49.7705 86.4 49.7705C86.0018 49.7705 85.6798 49.4473 85.6798 49.0492L85.6787 46.4525C85.6787 45.0993 86.7808 44 88.134 44C89.4858 44 90.5836 45.1007 90.5836 46.4525V49.0492C90.5836 49.4473 90.2619 49.7705 89.8623 49.7705Z" fill="#1687A7"/>
<defs>
<filter id="filter0_d" x="0" y="0" width="176" height="176" filterUnits="userSpaceOnUse" color-interpolation-filters="sRGB">
<feFlood flood-opacity="0" result="BackgroundImageFix"/>
<feColorMatrix in="SourceAlpha" type="matrix" values="0 0 0 0 0 0 0 0 0 0 0 0 0 0 0 0 0 0 127 0" result="hardAlpha"/>
<feOffset/>
<feGaussianBlur stdDeviation="4"/>
<feComposite in2="hardAlpha" operator="out"/>
<feColorMatrix type="matrix" values="0 0 0 0 0.666667 0 0 0 0 0.666667 0 0 0 0 0.666667 0 0 0 0.25 0"/>
<feBlend mode="normal" in2="BackgroundImageFix" result="effect1_dropShadow"/>
<feBlend mode="normal" in="SourceGraphic" in2="effect1_dropShadow" result="shape"/>
</filter>
</defs>
</svg>
