<svg width="176" height="176" viewBox="0 0 176 176" fill="none" xmlns="http://www.w3.org/2000/svg">
<g filter="url(#filter0_d)">
<rect x="8" y="8" width="160" height="160" fill="white"/>
</g>
<path d="M87.7557 43.0001C87.4669 43.0001 87.2325 43.2345 87.2325 43.5234V49.3098H85.1517L85.1395 47.736C85.1374 47.4492 84.9029 47.2168 84.6162 47.2168H84.6121C84.3233 47.2189 84.0909 47.4553 84.0929 47.7441L84.1093 49.8372V52.4187H83.5697C83.2809 52.4187 83.0464 52.6531 83.0464 52.9419C83.0464 53.2308 83.2809 53.4652 83.5697 53.4652H83.9029L81.9202 59.7443H80.9534V58.1745C80.9534 57.8857 80.719 57.6512 80.4302 57.6512C80.1413 57.6512 79.9069 57.8857 79.9069 58.1745V60.2675V62.3605V66.0233C79.9069 66.0443 79.9171 66.0607 79.9192 66.0806L77.8384 72.6683C77.8332 72.6861 77.8385 72.7046 77.8343 72.7234C77.827 72.758 77.8139 72.789 77.8139 72.8256V74.9187V75.9652V102.651H54.7907V101.635H55.3425C55.6314 101.635 55.8658 101.401 55.8658 101.112C55.8658 100.823 55.6314 100.589 55.3425 100.589H54.6599L51.8678 92.2168H52.1907C52.4796 92.2168 52.714 91.9823 52.714 91.6935C52.714 91.4047 52.4796 91.1702 52.1907 91.1702H51.1422H50.6189V88.554V86.4609C50.6189 86.1721 50.3845 85.9377 50.0957 85.9377C49.8068 85.9377 49.5724 86.1721 49.5724 86.4609V88.0307H44.3399V86.4609C44.3399 86.1721 44.1055 85.9377 43.8166 85.9377C43.5278 85.9377 43.2934 86.1721 43.2934 86.4609V88.554V91.1702H42.7599H41.7318C41.4429 91.1702 41.2085 91.4047 41.2085 91.6935C41.2085 91.9823 41.4429 92.2167 41.7318 92.2168H42.0363L39.2402 100.589H38.58C38.2911 100.589 38.0567 100.823 38.0567 101.112C38.0567 101.401 38.2911 101.635 38.58 101.635H39.093V104.221V105.267V131.953H37.5233C37.2344 131.953 37 132.188 37 132.477C37 132.766 37.2344 133 37.5233 133H39.6163H54.2674H78.3372H97.1743H121.244H135.895H137.988C138.277 133 138.512 132.766 138.512 132.477C138.512 132.188 138.278 131.953 137.988 131.953H136.418V105.267V104.221V101.635H136.942C137.231 101.635 137.465 101.401 137.465 101.112C137.465 100.823 137.231 100.589 136.942 100.589H136.282L133.489 92.2168H133.812C134.101 92.2168 134.336 91.9823 134.336 91.6935C134.336 91.4047 134.101 91.1702 133.812 91.1702H132.764H132.241V88.554V86.4609C132.241 86.1721 132.006 85.9377 131.717 85.9377C131.429 85.9377 131.194 86.1721 131.194 86.4609V88.0307H125.962V86.4609C125.962 86.1721 125.727 85.9377 125.438 85.9377C125.149 85.9377 124.915 86.1721 124.915 86.4609V88.554V91.1702H124.382H123.351C123.063 91.1702 122.828 91.4047 122.828 91.6935C122.828 91.9823 123.063 92.2167 123.351 92.2168H123.656L120.87 100.558H120.2C119.911 100.558 119.676 100.793 119.676 101.081C119.676 101.37 119.911 101.605 120.2 101.605H120.723V102.651H97.6996V75.9652V74.9187V72.8256C97.6996 72.789 97.6865 72.758 97.6792 72.7234C97.6761 72.7046 97.6814 72.6861 97.6751 72.6683L95.5944 66.0806C95.5965 66.0607 95.6046 66.0432 95.6046 66.0233V62.3605V60.2675V58.1745C95.6046 57.8857 95.3702 57.6512 95.0814 57.6512C94.7925 57.6512 94.5581 57.8857 94.5581 58.1745V59.7443H93.5934L91.6107 53.4652H91.9418C92.2307 53.4652 92.4651 53.2308 92.4651 52.9419C92.4651 52.6531 92.2307 52.4187 91.9418 52.4187H91.4349V49.8331V49.831V49.8289L91.4186 47.7359C91.4165 47.4491 91.1821 47.2167 90.8953 47.2167H90.8912C90.6024 47.2188 90.37 47.4552 90.3721 47.744L90.3843 49.3097H88.279V43.5233C88.279 43.2344 88.0446 43 87.7558 43L87.7557 43.0001ZM85.1558 50.3563H86.186V52.4187H85.1558V50.3563ZM87.2325 50.3563H88.279V52.4187H87.2325V50.3563ZM89.3255 50.3563H90.3884V52.4187H89.3255V50.3563ZM84.9902 53.4959H90.5233L96.461 72.3024H93.5136V69.6861C93.5136 69.3973 93.2792 69.1629 92.9903 69.1629H91.1753L88.2504 61.1362C88.1761 60.9311 87.9795 60.7929 87.7619 60.7908H87.7578C87.5412 60.7908 87.3467 60.924 87.2693 61.126L84.1706 69.1629H82.5252C82.2364 69.1629 82.002 69.3973 82.002 69.6861V72.3024H79.0546L84.9903 53.4959H84.9902ZM80.9534 60.7908H81.5911L80.9534 62.8041V62.3605V60.7908ZM93.9224 60.7908H94.558V62.3605V62.8041L93.9224 60.7908ZM87.7435 62.802L90.3168 69.8639C90.3179 69.8671 90.3209 69.867 90.323 69.8701C90.3575 69.9601 90.4173 70.0323 90.4926 70.0909C90.5094 70.1034 90.5239 70.1151 90.5417 70.1256C90.6212 70.1737 90.708 70.2074 90.8074 70.2074H92.4651V72.8196V72.8236C92.4651 73.1125 92.6995 73.3469 92.9883 73.3469H94.0348H96.1278H96.6511V73.443C96.4868 73.3844 96.312 73.3469 96.1278 73.3469C95.7249 73.3469 95.3597 73.5045 95.0813 73.7557C94.803 73.5045 94.4377 73.3469 94.0348 73.3469C93.1694 73.3469 92.4651 74.0512 92.4651 74.9167V75.9632C92.4651 76.252 92.6995 76.4864 92.9883 76.4864C93.2772 76.4864 93.5116 76.252 93.5116 75.9632V74.9167C93.5116 74.6289 93.747 74.3934 94.0348 74.3934C94.3226 74.3934 94.5581 74.6289 94.5581 74.9167V75.9632C94.5581 76.252 94.7925 76.4864 95.0813 76.4864C95.3702 76.4864 95.6046 76.252 95.6046 75.9632V74.9167C95.6046 74.6289 95.8401 74.3934 96.1278 74.3934C96.4156 74.3934 96.6511 74.6289 96.6511 74.9167V75.9632V81.719H90.8953H84.6162H78.8604V75.9632V74.9167C78.8604 74.6289 79.0959 74.3934 79.3837 74.3934C79.6715 74.3934 79.9069 74.6289 79.9069 74.9167V75.9632C79.9069 76.252 80.1414 76.4864 80.4302 76.4864C80.719 76.4864 80.9534 76.252 80.9534 75.9632V74.9167C80.9534 74.6289 81.1889 74.3934 81.4767 74.3934C81.7645 74.3934 82 74.6289 82 74.9167V75.9632C82 76.252 82.2344 76.4864 82.5232 76.4864C82.8121 76.4864 83.0465 76.252 83.0465 75.9632V74.9167C83.0465 74.0582 82.353 73.3602 81.4971 73.3489H82.5232C82.8121 73.3489 83.0465 73.1145 83.0465 72.8257V70.2094H84.5304C84.5335 70.2094 84.5354 70.2073 84.5386 70.2073C84.5647 70.2063 84.5891 70.1962 84.6142 70.191C84.7963 70.1606 84.9478 70.0457 85.0148 69.8782C85.0159 69.8761 85.0158 69.8741 85.0169 69.8721L87.7435 62.802L87.7435 62.802ZM78.8604 73.3489H79.3734C79.1932 73.3504 79.0215 73.3855 78.8604 73.4429V73.3489ZM79.4041 73.3489H81.4562C81.0616 73.3542 80.7037 73.5088 80.4302 73.7556C80.1566 73.5088 79.7987 73.3542 79.4041 73.3489ZM87.7557 73.3489C85.736 73.3489 84.0929 74.9919 84.0929 77.0117C84.0929 79.0315 85.737 80.6745 87.7557 80.6745C89.7755 80.6745 91.4185 79.0315 91.4185 77.0117C91.4185 74.9919 89.7755 73.3489 87.7557 73.3489ZM87.7557 74.3954C89.1989 74.3954 90.372 75.5685 90.372 77.0117C90.372 78.4548 89.1989 79.628 87.7557 79.628C86.3126 79.628 85.1395 78.4548 85.1395 77.0117C85.1395 75.5685 86.3126 74.3954 87.7557 74.3954ZM87.7557 75.4419C87.4669 75.4419 87.2325 75.6763 87.2325 75.9652V77.0117C87.2335 77.3005 87.4669 77.5349 87.7557 77.5349C87.7651 77.5349 87.7749 77.5309 87.7843 77.5309C87.7938 77.5309 87.8015 77.5349 87.8109 77.5349H89.3255C89.6143 77.5349 89.8487 77.3005 89.8487 77.0117C89.8487 76.7228 89.6143 76.4884 89.3255 76.4884H88.279V75.9652C88.279 75.6763 88.0446 75.4419 87.7557 75.4419H87.7557ZM78.8604 82.7675H84.0929V84.3373C84.0929 84.535 84.2063 84.7164 84.3832 84.8053L86.186 85.7067V87.4768C86.186 87.7656 86.4204 88 86.7092 88H87.2325V90.0931C86.9436 90.0931 86.7092 90.3275 86.7092 90.6163C86.7092 90.9052 86.9436 91.1396 87.2325 91.1396H88.279C88.5678 91.1396 88.8022 90.9052 88.8022 90.6163C88.8022 90.3275 88.5678 90.0931 88.279 90.0931V88H88.8022C89.0911 88 89.3255 87.7656 89.3255 87.4768V85.7067L91.1303 84.8053C91.3072 84.7164 91.4185 84.535 91.4185 84.3373V82.7675H96.6511V95.3256H92.465V93.2326C92.465 92.0783 91.5263 91.1396 90.372 91.1396C89.2177 91.1396 88.279 92.0783 88.279 93.2326V95.3256H87.2325V93.2326C87.2325 92.0783 86.2938 91.1396 85.1395 91.1396C83.9852 91.1396 83.0464 92.0783 83.0464 93.2326V95.3256H78.8604V82.7675ZM85.1395 82.7696H90.372V84.0144L88.5692 84.9157C88.3924 85.0047 88.279 85.186 88.279 85.3838V86.9536H87.2325V85.3838C87.2325 85.186 87.1211 85.0047 86.9443 84.9157L85.1395 84.0144V82.7696ZM44.3419 89.0773H45.3721V91.1396H44.3419V89.0773ZM46.4186 89.0773H47.4651V91.1396H46.4186V89.0773ZM48.5116 89.0773H49.5744V91.1396H48.5116V89.0773ZM125.962 89.0773H126.994V91.1396H125.962V89.0773ZM128.04 89.0773H129.087V91.1396H128.04V89.0773ZM130.131 89.0773H131.194V91.1396H130.131V89.0773ZM85.1395 92.1861C85.7171 92.1861 86.186 92.6549 86.186 93.2326V95.8489V97.9419V100.558H84.0929V93.2326C84.0929 92.6549 84.5618 92.1861 85.1395 92.1861ZM90.372 92.1861C90.9497 92.1861 91.4185 92.6549 91.4185 93.2326V100.558H89.3255V97.9419V95.8489V93.2326C89.3255 92.6549 89.7943 92.1861 90.372 92.1861ZM43.1401 92.2168H50.7681L53.5581 100.589H52.4033H50.3164L47.3302 97.574C47.2318 97.4746 47.0984 97.4186 46.9602 97.4186H46.9581C46.8189 97.4186 46.6855 97.4736 46.5882 97.5719L43.5856 100.589H41.9381H40.3439L43.14 92.2168H43.1401ZM124.76 92.2168H132.388L135.178 100.589H133.804H131.936L128.95 97.574C128.851 97.4746 128.718 97.4186 128.58 97.4186H128.578C128.439 97.4186 128.305 97.4736 128.208 97.5719L125.207 100.589H123.492C123.443 100.574 123.392 100.558 123.339 100.558H121.976L124.76 92.2167L124.76 92.2168ZM78.8604 96.3721H83.0464V100.558H82.5232C82.2343 100.558 81.9999 100.793 81.9999 101.081V103.174C81.9999 103.463 82.2343 103.698 82.5232 103.698H92.9883C93.2771 103.698 93.5115 103.463 93.5115 103.174V101.081C93.5115 100.793 93.2771 100.558 92.9883 100.558H92.465V96.3721H96.6511V103.174V108.407V116.256H92.465V108.407C92.465 106.964 91.2919 105.791 89.8488 105.791C88.9896 105.791 88.2329 106.213 87.7557 106.854C87.2785 106.213 86.5219 105.791 85.6627 105.791C84.2196 105.791 83.0464 106.964 83.0464 108.407V116.256H78.8604V108.407V103.174V96.3721ZM87.2325 96.3721H88.279V97.4186H87.2325V96.3721ZM87.2325 98.4652H88.279V100.558H87.2325V98.4652ZM46.9561 98.6859L49.7257 101.48C49.8241 101.579 49.9585 101.635 50.0977 101.635H52.4033H53.7441V102.747C53.5798 102.689 53.4051 102.651 53.2209 102.651C52.818 102.651 52.4527 102.809 52.1744 103.06C51.896 102.809 51.5308 102.651 51.1279 102.651C50.2624 102.651 49.5581 103.355 49.5581 104.221V105.267C49.5581 105.556 49.7925 105.791 50.0814 105.791C50.3702 105.791 50.6046 105.556 50.6046 105.267V104.221C50.6046 103.933 50.8401 103.698 51.1279 103.698C51.4157 103.698 51.6511 103.933 51.6511 104.221V105.267C51.6511 105.556 51.8855 105.791 52.1744 105.791C52.4632 105.791 52.6976 105.556 52.6976 105.267V104.221C52.6976 103.933 52.9331 103.698 53.2209 103.698C53.5087 103.698 53.7441 103.933 53.7441 104.221V105.267V108.407V131.953H51.598V128.28C51.598 125.684 49.4851 123.571 46.8887 123.571C44.2923 123.571 42.1794 125.684 42.1794 128.28V131.953H40.1395V105.267V104.221C40.1395 103.933 40.375 103.698 40.6628 103.698C40.9506 103.698 41.186 103.933 41.186 104.221V105.267C41.186 105.556 41.4204 105.791 41.7093 105.791C41.9981 105.791 42.2325 105.556 42.2325 105.267V104.221C42.2325 103.933 42.468 103.698 42.7558 103.698C43.0436 103.698 43.279 103.933 43.279 104.221V105.267C43.279 105.556 43.5135 105.791 43.8023 105.791C44.0911 105.791 44.3256 105.556 44.3256 105.267V104.221C44.3256 103.355 43.6213 102.651 42.7558 102.651C42.3529 102.651 41.9876 102.809 41.7093 103.06C41.4309 102.809 41.0657 102.651 40.6628 102.651C40.4786 102.651 40.3038 102.689 40.1395 102.747V101.635H41.9382H43.8023C43.9415 101.635 44.077 101.58 44.1743 101.482L46.9561 98.6859ZM128.576 98.6859L131.345 101.48C131.444 101.579 131.578 101.635 131.717 101.635H133.802H135.372V102.747C135.208 102.689 135.033 102.651 134.849 102.651C134.446 102.651 134.081 102.809 133.802 103.06C133.524 102.809 133.159 102.651 132.756 102.651C131.89 102.651 131.186 103.355 131.186 104.221V105.267C131.186 105.556 131.42 105.791 131.709 105.791C131.998 105.791 132.232 105.556 132.232 105.267V104.221C132.232 103.933 132.468 103.698 132.756 103.698C133.043 103.698 133.279 103.933 133.279 104.221V105.267C133.279 105.556 133.513 105.791 133.802 105.791C134.091 105.791 134.325 105.556 134.325 105.267V104.221C134.325 103.933 134.561 103.698 134.849 103.698C135.136 103.698 135.372 103.933 135.372 104.221V105.267V131.953H133.226V128.28C133.226 125.684 131.113 123.571 128.516 123.571C125.92 123.571 123.807 125.684 123.807 128.28V131.953H121.769V108.407V105.267V104.221C121.769 103.933 122.005 103.698 122.293 103.698C122.58 103.698 122.816 103.933 122.816 104.221V105.267C122.816 105.556 123.05 105.791 123.339 105.791C123.628 105.791 123.862 105.556 123.862 105.267V104.221C123.862 103.933 124.098 103.698 124.386 103.698C124.673 103.698 124.909 103.933 124.909 104.221V105.267C124.909 105.556 125.143 105.791 125.432 105.791C125.721 105.791 125.955 105.556 125.955 105.267V104.221C125.955 103.355 125.251 102.651 124.386 102.651C123.983 102.651 123.617 102.809 123.339 103.06C123.061 102.809 122.696 102.651 122.293 102.651C122.108 102.651 121.934 102.689 121.769 102.747V101.635H125.424C125.563 101.635 125.697 101.58 125.794 101.482L128.576 98.6859ZM46.9418 100.558C46.0764 100.558 45.3721 101.262 45.3721 102.128V105.267C45.3721 105.556 45.6065 105.791 45.8953 105.791H47.9883C48.2772 105.791 48.5116 105.556 48.5116 105.267V102.128C48.5116 101.262 47.8073 100.558 46.9418 100.558ZM128.57 100.558C127.704 100.558 127 101.262 127 102.128V105.267C127 105.556 127.234 105.791 127.523 105.791H129.616C129.905 105.791 130.139 105.556 130.139 105.267V102.128C130.139 101.262 129.435 100.558 128.57 100.558ZM46.9418 101.605C47.2296 101.605 47.4651 101.84 47.4651 102.128V104.744H46.4186V102.128C46.4186 101.84 46.654 101.605 46.9418 101.605ZM83.0464 101.605H83.5697H84.0929V102.651H83.0464V101.605ZM85.1395 101.605H86.186V102.651H85.1395V101.605ZM87.2325 101.605H88.279V102.651H87.2325V101.605ZM89.3255 101.605H90.372V102.651H89.3255V101.605ZM91.4185 101.605H91.9418H92.465V102.651H91.4185V101.605ZM128.57 101.605C128.857 101.605 129.093 101.84 129.093 102.128V104.744H128.046V102.128C128.046 101.84 128.282 101.605 128.57 101.605ZM54.7907 103.698H77.8139V107.884H54.7907V105.267V104.221V103.698ZM97.6976 103.698H120.721V104.221V105.267V107.884H97.6976V103.698ZM85.6627 106.837C86.5282 106.837 87.2325 107.542 87.2325 108.407V116.256H84.0929V108.407C84.0929 107.542 84.7972 106.837 85.6627 106.837ZM89.8488 106.837C90.7142 106.837 91.4185 107.542 91.4185 108.407V116.256H88.279V108.407C88.279 107.542 88.9833 106.837 89.8488 106.837ZM46.9418 108.92C44.7933 108.92 42.9979 110.373 42.4349 112.344C42.4014 112.403 42.3809 112.471 42.3736 112.542C42.2898 112.893 42.2346 113.253 42.2346 113.629V120.955C42.2335 121.243 42.4669 121.478 42.7558 121.478H51.1279C51.4167 121.478 51.6511 121.244 51.6511 120.955V113.629C51.6511 113.249 51.5948 112.883 51.5101 112.53C51.5017 112.463 51.4842 112.402 51.4528 112.346C50.8909 110.374 49.0913 108.92 46.9418 108.92H46.9418ZM128.572 108.92C126.423 108.92 124.626 110.373 124.063 112.344C124.029 112.403 124.011 112.471 124.003 112.542C123.92 112.893 123.862 113.253 123.862 113.629V120.955C123.862 121.244 124.097 121.478 124.386 121.478H132.758C133.047 121.478 133.281 121.244 133.281 120.955V113.629C133.281 113.249 133.225 112.885 133.14 112.532C133.131 112.464 133.111 112.402 133.081 112.346C132.519 110.374 130.721 108.92 128.572 108.92ZM54.7907 108.93H77.8139V117.302H76.7674V112.855C76.7674 111.845 75.9459 111.023 74.936 111.023C74.4232 111.023 73.9606 111.237 73.6278 111.577C73.2951 111.236 72.8325 111.023 72.3197 111.023C71.3098 111.023 70.4883 111.845 70.4883 112.855V117.302H69.4418V112.855C69.4418 111.845 68.6203 111.023 67.6104 111.023C67.0976 111.023 66.6351 111.237 66.3023 111.577C65.9695 111.236 65.5069 111.023 64.9941 111.023C63.9842 111.023 63.1627 111.845 63.1627 112.855V117.302H62.1162V112.855C62.1162 111.845 61.2947 111.023 60.2848 111.023C59.772 111.023 59.3095 111.237 58.9767 111.577C58.6439 111.236 58.1813 111.023 57.6686 111.023C56.6587 111.023 55.8372 111.845 55.8372 112.855V117.302H54.7907V108.93ZM97.6976 108.93H120.721V117.302H119.674V112.855C119.674 111.845 118.853 111.023 117.843 111.023C117.33 111.023 116.868 111.237 116.535 111.577C116.202 111.236 115.739 111.023 115.227 111.023C114.217 111.023 113.395 111.845 113.395 112.855V117.302H112.349V112.855C112.349 111.845 111.527 111.023 110.517 111.023C110.005 111.023 109.542 111.237 109.209 111.577C108.876 111.236 108.414 111.023 107.901 111.023C106.891 111.023 106.07 111.845 106.07 112.855V117.302H105.023V112.855C105.023 111.845 104.202 111.023 103.192 111.023C102.679 111.023 102.216 111.237 101.884 111.577C101.551 111.236 101.088 111.023 100.575 111.023C99.5656 111.023 98.7441 111.845 98.7441 112.855V117.302H97.6976V108.93ZM46.9418 109.967C48.4017 109.967 49.6567 110.831 50.2449 112.07H43.6408C44.229 110.83 45.4819 109.967 46.9418 109.967ZM128.57 109.967C130.03 109.967 131.285 110.831 131.873 112.07H125.269C125.857 110.83 127.11 109.967 128.57 109.967ZM57.6686 112.07C58.1008 112.07 58.4534 112.423 58.4534 112.855V117.302H56.8837V112.855C56.8837 112.423 57.2364 112.07 57.6686 112.07ZM60.2848 112.07C60.717 112.07 61.0697 112.423 61.0697 112.855V117.302H59.5V112.855C59.5 112.423 59.8526 112.07 60.2848 112.07ZM64.9941 112.07C65.4263 112.07 65.779 112.423 65.779 112.855V117.302H64.2092V112.855C64.2092 112.423 64.5619 112.07 64.9941 112.07ZM67.6104 112.07C68.0426 112.07 68.3953 112.423 68.3953 112.855V117.302H66.8255V112.855C66.8255 112.423 67.1782 112.07 67.6104 112.07ZM72.3197 112.07C72.7519 112.07 73.1046 112.423 73.1046 112.855V117.302H71.5348V112.855C71.5348 112.423 71.8875 112.07 72.3197 112.07ZM74.936 112.07C75.3682 112.07 75.7209 112.423 75.7209 112.855V117.302H74.1511V112.855C74.1511 112.423 74.5038 112.07 74.936 112.07ZM100.575 112.07C101.008 112.07 101.36 112.423 101.36 112.855V117.302H99.7906V112.855C99.7906 112.423 100.143 112.07 100.575 112.07ZM103.192 112.07C103.624 112.07 103.977 112.423 103.977 112.855V117.302H102.407V112.855C102.407 112.423 102.76 112.07 103.192 112.07ZM107.901 112.07C108.333 112.07 108.686 112.423 108.686 112.855V117.302H107.116V112.855C107.116 112.423 107.469 112.07 107.901 112.07ZM110.517 112.07C110.95 112.07 111.302 112.423 111.302 112.855V117.302H109.732V112.855C109.732 112.423 110.085 112.07 110.517 112.07ZM115.227 112.07C115.659 112.07 116.012 112.423 116.012 112.855V117.302H114.442V112.855C114.442 112.423 114.794 112.07 115.227 112.07ZM117.843 112.07C118.275 112.07 118.628 112.423 118.628 112.855V117.302H117.058V112.855C117.058 112.423 117.411 112.07 117.843 112.07ZM43.3322 113.116H44.3256V114.163H43.279V113.629C43.279 113.454 43.3081 113.285 43.3322 113.116H43.3322ZM45.3721 113.116H46.4186V114.163H45.3721V113.116ZM47.4651 113.116H48.5116V114.163H47.4651V113.116ZM49.5581 113.116H50.5535C50.5786 113.285 50.6046 113.454 50.6046 113.629V114.163H49.5581V113.116H49.5581ZM124.96 113.116H125.953V114.163H124.907V113.629C124.907 113.454 124.936 113.285 124.96 113.116ZM127 113.116H128.046V114.163H127V113.116ZM129.093 113.116H130.139V114.163H129.093V113.116ZM131.186 113.116H132.181C132.205 113.285 132.232 113.455 132.232 113.629V114.163H131.186V113.116H131.186ZM43.279 115.209H44.3256V120.432H43.279V115.209ZM45.3721 115.209H46.4186V120.432H45.3721V115.209ZM47.4651 115.209H48.5116V120.432H47.4651V115.209ZM49.5581 115.209H50.6046V120.432H49.5581V115.209ZM124.907 115.209H125.953V120.432H124.907V115.209ZM127 115.209H128.046V120.432H127V115.209ZM129.093 115.209H130.139V120.432H129.093V115.209ZM131.186 115.209H132.232V120.432H131.186V115.209ZM78.8624 117.302H83.5697H87.7557H91.9418H96.6511V131.954H93.4584V125.141C93.4584 121.968 90.8756 119.385 87.7026 119.385C84.5296 119.385 81.9468 121.968 81.9468 125.141V131.954H78.8624V117.302ZM54.7907 118.349H56.3604H58.9767H61.593H63.686H66.3023H68.9185H71.0116H73.6278H76.2441H77.8139V131.954H76.7674V127.761C76.7674 126.03 75.3588 124.622 73.6278 124.622C71.8969 124.622 70.4883 126.03 70.4883 127.761V131.954H69.4418V127.761C69.4418 126.03 68.0332 124.622 66.3023 124.622C64.5713 124.622 63.1627 126.03 63.1627 127.761V131.954H62.1162V127.761C62.1162 126.03 60.7076 124.622 58.9767 124.622C57.2458 124.622 55.8372 126.03 55.8372 127.761V131.954H54.7907V118.349ZM97.6976 118.349H99.2673H101.884H104.5H106.593H109.209H111.825H113.918H116.535H119.151H120.721V131.954H119.674V127.761C119.674 126.03 118.266 124.622 116.535 124.622C114.804 124.622 113.395 126.03 113.395 127.761V131.954H112.349V127.761C112.349 126.03 110.94 124.622 109.209 124.622C107.478 124.622 106.07 126.03 106.07 127.761V131.954H105.023V127.761C105.023 126.03 103.615 124.622 101.884 124.622C100.153 124.622 98.7441 126.03 98.7441 127.761V131.954H97.6976V118.349ZM56.3604 119.385C56.0716 119.385 55.8372 119.62 55.8372 119.908V122.525C55.8372 122.814 56.0716 123.048 56.3604 123.048H58.9767H61.593C61.8818 123.048 62.1162 122.814 62.1162 122.525V119.908C62.1162 119.62 61.8818 119.385 61.593 119.385H58.9767H56.3604ZM63.686 119.385C63.3972 119.385 63.1627 119.62 63.1627 119.908V122.525C63.1627 122.814 63.3972 123.048 63.686 123.048H66.3023H68.9185C69.2074 123.048 69.4418 122.814 69.4418 122.525V119.908C69.4418 119.62 69.2074 119.385 68.9185 119.385H66.3023H63.686ZM71.0116 119.385C70.7227 119.385 70.4883 119.62 70.4883 119.908V122.525C70.4883 122.814 70.7227 123.048 71.0116 123.048H73.6278H76.2441C76.533 123.048 76.7674 122.814 76.7674 122.525V119.908C76.7674 119.62 76.533 119.385 76.2441 119.385H73.6278H71.0116ZM99.2673 119.385C98.9785 119.385 98.7441 119.62 98.7441 119.908V122.525C98.7441 122.814 98.9785 123.048 99.2673 123.048H101.884H104.5C104.789 123.048 105.023 122.814 105.023 122.525V119.908C105.023 119.62 104.789 119.385 104.5 119.385H101.884H99.2673ZM106.593 119.385C106.304 119.385 106.07 119.62 106.07 119.908V122.525C106.07 122.814 106.304 123.048 106.593 123.048H109.209H111.825C112.114 123.048 112.349 122.814 112.349 122.525V119.908C112.349 119.62 112.114 119.385 111.825 119.385H109.209H106.593ZM113.918 119.385C113.63 119.385 113.395 119.62 113.395 119.908V122.525C113.395 122.814 113.63 123.048 113.918 123.048H116.535H119.151C119.44 123.048 119.674 122.814 119.674 122.525V119.908C119.674 119.62 119.44 119.385 119.151 119.385H116.535H113.918ZM56.8837 120.432H58.4534V122.001H56.8837V120.432ZM59.5 120.432H61.0697V122.001H59.5V120.432ZM64.2092 120.432H65.779V122.001H64.2092V120.432ZM66.8255 120.432H68.3953V122.001H66.8255V120.432ZM71.5348 120.432H73.1046V122.001H71.5348V120.432ZM74.1511 120.432H75.7209V122.001H74.1511V120.432ZM87.7026 120.432C90.299 120.432 92.4119 122.545 92.4119 125.141V131.943H82.9933V125.141C82.9933 122.545 85.1062 120.432 87.7026 120.432ZM99.7906 120.432H101.36V122.001H99.7906V120.432ZM102.407 120.432H103.977V122.001H102.407V120.432ZM107.116 120.432H108.686V122.001H107.116V120.432ZM109.732 120.432H111.302V122.001H109.732V120.432ZM114.442 120.432H116.012V122.001H114.442V120.432ZM117.058 120.432H118.628V122.001H117.058V120.432ZM46.8887 124.618C48.9085 124.618 50.5515 126.261 50.5515 128.281V131.943H43.2259V128.281C43.2259 126.261 44.8689 124.618 46.8887 124.618ZM128.516 124.618C130.536 124.618 132.179 126.261 132.179 128.281V131.943H124.854V128.281C124.854 126.261 126.497 124.618 128.516 124.618ZM58.9767 125.668C60.131 125.668 61.0697 126.607 61.0697 127.761V131.953H56.8837V127.761C56.8837 126.607 57.8224 125.668 58.9767 125.668ZM66.3023 125.668C67.4566 125.668 68.3953 126.607 68.3953 127.761V131.953H64.2092V127.761C64.2092 126.607 65.148 125.668 66.3023 125.668ZM73.6278 125.668C74.7821 125.668 75.7209 126.607 75.7209 127.761V131.953H71.5348V127.761C71.5348 126.607 72.4735 125.668 73.6278 125.668ZM101.884 125.668C103.038 125.668 103.977 126.607 103.977 127.761V131.953H99.7906V127.761C99.7906 126.607 100.729 125.668 101.884 125.668ZM109.209 125.668C110.363 125.668 111.302 126.607 111.302 127.761V131.953H107.116V127.761C107.116 126.607 108.055 125.668 109.209 125.668ZM116.535 125.668C117.689 125.668 118.628 126.607 118.628 127.761V131.953H114.442V127.761C114.442 126.607 115.38 125.668 116.535 125.668Z" fill="#1687A7"/>
<defs>
<filter id="filter0_d" x="0" y="0" width="176" height="176" filterUnits="userSpaceOnUse" color-interpolation-filters="sRGB">
<feFlood flood-opacity="0" result="BackgroundImageFix"/>
<feColorMatrix in="SourceAlpha" type="matrix" values="0 0 0 0 0 0 0 0 0 0 0 0 0 0 0 0 0 0 127 0" result="hardAlpha"/>
<feOffset/>
<feGaussianBlur stdDeviation="4"/>
<feComposite in2="hardAlpha" operator="out"/>
<feColorMatrix type="matrix" values="0 0 0 0 0.666667 0 0 0 0 0.666667 0 0 0 0 0.666667 0 0 0 0.25 0"/>
<feBlend mode="normal" in2="BackgroundImageFix" result="effect1_dropShadow"/>
<feBlend mode="normal" in="SourceGraphic" in2="effect1_dropShadow" result="shape"/>
</filter>
</defs>
</svg>
