<svg width="160" height="160" viewBox="0 0 160 160" fill="none" xmlns="http://www.w3.org/2000/svg">
<path d="M79.7557 35.0001C79.4669 35.0001 79.2325 35.2345 79.2325 35.5234V41.3098H77.1517L77.1395 39.736C77.1374 39.4492 76.9029 39.2168 76.6162 39.2168H76.6121C76.3233 39.2189 76.0909 39.4553 76.0929 39.7441L76.1093 41.8372V44.4187H75.5697C75.2809 44.4187 75.0464 44.6531 75.0464 44.9419C75.0464 45.2308 75.2809 45.4652 75.5697 45.4652H75.9029L73.9202 51.7443H72.9534V50.1745C72.9534 49.8857 72.719 49.6512 72.4302 49.6512C72.1413 49.6512 71.9069 49.8857 71.9069 50.1745V52.2675V54.3605V58.0233C71.9069 58.0443 71.9171 58.0607 71.9192 58.0806L69.8384 64.6683C69.8332 64.6861 69.8385 64.7046 69.8343 64.7234C69.827 64.758 69.8139 64.789 69.8139 64.8256V66.9187V67.9652V94.6512H46.7907V93.6353H47.3425C47.6314 93.6353 47.8658 93.4009 47.8658 93.1121C47.8658 92.8232 47.6314 92.5888 47.3425 92.5888H46.6599L43.8678 84.2168H44.1907C44.4796 84.2168 44.714 83.9823 44.714 83.6935C44.714 83.4047 44.4796 83.1702 44.1907 83.1702H43.1422H42.6189V80.554V78.4609C42.6189 78.1721 42.3845 77.9377 42.0957 77.9377C41.8068 77.9377 41.5724 78.1721 41.5724 78.4609V80.0307H36.3399V78.4609C36.3399 78.1721 36.1055 77.9377 35.8166 77.9377C35.5278 77.9377 35.2934 78.1721 35.2934 78.4609V80.554V83.1702H34.7599H33.7318C33.4429 83.1702 33.2085 83.4047 33.2085 83.6935C33.2085 83.9823 33.4429 84.2167 33.7318 84.2168H34.0363L31.2402 92.5888H30.58C30.2911 92.5888 30.0567 92.8232 30.0567 93.1121C30.0567 93.4009 30.2911 93.6353 30.58 93.6353H31.093V96.221V97.2675V123.953H29.5233C29.2344 123.953 29 124.188 29 124.477C29 124.766 29.2344 125 29.5233 125H31.6163H46.2674H70.3372H89.1743H113.244H127.895H129.988C130.277 125 130.512 124.766 130.512 124.477C130.512 124.188 130.278 123.953 129.988 123.953H128.418V97.2675V96.221V93.6353H128.942C129.231 93.6353 129.465 93.4009 129.465 93.1121C129.465 92.8232 129.231 92.5888 128.942 92.5888H128.282L125.489 84.2168H125.812C126.101 84.2168 126.336 83.9823 126.336 83.6935C126.336 83.4047 126.101 83.1702 125.812 83.1702H124.764H124.241V80.554V78.4609C124.241 78.1721 124.006 77.9377 123.717 77.9377C123.429 77.9377 123.194 78.1721 123.194 78.4609V80.0307H117.962V78.4609C117.962 78.1721 117.727 77.9377 117.438 77.9377C117.149 77.9377 116.915 78.1721 116.915 78.4609V80.554V83.1702H116.382H115.351C115.063 83.1702 114.828 83.4047 114.828 83.6935C114.828 83.9823 115.063 84.2167 115.351 84.2168H115.656L112.87 92.5582H112.2C111.911 92.5582 111.676 92.7926 111.676 93.0814C111.676 93.3703 111.911 93.6047 112.2 93.6047H112.723V94.6512H89.6996V67.9652V66.9187V64.8256C89.6996 64.789 89.6865 64.758 89.6792 64.7234C89.6761 64.7046 89.6814 64.6861 89.6751 64.6683L87.5944 58.0806C87.5965 58.0607 87.6046 58.0432 87.6046 58.0233V54.3605V52.2675V50.1745C87.6046 49.8857 87.3702 49.6512 87.0814 49.6512C86.7925 49.6512 86.5581 49.8857 86.5581 50.1745V51.7443H85.5934L83.6107 45.4652H83.9418C84.2307 45.4652 84.4651 45.2308 84.4651 44.9419C84.4651 44.6531 84.2307 44.4187 83.9418 44.4187H83.4349V41.8331V41.831V41.8289L83.4186 39.7359C83.4165 39.4491 83.1821 39.2167 82.8953 39.2167H82.8912C82.6024 39.2188 82.37 39.4552 82.3721 39.744L82.3843 41.3097H80.279V35.5233C80.279 35.2344 80.0446 35 79.7558 35L79.7557 35.0001ZM77.1558 42.3563H78.186V44.4187H77.1558V42.3563ZM79.2325 42.3563H80.279V44.4187H79.2325V42.3563ZM81.3255 42.3563H82.3884V44.4187H81.3255V42.3563ZM76.9902 45.4959H82.5233L88.461 64.3024H85.5136V61.6861C85.5136 61.3973 85.2792 61.1629 84.9903 61.1629H83.1753L80.2504 53.1362C80.1761 52.9311 79.9795 52.7929 79.7619 52.7908H79.7578C79.5412 52.7908 79.3467 52.924 79.2693 53.126L76.1706 61.1629H74.5252C74.2364 61.1629 74.002 61.3973 74.002 61.6861V64.3024H71.0546L76.9903 45.4959H76.9902ZM72.9534 52.7908H73.5911L72.9534 54.8041V54.3605V52.7908ZM85.9224 52.7908H86.558V54.3605V54.8041L85.9224 52.7908ZM79.7435 54.802L82.3168 61.8639C82.3179 61.8671 82.3209 61.867 82.323 61.8701C82.3575 61.9601 82.4173 62.0323 82.4926 62.0909C82.5094 62.1034 82.5239 62.1151 82.5417 62.1256C82.6212 62.1737 82.708 62.2074 82.8074 62.2074H84.4651V64.8196V64.8236C84.4651 65.1125 84.6995 65.3469 84.9883 65.3469H86.0348H88.1278H88.6511V65.443C88.4868 65.3844 88.312 65.3469 88.1278 65.3469C87.7249 65.3469 87.3597 65.5045 87.0813 65.7557C86.803 65.5045 86.4377 65.3469 86.0348 65.3469C85.1694 65.3469 84.4651 66.0512 84.4651 66.9167V67.9632C84.4651 68.252 84.6995 68.4864 84.9883 68.4864C85.2772 68.4864 85.5116 68.252 85.5116 67.9632V66.9167C85.5116 66.6289 85.747 66.3934 86.0348 66.3934C86.3226 66.3934 86.5581 66.6289 86.5581 66.9167V67.9632C86.5581 68.252 86.7925 68.4864 87.0813 68.4864C87.3702 68.4864 87.6046 68.252 87.6046 67.9632V66.9167C87.6046 66.6289 87.8401 66.3934 88.1278 66.3934C88.4156 66.3934 88.6511 66.6289 88.6511 66.9167V67.9632V73.719H82.8953H76.6162H70.8604V67.9632V66.9167C70.8604 66.6289 71.0959 66.3934 71.3837 66.3934C71.6715 66.3934 71.9069 66.6289 71.9069 66.9167V67.9632C71.9069 68.252 72.1414 68.4864 72.4302 68.4864C72.719 68.4864 72.9534 68.252 72.9534 67.9632V66.9167C72.9534 66.6289 73.1889 66.3934 73.4767 66.3934C73.7645 66.3934 74 66.6289 74 66.9167V67.9632C74 68.252 74.2344 68.4864 74.5232 68.4864C74.8121 68.4864 75.0465 68.252 75.0465 67.9632V66.9167C75.0465 66.0582 74.353 65.3602 73.4971 65.3489H74.5232C74.8121 65.3489 75.0465 65.1145 75.0465 64.8257V62.2094H76.5304C76.5335 62.2094 76.5354 62.2073 76.5386 62.2073C76.5647 62.2063 76.5891 62.1962 76.6142 62.191C76.7963 62.1606 76.9478 62.0457 77.0148 61.8782C77.0159 61.8761 77.0158 61.8741 77.0169 61.8721L79.7435 54.802L79.7435 54.802ZM70.8604 65.3489H71.3734C71.1932 65.3504 71.0215 65.3855 70.8604 65.4429V65.3489ZM71.4041 65.3489H73.4562C73.0616 65.3542 72.7037 65.5088 72.4302 65.7556C72.1566 65.5088 71.7987 65.3542 71.4041 65.3489ZM79.7557 65.3489C77.736 65.3489 76.0929 66.9919 76.0929 69.0117C76.0929 71.0315 77.737 72.6745 79.7557 72.6745C81.7755 72.6745 83.4185 71.0315 83.4185 69.0117C83.4185 66.9919 81.7755 65.3489 79.7557 65.3489ZM79.7557 66.3954C81.1989 66.3954 82.372 67.5685 82.372 69.0117C82.372 70.4548 81.1989 71.628 79.7557 71.628C78.3126 71.628 77.1395 70.4548 77.1395 69.0117C77.1395 67.5685 78.3126 66.3954 79.7557 66.3954ZM79.7557 67.4419C79.4669 67.4419 79.2325 67.6763 79.2325 67.9652V69.0117C79.2335 69.3005 79.4669 69.5349 79.7557 69.5349C79.7651 69.5349 79.7749 69.5309 79.7843 69.5309C79.7938 69.5309 79.8015 69.5349 79.8109 69.5349H81.3255C81.6143 69.5349 81.8487 69.3005 81.8487 69.0117C81.8487 68.7228 81.6143 68.4884 81.3255 68.4884H80.279V67.9652C80.279 67.6763 80.0446 67.4419 79.7557 67.4419H79.7557ZM70.8604 74.7675H76.0929V76.3373C76.0929 76.535 76.2063 76.7164 76.3832 76.8053L78.186 77.7067V79.4768C78.186 79.7656 78.4204 80 78.7092 80H79.2325V82.0931C78.9436 82.0931 78.7092 82.3275 78.7092 82.6163C78.7092 82.9052 78.9436 83.1396 79.2325 83.1396H80.279C80.5678 83.1396 80.8022 82.9052 80.8022 82.6163C80.8022 82.3275 80.5678 82.0931 80.279 82.0931V80H80.8022C81.0911 80 81.3255 79.7656 81.3255 79.4768V77.7067L83.1303 76.8053C83.3072 76.7164 83.4185 76.535 83.4185 76.3373V74.7675H88.6511V87.3256H84.465V85.2326C84.465 84.0783 83.5263 83.1396 82.372 83.1396C81.2177 83.1396 80.279 84.0783 80.279 85.2326V87.3256H79.2325V85.2326C79.2325 84.0783 78.2938 83.1396 77.1395 83.1396C75.9852 83.1396 75.0464 84.0783 75.0464 85.2326V87.3256H70.8604V74.7675ZM77.1395 74.7696H82.372V76.0144L80.5692 76.9157C80.3924 77.0047 80.279 77.186 80.279 77.3838V78.9536H79.2325V77.3838C79.2325 77.186 79.1211 77.0047 78.9443 76.9157L77.1395 76.0144V74.7696ZM36.3419 81.0773H37.3721V83.1396H36.3419V81.0773ZM38.4186 81.0773H39.4651V83.1396H38.4186V81.0773ZM40.5116 81.0773H41.5744V83.1396H40.5116V81.0773ZM117.962 81.0773H118.994V83.1396H117.962V81.0773ZM120.04 81.0773H121.087V83.1396H120.04V81.0773ZM122.131 81.0773H123.194V83.1396H122.131V81.0773ZM77.1395 84.1861C77.7171 84.1861 78.186 84.6549 78.186 85.2326V87.8489V89.9419V92.5582H76.0929V85.2326C76.0929 84.6549 76.5618 84.1861 77.1395 84.1861ZM82.372 84.1861C82.9497 84.1861 83.4185 84.6549 83.4185 85.2326V92.5582H81.3255V89.9419V87.8489V85.2326C81.3255 84.6549 81.7943 84.1861 82.372 84.1861ZM35.1401 84.2168H42.7681L45.5581 92.5888H44.4033H42.3164L39.3302 89.574C39.2318 89.4746 39.0984 89.4186 38.9602 89.4186H38.9581C38.8189 89.4186 38.6855 89.4736 38.5882 89.5719L35.5856 92.5888H33.9381H32.3439L35.14 84.2168H35.1401ZM116.76 84.2168H124.388L127.178 92.5888H125.804H123.936L120.95 89.574C120.851 89.4746 120.718 89.4186 120.58 89.4186H120.578C120.439 89.4186 120.305 89.4736 120.208 89.5719L117.207 92.5888H115.492C115.443 92.5742 115.392 92.5582 115.339 92.5582H113.976L116.76 84.2167L116.76 84.2168ZM70.8604 88.3721H75.0464V92.5582H74.5232C74.2343 92.5582 73.9999 92.7926 73.9999 93.0814V95.1744C73.9999 95.4633 74.2343 95.6977 74.5232 95.6977H84.9883C85.2771 95.6977 85.5115 95.4633 85.5115 95.1744V93.0814C85.5115 92.7926 85.2771 92.5582 84.9883 92.5582H84.465V88.3721H88.6511V95.1744V100.407V108.256H84.465V100.407C84.465 98.9639 83.2919 97.7907 81.8488 97.7907C80.9896 97.7907 80.2329 98.2131 79.7557 98.8536C79.2785 98.2131 78.5219 97.7907 77.6627 97.7907C76.2196 97.7907 75.0464 98.9639 75.0464 100.407V108.256H70.8604V100.407V95.1744V88.3721ZM79.2325 88.3721H80.279V89.4186H79.2325V88.3721ZM79.2325 90.4652H80.279V92.5582H79.2325V90.4652ZM38.9561 90.6859L41.7257 93.48C41.8241 93.5794 41.9585 93.6353 42.0977 93.6353H44.4033H45.7441V94.7473C45.5798 94.6887 45.4051 94.6512 45.2209 94.6512C44.818 94.6512 44.4527 94.8088 44.1744 95.06C43.896 94.8088 43.5308 94.6512 43.1279 94.6512C42.2624 94.6512 41.5581 95.3555 41.5581 96.221V97.2675C41.5581 97.5563 41.7925 97.7907 42.0814 97.7907C42.3702 97.7907 42.6046 97.5563 42.6046 97.2675V96.221C42.6046 95.9332 42.8401 95.6977 43.1279 95.6977C43.4157 95.6977 43.6511 95.9332 43.6511 96.221V97.2675C43.6511 97.5563 43.8855 97.7907 44.1744 97.7907C44.4632 97.7907 44.6976 97.5563 44.6976 97.2675V96.221C44.6976 95.9332 44.9331 95.6977 45.2209 95.6977C45.5087 95.6977 45.7441 95.9332 45.7441 96.221V97.2675V100.407V123.953H43.598V120.28C43.598 117.684 41.4851 115.571 38.8887 115.571C36.2923 115.571 34.1794 117.684 34.1794 120.28V123.953H32.1395V97.2675V96.221C32.1395 95.9332 32.375 95.6977 32.6628 95.6977C32.9506 95.6977 33.186 95.9332 33.186 96.221V97.2675C33.186 97.5563 33.4204 97.7907 33.7093 97.7907C33.9981 97.7907 34.2325 97.5563 34.2325 97.2675V96.221C34.2325 95.9332 34.468 95.6977 34.7558 95.6977C35.0436 95.6977 35.279 95.9332 35.279 96.221V97.2675C35.279 97.5563 35.5135 97.7907 35.8023 97.7907C36.0911 97.7907 36.3256 97.5563 36.3256 97.2675V96.221C36.3256 95.3555 35.6213 94.6512 34.7558 94.6512C34.3529 94.6512 33.9876 94.8088 33.7093 95.06C33.4309 94.8088 33.0657 94.6512 32.6628 94.6512C32.4786 94.6512 32.3038 94.6887 32.1395 94.7473V93.6353H33.9382H35.8023C35.9415 93.6353 36.077 93.5804 36.1743 93.482L38.9561 90.6859ZM120.576 90.6859L123.345 93.48C123.444 93.5794 123.578 93.6353 123.717 93.6353H125.802H127.372V94.7473C127.208 94.6887 127.033 94.6512 126.849 94.6512C126.446 94.6512 126.081 94.8088 125.802 95.06C125.524 94.8088 125.159 94.6512 124.756 94.6512C123.89 94.6512 123.186 95.3555 123.186 96.221V97.2675C123.186 97.5563 123.42 97.7907 123.709 97.7907C123.998 97.7907 124.232 97.5563 124.232 97.2675V96.221C124.232 95.9332 124.468 95.6977 124.756 95.6977C125.043 95.6977 125.279 95.9332 125.279 96.221V97.2675C125.279 97.5563 125.513 97.7907 125.802 97.7907C126.091 97.7907 126.325 97.5563 126.325 97.2675V96.221C126.325 95.9332 126.561 95.6977 126.849 95.6977C127.136 95.6977 127.372 95.9332 127.372 96.221V97.2675V123.953H125.226V120.28C125.226 117.684 123.113 115.571 120.516 115.571C117.92 115.571 115.807 117.684 115.807 120.28V123.953H113.769V100.407V97.2675V96.221C113.769 95.9332 114.005 95.6977 114.293 95.6977C114.58 95.6977 114.816 95.9332 114.816 96.221V97.2675C114.816 97.5563 115.05 97.7907 115.339 97.7907C115.628 97.7907 115.862 97.5563 115.862 97.2675V96.221C115.862 95.9332 116.098 95.6977 116.386 95.6977C116.673 95.6977 116.909 95.9332 116.909 96.221V97.2675C116.909 97.5563 117.143 97.7907 117.432 97.7907C117.721 97.7907 117.955 97.5563 117.955 97.2675V96.221C117.955 95.3555 117.251 94.6512 116.386 94.6512C115.983 94.6512 115.617 94.8088 115.339 95.06C115.061 94.8088 114.696 94.6512 114.293 94.6512C114.108 94.6512 113.934 94.6887 113.769 94.7473V93.6353H117.424C117.563 93.6353 117.697 93.5804 117.794 93.482L120.576 90.6859ZM38.9418 92.5582C38.0764 92.5582 37.3721 93.2625 37.3721 94.1279V97.2675C37.3721 97.5563 37.6065 97.7907 37.8953 97.7907H39.9883C40.2772 97.7907 40.5116 97.5563 40.5116 97.2675V94.1279C40.5116 93.2625 39.8073 92.5582 38.9418 92.5582ZM120.57 92.5582C119.704 92.5582 119 93.2625 119 94.1279V97.2675C119 97.5563 119.234 97.7907 119.523 97.7907H121.616C121.905 97.7907 122.139 97.5563 122.139 97.2675V94.1279C122.139 93.2625 121.435 92.5582 120.57 92.5582ZM38.9418 93.6047C39.2296 93.6047 39.4651 93.8401 39.4651 94.1279V96.7442H38.4186V94.1279C38.4186 93.8401 38.654 93.6047 38.9418 93.6047ZM75.0464 93.6047H75.5697H76.0929V94.6512H75.0464V93.6047ZM77.1395 93.6047H78.186V94.6512H77.1395V93.6047ZM79.2325 93.6047H80.279V94.6512H79.2325V93.6047ZM81.3255 93.6047H82.372V94.6512H81.3255V93.6047ZM83.4185 93.6047H83.9418H84.465V94.6512H83.4185V93.6047ZM120.57 93.6047C120.857 93.6047 121.093 93.8401 121.093 94.1279V96.7442H120.046V94.1279C120.046 93.8401 120.282 93.6047 120.57 93.6047ZM46.7907 95.6977H69.8139V99.8837H46.7907V97.2675V96.221V95.6977ZM89.6976 95.6977H112.721V96.221V97.2675V99.8837H89.6976V95.6977ZM77.6627 98.8372C78.5282 98.8372 79.2325 99.5415 79.2325 100.407V108.256H76.0929V100.407C76.0929 99.5415 76.7972 98.8372 77.6627 98.8372ZM81.8488 98.8372C82.7142 98.8372 83.4185 99.5415 83.4185 100.407V108.256H80.279V100.407C80.279 99.5415 80.9833 98.8372 81.8488 98.8372ZM38.9418 100.92C36.7933 100.92 34.9979 102.373 34.4349 104.344C34.4014 104.403 34.3809 104.471 34.3736 104.542C34.2898 104.893 34.2346 105.253 34.2346 105.629V112.955C34.2335 113.243 34.4669 113.478 34.7558 113.478H43.1279C43.4167 113.478 43.6511 113.244 43.6511 112.955V105.629C43.6511 105.249 43.5948 104.883 43.5101 104.53C43.5017 104.463 43.4842 104.402 43.4528 104.346C42.8909 102.374 41.0913 100.92 38.9418 100.92H38.9418ZM120.572 100.92C118.423 100.92 116.626 102.373 116.063 104.344C116.029 104.403 116.011 104.471 116.003 104.542C115.92 104.893 115.862 105.253 115.862 105.629V112.955C115.862 113.244 116.097 113.478 116.386 113.478H124.758C125.047 113.478 125.281 113.244 125.281 112.955V105.629C125.281 105.249 125.225 104.885 125.14 104.532C125.131 104.464 125.111 104.402 125.081 104.346C124.519 102.374 122.721 100.92 120.572 100.92ZM46.7907 100.93H69.8139V109.302H68.7674V104.855C68.7674 103.845 67.9459 103.023 66.936 103.023C66.4232 103.023 65.9606 103.237 65.6278 103.577C65.2951 103.236 64.8325 103.023 64.3197 103.023C63.3098 103.023 62.4883 103.845 62.4883 104.855V109.302H61.4418V104.855C61.4418 103.845 60.6203 103.023 59.6104 103.023C59.0976 103.023 58.6351 103.237 58.3023 103.577C57.9695 103.236 57.5069 103.023 56.9941 103.023C55.9842 103.023 55.1627 103.845 55.1627 104.855V109.302H54.1162V104.855C54.1162 103.845 53.2947 103.023 52.2848 103.023C51.772 103.023 51.3095 103.237 50.9767 103.577C50.6439 103.236 50.1813 103.023 49.6686 103.023C48.6587 103.023 47.8372 103.845 47.8372 104.855V109.302H46.7907V100.93ZM89.6976 100.93H112.721V109.302H111.674V104.855C111.674 103.845 110.853 103.023 109.843 103.023C109.33 103.023 108.868 103.237 108.535 103.577C108.202 103.236 107.739 103.023 107.227 103.023C106.217 103.023 105.395 103.845 105.395 104.855V109.302H104.349V104.855C104.349 103.845 103.527 103.023 102.517 103.023C102.005 103.023 101.542 103.237 101.209 103.577C100.876 103.236 100.414 103.023 99.9011 103.023C98.8912 103.023 98.0697 103.845 98.0697 104.855V109.302H97.0231V104.855C97.0231 103.845 96.2016 103.023 95.1918 103.023C94.679 103.023 94.2164 103.237 93.8836 103.577C93.5508 103.236 93.0883 103.023 92.5755 103.023C91.5656 103.023 90.7441 103.845 90.7441 104.855V109.302H89.6976V100.93ZM38.9418 101.967C40.4017 101.967 41.6567 102.831 42.2449 104.07H35.6408C36.229 102.83 37.4819 101.967 38.9418 101.967ZM120.57 101.967C122.03 101.967 123.285 102.831 123.873 104.07H117.269C117.857 102.83 119.11 101.967 120.57 101.967ZM49.6686 104.07C50.1008 104.07 50.4534 104.423 50.4534 104.855V109.302H48.8837V104.855C48.8837 104.423 49.2364 104.07 49.6686 104.07ZM52.2848 104.07C52.717 104.07 53.0697 104.423 53.0697 104.855V109.302H51.5V104.855C51.5 104.423 51.8526 104.07 52.2848 104.07ZM56.9941 104.07C57.4263 104.07 57.779 104.423 57.779 104.855V109.302H56.2092V104.855C56.2092 104.423 56.5619 104.07 56.9941 104.07ZM59.6104 104.07C60.0426 104.07 60.3953 104.423 60.3953 104.855V109.302H58.8255V104.855C58.8255 104.423 59.1782 104.07 59.6104 104.07ZM64.3197 104.07C64.7519 104.07 65.1046 104.423 65.1046 104.855V109.302H63.5348V104.855C63.5348 104.423 63.8875 104.07 64.3197 104.07ZM66.936 104.07C67.3682 104.07 67.7209 104.423 67.7209 104.855V109.302H66.1511V104.855C66.1511 104.423 66.5038 104.07 66.936 104.07ZM92.5755 104.07C93.0077 104.07 93.3604 104.423 93.3604 104.855V109.302H91.7906V104.855C91.7906 104.423 92.1433 104.07 92.5755 104.07ZM95.1918 104.07C95.624 104.07 95.9766 104.423 95.9766 104.855V109.302H94.4069V104.855C94.4069 104.423 94.7595 104.07 95.1918 104.07ZM99.9011 104.07C100.333 104.07 100.686 104.423 100.686 104.855V109.302H99.1162V104.855C99.1162 104.423 99.4688 104.07 99.9011 104.07ZM102.517 104.07C102.95 104.07 103.302 104.423 103.302 104.855V109.302H101.732V104.855C101.732 104.423 102.085 104.07 102.517 104.07ZM107.227 104.07C107.659 104.07 108.012 104.423 108.012 104.855V109.302H106.442V104.855C106.442 104.423 106.794 104.07 107.227 104.07ZM109.843 104.07C110.275 104.07 110.628 104.423 110.628 104.855V109.302H109.058V104.855C109.058 104.423 109.411 104.07 109.843 104.07ZM35.3322 105.116H36.3256V106.163H35.279V105.629C35.279 105.454 35.3081 105.285 35.3322 105.116H35.3322ZM37.3721 105.116H38.4186V106.163H37.3721V105.116ZM39.4651 105.116H40.5116V106.163H39.4651V105.116ZM41.5581 105.116H42.5535C42.5786 105.285 42.6046 105.454 42.6046 105.629V106.163H41.5581V105.116H41.5581ZM116.96 105.116H117.953V106.163H116.907V105.629C116.907 105.454 116.936 105.285 116.96 105.116ZM119 105.116H120.046V106.163H119V105.116ZM121.093 105.116H122.139V106.163H121.093V105.116ZM123.186 105.116H124.181C124.205 105.285 124.232 105.455 124.232 105.629V106.163H123.186V105.116H123.186ZM35.279 107.209H36.3256V112.432H35.279V107.209ZM37.3721 107.209H38.4186V112.432H37.3721V107.209ZM39.4651 107.209H40.5116V112.432H39.4651V107.209ZM41.5581 107.209H42.6046V112.432H41.5581V107.209ZM116.907 107.209H117.953V112.432H116.907V107.209ZM119 107.209H120.046V112.432H119V107.209ZM121.093 107.209H122.139V112.432H121.093V107.209ZM123.186 107.209H124.232V112.432H123.186V107.209ZM70.8624 109.302H75.5697H79.7557H83.9418H88.6511V123.954H85.4584V117.141C85.4584 113.968 82.8756 111.385 79.7026 111.385C76.5296 111.385 73.9468 113.968 73.9468 117.141V123.954H70.8624V109.302ZM46.7907 110.349H48.3604H50.9767H53.593H55.686H58.3023H60.9185H63.0116H65.6278H68.2441H69.8139V123.954H68.7674V119.761C68.7674 118.03 67.3588 116.622 65.6278 116.622C63.8969 116.622 62.4883 118.03 62.4883 119.761V123.954H61.4418V119.761C61.4418 118.03 60.0332 116.622 58.3023 116.622C56.5713 116.622 55.1627 118.03 55.1627 119.761V123.954H54.1162V119.761C54.1162 118.03 52.7076 116.622 50.9767 116.622C49.2458 116.622 47.8372 118.03 47.8372 119.761V123.954H46.7907V110.349ZM89.6976 110.349H91.2673H93.8836H96.4999H98.5929H101.209H103.825H105.918H108.535H111.151H112.721V123.954H111.674V119.761C111.674 118.03 110.266 116.622 108.535 116.622C106.804 116.622 105.395 118.03 105.395 119.761V123.954H104.349V119.761C104.349 118.03 102.94 116.622 101.209 116.622C99.4783 116.622 98.0697 118.03 98.0697 119.761V123.954H97.0231V119.761C97.0231 118.03 95.6145 116.622 93.8836 116.622C92.1527 116.622 90.7441 118.03 90.7441 119.761V123.954H89.6976V110.349ZM48.3604 111.385C48.0716 111.385 47.8372 111.62 47.8372 111.908V114.525C47.8372 114.814 48.0716 115.048 48.3604 115.048H50.9767H53.593C53.8818 115.048 54.1162 114.814 54.1162 114.525V111.908C54.1162 111.62 53.8818 111.385 53.593 111.385H50.9767H48.3604ZM55.686 111.385C55.3972 111.385 55.1627 111.62 55.1627 111.908V114.525C55.1627 114.814 55.3972 115.048 55.686 115.048H58.3023H60.9185C61.2074 115.048 61.4418 114.814 61.4418 114.525V111.908C61.4418 111.62 61.2074 111.385 60.9185 111.385H58.3023H55.686ZM63.0116 111.385C62.7227 111.385 62.4883 111.62 62.4883 111.908V114.525C62.4883 114.814 62.7227 115.048 63.0116 115.048H65.6278H68.2441C68.533 115.048 68.7674 114.814 68.7674 114.525V111.908C68.7674 111.62 68.533 111.385 68.2441 111.385H65.6278H63.0116ZM91.2673 111.385C90.9785 111.385 90.7441 111.62 90.7441 111.908V114.525C90.7441 114.814 90.9785 115.048 91.2673 115.048H93.8836H96.4999C96.7887 115.048 97.0231 114.814 97.0231 114.525V111.908C97.0231 111.62 96.7887 111.385 96.4999 111.385H93.8836H91.2673ZM98.5929 111.385C98.3041 111.385 98.0697 111.62 98.0697 111.908V114.525C98.0697 114.814 98.3041 115.048 98.5929 115.048H101.209H103.825C104.114 115.048 104.349 114.814 104.349 114.525V111.908C104.349 111.62 104.114 111.385 103.825 111.385H101.209H98.5929ZM105.918 111.385C105.63 111.385 105.395 111.62 105.395 111.908V114.525C105.395 114.814 105.63 115.048 105.918 115.048H108.535H111.151C111.44 115.048 111.674 114.814 111.674 114.525V111.908C111.674 111.62 111.44 111.385 111.151 111.385H108.535H105.918ZM48.8837 112.432H50.4534V114.001H48.8837V112.432ZM51.5 112.432H53.0697V114.001H51.5V112.432ZM56.2092 112.432H57.779V114.001H56.2092V112.432ZM58.8255 112.432H60.3953V114.001H58.8255V112.432ZM63.5348 112.432H65.1046V114.001H63.5348V112.432ZM66.1511 112.432H67.7209V114.001H66.1511V112.432ZM79.7026 112.432C82.299 112.432 84.4119 114.545 84.4119 117.141V123.943H74.9933V117.141C74.9933 114.545 77.1062 112.432 79.7026 112.432ZM91.7906 112.432H93.3604V114.001H91.7906V112.432ZM94.4069 112.432H95.9766V114.001H94.4069V112.432ZM99.1162 112.432H100.686V114.001H99.1162V112.432ZM101.732 112.432H103.302V114.001H101.732V112.432ZM106.442 112.432H108.012V114.001H106.442V112.432ZM109.058 112.432H110.628V114.001H109.058V112.432ZM38.8887 116.618C40.9085 116.618 42.5515 118.261 42.5515 120.281V123.943H35.2259V120.281C35.2259 118.261 36.8689 116.618 38.8887 116.618ZM120.516 116.618C122.536 116.618 124.179 118.261 124.179 120.281V123.943H116.854V120.281C116.854 118.261 118.497 116.618 120.516 116.618ZM50.9767 117.668C52.131 117.668 53.0697 118.607 53.0697 119.761V123.953H48.8837V119.761C48.8837 118.607 49.8224 117.668 50.9767 117.668ZM58.3023 117.668C59.4566 117.668 60.3953 118.607 60.3953 119.761V123.953H56.2092V119.761C56.2092 118.607 57.148 117.668 58.3023 117.668ZM65.6278 117.668C66.7821 117.668 67.7209 118.607 67.7209 119.761V123.953H63.5348V119.761C63.5348 118.607 64.4735 117.668 65.6278 117.668ZM93.8836 117.668C95.0379 117.668 95.9766 118.607 95.9766 119.761V123.953H91.7906V119.761C91.7906 118.607 92.7293 117.668 93.8836 117.668ZM101.209 117.668C102.363 117.668 103.302 118.607 103.302 119.761V123.953H99.1162V119.761C99.1162 118.607 100.055 117.668 101.209 117.668ZM108.535 117.668C109.689 117.668 110.628 118.607 110.628 119.761V123.953H106.442V119.761C106.442 118.607 107.38 117.668 108.535 117.668Z" fill="#1687A7"/>
</svg>
