<svg width="60" height="60" viewBox="0 0 60 60" fill="none" xmlns="http://www.w3.org/2000/svg">
<path d="M59.3332 4.53162H0.703125C0.615461 4.53146 0.528628 4.5486 0.447593 4.58204C0.366558 4.61548 0.292913 4.66457 0.230871 4.7265C0.168829 4.78844 0.119608 4.862 0.086025 4.94297C0.0524421 5.02395 0.0351561 5.11075 0.0351563 5.19841V54.8015C0.0351561 54.8892 0.0524421 54.976 0.086025 55.057C0.119608 55.138 0.168829 55.2115 0.230871 55.2735C0.292913 55.3354 0.366558 55.3845 0.447593 55.4179C0.528628 55.4514 0.615461 55.4685 0.703125 55.4683H59.3332C59.51 55.4683 59.6797 55.3981 59.8047 55.273C59.9297 55.148 60 54.9784 60 54.8015V5.19841C60 5.02157 59.9297 4.85197 59.8047 4.72692C59.6797 4.60187 59.51 4.53162 59.3332 4.53162ZM1.36758 5.86521H8.83008V54.1406H1.36758V5.86521ZM58.6723 54.1347H10.1637V5.86521H58.6676L58.6723 54.1347Z" fill="#3A3A3A"/>
<path d="M12.3666 15.4968H21.2846C21.3722 15.4968 21.4589 15.4796 21.5398 15.4461C21.6207 15.4126 21.6942 15.3634 21.7561 15.3015C21.818 15.2396 21.8671 15.1661 21.9006 15.0852C21.9341 15.0043 21.9514 14.9176 21.9514 14.83V9.03862C21.9515 8.95102 21.9344 8.86424 21.9009 8.78327C21.8675 8.7023 21.8184 8.62873 21.7564 8.56678C21.6945 8.50483 21.6209 8.45572 21.5399 8.42227C21.459 8.38881 21.3722 8.37167 21.2846 8.37183H12.3666C12.279 8.37167 12.1922 8.38881 12.1113 8.42227C12.0303 8.45572 11.9567 8.50483 11.8948 8.56678C11.8328 8.62873 11.7837 8.7023 11.7503 8.78327C11.7168 8.86424 11.6997 8.95102 11.6998 9.03862V14.83C11.6998 14.9176 11.7171 15.0043 11.7506 15.0852C11.7841 15.1661 11.8332 15.2396 11.8951 15.3015C11.957 15.3634 12.0305 15.4126 12.1114 15.4461C12.1923 15.4796 12.2791 15.4968 12.3666 15.4968ZM13.0322 9.70425H20.6248V14.1632H13.0322V9.70425ZM23.7572 15.4968H32.6764C32.8532 15.4968 33.0228 15.4266 33.1479 15.3015C33.2729 15.1765 33.3432 15.0069 33.3432 14.83V9.03862C33.3433 8.95102 33.3262 8.86424 33.2927 8.78327C33.2593 8.7023 33.2102 8.62873 33.1482 8.56678C33.0863 8.50483 33.0127 8.45572 32.9317 8.42227C32.8508 8.38881 32.764 8.37167 32.6764 8.37183H23.7572C23.6697 8.37183 23.5831 8.38908 23.5022 8.42261C23.4214 8.45613 23.348 8.50527 23.2862 8.5672C23.2243 8.62913 23.1753 8.70265 23.142 8.78354C23.1086 8.86443 23.0915 8.95111 23.0916 9.03862V14.83C23.0915 14.9175 23.1086 15.0042 23.142 15.0851C23.1753 15.166 23.2243 15.2395 23.2862 15.3015C23.348 15.3634 23.4214 15.4125 23.5022 15.446C23.5831 15.4796 23.6697 15.4968 23.7572 15.4968ZM24.424 9.70425H32.0108V14.1632H24.424V9.70425ZM35.1561 15.4968H44.0752C44.1627 15.4968 44.2494 15.4796 44.3302 15.446C44.411 15.4125 44.4845 15.3634 44.5463 15.3015C44.6081 15.2395 44.6571 15.166 44.6905 15.0851C44.7239 15.0042 44.741 14.9175 44.7408 14.83V9.03862C44.741 8.95111 44.7239 8.86443 44.6905 8.78354C44.6571 8.70265 44.6081 8.62913 44.5463 8.5672C44.4845 8.50527 44.411 8.45613 44.3302 8.42261C44.2494 8.38908 44.1627 8.37183 44.0752 8.37183H35.1561C35.0685 8.37167 34.9817 8.38881 34.9007 8.42227C34.8197 8.45572 34.7462 8.50483 34.6842 8.56678C34.6223 8.62873 34.5732 8.7023 34.5397 8.78327C34.5063 8.86424 34.4891 8.95102 34.4893 9.03862V14.83C34.4893 14.9176 34.5065 15.0043 34.54 15.0852C34.5735 15.1661 34.6227 15.2396 34.6846 15.3015C34.7465 15.3634 34.82 15.4126 34.9009 15.4461C34.9818 15.4796 35.0685 15.4968 35.1561 15.4968ZM35.8217 9.70425H43.4084V14.1632H35.8158L35.8217 9.70425ZM46.542 15.4968H55.46C55.6368 15.4968 55.8064 15.4266 55.9315 15.3015C56.0565 15.1765 56.1268 15.0069 56.1268 14.83V9.03862C56.1269 8.95102 56.1098 8.86424 56.0763 8.78327C56.0429 8.7023 55.9938 8.62873 55.9318 8.56678C55.8699 8.50483 55.7963 8.45572 55.7153 8.42227C55.6344 8.38881 55.5476 8.37167 55.46 8.37183H46.542C46.3652 8.37183 46.1956 8.44208 46.0705 8.56713C45.9455 8.69218 45.8752 8.86178 45.8752 9.03862V14.83C45.8752 14.9176 45.8925 15.0043 45.926 15.0852C45.9595 15.1661 46.0086 15.2396 46.0705 15.3015C46.1324 15.3634 46.2059 15.4126 46.2868 15.4461C46.3677 15.4796 46.4544 15.4968 46.542 15.4968ZM47.2088 9.70425H54.7943V14.1632H47.2088V9.70425ZM12.3666 52.0406H32.2721C32.3596 52.0406 32.4462 52.0233 32.5271 51.9898C32.6079 51.9563 32.6813 51.9071 32.7432 51.8452C32.805 51.7833 32.854 51.7098 32.8874 51.6289C32.9208 51.548 32.9379 51.4613 32.9377 51.3738V23.2875C32.9379 23.1999 32.9208 23.1133 32.8874 23.0324C32.854 22.9515 32.805 22.878 32.7432 22.816C32.6813 22.7541 32.6079 22.705 32.5271 22.6714C32.4462 22.6379 32.3596 22.6207 32.2721 22.6207H12.3666C12.1898 22.6207 12.0202 22.6909 11.8951 22.816C11.7701 22.941 11.6998 23.1106 11.6998 23.2875V51.3738C11.6998 51.5506 11.7701 51.7202 11.8951 51.8453C12.0202 51.9703 12.1898 52.0406 12.3666 52.0406ZM13.0322 23.9543H31.6053V50.707H13.0322V23.9543ZM55.4846 22.6171H34.9873C34.8105 22.6171 34.6409 22.6874 34.5158 22.8124C34.3908 22.9375 34.3205 23.1071 34.3205 23.2839V37.33C34.3204 37.4176 34.3375 37.5044 34.371 37.5854C34.4044 37.6664 34.4535 37.7399 34.5155 37.8019C34.5774 37.8638 34.651 37.9129 34.732 37.9464C34.8129 37.9798 34.8997 37.997 34.9873 37.9968H55.4846C55.5722 37.997 55.659 37.9798 55.7399 37.9464C55.8209 37.9129 55.8945 37.8638 55.9564 37.8019C56.0184 37.7399 56.0675 37.6664 56.1009 37.5854C56.1344 37.5044 56.1515 37.4176 56.1514 37.33V23.2875C56.1518 23.1996 56.1349 23.1125 56.1016 23.0312C56.0683 22.9499 56.0193 22.876 55.9573 22.8137C55.8954 22.7514 55.8217 22.702 55.7406 22.6682C55.6594 22.6345 55.5724 22.6171 55.4846 22.6171ZM54.819 36.6609H35.6541V23.9543H54.819V36.6609ZM55.4846 39.0761H34.9873C34.8997 39.076 34.8129 39.0931 34.732 39.1266C34.651 39.16 34.5774 39.2091 34.5155 39.2711C34.4535 39.333 34.4044 39.4066 34.371 39.4876C34.3375 39.5685 34.3204 39.6553 34.3205 39.7429V51.4136C34.3204 51.5012 34.3375 51.588 34.371 51.669C34.4044 51.7499 34.4535 51.8235 34.5155 51.8855C34.5774 51.9474 34.651 51.9965 34.732 52.03C34.8129 52.0634 34.8997 52.0806 34.9873 52.0804H55.4846C55.5722 52.0806 55.659 52.0634 55.7399 52.03C55.8209 51.9965 55.8945 51.9474 55.9564 51.8855C56.0184 51.8235 56.0675 51.7499 56.1009 51.669C56.1344 51.588 56.1515 51.5012 56.1514 51.4136V39.7429C56.1515 39.6553 56.1344 39.5685 56.1009 39.4876C56.0675 39.4066 56.0184 39.333 55.9564 39.2711C55.8945 39.2091 55.8209 39.16 55.7399 39.1266C55.659 39.0931 55.5722 39.076 55.4846 39.0761ZM54.819 50.748H35.6541V40.4085H54.819V50.748ZM12.3666 20.0589H48.4299C48.6018 20.0517 48.7642 19.9784 48.8832 19.8542C49.0023 19.7301 49.0687 19.5647 49.0687 19.3927C49.0687 19.2207 49.0023 19.0554 48.8832 18.9312C48.7642 18.8071 48.6018 18.7337 48.4299 18.7265H12.3666C12.2768 18.7227 12.1871 18.7372 12.103 18.769C12.0189 18.8007 11.9421 18.8492 11.8772 18.9114C11.8123 18.9737 11.7606 19.0484 11.7253 19.1311C11.6901 19.2138 11.6719 19.3028 11.6719 19.3927C11.6719 19.4826 11.6901 19.5716 11.7253 19.6543C11.7606 19.737 11.8123 19.8118 11.8772 19.874C11.9421 19.9362 12.0189 19.9847 12.103 20.0165C12.1871 20.0483 12.2768 20.0627 12.3666 20.0589ZM52.1049 19.3921C52.1019 19.2639 52.0611 19.1394 51.9877 19.0343C51.9142 18.9291 51.8114 18.848 51.692 18.801C51.5727 18.7541 51.4421 18.7434 51.3167 18.7703C51.1913 18.7973 51.0766 18.8606 50.9871 18.9524C50.8975 19.0442 50.8371 19.1604 50.8133 19.2865C50.7895 19.4125 50.8034 19.5428 50.8533 19.6609C50.9032 19.7791 50.9869 19.8799 51.0938 19.9507C51.2008 20.0215 51.3262 20.0591 51.4545 20.0589C51.541 20.0579 51.6264 20.0398 51.7059 20.0057C51.7854 19.9716 51.8574 19.9222 51.9178 19.8603C51.9782 19.7983 52.0258 19.7251 52.0579 19.6448C52.09 19.5645 52.106 19.4786 52.1049 19.3921Z" fill="#3A3A3A"/>
<path d="M39.609 33.75C39.7747 33.7499 39.9346 33.6886 40.0578 33.5777L43.9145 30.0727L45.0652 31.9922C45.1176 32.0797 45.1893 32.1541 45.275 32.2096C45.3606 32.2651 45.4578 32.3002 45.5591 32.3122C45.6604 32.3242 45.7631 32.3128 45.8593 32.2788C45.9556 32.2449 46.0427 32.1893 46.1141 32.1164L50.2625 27.8719C50.3241 27.8093 50.3727 27.7352 50.4056 27.6539C50.4386 27.5725 50.4551 27.4855 50.4544 27.3977C50.4537 27.31 50.4357 27.2232 50.4015 27.1424C50.3673 27.0616 50.3174 26.9883 50.2549 26.9268C50.1923 26.8652 50.1183 26.8166 50.0369 26.7836C49.9556 26.7507 49.8685 26.7341 49.7807 26.7348C49.693 26.7355 49.6062 26.7535 49.5254 26.7878C49.4446 26.822 49.3713 26.8718 49.3098 26.9344L45.7648 30.5613L44.641 28.6793C44.5903 28.5946 44.5215 28.5222 44.4394 28.4673C44.3574 28.4124 44.2641 28.3764 44.1665 28.362C44.0688 28.3475 43.9692 28.3549 43.8747 28.3836C43.7803 28.4124 43.6934 28.4617 43.6203 28.5281L39.1602 32.5805C39.0564 32.67 38.9828 32.7893 38.9494 32.9222C38.9159 33.0551 38.9243 33.1951 38.9734 33.323C39.0225 33.4509 39.1099 33.5606 39.2237 33.637C39.3374 33.7135 39.472 33.7529 39.609 33.75ZM30.248 47.0895H27.8902V37.3301C27.8902 37.2426 27.873 37.1559 27.8395 37.0751C27.8059 36.9942 27.7568 36.9208 27.6949 36.859C27.6329 36.7972 27.5594 36.7482 27.4785 36.7148C27.3976 36.6814 27.3109 36.6643 27.2234 36.6645H23.6129C23.5254 36.6643 23.4387 36.6814 23.3578 36.7148C23.2769 36.7482 23.2034 36.7972 23.1415 36.859C23.0795 36.9208 23.0304 36.9942 22.9969 37.0751C22.9633 37.1559 22.9461 37.2426 22.9461 37.3301V47.0895H21.0934V30.2414C21.0934 30.1539 21.0761 30.0672 21.0426 29.9864C21.0091 29.9056 20.9599 29.8321 20.898 29.7703C20.8361 29.7085 20.7625 29.6595 20.6816 29.6261C20.6008 29.5927 20.5141 29.5756 20.4266 29.5758H16.8254C16.7379 29.5756 16.6512 29.5927 16.5703 29.6261C16.4894 29.6595 16.4159 29.7085 16.354 29.7703C16.292 29.8321 16.2429 29.9056 16.2094 29.9864C16.1758 30.0672 16.1586 30.1539 16.1586 30.2414V47.0895H13.9168C13.74 47.0894 13.5703 47.1597 13.4453 47.2847C13.3203 47.4098 13.25 47.5794 13.25 47.7562C13.25 47.9331 13.3203 48.1027 13.4453 48.2277C13.5703 48.3528 13.74 48.423 13.9168 48.423H30.248C30.4249 48.423 30.5945 48.3528 30.7195 48.2277C30.8446 48.1027 30.9148 47.9331 30.9148 47.7562C30.9148 47.5794 30.8446 47.4098 30.7195 47.2847C30.5945 47.1597 30.4249 47.0895 30.248 47.0895ZM24.2785 37.9969H26.552V46.6957H24.2785V37.9969ZM17.4922 30.9082H19.7656V46.6957H17.4922V30.9082Z" fill="#3A3A3A"/>
</svg>
