<svg width="176" height="176" viewBox="0 0 176 176" fill="none" xmlns="http://www.w3.org/2000/svg">
<g filter="url(#filter0_d)">
<rect x="8" y="8" width="160" height="160" fill="white"/>
</g>
<path d="M81.9375 43C81.5494 43 81.2344 43.315 81.2344 43.7031V45.8839C79.0873 46.1957 77.3979 47.8838 77.087 50.0312H73.5C73.1119 50.0312 72.7969 50.3463 72.7969 50.7344V52.8438H65.0625C64.6744 52.8438 64.3594 53.1587 64.3594 53.5469V65.5H60.8438C60.4556 65.5 60.1406 65.815 60.1406 66.2031V69.7188H58.0312C57.6431 69.7188 57.3281 70.0338 57.3281 70.4219V75.3438H53.8125C53.5692 75.3438 53.3431 75.4707 53.2137 75.6788C53.0872 75.8856 53.0753 76.1448 53.1835 76.3627L57.3281 84.6519V99.25H56.625C56.2369 99.25 55.9219 99.565 55.9219 99.9531C55.9219 100.341 56.2369 100.656 56.625 100.656H57.3281V109.094H55.3094C55.0492 109.094 54.8096 109.238 54.6887 109.465C54.5649 109.694 54.5795 109.972 54.7244 110.187L57.3281 114.093V127.375H56.625C56.2369 127.375 55.9219 127.69 55.9219 128.078C55.9219 128.466 56.2369 128.781 56.625 128.781H57.3281V131.594H51.7031C51.315 131.594 51 131.909 51 132.297C51 132.685 51.315 133 51.7031 133H60.8438H74.9062H103.031H117.094H123.422C123.81 133 124.125 132.685 124.125 132.297C124.125 131.909 123.81 131.594 123.422 131.594H117.797V128.781H118.5C118.888 128.781 119.203 128.466 119.203 128.078C119.203 127.69 118.888 127.375 118.5 127.375H117.797V114.23L120.491 110.187C120.635 109.97 120.651 109.694 120.527 109.465C120.406 109.237 120.166 109.094 119.906 109.094H117.797V100.656H118.5C118.888 100.656 119.203 100.341 119.203 99.9531C119.203 99.565 118.888 99.25 118.5 99.25H117.797V84.6492L121.941 76.36C122.051 76.142 122.039 75.8828 121.911 75.6761C121.782 75.4694 121.556 75.3438 121.312 75.3438H117.797V70.4219C117.797 70.0338 117.482 69.7188 117.094 69.7188H114.984V66.2031C114.984 65.815 114.669 65.5 114.281 65.5H110.766V53.5469C110.766 53.1587 110.451 52.8438 110.062 52.8438H102.328V50.7344C102.328 50.3463 102.013 50.0312 101.625 50.0312H98.038C98.0242 49.9364 98.0296 49.8359 98.0105 49.7429C97.5974 47.7291 95.9437 46.1812 93.8906 45.8839V43.7031C93.8906 43.315 93.5756 43 93.1875 43H81.9375ZM82.6406 44.4062H92.4844V45.8125H82.6406V44.4062ZM81.9375 47.2188H93.1875C94.8848 47.2188 96.3082 48.4281 96.6345 50.0312H78.4933C78.8195 48.4281 80.2402 47.2188 81.9375 47.2188ZM74.2031 51.4375H77.0156H98.1094H100.922V52.8438H74.2031V51.4375ZM65.7656 54.25H109.359V65.5H65.7656V54.25ZM79.125 57.0625C78.7369 57.0625 78.4219 57.3775 78.4219 57.7656V61.9844C78.4219 62.3725 78.7369 62.6875 79.125 62.6875H81.2344V63.3906C81.2344 63.7787 81.5494 64.0938 81.9375 64.0938H93.1875C93.5756 64.0938 93.8906 63.7787 93.8906 63.3906V62.6875H96C96.3881 62.6875 96.7031 62.3725 96.7031 61.9844V57.7656C96.7031 57.3775 96.3881 57.0625 96 57.0625H79.125ZM73.5 57.0927C71.5608 57.0927 69.9844 58.6691 69.9844 60.6083C69.9844 62.5476 71.5608 64.124 73.5 64.124C75.4392 64.124 77.0156 62.5476 77.0156 60.6083C77.0156 58.6691 75.4392 57.0927 73.5 57.0927ZM101.625 57.0927C99.6858 57.0927 98.1094 58.6691 98.1094 60.6083C98.1094 62.5476 99.6858 64.124 101.625 64.124C103.564 64.124 105.141 62.5476 105.141 60.6083C105.141 58.6691 103.564 57.0927 101.625 57.0927ZM79.8281 58.4688H95.2969V61.2812H93.1875C92.7994 61.2812 92.4844 61.5963 92.4844 61.9844V62.6875H82.6406V61.9844C82.6406 61.5963 82.3256 61.2812 81.9375 61.2812H79.8281V58.4688ZM73.5 58.499C74.663 58.499 75.6094 59.4454 75.6094 60.6083C75.6094 61.7713 74.663 62.7177 73.5 62.7177C72.337 62.7177 71.3906 61.7713 71.3906 60.6083C71.3906 59.4454 72.337 58.499 73.5 58.499ZM101.625 58.499C102.788 58.499 103.734 59.4454 103.734 60.6083C103.734 61.7713 102.788 62.7177 101.625 62.7177C100.462 62.7177 99.5156 61.7713 99.5156 60.6083C99.5156 59.4454 100.462 58.499 101.625 58.499ZM61.5469 66.9062H113.578V69.7188H61.5469V66.9062ZM58.7344 71.125H116.391V75.3438H58.7344V71.125ZM54.9496 76.75H120.175L119.472 78.1562H55.6527L54.9496 76.75ZM56.3558 79.5625H57.3281V81.5071L56.3558 79.5625ZM58.7344 79.5625H61.5469V83.7812H58.7344V79.5625ZM62.9531 79.5625H65.7656V83.7812H62.9531V79.5625ZM67.1719 79.5625H69.9844V83.7812H67.1719V79.5625ZM71.3906 79.5625H74.2031V83.7812H71.3906V79.5625ZM75.6094 79.5625H78.4219V83.7812H75.6094V79.5625ZM79.8281 79.5625H82.6406V83.7812H79.8281V79.5625ZM84.0469 79.5625H86.8594V83.7812H84.0469V79.5625ZM88.2656 79.5625H91.0781V83.7812H88.2656V79.5625ZM92.4844 79.5625H95.2969V83.7812H92.4844V79.5625ZM96.7031 79.5625H99.5156V83.7812H96.7031V79.5625ZM100.922 79.5625H103.734V83.7812H100.922V79.5625ZM105.141 79.5625H107.953V83.7812H105.141V79.5625ZM109.359 79.5625H112.172V83.7812H109.359V79.5625ZM113.578 79.5625H116.391V83.7812H113.578V79.5625ZM117.797 79.5625H118.769L117.797 81.5071V79.5625ZM58.7344 85.1875H74.2031V88.7031V99.25H72.7969V94.3281C72.7969 93.94 72.4819 93.625 72.0938 93.625H60.8438C60.4556 93.625 60.1406 93.94 60.1406 94.3281V99.25H58.7344V85.1875ZM75.6094 85.1875H99.5156V88H88.9688C88.5806 88 88.2656 88.315 88.2656 88.7031V93.625H86.8594V88.7031C86.8594 88.315 86.5444 88 86.1562 88H75.6094V85.1875ZM100.922 85.1875H116.391V99.25H114.984V94.3281C114.984 93.94 114.669 93.625 114.281 93.625H103.031C102.643 93.625 102.328 93.94 102.328 94.3281V99.25H100.922V88.7031V85.1875ZM66.4688 86.5938C64.9177 86.5938 63.6562 87.8552 63.6562 89.4062C63.6562 90.9573 64.9177 92.2188 66.4688 92.2188C68.0198 92.2188 69.2812 90.9573 69.2812 89.4062C69.2812 87.8552 68.0198 86.5938 66.4688 86.5938ZM108.656 86.5938C107.105 86.5938 105.844 87.8552 105.844 89.4062C105.844 90.9573 107.105 92.2188 108.656 92.2188C110.207 92.2188 111.469 90.9573 111.469 89.4062C111.469 87.8552 110.207 86.5938 108.656 86.5938ZM66.4688 88C67.245 88 67.875 88.63 67.875 89.4062C67.875 90.1825 67.245 90.8125 66.4688 90.8125C65.6925 90.8125 65.0625 90.1825 65.0625 89.4062C65.0625 88.63 65.6925 88 66.4688 88ZM108.656 88C109.432 88 110.062 88.63 110.062 89.4062C110.062 90.1825 109.432 90.8125 108.656 90.8125C107.88 90.8125 107.25 90.1825 107.25 89.4062C107.25 88.63 107.88 88 108.656 88ZM75.6094 89.4062H85.4531V89.6397C80.8718 90.5757 77.3659 94.4757 77.0486 99.25H75.6094V89.4062ZM89.6719 89.4062H99.5156V99.25H98.0764C97.7591 94.4757 94.2532 90.5757 89.6719 89.6397V89.4062ZM85.4531 91.0734V92.5483C82.438 93.4102 80.1866 96.0386 79.8913 99.25H78.4548C78.7613 95.2525 81.6496 91.9762 85.4531 91.0734ZM89.6719 91.0734C93.4753 91.9762 96.3637 95.2525 96.6702 99.25H95.2337C94.9385 96.0379 92.6878 93.4094 89.6719 92.5483V91.0734ZM85.4531 94.0205V94.3281C85.4531 94.7163 85.7681 95.0312 86.1562 95.0312H88.9688C89.3569 95.0312 89.6719 94.7163 89.6719 94.3281V94.0205C91.9076 94.8167 93.5569 96.8175 93.8302 99.25H93.1875C92.7994 99.25 92.4844 99.565 92.4844 99.9531C92.4844 100.341 92.7994 100.656 93.1875 100.656H93.8906V109.094H93.1875C92.7994 109.094 92.4844 109.409 92.4844 109.797C92.4844 110.185 92.7994 110.5 93.1875 110.5H93.8906V131.594H81.2344V110.5H81.9375C82.3256 110.5 82.6406 110.185 82.6406 109.797C82.6406 109.409 82.3256 109.094 81.9375 109.094H81.2344V100.656H81.9375C82.3256 100.656 82.6406 100.341 82.6406 99.9531C82.6406 99.565 82.3256 99.25 81.9375 99.25H81.2948C81.5682 96.8181 83.2181 94.8173 85.4531 94.0205ZM61.5469 95.0312H63.6562V96.4375H61.5469V95.0312ZM65.0625 95.0312H67.875V96.4375H65.0625V95.0312ZM69.2812 95.0312H71.3906V96.4375H69.2812V95.0312ZM103.734 95.0312H105.844V96.4375H103.734V95.0312ZM107.25 95.0312H110.062V96.4375H107.25V95.0312ZM111.469 95.0312H113.578V96.4375H111.469V95.0312ZM61.5469 97.8438H71.3906V99.25H61.5469V97.8438ZM103.734 97.8438H113.578V99.25H103.734V97.8438ZM58.7344 100.656H60.1406V102.062H58.7344V100.656ZM61.5469 100.656H71.3906V102.062H61.5469V100.656ZM72.7969 100.656H74.2031V102.062H72.7969V100.656ZM75.6094 100.656H79.8281V109.094H77.7188H75.6094V100.656ZM95.2969 100.656H99.5156V109.094H98.4609H95.2969V100.656ZM100.922 100.656H102.328V102.062H100.922V100.656ZM103.734 100.656H113.578V102.062H103.734V100.656ZM114.984 100.656H116.391V102.062H114.984V100.656ZM58.7344 103.469H60.1406V109.094H58.7344V103.469ZM61.5469 103.469H62.9531V106.984C62.9531 107.372 63.2681 107.688 63.6562 107.688H69.2812C69.6694 107.688 69.9844 107.372 69.9844 106.984V103.469H71.3906V109.094H61.5469V103.469ZM64.3594 103.469H68.5781V106.281H64.3594V103.469ZM72.7969 103.469H74.2031V109.094H72.7969V103.469ZM100.922 103.469H102.328V109.094H100.922V103.469ZM103.734 103.469H105.141V106.984C105.141 107.372 105.456 107.688 105.844 107.688H111.469C111.857 107.688 112.172 107.372 112.172 106.984V103.469H113.578V109.094H103.734V103.469ZM106.547 103.469H110.766V106.281H106.547V103.469ZM114.984 103.469H116.391V109.094H114.984V103.469ZM56.6223 110.5H76.4059L74.53 113.312H58.4954L56.6223 110.5ZM78.095 110.5H79.8281V131.594H75.6094V114.23L78.095 110.5ZM95.2969 110.5H97.1206L99.5156 114.093V131.594H95.2969V110.5ZM98.8098 110.5H118.593L116.717 113.312H100.683L98.8098 110.5ZM58.7344 114.719H60.1406V127.375H58.7344V114.719ZM61.5469 114.719H71.3906V127.375H61.5469V114.719ZM72.7969 114.719H74.2031V127.375H72.7969V114.719ZM100.922 114.719H102.328V127.375H100.922V114.719ZM103.734 114.719H113.578V127.375H103.734V114.719ZM114.984 114.719H116.391V127.375H114.984V114.719ZM58.7344 128.781H60.1406V131.594H58.7344V128.781ZM61.5469 128.781H62.9531V131.594H61.5469V128.781ZM64.3594 128.781H68.5781V131.594H64.3594V128.781ZM69.9844 128.781H71.3906V131.594H69.9844V128.781ZM72.7969 128.781H74.2031V131.594H72.7969V128.781ZM100.922 128.781H102.328V131.594H100.922V128.781ZM103.734 128.781H105.141V131.594H103.734V128.781ZM106.547 128.781H110.766V131.594H106.547V128.781ZM112.172 128.781H113.578V131.594H112.172V128.781ZM114.984 128.781H116.391V131.594H114.984V128.781Z" fill="#1687A7"/>
<defs>
<filter id="filter0_d" x="0" y="0" width="176" height="176" filterUnits="userSpaceOnUse" color-interpolation-filters="sRGB">
<feFlood flood-opacity="0" result="BackgroundImageFix"/>
<feColorMatrix in="SourceAlpha" type="matrix" values="0 0 0 0 0 0 0 0 0 0 0 0 0 0 0 0 0 0 127 0" result="hardAlpha"/>
<feOffset/>
<feGaussianBlur stdDeviation="4"/>
<feComposite in2="hardAlpha" operator="out"/>
<feColorMatrix type="matrix" values="0 0 0 0 0.666667 0 0 0 0 0.666667 0 0 0 0 0.666667 0 0 0 0.25 0"/>
<feBlend mode="normal" in2="BackgroundImageFix" result="effect1_dropShadow"/>
<feBlend mode="normal" in="SourceGraphic" in2="effect1_dropShadow" result="shape"/>
</filter>
</defs>
</svg>
