<svg class='hover:text-white hover:fill-current' width="160" height="160" viewBox="0 0 160 160" id='img' fill="none" xmlns="http://www.w3.org/2000/svg">
<path d="M73.9375 35C73.5494 35 73.2344 35.315 73.2344 35.7031V37.8839C71.0873 38.1957 69.3979 39.8838 69.087 42.0312H65.5C65.1119 42.0312 64.7969 42.3463 64.7969 42.7344V44.8438H57.0625C56.6744 44.8438 56.3594 45.1587 56.3594 45.5469V57.5H52.8438C52.4556 57.5 52.1406 57.815 52.1406 58.2031V61.7188H50.0312C49.6431 61.7188 49.3281 62.0338 49.3281 62.4219V67.3438H45.8125C45.5692 67.3438 45.3431 67.4707 45.2137 67.6788C45.0872 67.8856 45.0753 68.1448 45.1835 68.3627L49.3281 76.6519V91.25H48.625C48.2369 91.25 47.9219 91.565 47.9219 91.9531C47.9219 92.3413 48.2369 92.6562 48.625 92.6562H49.3281V101.094H47.3094C47.0492 101.094 46.8096 101.238 46.6887 101.465C46.5649 101.694 46.5795 101.972 46.7244 102.187L49.3281 106.093V119.375H48.625C48.2369 119.375 47.9219 119.69 47.9219 120.078C47.9219 120.466 48.2369 120.781 48.625 120.781H49.3281V123.594H43.7031C43.315 123.594 43 123.909 43 124.297C43 124.685 43.315 125 43.7031 125H52.8438H66.9062H95.0312H109.094H115.422C115.81 125 116.125 124.685 116.125 124.297C116.125 123.909 115.81 123.594 115.422 123.594H109.797V120.781H110.5C110.888 120.781 111.203 120.466 111.203 120.078C111.203 119.69 110.888 119.375 110.5 119.375H109.797V106.23L112.491 102.187C112.635 101.97 112.651 101.694 112.527 101.465C112.406 101.237 112.166 101.094 111.906 101.094H109.797V92.6562H110.5C110.888 92.6562 111.203 92.3413 111.203 91.9531C111.203 91.565 110.888 91.25 110.5 91.25H109.797V76.6492L113.941 68.36C114.051 68.142 114.039 67.8828 113.911 67.6761C113.782 67.4694 113.556 67.3438 113.312 67.3438H109.797V62.4219C109.797 62.0338 109.482 61.7188 109.094 61.7188H106.984V58.2031C106.984 57.815 106.669 57.5 106.281 57.5H102.766V45.5469C102.766 45.1587 102.451 44.8438 102.062 44.8438H94.3281V42.7344C94.3281 42.3463 94.0131 42.0312 93.625 42.0312H90.038C90.0242 41.9364 90.0296 41.8359 90.0105 41.7429C89.5974 39.7291 87.9437 38.1812 85.8906 37.8839V35.7031C85.8906 35.315 85.5756 35 85.1875 35H73.9375ZM74.6406 36.4062H84.4844V37.8125H74.6406V36.4062ZM73.9375 39.2188H85.1875C86.8848 39.2188 88.3082 40.4281 88.6345 42.0312H70.4933C70.8195 40.4281 72.2402 39.2188 73.9375 39.2188ZM66.2031 43.4375H69.0156H90.1094H92.9219V44.8438H66.2031V43.4375ZM57.7656 46.25H101.359V57.5H57.7656V46.25ZM71.125 49.0625C70.7369 49.0625 70.4219 49.3775 70.4219 49.7656V53.9844C70.4219 54.3725 70.7369 54.6875 71.125 54.6875H73.2344V55.3906C73.2344 55.7787 73.5494 56.0938 73.9375 56.0938H85.1875C85.5756 56.0938 85.8906 55.7787 85.8906 55.3906V54.6875H88C88.3881 54.6875 88.7031 54.3725 88.7031 53.9844V49.7656C88.7031 49.3775 88.3881 49.0625 88 49.0625H71.125ZM65.5 49.0927C63.5608 49.0927 61.9844 50.6691 61.9844 52.6083C61.9844 54.5476 63.5608 56.124 65.5 56.124C67.4392 56.124 69.0156 54.5476 69.0156 52.6083C69.0156 50.6691 67.4392 49.0927 65.5 49.0927ZM93.625 49.0927C91.6858 49.0927 90.1094 50.6691 90.1094 52.6083C90.1094 54.5476 91.6858 56.124 93.625 56.124C95.5642 56.124 97.1406 54.5476 97.1406 52.6083C97.1406 50.6691 95.5642 49.0927 93.625 49.0927ZM71.8281 50.4688H87.2969V53.2812H85.1875C84.7994 53.2812 84.4844 53.5963 84.4844 53.9844V54.6875H74.6406V53.9844C74.6406 53.5963 74.3256 53.2812 73.9375 53.2812H71.8281V50.4688ZM65.5 50.499C66.663 50.499 67.6094 51.4454 67.6094 52.6083C67.6094 53.7713 66.663 54.7177 65.5 54.7177C64.337 54.7177 63.3906 53.7713 63.3906 52.6083C63.3906 51.4454 64.337 50.499 65.5 50.499ZM93.625 50.499C94.788 50.499 95.7344 51.4454 95.7344 52.6083C95.7344 53.7713 94.788 54.7177 93.625 54.7177C92.462 54.7177 91.5156 53.7713 91.5156 52.6083C91.5156 51.4454 92.462 50.499 93.625 50.499ZM53.5469 58.9062H105.578V61.7188H53.5469V58.9062ZM50.7344 63.125H108.391V67.3438H50.7344V63.125ZM46.9496 68.75H112.175L111.472 70.1562H47.6527L46.9496 68.75ZM48.3558 71.5625H49.3281V73.5071L48.3558 71.5625ZM50.7344 71.5625H53.5469V75.7812H50.7344V71.5625ZM54.9531 71.5625H57.7656V75.7812H54.9531V71.5625ZM59.1719 71.5625H61.9844V75.7812H59.1719V71.5625ZM63.3906 71.5625H66.2031V75.7812H63.3906V71.5625ZM67.6094 71.5625H70.4219V75.7812H67.6094V71.5625ZM71.8281 71.5625H74.6406V75.7812H71.8281V71.5625ZM76.0469 71.5625H78.8594V75.7812H76.0469V71.5625ZM80.2656 71.5625H83.0781V75.7812H80.2656V71.5625ZM84.4844 71.5625H87.2969V75.7812H84.4844V71.5625ZM88.7031 71.5625H91.5156V75.7812H88.7031V71.5625ZM92.9219 71.5625H95.7344V75.7812H92.9219V71.5625ZM97.1406 71.5625H99.9531V75.7812H97.1406V71.5625ZM101.359 71.5625H104.172V75.7812H101.359V71.5625ZM105.578 71.5625H108.391V75.7812H105.578V71.5625ZM109.797 71.5625H110.769L109.797 73.5071V71.5625ZM50.7344 77.1875H66.2031V80.7031V91.25H64.7969V86.3281C64.7969 85.94 64.4819 85.625 64.0938 85.625H52.8438C52.4556 85.625 52.1406 85.94 52.1406 86.3281V91.25H50.7344V77.1875ZM67.6094 77.1875H91.5156V80H80.9688C80.5806 80 80.2656 80.315 80.2656 80.7031V85.625H78.8594V80.7031C78.8594 80.315 78.5444 80 78.1562 80H67.6094V77.1875ZM92.9219 77.1875H108.391V91.25H106.984V86.3281C106.984 85.94 106.669 85.625 106.281 85.625H95.0312C94.6431 85.625 94.3281 85.94 94.3281 86.3281V91.25H92.9219V80.7031V77.1875ZM58.4688 78.5938C56.9177 78.5938 55.6562 79.8552 55.6562 81.4062C55.6562 82.9573 56.9177 84.2188 58.4688 84.2188C60.0198 84.2188 61.2812 82.9573 61.2812 81.4062C61.2812 79.8552 60.0198 78.5938 58.4688 78.5938ZM100.656 78.5938C99.1052 78.5938 97.8438 79.8552 97.8438 81.4062C97.8438 82.9573 99.1052 84.2188 100.656 84.2188C102.207 84.2188 103.469 82.9573 103.469 81.4062C103.469 79.8552 102.207 78.5938 100.656 78.5938ZM58.4688 80C59.245 80 59.875 80.63 59.875 81.4062C59.875 82.1825 59.245 82.8125 58.4688 82.8125C57.6925 82.8125 57.0625 82.1825 57.0625 81.4062C57.0625 80.63 57.6925 80 58.4688 80ZM100.656 80C101.432 80 102.062 80.63 102.062 81.4062C102.062 82.1825 101.432 82.8125 100.656 82.8125C99.88 82.8125 99.25 82.1825 99.25 81.4062C99.25 80.63 99.88 80 100.656 80ZM67.6094 81.4062H77.4531V81.6397C72.8718 82.5757 69.3659 86.4757 69.0486 91.25H67.6094V81.4062ZM81.6719 81.4062H91.5156V91.25H90.0764C89.7591 86.4757 86.2532 82.5757 81.6719 81.6397V81.4062ZM77.4531 83.0734V84.5483C74.438 85.4102 72.1866 88.0386 71.8913 91.25H70.4548C70.7613 87.2525 73.6496 83.9762 77.4531 83.0734ZM81.6719 83.0734C85.4753 83.9762 88.3637 87.2525 88.6702 91.25H87.2337C86.9385 88.0379 84.6878 85.4094 81.6719 84.5483V83.0734ZM77.4531 86.0205V86.3281C77.4531 86.7163 77.7681 87.0312 78.1562 87.0312H80.9688C81.3569 87.0312 81.6719 86.7163 81.6719 86.3281V86.0205C83.9076 86.8167 85.5569 88.8175 85.8302 91.25H85.1875C84.7994 91.25 84.4844 91.565 84.4844 91.9531C84.4844 92.3413 84.7994 92.6562 85.1875 92.6562H85.8906V101.094H85.1875C84.7994 101.094 84.4844 101.409 84.4844 101.797C84.4844 102.185 84.7994 102.5 85.1875 102.5H85.8906V123.594H73.2344V102.5H73.9375C74.3256 102.5 74.6406 102.185 74.6406 101.797C74.6406 101.409 74.3256 101.094 73.9375 101.094H73.2344V92.6562H73.9375C74.3256 92.6562 74.6406 92.3413 74.6406 91.9531C74.6406 91.565 74.3256 91.25 73.9375 91.25H73.2948C73.5682 88.8181 75.2181 86.8173 77.4531 86.0205ZM53.5469 87.0312H55.6562V88.4375H53.5469V87.0312ZM57.0625 87.0312H59.875V88.4375H57.0625V87.0312ZM61.2812 87.0312H63.3906V88.4375H61.2812V87.0312ZM95.7344 87.0312H97.8438V88.4375H95.7344V87.0312ZM99.25 87.0312H102.062V88.4375H99.25V87.0312ZM103.469 87.0312H105.578V88.4375H103.469V87.0312ZM53.5469 89.8438H63.3906V91.25H53.5469V89.8438ZM95.7344 89.8438H105.578V91.25H95.7344V89.8438ZM50.7344 92.6562H52.1406V94.0625H50.7344V92.6562ZM53.5469 92.6562H63.3906V94.0625H53.5469V92.6562ZM64.7969 92.6562H66.2031V94.0625H64.7969V92.6562ZM67.6094 92.6562H71.8281V101.094H69.7188H67.6094V92.6562ZM87.2969 92.6562H91.5156V101.094H90.4609H87.2969V92.6562ZM92.9219 92.6562H94.3281V94.0625H92.9219V92.6562ZM95.7344 92.6562H105.578V94.0625H95.7344V92.6562ZM106.984 92.6562H108.391V94.0625H106.984V92.6562ZM50.7344 95.4688H52.1406V101.094H50.7344V95.4688ZM53.5469 95.4688H54.9531V98.9844C54.9531 99.3725 55.2681 99.6875 55.6562 99.6875H61.2812C61.6694 99.6875 61.9844 99.3725 61.9844 98.9844V95.4688H63.3906V101.094H53.5469V95.4688ZM56.3594 95.4688H60.5781V98.2812H56.3594V95.4688ZM64.7969 95.4688H66.2031V101.094H64.7969V95.4688ZM92.9219 95.4688H94.3281V101.094H92.9219V95.4688ZM95.7344 95.4688H97.1406V98.9844C97.1406 99.3725 97.4556 99.6875 97.8438 99.6875H103.469C103.857 99.6875 104.172 99.3725 104.172 98.9844V95.4688H105.578V101.094H95.7344V95.4688ZM98.5469 95.4688H102.766V98.2812H98.5469V95.4688ZM106.984 95.4688H108.391V101.094H106.984V95.4688ZM48.6223 102.5H68.4059L66.53 105.312H50.4954L48.6223 102.5ZM70.095 102.5H71.8281V123.594H67.6094V106.23L70.095 102.5ZM87.2969 102.5H89.1206L91.5156 106.093V123.594H87.2969V102.5ZM90.8098 102.5H110.593L108.717 105.312H92.6829L90.8098 102.5ZM50.7344 106.719H52.1406V119.375H50.7344V106.719ZM53.5469 106.719H63.3906V119.375H53.5469V106.719ZM64.7969 106.719H66.2031V119.375H64.7969V106.719ZM92.9219 106.719H94.3281V119.375H92.9219V106.719ZM95.7344 106.719H105.578V119.375H95.7344V106.719ZM106.984 106.719H108.391V119.375H106.984V106.719ZM50.7344 120.781H52.1406V123.594H50.7344V120.781ZM53.5469 120.781H54.9531V123.594H53.5469V120.781ZM56.3594 120.781H60.5781V123.594H56.3594V120.781ZM61.9844 120.781H63.3906V123.594H61.9844V120.781ZM64.7969 120.781H66.2031V123.594H64.7969V120.781ZM92.9219 120.781H94.3281V123.594H92.9219V120.781ZM95.7344 120.781H97.1406V123.594H95.7344V120.781ZM98.5469 120.781H102.766V123.594H98.5469V120.781ZM104.172 120.781H105.578V123.594H104.172V120.781ZM106.984 120.781H108.391V123.594H106.984V120.781Z" fill="#fff"/>
</svg>
