<svg width="80" height="80" viewBox="0 0 80 80" fill="none" xmlns="http://www.w3.org/2000/svg">
<path d="M3.42815 26.7573C3.13574 26.7573 2.84222 26.6456 2.619 26.4219C2.17369 25.9754 2.17369 25.2517 2.62012 24.8058L11.2652 16.1724C11.7116 15.7271 12.436 15.726 12.8824 16.1735C13.3277 16.62 13.3277 17.3437 12.8813 17.7896L4.23619 26.423C4.01297 26.6456 3.72056 26.7573 3.42815 26.7573ZM76.571 26.7573C76.2786 26.7573 75.9862 26.6456 75.763 26.423L67.1179 17.7896C66.9036 17.5753 66.7831 17.2846 66.7831 16.981C66.7831 16.3499 67.2942 15.832 67.9259 15.832C68.2853 15.832 68.6067 15.9967 68.8165 16.255L77.379 24.8058C77.8255 25.2517 77.8255 25.9754 77.3802 26.4219C77.1569 26.6456 76.8634 26.7573 76.571 26.7573ZM27.725 57.1936C26.9739 57.1936 26.225 56.9079 25.6536 56.3371L23.6625 54.346C22.5208 53.2042 22.5208 51.346 23.6625 50.2042L29.6112 44.2556C30.7407 43.1261 31.3634 41.6233 31.3634 40.024C31.3634 38.3666 30.7462 36.8772 29.6268 35.7561L23.6625 29.7924C22.5208 28.6507 22.5208 26.7924 23.6625 25.6507L25.6536 23.6596C26.7953 22.5184 28.6514 22.5173 29.7953 23.6596L35.7596 29.6233C36.8802 30.7433 38.369 31.3605 39.9538 31.3605C41.6335 31.3605 43.1235 30.7433 44.244 29.6233L50.2072 23.6596C51.35 22.5184 53.2061 22.5173 54.3489 23.6596L56.34 25.6507C57.4817 26.7924 57.4817 28.6512 56.34 29.793L50.3913 35.7411C49.2619 36.8717 48.6391 38.3744 48.6391 39.9727C48.6391 41.6222 49.2619 43.125 50.3913 44.2556L56.34 50.2037C57.4817 51.3454 57.4817 53.2042 56.34 54.346L54.3489 56.3371C53.2061 57.4799 51.35 57.4777 50.2072 56.3371L44.244 50.3733C43.1235 49.2533 41.6335 48.6362 40.0487 48.6362C38.369 48.6362 36.8802 49.2533 35.7596 50.3733L29.7953 56.3371C29.225 56.9079 28.4739 57.1936 27.725 57.1936ZM39.9538 46.3504C42.244 46.3504 44.3076 47.2054 45.8601 48.7573L51.8232 54.721C52.0744 54.9732 52.484 54.971 52.7328 54.721L54.7239 52.7299C54.975 52.4788 54.975 52.0709 54.7239 51.8198L48.7752 45.8716C47.2139 44.3092 46.3534 42.2327 46.3534 40.024C46.3534 37.7639 47.2139 35.6875 48.7752 34.125L54.7239 28.1769C54.975 27.9258 54.975 27.5179 54.7239 27.2667L52.7328 25.2757C52.484 25.0251 52.0744 25.024 51.8232 25.2757L45.8601 31.2394C44.3076 32.7913 42.244 33.6462 40.0487 33.6462C37.7585 33.6462 35.696 32.7913 34.1436 31.2394L28.1793 25.2757C27.9304 25.0262 27.5208 25.024 27.2697 25.2757L25.2786 27.2667C25.0275 27.5173 25.0275 27.9258 25.2786 28.1763L31.2429 34.1401C32.7942 35.6931 33.6491 37.7567 33.6491 39.9509C33.6491 42.2338 32.7886 44.3108 31.2273 45.8716L25.2786 51.8203C25.0275 52.0709 25.0275 52.4794 25.2786 52.7299L27.2697 54.721C27.5186 54.971 27.9282 54.9732 28.1793 54.721L34.1436 48.7573C35.696 47.2054 37.7585 46.3504 39.9538 46.3504Z" fill="black"/>
<path d="M25.464 26.6071C25.1716 26.6071 24.8792 26.4955 24.656 26.2723L16.1727 17.789C15.7263 17.3426 15.7263 16.6194 16.1727 16.173C16.6191 15.7265 17.3424 15.7265 17.7888 16.173L26.272 24.6562C26.7185 25.1026 26.7185 25.8259 26.272 26.2723C26.0488 26.4955 25.7564 26.6071 25.464 26.6071Z" fill="black"/>
<path d="M14.5272 26.6574C11.4178 26.6574 8.31069 25.4744 5.94462 23.1083C1.21247 18.3756 1.21247 10.6758 5.94462 5.94367C8.23703 3.6507 11.285 2.38843 14.5272 2.38843C17.7683 2.38843 20.8174 3.6507 23.1098 5.94367C27.8419 10.6758 27.8419 18.3762 23.1098 23.1083C20.7437 25.4738 17.6343 26.6568 14.5272 26.6574ZM14.5272 4.67414C11.8955 4.67414 9.42118 5.6987 7.56069 7.55974C3.72028 11.4007 3.72028 17.6507 7.56069 21.4922C11.4022 25.3321 17.6522 25.3332 21.4937 21.4922C25.3352 17.6513 25.3352 11.4013 21.4937 7.55974C19.6321 5.6987 17.1578 4.67414 14.5272 4.67414ZM6.75265 6.75171H6.76381H6.75265Z" fill="black"/>
<path d="M14.5271 19.1406C13.2938 19.1406 12.1353 18.6607 11.2637 17.789C10.392 16.9174 9.91211 15.7584 9.91211 14.5257C9.91211 13.293 10.392 12.1339 11.2637 11.2628C12.1353 10.3912 13.2938 9.91125 14.5271 9.91125C15.7603 9.91125 16.9188 10.3912 17.7893 11.2628C19.5884 13.0619 19.5884 15.9899 17.7893 17.789C16.9188 18.6607 15.7592 19.1406 14.5271 19.1406ZM14.5271 12.197C13.9043 12.197 13.3195 12.4392 12.8797 12.8789C12.44 13.3186 12.1978 13.9034 12.1978 14.5257C12.1978 15.1479 12.44 15.7327 12.8797 16.173C13.7581 17.0513 15.2927 17.0524 16.1733 16.173C17.0818 15.2645 17.0818 13.7874 16.1733 12.8789C15.7335 12.4386 15.1487 12.197 14.5271 12.197ZM12.0717 12.0709H12.0829H12.0717Z" fill="black"/>
<path d="M16.9807 13.2166C16.6883 13.2166 16.3959 13.105 16.1727 12.8817C15.7263 12.4353 15.7263 11.7121 16.1727 11.2657L24.8178 2.62059C25.2642 2.17416 25.9874 2.17416 26.4339 2.62059C26.8803 3.06702 26.8803 3.79023 26.4339 4.23666L17.7888 12.8817C17.5656 13.105 17.2732 13.2166 16.9807 13.2166ZM63.0198 64.1624C62.7274 64.1624 62.435 64.0508 62.2118 63.8276L53.7285 55.3444C53.2821 54.8979 53.2821 54.1747 53.7285 53.7283C54.1749 53.2819 54.8982 53.2819 55.3446 53.7283L63.8278 62.2115C64.2743 62.658 64.2743 63.3812 63.8278 63.8276C63.6046 64.0508 63.3122 64.1624 63.0198 64.1624Z" fill="black"/>
<path d="M65.4745 77.611C62.2323 77.611 59.1843 76.3482 56.8919 74.0558C52.1597 69.3236 52.1597 61.6233 56.8919 56.8911C61.624 52.159 69.3249 52.159 74.0571 56.8911C78.7892 61.6233 78.7892 69.3236 74.0571 74.0558C71.7646 76.3482 68.7167 77.611 65.4745 77.611ZM65.4745 55.6261C62.951 55.6261 60.4287 56.5865 58.508 58.5072C54.6664 62.3482 54.6664 68.5982 58.508 72.4397C60.3684 74.3008 62.8428 75.3253 65.4745 75.3253C68.1062 75.3253 70.5805 74.3002 72.441 72.4397C76.2825 68.5982 76.2825 62.3482 72.441 58.5072C70.5202 56.5865 67.9979 55.6261 65.4745 55.6261Z" fill="black"/>
<path d="M65.4743 70.0864C64.2924 70.0864 63.1105 69.6361 62.2109 68.7366C61.3393 67.8649 60.8594 66.7059 60.8594 65.4732C60.8594 64.241 61.3393 63.082 62.2109 62.2103C63.0826 61.3387 64.2411 60.8588 65.4743 60.8588C66.7076 60.8588 67.8661 61.3387 68.7377 62.2103C69.6094 63.082 70.0893 64.241 70.0893 65.4732C70.0893 66.7059 69.6094 67.8649 68.7377 68.7366C67.8382 69.6361 66.6563 70.0864 65.4743 70.0864ZM65.4743 63.145C64.8772 63.145 64.2813 63.3722 63.827 63.8264C62.9185 64.7349 62.9185 66.212 63.827 67.1205C64.7355 68.029 66.2132 68.029 67.1217 67.1205C68.0301 66.212 68.0301 64.7349 67.1217 63.8264C66.6674 63.3722 66.0714 63.145 65.4743 63.145Z" fill="black"/>
<path d="M67.9263 64.1624C67.6339 64.1624 67.3415 64.0507 67.1183 63.8275C66.6719 63.3811 66.6719 62.6579 67.1183 62.2115L75.7634 53.5658C76.2098 53.1194 76.933 53.1194 77.3795 53.5658C77.8259 54.0122 77.8259 54.7355 77.3795 55.1819L68.7344 63.8275C68.5112 64.0507 68.2188 64.1624 67.9263 64.1624ZM54.3862 77.7143C54.0938 77.7143 53.8013 77.6026 53.5781 77.38C53.1317 76.9341 53.1317 76.2103 53.577 75.7639L62.2109 67.1188C62.6574 66.6713 63.3817 66.6724 63.8281 67.1177C64.2746 67.5636 64.2746 68.2874 63.8292 68.7338L55.1953 77.3789C54.9721 77.6026 54.6786 77.7143 54.3862 77.7143ZM54.5368 26.6071C54.2444 26.6071 53.952 26.4955 53.7288 26.2723C53.2824 25.8259 53.2824 25.1026 53.7288 24.6562L62.2121 16.173C62.6585 15.7265 63.3817 15.7265 63.8281 16.173C64.2746 16.6194 64.2746 17.3426 63.8281 17.789L55.3449 26.2723C55.1217 26.4955 54.8292 26.6071 54.5368 26.6071Z" fill="black"/>
<path d="M65.4745 26.6552C62.3662 26.6552 59.258 25.4716 56.8919 23.1055C52.1597 18.3733 52.1597 10.673 56.8919 5.94087C59.1843 3.6479 62.2323 2.38562 65.4745 2.38562C68.7167 2.38562 71.7646 3.6479 74.0571 5.94087C78.7892 10.673 78.7892 18.3728 74.0571 23.1055C71.691 25.4716 68.5827 26.6552 65.4745 26.6552ZM65.4745 4.67133C62.8428 4.67133 60.3684 5.69589 58.508 7.55694C54.6664 11.3985 54.6664 17.6485 58.508 21.4894C62.3495 25.3309 68.5995 25.3309 72.441 21.4894C76.2814 17.6479 76.2814 11.3979 72.441 7.55694C70.5805 5.69589 68.1062 4.67133 65.4745 4.67133Z" fill="black"/>
<path d="M65.4743 19.1356C64.2924 19.1356 63.1105 18.6858 62.2109 17.7862C61.3393 16.9146 60.8594 15.7555 60.8594 14.5228C60.8594 13.2907 61.3393 12.1317 62.2109 11.26C63.0826 10.3884 64.2411 9.90845 65.4743 9.90845C66.7076 9.90845 67.8661 10.3884 68.7377 11.26C69.6094 12.1317 70.0893 13.2907 70.0893 14.5228C70.0893 15.7555 69.6094 16.9146 68.7377 17.7862C67.8382 18.6858 66.6563 19.1356 65.4743 19.1356ZM65.4743 12.1947C64.8772 12.1947 64.2813 12.4218 63.827 12.8761C62.9185 13.7846 62.9185 15.2617 63.827 16.1702C64.7355 17.0775 66.2132 17.0775 67.1217 16.1702C68.0301 15.2617 68.0301 13.7846 67.1217 12.8761C66.6674 12.4218 66.0714 12.1947 65.4743 12.1947Z" fill="black"/>
<path d="M63.0198 13.2054C62.7274 13.2054 62.435 13.0938 62.2118 12.8706L53.5778 4.23666C53.1314 3.79023 53.1314 3.06702 53.5778 2.62059C54.0243 2.17416 54.7475 2.17416 55.1939 2.62059L63.8278 11.2545C64.2743 11.7009 64.2743 12.4242 63.8278 12.8706C63.6046 13.0938 63.3122 13.2054 63.0198 13.2054ZM16.9807 64.1624C16.6883 64.1624 16.3959 64.0508 16.1727 63.8276C15.7263 63.3812 15.7263 62.658 16.1727 62.2115L24.656 53.7283C25.1024 53.2819 25.8256 53.2819 26.272 53.7283C26.7185 54.1747 26.7185 54.8979 26.272 55.3444L17.7888 63.8276C17.5656 64.0508 17.2732 64.1624 16.9807 64.1624Z" fill="black"/>
<path d="M14.5272 77.6021C11.4189 77.6021 8.31069 76.4196 5.94462 74.053C1.21247 69.3208 1.21247 61.6205 5.94462 56.8883C10.6768 52.1562 18.3777 52.1562 23.1098 56.8883C27.8419 61.6205 27.8419 69.3208 23.1098 74.053C20.7437 76.419 17.6343 77.6021 14.5272 77.6021ZM14.5272 55.6238C12.0038 55.6238 9.48145 56.5842 7.56069 58.5044C3.71917 62.3454 3.71917 68.5954 7.56069 72.4369C11.4033 76.2778 17.6533 76.2778 21.4937 72.4369C25.3352 68.5954 25.3352 62.3454 21.4937 58.5044C19.573 56.5842 17.0495 55.6238 14.5272 55.6238Z" fill="black"/>
<path d="M14.5271 70.0854C13.2938 70.0854 12.1353 69.6055 11.2637 68.7339C10.392 67.8622 9.91211 66.7032 9.91211 65.471C9.91211 64.2383 10.392 63.0793 11.2637 62.2076C12.1353 61.336 13.2938 60.8561 14.5271 60.8561C15.7603 60.8561 16.9188 61.336 17.7893 62.2076C19.5884 64.0067 19.5884 66.9348 17.7893 68.7339C16.9188 69.6055 15.7603 70.0854 14.5271 70.0854ZM14.5271 63.1418C13.9043 63.1418 13.3195 63.384 12.8797 63.8237C11.9713 64.7322 11.9713 66.2093 12.8797 67.1178C13.7581 67.9961 15.2927 67.9984 16.1733 67.1178C17.0818 66.2093 17.0818 64.7322 16.1733 63.8237C15.7335 63.3834 15.1487 63.1418 14.5271 63.1418Z" fill="black"/>
<path d="M25.6265 77.7143C25.3341 77.7143 25.0417 77.6027 24.8185 77.3794L16.1734 68.7344C15.727 68.2879 15.727 67.5647 16.1734 67.1183C16.6198 66.6719 17.3431 66.6719 17.7895 67.1183L26.4346 75.7634C26.881 76.2098 26.881 76.933 26.4346 77.3794C26.2114 77.6027 25.9189 77.7143 25.6265 77.7143ZM12.0741 64.1624C11.7817 64.1624 11.4893 64.0508 11.266 63.8276L2.62095 55.1819C2.17453 54.7355 2.17453 54.0123 2.62095 53.5658C3.06738 53.1194 3.7906 53.1194 4.23703 53.5658L12.8821 62.2115C13.3285 62.6579 13.3285 63.3811 12.8821 63.8276C12.6589 64.0508 12.3665 64.1624 12.0741 64.1624ZM40.0027 44.0346C38.9245 44.0346 37.9111 43.6144 37.1489 42.8521C36.3866 42.0898 35.9658 41.0764 35.9658 39.9983C35.9658 38.9202 36.3866 37.9068 37.1489 37.1445C37.1489 37.1445 37.1489 37.1445 37.1489 37.144C38.6734 35.6216 41.3319 35.6205 42.8564 37.144C44.4301 38.7176 44.4301 41.2779 42.8564 42.8521C42.0942 43.6144 41.0797 44.0346 40.0027 44.0346ZM40.0027 38.2478C39.535 38.2478 39.0953 38.4297 38.7649 38.7606C38.7649 38.7606 38.7649 38.7606 38.7649 38.7611C38.4335 39.0915 38.2515 39.5312 38.2515 39.9983C38.2515 40.4654 38.4335 40.9051 38.7649 41.2355C39.4256 41.8984 40.5797 41.8973 41.2404 41.2355C41.9223 40.5536 41.9223 39.4431 41.2404 38.7606C40.91 38.4302 40.4703 38.2478 40.0027 38.2478ZM37.9569 37.9525H37.9681H37.9569ZM49.2393 36.4464C48.9468 36.4464 48.6544 36.3348 48.4312 36.1116L43.8888 31.5692C43.4424 31.1228 43.4424 30.3995 43.8888 29.9531C44.3352 29.5067 45.0585 29.5067 45.5049 29.9531L50.0473 34.4955C50.4937 34.9419 50.4937 35.6652 50.0473 36.1116C49.8241 36.3348 49.5317 36.4464 49.2393 36.4464ZM35.3107 50.3761C35.0183 50.3761 34.7259 50.2645 34.5027 50.0413L29.9513 45.4899C29.5049 45.0435 29.5049 44.3203 29.9513 43.8739C30.3977 43.4274 31.121 43.4274 31.5674 43.8739L36.1187 48.4252C36.5652 48.8716 36.5652 49.5948 36.1187 50.0413C35.8955 50.2645 35.6031 50.3761 35.3107 50.3761ZM44.6879 50.3761C44.3955 50.3761 44.1031 50.2645 43.8799 50.0413C43.4335 49.5948 43.4335 48.8716 43.8799 48.4252L48.4312 43.8739C48.8777 43.4274 49.6009 43.4274 50.0473 43.8739C50.4937 44.3203 50.4937 45.0435 50.0473 45.4899L45.496 50.0413C45.2727 50.2645 44.9803 50.3761 44.6879 50.3761ZM30.7683 36.4553C30.4759 36.4553 30.1835 36.3437 29.9602 36.1205C29.5138 35.6741 29.5138 34.9509 29.9602 34.5044L34.5116 29.9531C34.958 29.5067 35.6812 29.5067 36.1277 29.9531C36.5741 30.3995 36.5741 31.1228 36.1277 31.5692L31.5763 36.1205C31.3531 36.3437 31.0607 36.4553 30.7683 36.4553Z" fill="black"/>
</svg>
