<svg width="176" height="176" viewBox="0 0 176 176" fill="none" xmlns="http://www.w3.org/2000/svg">
<g filter="url(#filter0_d)">
<rect x="8" y="8" width="160" height="160" fill="white"/>
</g>
<path d="M68.1719 110.5C67.0469 110.5 66.0625 111.484 66.0625 112.609V115.422C66.0625 115.844 66.3438 116.125 66.7656 116.125H69.5781C70 116.125 70.2813 115.844 70.2813 115.422V112.609C70.2813 111.484 69.2969 110.5 68.1719 110.5ZM68.875 114.719H67.4688V112.609C67.4688 112.188 67.75 111.906 68.1719 111.906C68.5938 111.906 68.875 112.188 68.875 112.609V114.719ZM68.1719 103.469C67.0469 103.469 66.0625 104.453 66.0625 105.578V108.391C66.0625 108.813 66.3438 109.094 66.7656 109.094H69.5781C70 109.094 70.2813 108.813 70.2813 108.391V105.578C70.2813 104.453 69.2969 103.469 68.1719 103.469ZM68.875 107.688H67.4688V105.578C67.4688 105.156 67.75 104.875 68.1719 104.875C68.5938 104.875 68.875 105.156 68.875 105.578V107.688ZM58.3281 97.8438C58.75 97.8438 59.0313 97.5625 59.0313 97.1406V94.3281C59.0313 93.2031 58.0469 92.2188 56.9219 92.2188C55.7969 92.2188 54.8125 93.2031 54.8125 94.3281V97.1406C54.8125 97.5625 55.0938 97.8438 55.5156 97.8438H58.3281ZM56.2188 94.3281C56.2188 93.9063 56.5 93.625 56.9219 93.625C57.3438 93.625 57.625 93.9063 57.625 94.3281V96.4375H56.2188V94.3281ZM55.5156 90.8125H58.3281C58.75 90.8125 59.0313 90.5313 59.0313 90.1094V87.2969C59.0313 86.1719 58.0469 85.1875 56.9219 85.1875C55.7969 85.1875 54.8125 86.1719 54.8125 87.2969V90.1094C54.8125 90.5313 55.0938 90.8125 55.5156 90.8125ZM56.2188 87.2969C56.2188 86.875 56.5 86.5938 56.9219 86.5938C57.3438 86.5938 57.625 86.875 57.625 87.2969V89.4063H56.2188V87.2969ZM61.1406 97.8438H63.9531C64.375 97.8438 64.6563 97.5625 64.6563 97.1406V94.3281C64.6563 93.2031 63.6719 92.2188 62.5469 92.2188C61.4219 92.2188 60.4375 93.2031 60.4375 94.3281V97.1406C60.4375 97.5625 60.7188 97.8438 61.1406 97.8438ZM61.8438 94.3281C61.8438 93.9063 62.125 93.625 62.5469 93.625C62.9688 93.625 63.25 93.9063 63.25 94.3281V96.4375H61.8438V94.3281ZM61.1406 90.8125H63.9531C64.375 90.8125 64.6563 90.5313 64.6563 90.1094V87.2969C64.6563 86.1719 63.6719 85.1875 62.5469 85.1875C61.4219 85.1875 60.4375 86.1719 60.4375 87.2969V90.1094C60.4375 90.5313 60.7188 90.8125 61.1406 90.8125ZM61.8438 87.2969C61.8438 86.875 62.125 86.5938 62.5469 86.5938C62.9688 86.5938 63.25 86.875 63.25 87.2969V89.4063H61.8438V87.2969ZM113.172 92.2188C112.047 92.2188 111.063 93.2031 111.063 94.3281V97.1406C111.063 97.5625 111.344 97.8438 111.766 97.8438H114.578C115 97.8438 115.281 97.5625 115.281 97.1406V94.3281C115.281 93.2031 114.297 92.2188 113.172 92.2188ZM113.875 96.4375H112.469V94.3281C112.469 93.9063 112.75 93.625 113.172 93.625C113.594 93.625 113.875 93.9063 113.875 94.3281V96.4375ZM113.172 85.1875C112.047 85.1875 111.063 86.1719 111.063 87.2969V90.1094C111.063 90.5313 111.344 90.8125 111.766 90.8125H114.578C115 90.8125 115.281 90.5313 115.281 90.1094V87.2969C115.281 86.1719 114.297 85.1875 113.172 85.1875ZM113.875 89.4063H112.469V87.2969C112.469 86.875 112.75 86.5938 113.172 86.5938C113.594 86.5938 113.875 86.875 113.875 87.2969V89.4063ZM118.797 92.2188C117.672 92.2188 116.688 93.2031 116.688 94.3281V97.1406C116.688 97.5625 116.969 97.8438 117.391 97.8438H120.203C120.625 97.8438 120.906 97.5625 120.906 97.1406V94.3281C120.906 93.2031 119.922 92.2188 118.797 92.2188ZM119.5 96.4375H118.094V94.3281C118.094 93.9063 118.375 93.625 118.797 93.625C119.219 93.625 119.5 93.9063 119.5 94.3281V96.4375ZM116.688 87.2969V90.1094C116.688 90.5313 116.969 90.8125 117.391 90.8125H120.203C120.625 90.8125 120.906 90.5313 120.906 90.1094V87.2969C120.906 86.1719 119.922 85.1875 118.797 85.1875C117.672 85.1875 116.688 86.1719 116.688 87.2969ZM119.5 87.2969V89.4063H118.094V87.2969C118.094 86.875 118.375 86.5938 118.797 86.5938C119.219 86.5938 119.5 86.875 119.5 87.2969Z" fill="#1687A7"/>
<path d="M123.016 100.656C123.438 100.656 123.719 100.375 123.719 99.9531V83.0781C123.719 82.6563 123.438 82.375 123.016 82.375H119.5V72.5313H121.609C122.031 72.5313 122.313 72.25 122.313 71.8281V66.2031C122.313 65.7813 122.031 65.5 121.609 65.5H119.5V60.5781H120.203C120.625 60.5781 120.906 60.2969 120.906 59.875V55.6563C120.906 55.2344 120.625 54.9531 120.203 54.9531H119.5V50.3125C119.5 48.7656 118.797 47.3594 117.391 46.5156L116.688 46.0938V43.7031C116.688 43.2812 116.406 43 115.984 43C115.563 43 115.281 43.2812 115.281 43.7031V46.0938L114.578 46.5156C113.313 47.3594 112.469 48.7656 112.469 50.3125V54.9531H111.766C111.344 54.9531 111.063 55.2344 111.063 55.6563V59.875C111.063 60.2969 111.344 60.5781 111.766 60.5781H112.469V65.5H110.359C109.938 65.5 109.656 65.7813 109.656 66.2031V71.8281C109.656 72.25 109.938 72.5313 110.359 72.5313H112.469V73.9375H63.25V72.5313H65.3594C65.7813 72.5313 66.0625 72.25 66.0625 71.8281V66.2031C66.0625 65.7813 65.7813 65.5 65.3594 65.5H63.25V60.5781H63.9531C64.375 60.5781 64.6563 60.2969 64.6563 59.875V55.6563C64.6563 55.2344 64.375 54.9531 63.9531 54.9531H63.25V50.3125C63.25 48.7656 62.5469 47.3594 61.1406 46.5156L60.4375 46.0938V43.7031C60.4375 43.2812 60.1563 43 59.7344 43C59.3125 43 59.0313 43.2812 59.0313 43.7031V46.0938L58.3281 46.5156C57.0625 47.3594 56.2188 48.7656 56.2188 50.3125V54.9531H55.5156C55.0938 54.9531 54.8125 55.2344 54.8125 55.6563V59.875C54.8125 60.2969 55.0938 60.5781 55.5156 60.5781H56.2188V65.5H54.1094C53.6875 65.5 53.4063 65.7813 53.4063 66.2031V71.8281C53.4063 72.25 53.6875 72.5313 54.1094 72.5313H56.2188V82.375H52.7031C52.2812 82.375 52 82.6563 52 83.0781V99.9531C52 100.375 52.2812 100.656 52.7031 100.656H54.8125V131.594H52.7031C52.2812 131.594 52 131.875 52 132.297C52 132.719 52.2812 133 52.7031 133H123.016C123.438 133 123.719 132.719 123.719 132.297C123.719 131.875 123.438 131.594 123.016 131.594H120.906V100.656H123.016ZM122.313 99.25H109.656V83.7813H122.313V99.25ZM101.219 99.25V92.9219C101.219 90.8125 102.766 89.8281 103.328 89.4063C103.891 89.6875 105.438 90.6719 105.438 92.9219V99.25H101.219ZM103.609 88C103.469 88 103.328 88 103.188 88C103.047 88 99.8125 89.2656 99.8125 92.9219V99.25H98.4063V92.9219C98.4063 89.2656 95.3125 88.1406 95.1719 88C95.0313 88 94.8906 88 94.75 88C94.6094 88 91.375 89.2656 91.375 92.9219V99.25H84.3438V92.9219C84.3438 89.2656 81.25 88.1406 81.1094 88C80.9688 88 80.8281 88 80.6875 88C80.5469 88 77.3125 89.2656 77.3125 92.9219V99.25H75.9063V92.9219C75.9063 89.2656 72.8125 88.1406 72.6719 88C72.5313 88 72.3906 88 72.25 88C72.1094 88 68.875 89.2656 68.875 92.9219V99.25H67.4688V83.7813H68.875V84.4844C68.875 84.9063 69.1563 85.1875 69.5781 85.1875C70 85.1875 70.2813 84.9063 70.2813 84.4844V83.7813H71.6875V84.4844C71.6875 84.9063 71.9688 85.1875 72.3906 85.1875C72.8125 85.1875 73.0938 84.9063 73.0938 84.4844V83.7813H74.5V84.4844C74.5 84.9063 74.7813 85.1875 75.2031 85.1875C75.625 85.1875 75.9063 84.9063 75.9063 84.4844V83.7813H77.3125V84.4844C77.3125 84.9063 77.5938 85.1875 78.0156 85.1875C78.4375 85.1875 78.7188 84.9063 78.7188 84.4844V83.7813H80.125V84.4844C80.125 84.9063 80.4063 85.1875 80.8281 85.1875C81.25 85.1875 81.5313 84.9063 81.5313 84.4844V83.7813H82.9375V84.4844C82.9375 84.9063 83.2188 85.1875 83.6406 85.1875C84.0625 85.1875 84.3438 84.9063 84.3438 84.4844V83.7813H85.75V84.4844C85.75 84.9063 86.0313 85.1875 86.4531 85.1875C86.875 85.1875 87.1563 84.9063 87.1563 84.4844V83.7813H88.5625V84.4844C88.5625 84.9063 88.8438 85.1875 89.2656 85.1875C89.6875 85.1875 89.9688 84.9063 89.9688 84.4844V83.7813H91.375V84.4844C91.375 84.9063 91.6563 85.1875 92.0781 85.1875C92.5 85.1875 92.7813 84.9063 92.7813 84.4844V83.7813H94.1875V84.4844C94.1875 84.9063 94.4688 85.1875 94.8906 85.1875C95.3125 85.1875 95.5938 84.9063 95.5938 84.4844V83.7813H97V84.4844C97 84.9063 97.2813 85.1875 97.7031 85.1875C98.125 85.1875 98.4063 84.9063 98.4063 84.4844V83.7813H99.8125V84.4844C99.8125 84.9063 100.094 85.1875 100.516 85.1875C100.938 85.1875 101.219 84.9063 101.219 84.4844V83.7813H102.625V84.4844C102.625 84.9063 102.906 85.1875 103.328 85.1875C103.75 85.1875 104.031 84.9063 104.031 84.4844V83.7813H105.438V84.4844C105.438 84.9063 105.719 85.1875 106.141 85.1875C106.563 85.1875 106.844 84.9063 106.844 84.4844V83.7813H108.25V99.25H106.844V92.9219C106.844 89.2656 103.75 88.1406 103.609 88ZM92.7813 99.25V92.9219C92.7813 90.8125 94.3281 89.8281 94.8906 89.4063C95.4531 89.6875 97 90.6719 97 92.9219V99.25H92.7813ZM78.7188 99.25V92.9219C78.7188 90.8125 80.2656 89.8281 80.8281 89.4063C81.3906 89.6875 82.9375 90.6719 82.9375 92.9219V99.25H78.7188ZM70.2813 99.25V92.9219C70.2813 90.8125 71.8281 89.8281 72.3906 89.4063C72.9531 89.6875 74.5 90.6719 74.5 92.9219V99.25H70.2813ZM63.25 78.1563H112.469V82.375H109.656V81.6719C109.656 80.5469 108.672 79.5625 107.547 79.5625C106.422 79.5625 105.438 80.5469 105.438 81.6719V82.375H104.031V81.6719C104.031 80.5469 103.047 79.5625 101.922 79.5625C100.797 79.5625 99.8125 80.5469 99.8125 81.6719V82.375H98.4063V81.6719C98.4063 80.5469 97.4219 79.5625 96.2969 79.5625C95.1719 79.5625 94.1875 80.5469 94.1875 81.6719V82.375H92.7813V81.6719C92.7813 80.5469 91.7969 79.5625 90.6719 79.5625C89.5469 79.5625 88.5625 80.5469 88.5625 81.6719V82.375H87.1563V81.6719C87.1563 80.5469 86.1719 79.5625 85.0469 79.5625C83.9219 79.5625 82.9375 80.5469 82.9375 81.6719V82.375H81.5313V81.6719C81.5313 80.5469 80.5469 79.5625 79.4219 79.5625C78.2969 79.5625 77.3125 80.5469 77.3125 81.6719V82.375H75.9063V81.6719C75.9063 80.5469 74.9219 79.5625 73.7969 79.5625C72.6719 79.5625 71.6875 80.5469 71.6875 81.6719V82.375H70.2813V81.6719C70.2813 80.5469 69.2969 79.5625 68.1719 79.5625C67.0469 79.5625 66.0625 80.5469 66.0625 81.6719V82.375H63.25V78.1563ZM108.25 82.375H106.844V81.6719C106.844 81.25 107.125 80.9688 107.547 80.9688C107.969 80.9688 108.25 81.25 108.25 81.6719V82.375ZM102.625 82.375H101.219V81.6719C101.219 81.25 101.5 80.9688 101.922 80.9688C102.344 80.9688 102.625 81.25 102.625 81.6719V82.375ZM97 82.375H95.5938V81.6719C95.5938 81.25 95.875 80.9688 96.2969 80.9688C96.7188 80.9688 97 81.25 97 81.6719V82.375ZM91.375 82.375H89.9688V81.6719C89.9688 81.25 90.25 80.9688 90.6719 80.9688C91.0938 80.9688 91.375 81.25 91.375 81.6719V82.375ZM85.75 82.375H84.3438V81.6719C84.3438 81.25 84.625 80.9688 85.0469 80.9688C85.4688 80.9688 85.75 81.25 85.75 81.6719V82.375ZM80.125 82.375H78.7188V81.6719C78.7188 81.25 79 80.9688 79.4219 80.9688C79.8438 80.9688 80.125 81.25 80.125 81.6719V82.375ZM74.5 82.375H73.0938V81.6719C73.0938 81.25 73.375 80.9688 73.7969 80.9688C74.2188 80.9688 74.5 81.25 74.5 81.6719V82.375ZM68.875 82.375H67.4688V81.6719C67.4688 81.25 67.75 80.9688 68.1719 80.9688C68.5938 80.9688 68.875 81.25 68.875 81.6719V82.375ZM119.5 59.1719H118.094V58.4688C118.094 58.0469 117.813 57.7656 117.391 57.7656C116.969 57.7656 116.688 58.0469 116.688 58.4688V59.1719H115.281V58.4688C115.281 58.0469 115 57.7656 114.578 57.7656C114.156 57.7656 113.875 58.0469 113.875 58.4688V59.1719H112.469V56.3594H119.5V59.1719ZM115.281 47.7812L115.984 47.3594L116.688 47.7812C117.531 48.3437 117.953 49.1875 118.094 50.0313H113.875C114.016 49.0469 114.438 48.2031 115.281 47.7812ZM113.875 51.4375H118.094V54.9531H116.688V53.5469C116.688 53.125 116.406 52.8438 115.984 52.8438C115.563 52.8438 115.281 53.125 115.281 53.5469V54.9531H113.875V51.4375ZM113.875 60.5781H118.094V65.5H113.875V60.5781ZM111.063 71.125V66.9063H120.906V71.125H119.5V69.0156C119.5 68.5938 119.219 68.3125 118.797 68.3125C118.375 68.3125 118.094 68.5938 118.094 69.0156V71.125H116.688V69.0156C116.688 68.5938 116.406 68.3125 115.984 68.3125C115.563 68.3125 115.281 68.5938 115.281 69.0156V71.125H113.875V69.0156C113.875 68.5938 113.594 68.3125 113.172 68.3125C112.75 68.3125 112.469 68.5938 112.469 69.0156V71.125H111.063ZM118.094 72.5313V82.375H113.875V72.5313H118.094ZM112.469 75.3438V76.75H63.25V75.3438H112.469ZM63.25 59.1719H61.8438V58.4688C61.8438 58.0469 61.5625 57.7656 61.1406 57.7656C60.7188 57.7656 60.4375 58.0469 60.4375 58.4688V59.1719H59.0313V58.4688C59.0313 58.0469 58.75 57.7656 58.3281 57.7656C57.9063 57.7656 57.625 58.0469 57.625 58.4688V59.1719H56.2188V56.3594H63.25V59.1719ZM59.0313 47.7812L59.7344 47.3594L60.4375 47.7812C61.2813 48.3437 61.7031 49.1875 61.8438 50.0313H57.625C57.7656 49.0469 58.1875 48.2031 59.0313 47.7812ZM57.625 51.4375H61.8438V54.9531H60.4375V53.5469C60.4375 53.125 60.1563 52.8438 59.7344 52.8438C59.3125 52.8438 59.0313 53.125 59.0313 53.5469V54.9531H57.625V51.4375ZM57.625 60.5781H61.8438V65.5H57.625V60.5781ZM54.8125 71.125V66.9063H64.6563V71.125H63.25V69.0156C63.25 68.5938 62.9688 68.3125 62.5469 68.3125C62.125 68.3125 61.8438 68.5938 61.8438 69.0156V71.125H60.4375V69.0156C60.4375 68.5938 60.1563 68.3125 59.7344 68.3125C59.3125 68.3125 59.0313 68.5938 59.0313 69.0156V71.125H57.625V69.0156C57.625 68.5938 57.3438 68.3125 56.9219 68.3125C56.5 68.3125 56.2188 68.5938 56.2188 69.0156V71.125H54.8125ZM57.625 72.5313H61.8438V82.375H57.625V72.5313ZM53.4063 83.7813H66.0625V99.25H53.4063V83.7813ZM56.2188 100.656H63.25V131.594H56.2188V100.656ZM64.6563 100.656H66.0625V101.359C66.0625 101.781 66.3438 102.063 66.7656 102.063C67.1875 102.063 67.4688 101.781 67.4688 101.359V100.656H68.875V101.359C68.875 101.781 69.1563 102.063 69.5781 102.063C70 102.063 70.2813 101.781 70.2813 101.359V100.656H71.6875V131.594H64.6563V100.656ZM74.5 100.656V101.359C74.5 101.781 74.7813 102.063 75.2031 102.063C75.625 102.063 75.9063 101.781 75.9063 101.359V100.656H77.3125V101.359C77.3125 101.781 77.5938 102.063 78.0156 102.063C78.4375 102.063 78.7188 101.781 78.7188 101.359V100.656H80.125V101.359C80.125 101.781 80.4063 102.063 80.8281 102.063C81.25 102.063 81.5313 101.781 81.5313 101.359V100.656H82.9375V101.359C82.9375 101.781 83.2188 102.063 83.6406 102.063C84.0625 102.063 84.3438 101.781 84.3438 101.359V100.656H85.75V101.359C85.75 101.781 86.0313 102.063 86.4531 102.063C86.875 102.063 87.1563 101.781 87.1563 101.359V100.656H88.5625V101.359C88.5625 101.781 88.8438 102.063 89.2656 102.063C89.6875 102.063 89.9688 101.781 89.9688 101.359V100.656H91.375V101.359C91.375 101.781 91.6563 102.063 92.0781 102.063C92.5 102.063 92.7813 101.781 92.7813 101.359V100.656H94.1875V101.359C94.1875 101.781 94.4688 102.063 94.8906 102.063C95.3125 102.063 95.5938 101.781 95.5938 101.359V100.656H97V101.359C97 101.781 97.2813 102.063 97.7031 102.063C98.125 102.063 98.4063 101.781 98.4063 101.359V100.656H99.8125V101.359C99.8125 101.781 100.094 102.063 100.516 102.063C100.938 102.063 101.219 101.781 101.219 101.359V100.656H102.625V131.594H99.8125V117.672C99.8125 112.891 97.1406 108.531 92.5 106L88.1406 103.609C87.8594 103.469 87.7187 103.469 87.4375 103.609L83.0781 106C78.5781 108.531 75.7656 112.891 75.7656 117.672V131.594H72.9531V100.656H74.5ZM98.4063 131.594H77.3125V117.672C77.3125 113.453 79.7031 109.516 83.7812 107.266L87.8594 105.016L91.7969 107.266C95.875 109.516 98.4063 113.453 98.4063 117.672V131.594ZM104.031 100.656H105.438V101.359C105.438 101.781 105.719 102.063 106.141 102.063C106.563 102.063 106.844 101.781 106.844 101.359V100.656H108.25V101.359C108.25 101.781 108.531 102.063 108.953 102.063C109.375 102.063 109.656 101.781 109.656 101.359V100.656H111.063V131.594H104.031V100.656ZM119.5 131.594H112.469V100.656H119.5V131.594Z" fill="#1687A7"/>
<path d="M76.6094 107.688C77.7344 107.688 78.7188 106.703 78.7188 105.578C78.7188 104.453 77.7344 103.469 76.6094 103.469C75.4844 103.469 74.5 104.453 74.5 105.578C74.5 106.703 75.4844 107.688 76.6094 107.688ZM76.6094 104.875C77.0313 104.875 77.3125 105.156 77.3125 105.578C77.3125 106 77.0313 106.281 76.6094 106.281C76.1875 106.281 75.9063 106 75.9063 105.578C75.9063 105.156 76.1875 104.875 76.6094 104.875ZM99.1094 107.688C100.234 107.688 101.219 106.703 101.219 105.578C101.219 104.453 100.234 103.469 99.1094 103.469C97.9844 103.469 97 104.453 97 105.578C97 106.703 97.9844 107.688 99.1094 107.688ZM99.1094 104.875C99.5313 104.875 99.8125 105.156 99.8125 105.578C99.8125 106 99.5313 106.281 99.1094 106.281C98.6875 106.281 98.4063 106 98.4063 105.578C98.4063 105.156 98.6875 104.875 99.1094 104.875ZM87.8594 89.4063C86.7344 89.4063 85.75 90.3906 85.75 91.5156C85.75 92.6406 86.7344 93.625 87.8594 93.625C88.9844 93.625 89.9688 92.6406 89.9688 91.5156C89.9688 90.3906 88.9844 89.4063 87.8594 89.4063ZM87.8594 92.2188C87.4375 92.2188 87.1563 91.9375 87.1563 91.5156C87.1563 91.0938 87.4375 90.8125 87.8594 90.8125C88.2813 90.8125 88.5625 91.0938 88.5625 91.5156C88.5625 91.9375 88.2813 92.2188 87.8594 92.2188ZM68.1719 117.531C67.0469 117.531 66.0625 118.516 66.0625 119.641V122.453C66.0625 122.875 66.3438 123.156 66.7656 123.156H69.5781C70 123.156 70.2813 122.875 70.2813 122.453V119.641C70.2813 118.516 69.2969 117.531 68.1719 117.531ZM68.875 121.75H67.4688V119.641C67.4688 119.219 67.75 118.938 68.1719 118.938C68.5938 118.938 68.875 119.219 68.875 119.641V121.75ZM68.1719 124.563C67.0469 124.563 66.0625 125.547 66.0625 126.672V129.484C66.0625 129.906 66.3438 130.188 66.7656 130.188H69.5781C70 130.188 70.2813 129.906 70.2813 129.484V126.672C70.2813 125.547 69.2969 124.563 68.1719 124.563ZM68.875 128.781H67.4688V126.672C67.4688 126.25 67.75 125.969 68.1719 125.969C68.5938 125.969 68.875 126.25 68.875 126.672V128.781ZM107.547 103.469C106.422 103.469 105.438 104.453 105.438 105.578V108.391C105.438 108.813 105.719 109.094 106.141 109.094H108.953C109.375 109.094 109.656 108.813 109.656 108.391V105.578C109.656 104.453 108.672 103.469 107.547 103.469ZM108.25 107.688H106.844V105.578C106.844 105.156 107.125 104.875 107.547 104.875C107.969 104.875 108.25 105.156 108.25 105.578V107.688ZM107.547 110.5C106.422 110.5 105.438 111.484 105.438 112.609V115.422C105.438 115.844 105.719 116.125 106.141 116.125H108.953C109.375 116.125 109.656 115.844 109.656 115.422V112.609C109.656 111.484 108.672 110.5 107.547 110.5ZM108.25 114.719H106.844V112.609C106.844 112.188 107.125 111.906 107.547 111.906C107.969 111.906 108.25 112.188 108.25 112.609V114.719ZM107.547 124.563C106.422 124.563 105.438 125.547 105.438 126.672V129.484C105.438 129.906 105.719 130.188 106.141 130.188H108.953C109.375 130.188 109.656 129.906 109.656 129.484V126.672C109.656 125.547 108.672 124.563 107.547 124.563ZM108.25 128.781H106.844V126.672C106.844 126.25 107.125 125.969 107.547 125.969C107.969 125.969 108.25 126.25 108.25 126.672V128.781ZM107.547 117.531C106.422 117.531 105.438 118.516 105.438 119.641V122.453C105.438 122.875 105.719 123.156 106.141 123.156H108.953C109.375 123.156 109.656 122.875 109.656 122.453V119.641C109.656 118.516 108.672 117.531 107.547 117.531ZM108.25 121.75H106.844V119.641C106.844 119.219 107.125 118.938 107.547 118.938C107.969 118.938 108.25 119.219 108.25 119.641V121.75Z" fill="#1687A7"/>
<defs>
<filter id="filter0_d" x="0" y="0" width="176" height="176" filterUnits="userSpaceOnUse" color-interpolation-filters="sRGB">
<feFlood flood-opacity="0" result="BackgroundImageFix"/>
<feColorMatrix in="SourceAlpha" type="matrix" values="0 0 0 0 0 0 0 0 0 0 0 0 0 0 0 0 0 0 127 0" result="hardAlpha"/>
<feOffset/>
<feGaussianBlur stdDeviation="4"/>
<feComposite in2="hardAlpha" operator="out"/>
<feColorMatrix type="matrix" values="0 0 0 0 0.666667 0 0 0 0 0.666667 0 0 0 0 0.666667 0 0 0 0.25 0"/>
<feBlend mode="normal" in2="BackgroundImageFix" result="effect1_dropShadow"/>
<feBlend mode="normal" in="SourceGraphic" in2="effect1_dropShadow" result="shape"/>
</filter>
</defs>
</svg>
