<svg width="160" height="160" viewBox="0 0 160 160" fill="none" xmlns="http://www.w3.org/2000/svg">
<path d="M60.1719 102.5C59.0469 102.5 58.0625 103.484 58.0625 104.609V107.422C58.0625 107.844 58.3438 108.125 58.7656 108.125H61.5781C62 108.125 62.2812 107.844 62.2812 107.422V104.609C62.2812 103.484 61.2969 102.5 60.1719 102.5ZM60.875 106.719H59.4688V104.609C59.4688 104.188 59.75 103.906 60.1719 103.906C60.5938 103.906 60.875 104.188 60.875 104.609V106.719ZM60.1719 95.4688C59.0469 95.4688 58.0625 96.4531 58.0625 97.5781V100.391C58.0625 100.812 58.3438 101.094 58.7656 101.094H61.5781C62 101.094 62.2812 100.812 62.2812 100.391V97.5781C62.2812 96.4531 61.2969 95.4688 60.1719 95.4688ZM60.875 99.6875H59.4688V97.5781C59.4688 97.1562 59.75 96.875 60.1719 96.875C60.5938 96.875 60.875 97.1562 60.875 97.5781V99.6875ZM50.3281 89.8438C50.75 89.8438 51.0312 89.5625 51.0312 89.1406V86.3281C51.0312 85.2031 50.0469 84.2188 48.9219 84.2188C47.7969 84.2188 46.8125 85.2031 46.8125 86.3281V89.1406C46.8125 89.5625 47.0938 89.8438 47.5156 89.8438H50.3281ZM48.2188 86.3281C48.2188 85.9062 48.5 85.625 48.9219 85.625C49.3438 85.625 49.625 85.9062 49.625 86.3281V88.4375H48.2188V86.3281ZM47.5156 82.8125H50.3281C50.75 82.8125 51.0312 82.5312 51.0312 82.1094V79.2969C51.0312 78.1719 50.0469 77.1875 48.9219 77.1875C47.7969 77.1875 46.8125 78.1719 46.8125 79.2969V82.1094C46.8125 82.5312 47.0938 82.8125 47.5156 82.8125ZM48.2188 79.2969C48.2188 78.875 48.5 78.5938 48.9219 78.5938C49.3438 78.5938 49.625 78.875 49.625 79.2969V81.4062H48.2188V79.2969ZM53.1406 89.8438H55.9531C56.375 89.8438 56.6562 89.5625 56.6562 89.1406V86.3281C56.6562 85.2031 55.6719 84.2188 54.5469 84.2188C53.4219 84.2188 52.4375 85.2031 52.4375 86.3281V89.1406C52.4375 89.5625 52.7188 89.8438 53.1406 89.8438ZM53.8438 86.3281C53.8438 85.9062 54.125 85.625 54.5469 85.625C54.9688 85.625 55.25 85.9062 55.25 86.3281V88.4375H53.8438V86.3281ZM53.1406 82.8125H55.9531C56.375 82.8125 56.6562 82.5312 56.6562 82.1094V79.2969C56.6562 78.1719 55.6719 77.1875 54.5469 77.1875C53.4219 77.1875 52.4375 78.1719 52.4375 79.2969V82.1094C52.4375 82.5312 52.7188 82.8125 53.1406 82.8125ZM53.8438 79.2969C53.8438 78.875 54.125 78.5938 54.5469 78.5938C54.9688 78.5938 55.25 78.875 55.25 79.2969V81.4062H53.8438V79.2969ZM105.172 84.2188C104.047 84.2188 103.062 85.2031 103.062 86.3281V89.1406C103.062 89.5625 103.344 89.8438 103.766 89.8438H106.578C107 89.8438 107.281 89.5625 107.281 89.1406V86.3281C107.281 85.2031 106.297 84.2188 105.172 84.2188ZM105.875 88.4375H104.469V86.3281C104.469 85.9062 104.75 85.625 105.172 85.625C105.594 85.625 105.875 85.9062 105.875 86.3281V88.4375ZM105.172 77.1875C104.047 77.1875 103.062 78.1719 103.062 79.2969V82.1094C103.062 82.5312 103.344 82.8125 103.766 82.8125H106.578C107 82.8125 107.281 82.5312 107.281 82.1094V79.2969C107.281 78.1719 106.297 77.1875 105.172 77.1875ZM105.875 81.4062H104.469V79.2969C104.469 78.875 104.75 78.5938 105.172 78.5938C105.594 78.5938 105.875 78.875 105.875 79.2969V81.4062ZM110.797 84.2188C109.672 84.2188 108.688 85.2031 108.688 86.3281V89.1406C108.688 89.5625 108.969 89.8438 109.391 89.8438H112.203C112.625 89.8438 112.906 89.5625 112.906 89.1406V86.3281C112.906 85.2031 111.922 84.2188 110.797 84.2188ZM111.5 88.4375H110.094V86.3281C110.094 85.9062 110.375 85.625 110.797 85.625C111.219 85.625 111.5 85.9062 111.5 86.3281V88.4375ZM108.688 79.2969V82.1094C108.688 82.5312 108.969 82.8125 109.391 82.8125H112.203C112.625 82.8125 112.906 82.5312 112.906 82.1094V79.2969C112.906 78.1719 111.922 77.1875 110.797 77.1875C109.672 77.1875 108.688 78.1719 108.688 79.2969ZM111.5 79.2969V81.4062H110.094V79.2969C110.094 78.875 110.375 78.5938 110.797 78.5938C111.219 78.5938 111.5 78.875 111.5 79.2969Z" fill="#1687A7"/>
<path d="M115.016 92.6562C115.438 92.6562 115.719 92.375 115.719 91.9531V75.0781C115.719 74.6562 115.438 74.375 115.016 74.375H111.5V64.5312H113.609C114.031 64.5312 114.312 64.25 114.312 63.8281V58.2031C114.312 57.7812 114.031 57.5 113.609 57.5H111.5V52.5781H112.203C112.625 52.5781 112.906 52.2969 112.906 51.875V47.6562C112.906 47.2344 112.625 46.9531 112.203 46.9531H111.5V42.3125C111.5 40.7656 110.797 39.3594 109.391 38.5156L108.688 38.0938V35.7031C108.688 35.2812 108.406 35 107.984 35C107.562 35 107.281 35.2812 107.281 35.7031V38.0938L106.578 38.5156C105.312 39.3594 104.469 40.7656 104.469 42.3125V46.9531H103.766C103.344 46.9531 103.062 47.2344 103.062 47.6562V51.875C103.062 52.2969 103.344 52.5781 103.766 52.5781H104.469V57.5H102.359C101.938 57.5 101.656 57.7812 101.656 58.2031V63.8281C101.656 64.25 101.938 64.5312 102.359 64.5312H104.469V65.9375H55.25V64.5312H57.3594C57.7812 64.5312 58.0625 64.25 58.0625 63.8281V58.2031C58.0625 57.7812 57.7812 57.5 57.3594 57.5H55.25V52.5781H55.9531C56.375 52.5781 56.6562 52.2969 56.6562 51.875V47.6562C56.6562 47.2344 56.375 46.9531 55.9531 46.9531H55.25V42.3125C55.25 40.7656 54.5469 39.3594 53.1406 38.5156L52.4375 38.0938V35.7031C52.4375 35.2812 52.1562 35 51.7344 35C51.3125 35 51.0312 35.2812 51.0312 35.7031V38.0938L50.3281 38.5156C49.0625 39.3594 48.2188 40.7656 48.2188 42.3125V46.9531H47.5156C47.0938 46.9531 46.8125 47.2344 46.8125 47.6562V51.875C46.8125 52.2969 47.0938 52.5781 47.5156 52.5781H48.2188V57.5H46.1094C45.6875 57.5 45.4062 57.7812 45.4062 58.2031V63.8281C45.4062 64.25 45.6875 64.5312 46.1094 64.5312H48.2188V74.375H44.7031C44.2812 74.375 44 74.6562 44 75.0781V91.9531C44 92.375 44.2812 92.6562 44.7031 92.6562H46.8125V123.594H44.7031C44.2812 123.594 44 123.875 44 124.297C44 124.719 44.2812 125 44.7031 125H115.016C115.438 125 115.719 124.719 115.719 124.297C115.719 123.875 115.438 123.594 115.016 123.594H112.906V92.6562H115.016ZM114.312 91.25H101.656V75.7812H114.312V91.25ZM93.2188 91.25V84.9219C93.2188 82.8125 94.7656 81.8281 95.3281 81.4062C95.8906 81.6875 97.4375 82.6719 97.4375 84.9219V91.25H93.2188ZM95.6094 80C95.4688 80 95.3281 80 95.1875 80C95.0469 80 91.8125 81.2656 91.8125 84.9219V91.25H90.4062V84.9219C90.4062 81.2656 87.3125 80.1406 87.1719 80C87.0312 80 86.8906 80 86.75 80C86.6094 80 83.375 81.2656 83.375 84.9219V91.25H76.3438V84.9219C76.3438 81.2656 73.25 80.1406 73.1094 80C72.9688 80 72.8281 80 72.6875 80C72.5469 80 69.3125 81.2656 69.3125 84.9219V91.25H67.9062V84.9219C67.9062 81.2656 64.8125 80.1406 64.6719 80C64.5313 80 64.3906 80 64.25 80C64.1094 80 60.875 81.2656 60.875 84.9219V91.25H59.4688V75.7812H60.875V76.4844C60.875 76.9062 61.1562 77.1875 61.5781 77.1875C62 77.1875 62.2812 76.9062 62.2812 76.4844V75.7812H63.6875V76.4844C63.6875 76.9062 63.9688 77.1875 64.3906 77.1875C64.8125 77.1875 65.0938 76.9062 65.0938 76.4844V75.7812H66.5V76.4844C66.5 76.9062 66.7812 77.1875 67.2031 77.1875C67.625 77.1875 67.9062 76.9062 67.9062 76.4844V75.7812H69.3125V76.4844C69.3125 76.9062 69.5938 77.1875 70.0156 77.1875C70.4375 77.1875 70.7188 76.9062 70.7188 76.4844V75.7812H72.125V76.4844C72.125 76.9062 72.4062 77.1875 72.8281 77.1875C73.25 77.1875 73.5312 76.9062 73.5312 76.4844V75.7812H74.9375V76.4844C74.9375 76.9062 75.2188 77.1875 75.6406 77.1875C76.0625 77.1875 76.3438 76.9062 76.3438 76.4844V75.7812H77.75V76.4844C77.75 76.9062 78.0312 77.1875 78.4531 77.1875C78.875 77.1875 79.1562 76.9062 79.1562 76.4844V75.7812H80.5625V76.4844C80.5625 76.9062 80.8438 77.1875 81.2656 77.1875C81.6875 77.1875 81.9688 76.9062 81.9688 76.4844V75.7812H83.375V76.4844C83.375 76.9062 83.6562 77.1875 84.0781 77.1875C84.5 77.1875 84.7812 76.9062 84.7812 76.4844V75.7812H86.1875V76.4844C86.1875 76.9062 86.4688 77.1875 86.8906 77.1875C87.3125 77.1875 87.5938 76.9062 87.5938 76.4844V75.7812H89V76.4844C89 76.9062 89.2812 77.1875 89.7031 77.1875C90.125 77.1875 90.4062 76.9062 90.4062 76.4844V75.7812H91.8125V76.4844C91.8125 76.9062 92.0938 77.1875 92.5156 77.1875C92.9375 77.1875 93.2188 76.9062 93.2188 76.4844V75.7812H94.625V76.4844C94.625 76.9062 94.9062 77.1875 95.3281 77.1875C95.75 77.1875 96.0312 76.9062 96.0312 76.4844V75.7812H97.4375V76.4844C97.4375 76.9062 97.7188 77.1875 98.1406 77.1875C98.5625 77.1875 98.8438 76.9062 98.8438 76.4844V75.7812H100.25V91.25H98.8438V84.9219C98.8438 81.2656 95.75 80.1406 95.6094 80ZM84.7812 91.25V84.9219C84.7812 82.8125 86.3281 81.8281 86.8906 81.4062C87.4531 81.6875 89 82.6719 89 84.9219V91.25H84.7812ZM70.7188 91.25V84.9219C70.7188 82.8125 72.2656 81.8281 72.8281 81.4062C73.3906 81.6875 74.9375 82.6719 74.9375 84.9219V91.25H70.7188ZM62.2812 91.25V84.9219C62.2812 82.8125 63.8281 81.8281 64.3906 81.4062C64.9531 81.6875 66.5 82.6719 66.5 84.9219V91.25H62.2812ZM55.25 70.1562H104.469V74.375H101.656V73.6719C101.656 72.5469 100.672 71.5625 99.5469 71.5625C98.4219 71.5625 97.4375 72.5469 97.4375 73.6719V74.375H96.0312V73.6719C96.0312 72.5469 95.0469 71.5625 93.9219 71.5625C92.7969 71.5625 91.8125 72.5469 91.8125 73.6719V74.375H90.4062V73.6719C90.4062 72.5469 89.4219 71.5625 88.2969 71.5625C87.1719 71.5625 86.1875 72.5469 86.1875 73.6719V74.375H84.7812V73.6719C84.7812 72.5469 83.7969 71.5625 82.6719 71.5625C81.5469 71.5625 80.5625 72.5469 80.5625 73.6719V74.375H79.1562V73.6719C79.1562 72.5469 78.1719 71.5625 77.0469 71.5625C75.9219 71.5625 74.9375 72.5469 74.9375 73.6719V74.375H73.5312V73.6719C73.5312 72.5469 72.5469 71.5625 71.4219 71.5625C70.2969 71.5625 69.3125 72.5469 69.3125 73.6719V74.375H67.9062V73.6719C67.9062 72.5469 66.9219 71.5625 65.7969 71.5625C64.6719 71.5625 63.6875 72.5469 63.6875 73.6719V74.375H62.2812V73.6719C62.2812 72.5469 61.2969 71.5625 60.1719 71.5625C59.0469 71.5625 58.0625 72.5469 58.0625 73.6719V74.375H55.25V70.1562ZM100.25 74.375H98.8438V73.6719C98.8438 73.25 99.125 72.9688 99.5469 72.9688C99.9688 72.9688 100.25 73.25 100.25 73.6719V74.375ZM94.625 74.375H93.2188V73.6719C93.2188 73.25 93.5 72.9688 93.9219 72.9688C94.3438 72.9688 94.625 73.25 94.625 73.6719V74.375ZM89 74.375H87.5938V73.6719C87.5938 73.25 87.875 72.9688 88.2969 72.9688C88.7188 72.9688 89 73.25 89 73.6719V74.375ZM83.375 74.375H81.9688V73.6719C81.9688 73.25 82.25 72.9688 82.6719 72.9688C83.0938 72.9688 83.375 73.25 83.375 73.6719V74.375ZM77.75 74.375H76.3438V73.6719C76.3438 73.25 76.625 72.9688 77.0469 72.9688C77.4688 72.9688 77.75 73.25 77.75 73.6719V74.375ZM72.125 74.375H70.7188V73.6719C70.7188 73.25 71 72.9688 71.4219 72.9688C71.8438 72.9688 72.125 73.25 72.125 73.6719V74.375ZM66.5 74.375H65.0938V73.6719C65.0938 73.25 65.375 72.9688 65.7969 72.9688C66.2188 72.9688 66.5 73.25 66.5 73.6719V74.375ZM60.875 74.375H59.4688V73.6719C59.4688 73.25 59.75 72.9688 60.1719 72.9688C60.5938 72.9688 60.875 73.25 60.875 73.6719V74.375ZM111.5 51.1719H110.094V50.4688C110.094 50.0469 109.812 49.7656 109.391 49.7656C108.969 49.7656 108.688 50.0469 108.688 50.4688V51.1719H107.281V50.4688C107.281 50.0469 107 49.7656 106.578 49.7656C106.156 49.7656 105.875 50.0469 105.875 50.4688V51.1719H104.469V48.3594H111.5V51.1719ZM107.281 39.7812L107.984 39.3594L108.688 39.7812C109.531 40.3437 109.953 41.1875 110.094 42.0312H105.875C106.016 41.0469 106.438 40.2031 107.281 39.7812ZM105.875 43.4375H110.094V46.9531H108.688V45.5469C108.688 45.125 108.406 44.8438 107.984 44.8438C107.562 44.8438 107.281 45.125 107.281 45.5469V46.9531H105.875V43.4375ZM105.875 52.5781H110.094V57.5H105.875V52.5781ZM103.062 63.125V58.9062H112.906V63.125H111.5V61.0156C111.5 60.5938 111.219 60.3125 110.797 60.3125C110.375 60.3125 110.094 60.5938 110.094 61.0156V63.125H108.688V61.0156C108.688 60.5938 108.406 60.3125 107.984 60.3125C107.562 60.3125 107.281 60.5938 107.281 61.0156V63.125H105.875V61.0156C105.875 60.5938 105.594 60.3125 105.172 60.3125C104.75 60.3125 104.469 60.5938 104.469 61.0156V63.125H103.062ZM110.094 64.5312V74.375H105.875V64.5312H110.094ZM104.469 67.3438V68.75H55.25V67.3438H104.469ZM55.25 51.1719H53.8438V50.4688C53.8438 50.0469 53.5625 49.7656 53.1406 49.7656C52.7188 49.7656 52.4375 50.0469 52.4375 50.4688V51.1719H51.0312V50.4688C51.0312 50.0469 50.75 49.7656 50.3281 49.7656C49.9062 49.7656 49.625 50.0469 49.625 50.4688V51.1719H48.2188V48.3594H55.25V51.1719ZM51.0312 39.7812L51.7344 39.3594L52.4375 39.7812C53.2812 40.3437 53.7031 41.1875 53.8438 42.0312H49.625C49.7656 41.0469 50.1875 40.2031 51.0312 39.7812ZM49.625 43.4375H53.8438V46.9531H52.4375V45.5469C52.4375 45.125 52.1562 44.8438 51.7344 44.8438C51.3125 44.8438 51.0312 45.125 51.0312 45.5469V46.9531H49.625V43.4375ZM49.625 52.5781H53.8438V57.5H49.625V52.5781ZM46.8125 63.125V58.9062H56.6562V63.125H55.25V61.0156C55.25 60.5938 54.9688 60.3125 54.5469 60.3125C54.125 60.3125 53.8438 60.5938 53.8438 61.0156V63.125H52.4375V61.0156C52.4375 60.5938 52.1562 60.3125 51.7344 60.3125C51.3125 60.3125 51.0312 60.5938 51.0312 61.0156V63.125H49.625V61.0156C49.625 60.5938 49.3438 60.3125 48.9219 60.3125C48.5 60.3125 48.2188 60.5938 48.2188 61.0156V63.125H46.8125ZM49.625 64.5312H53.8438V74.375H49.625V64.5312ZM45.4062 75.7812H58.0625V91.25H45.4062V75.7812ZM48.2188 92.6562H55.25V123.594H48.2188V92.6562ZM56.6562 92.6562H58.0625V93.3594C58.0625 93.7812 58.3438 94.0625 58.7656 94.0625C59.1875 94.0625 59.4688 93.7812 59.4688 93.3594V92.6562H60.875V93.3594C60.875 93.7812 61.1562 94.0625 61.5781 94.0625C62 94.0625 62.2812 93.7812 62.2812 93.3594V92.6562H63.6875V123.594H56.6562V92.6562ZM66.5 92.6562V93.3594C66.5 93.7812 66.7812 94.0625 67.2031 94.0625C67.625 94.0625 67.9062 93.7812 67.9062 93.3594V92.6562H69.3125V93.3594C69.3125 93.7812 69.5938 94.0625 70.0156 94.0625C70.4375 94.0625 70.7188 93.7812 70.7188 93.3594V92.6562H72.125V93.3594C72.125 93.7812 72.4062 94.0625 72.8281 94.0625C73.25 94.0625 73.5312 93.7812 73.5312 93.3594V92.6562H74.9375V93.3594C74.9375 93.7812 75.2188 94.0625 75.6406 94.0625C76.0625 94.0625 76.3438 93.7812 76.3438 93.3594V92.6562H77.75V93.3594C77.75 93.7812 78.0312 94.0625 78.4531 94.0625C78.875 94.0625 79.1562 93.7812 79.1562 93.3594V92.6562H80.5625V93.3594C80.5625 93.7812 80.8438 94.0625 81.2656 94.0625C81.6875 94.0625 81.9688 93.7812 81.9688 93.3594V92.6562H83.375V93.3594C83.375 93.7812 83.6562 94.0625 84.0781 94.0625C84.5 94.0625 84.7812 93.7812 84.7812 93.3594V92.6562H86.1875V93.3594C86.1875 93.7812 86.4688 94.0625 86.8906 94.0625C87.3125 94.0625 87.5938 93.7812 87.5938 93.3594V92.6562H89V93.3594C89 93.7812 89.2812 94.0625 89.7031 94.0625C90.125 94.0625 90.4062 93.7812 90.4062 93.3594V92.6562H91.8125V93.3594C91.8125 93.7812 92.0938 94.0625 92.5156 94.0625C92.9375 94.0625 93.2188 93.7812 93.2188 93.3594V92.6562H94.625V123.594H91.8125V109.672C91.8125 104.891 89.1406 100.531 84.5 98L80.1406 95.6094C79.8594 95.4688 79.7188 95.4688 79.4375 95.6094L75.0781 98C70.5781 100.531 67.7656 104.891 67.7656 109.672V123.594H64.9531V92.6562H66.5ZM90.4062 123.594H69.3125V109.672C69.3125 105.453 71.7031 101.516 75.7812 99.2656L79.8594 97.0156L83.7969 99.2656C87.875 101.516 90.4062 105.453 90.4062 109.672V123.594ZM96.0312 92.6562H97.4375V93.3594C97.4375 93.7812 97.7188 94.0625 98.1406 94.0625C98.5625 94.0625 98.8438 93.7812 98.8438 93.3594V92.6562H100.25V93.3594C100.25 93.7812 100.531 94.0625 100.953 94.0625C101.375 94.0625 101.656 93.7812 101.656 93.3594V92.6562H103.062V123.594H96.0312V92.6562ZM111.5 123.594H104.469V92.6562H111.5V123.594Z" fill="#1687A7"/>
<path d="M68.6094 99.6875C69.7344 99.6875 70.7188 98.7031 70.7188 97.5781C70.7188 96.4531 69.7344 95.4688 68.6094 95.4688C67.4844 95.4688 66.5 96.4531 66.5 97.5781C66.5 98.7031 67.4844 99.6875 68.6094 99.6875ZM68.6094 96.875C69.0312 96.875 69.3125 97.1562 69.3125 97.5781C69.3125 98 69.0312 98.2812 68.6094 98.2812C68.1875 98.2812 67.9062 98 67.9062 97.5781C67.9062 97.1562 68.1875 96.875 68.6094 96.875ZM91.1094 99.6875C92.2344 99.6875 93.2188 98.7031 93.2188 97.5781C93.2188 96.4531 92.2344 95.4688 91.1094 95.4688C89.9844 95.4688 89 96.4531 89 97.5781C89 98.7031 89.9844 99.6875 91.1094 99.6875ZM91.1094 96.875C91.5312 96.875 91.8125 97.1562 91.8125 97.5781C91.8125 98 91.5312 98.2812 91.1094 98.2812C90.6875 98.2812 90.4062 98 90.4062 97.5781C90.4062 97.1562 90.6875 96.875 91.1094 96.875ZM79.8594 81.4062C78.7344 81.4062 77.75 82.3906 77.75 83.5156C77.75 84.6406 78.7344 85.625 79.8594 85.625C80.9844 85.625 81.9688 84.6406 81.9688 83.5156C81.9688 82.3906 80.9844 81.4062 79.8594 81.4062ZM79.8594 84.2188C79.4375 84.2188 79.1562 83.9375 79.1562 83.5156C79.1562 83.0938 79.4375 82.8125 79.8594 82.8125C80.2812 82.8125 80.5625 83.0938 80.5625 83.5156C80.5625 83.9375 80.2812 84.2188 79.8594 84.2188ZM60.1719 109.531C59.0469 109.531 58.0625 110.516 58.0625 111.641V114.453C58.0625 114.875 58.3438 115.156 58.7656 115.156H61.5781C62 115.156 62.2812 114.875 62.2812 114.453V111.641C62.2812 110.516 61.2969 109.531 60.1719 109.531ZM60.875 113.75H59.4688V111.641C59.4688 111.219 59.75 110.938 60.1719 110.938C60.5938 110.938 60.875 111.219 60.875 111.641V113.75ZM60.1719 116.562C59.0469 116.562 58.0625 117.547 58.0625 118.672V121.484C58.0625 121.906 58.3438 122.188 58.7656 122.188H61.5781C62 122.188 62.2812 121.906 62.2812 121.484V118.672C62.2812 117.547 61.2969 116.562 60.1719 116.562ZM60.875 120.781H59.4688V118.672C59.4688 118.25 59.75 117.969 60.1719 117.969C60.5938 117.969 60.875 118.25 60.875 118.672V120.781ZM99.5469 95.4688C98.4219 95.4688 97.4375 96.4531 97.4375 97.5781V100.391C97.4375 100.812 97.7188 101.094 98.1406 101.094H100.953C101.375 101.094 101.656 100.812 101.656 100.391V97.5781C101.656 96.4531 100.672 95.4688 99.5469 95.4688ZM100.25 99.6875H98.8438V97.5781C98.8438 97.1562 99.125 96.875 99.5469 96.875C99.9688 96.875 100.25 97.1562 100.25 97.5781V99.6875ZM99.5469 102.5C98.4219 102.5 97.4375 103.484 97.4375 104.609V107.422C97.4375 107.844 97.7188 108.125 98.1406 108.125H100.953C101.375 108.125 101.656 107.844 101.656 107.422V104.609C101.656 103.484 100.672 102.5 99.5469 102.5ZM100.25 106.719H98.8438V104.609C98.8438 104.188 99.125 103.906 99.5469 103.906C99.9688 103.906 100.25 104.188 100.25 104.609V106.719ZM99.5469 116.562C98.4219 116.562 97.4375 117.547 97.4375 118.672V121.484C97.4375 121.906 97.7188 122.188 98.1406 122.188H100.953C101.375 122.188 101.656 121.906 101.656 121.484V118.672C101.656 117.547 100.672 116.562 99.5469 116.562ZM100.25 120.781H98.8438V118.672C98.8438 118.25 99.125 117.969 99.5469 117.969C99.9688 117.969 100.25 118.25 100.25 118.672V120.781ZM99.5469 109.531C98.4219 109.531 97.4375 110.516 97.4375 111.641V114.453C97.4375 114.875 97.7188 115.156 98.1406 115.156H100.953C101.375 115.156 101.656 114.875 101.656 114.453V111.641C101.656 110.516 100.672 109.531 99.5469 109.531ZM100.25 113.75H98.8438V111.641C98.8438 111.219 99.125 110.938 99.5469 110.938C99.9688 110.938 100.25 111.219 100.25 111.641V113.75Z" fill="#1687A7"/>
</svg>
