<svg width="176" height="176" viewBox="0 0 176 176" fill="none" xmlns="http://www.w3.org/2000/svg">
<g filter="url(#filter0_d)">
<rect x="8" y="8" width="160" height="160" fill="white"/>
</g>
<path d="M41 130.023H134.818" stroke="#1687A7" stroke-width="2" stroke-miterlimit="10" stroke-linecap="round" stroke-linejoin="round"/>
<path d="M74.2273 60.6364V129.045H44.9091V60.6364H74.2273ZM74.2273 58.6818H44.9091C43.7364 58.6818 42.9546 59.4636 42.9546 60.6364V129.045C42.9546 130.218 43.7364 131 44.9091 131H74.2273C75.4 131 76.1819 130.218 76.1819 129.045V60.6364C76.1819 59.4636 75.4 58.6818 74.2273 58.6818Z" fill="#1687A7"/>
<path d="M67.3864 59.6591V45L100.614 62.5909V88.9773" stroke="#1687A7" stroke-width="2" stroke-miterlimit="10" stroke-linecap="round" stroke-linejoin="round"/>
<path d="M132.864 89.9545V129.045H91.8182V89.9545H132.864ZM132.864 88H91.8182C90.6455 88 89.8636 88.7818 89.8636 89.9545V129.045C89.8636 130.218 90.6455 131 91.8182 131H132.864C134.036 131 134.818 130.218 134.818 129.045V89.9545C134.818 88.7818 134.036 88 132.864 88Z" fill="#1687A7"/>
<path d="M112.341 111.455C119.377 111.455 125.046 117.123 125.046 124.159V129.045H99.6364V124.159C99.6364 117.123 105.305 111.455 112.341 111.455ZM112.341 109.5C104.327 109.5 97.6819 116.145 97.6819 124.159V129.045C97.6819 130.218 98.4637 131 99.6364 131H125.046C126.218 131 127 130.218 127 129.045V124.159C127 116.145 120.355 109.5 112.341 109.5Z" fill="#1687A7"/>
<path d="M91.8181 106.568H132.864" stroke="#1687A7" stroke-miterlimit="10" stroke-linecap="round" stroke-linejoin="round"/>
<path d="M115.273 95.8182V97.7727H109.409V95.8182H115.273ZM115.273 93.8636H109.409C108.236 93.8636 107.455 94.6455 107.455 95.8182V97.7727C107.455 98.9455 108.236 99.7273 109.409 99.7273H115.273C116.445 99.7273 117.227 98.9455 117.227 97.7727V95.8182C117.227 94.6455 116.445 93.8636 115.273 93.8636ZM101.591 95.8182V97.7727H97.6818V95.8182H101.591ZM101.591 93.8636H97.6818C96.5091 93.8636 95.7273 94.6455 95.7273 95.8182V97.7727C95.7273 98.9455 96.5091 99.7273 97.6818 99.7273H101.591C102.764 99.7273 103.545 98.9455 103.545 97.7727V95.8182C103.545 94.6455 102.764 93.8636 101.591 93.8636ZM127 95.8182V97.7727H123.091V95.8182H127ZM127 93.8636H123.091C121.918 93.8636 121.136 94.6455 121.136 95.8182V97.7727C121.136 98.9455 121.918 99.7273 123.091 99.7273H127C128.173 99.7273 128.955 98.9455 128.955 97.7727V95.8182C128.955 94.6455 128.173 93.8636 127 93.8636Z" fill="#1687A7"/>
<path d="M94.75 65.5227V71.3863" stroke="#1687A7" stroke-width="2" stroke-miterlimit="10" stroke-linecap="round" stroke-linejoin="round"/>
<path d="M94.75 77.25V83.1136" stroke="#1687A7" stroke-width="2" stroke-miterlimit="10" stroke-linecap="round" stroke-linejoin="round"/>
<path d="M88.8864 65.5227V71.3863" stroke="#1687A7" stroke-width="2" stroke-miterlimit="10" stroke-linecap="round" stroke-linejoin="round"/>
<path d="M88.8864 77.25V83.1136" stroke="#1687A7" stroke-width="2" stroke-miterlimit="10" stroke-linecap="round" stroke-linejoin="round"/>
<path d="M83.0227 65.5227V71.3863" stroke="#1687A7" stroke-width="2" stroke-miterlimit="10" stroke-linecap="round" stroke-linejoin="round"/>
<path d="M83.0227 77.25V83.1136" stroke="#1687A7" stroke-width="2" stroke-miterlimit="10" stroke-linecap="round" stroke-linejoin="round"/>
<path d="M128.955 82.1364V88H111.364V82.1364H128.955ZM128.955 80.1818H111.364C110.191 80.1818 109.409 80.9636 109.409 82.1364V88C109.409 89.1727 110.191 89.9546 111.364 89.9546H128.955C130.127 89.9546 130.909 89.1727 130.909 88V82.1364C130.909 80.9636 130.127 80.1818 128.955 80.1818Z" fill="#1687A7"/>
<path d="M120.159 70.4091V80.1818" stroke="#1687A7" stroke-width="2" stroke-miterlimit="10" stroke-linecap="round" stroke-linejoin="round"/>
<path d="M68.3636 69.4318H50.7727C49.5999 69.4318 48.8181 68.65 48.8181 67.4773C48.8181 66.3045 49.5999 65.5227 50.7727 65.5227H68.3636C69.5363 65.5227 70.3181 66.3045 70.3181 67.4773C70.3181 68.65 69.5363 69.4318 68.3636 69.4318ZM68.3636 79.2045H50.7727C49.5999 79.2045 48.8181 78.4227 48.8181 77.25C48.8181 76.0773 49.5999 75.2954 50.7727 75.2954H68.3636C69.5363 75.2954 70.3181 76.0773 70.3181 77.25C70.3181 78.4227 69.5363 79.2045 68.3636 79.2045ZM68.3636 88.9773H50.7727C49.5999 88.9773 48.8181 88.1954 48.8181 87.0227C48.8181 85.85 49.5999 85.0682 50.7727 85.0682H68.3636C69.5363 85.0682 70.3181 85.85 70.3181 87.0227C70.3181 88.1954 69.5363 88.9773 68.3636 88.9773ZM68.3636 98.75H50.7727C49.5999 98.75 48.8181 97.9682 48.8181 96.7954C48.8181 95.6227 49.5999 94.8409 50.7727 94.8409H68.3636C69.5363 94.8409 70.3181 95.6227 70.3181 96.7954C70.3181 97.9682 69.5363 98.75 68.3636 98.75ZM68.3636 108.523H50.7727C49.5999 108.523 48.8181 107.741 48.8181 106.568C48.8181 105.395 49.5999 104.614 50.7727 104.614H68.3636C69.5363 104.614 70.3181 105.395 70.3181 106.568C70.3181 107.741 69.5363 108.523 68.3636 108.523ZM68.3636 118.295H50.7727C49.5999 118.295 48.8181 117.514 48.8181 116.341C48.8181 115.168 49.5999 114.386 50.7727 114.386H68.3636C69.5363 114.386 70.3181 115.168 70.3181 116.341C70.3181 117.514 69.5363 118.295 68.3636 118.295Z" stroke="#1687A7" stroke-width="2" stroke-miterlimit="10" stroke-linecap="round" stroke-linejoin="round"/>
<defs>
<filter id="filter0_d" x="0" y="0" width="176" height="176" filterUnits="userSpaceOnUse" color-interpolation-filters="sRGB">
<feFlood flood-opacity="0" result="BackgroundImageFix"/>
<feColorMatrix in="SourceAlpha" type="matrix" values="0 0 0 0 0 0 0 0 0 0 0 0 0 0 0 0 0 0 127 0" result="hardAlpha"/>
<feOffset/>
<feGaussianBlur stdDeviation="4"/>
<feComposite in2="hardAlpha" operator="out"/>
<feColorMatrix type="matrix" values="0 0 0 0 0.666667 0 0 0 0 0.666667 0 0 0 0 0.666667 0 0 0 0.25 0"/>
<feBlend mode="normal" in2="BackgroundImageFix" result="effect1_dropShadow"/>
<feBlend mode="normal" in="SourceGraphic" in2="effect1_dropShadow" result="shape"/>
</filter>
</defs>
</svg>
