<svg width="160" height="160" viewBox="0 0 160 160" fill="none" xmlns="http://www.w3.org/2000/svg">
<path d="M33 122.023H126.818" stroke="#1687A7" stroke-width="2" stroke-miterlimit="10" stroke-linecap="round" stroke-linejoin="round"/>
<path d="M66.2273 52.6364V121.045H36.9091V52.6364H66.2273ZM66.2273 50.6818H36.9091C35.7364 50.6818 34.9546 51.4636 34.9546 52.6364V121.045C34.9546 122.218 35.7364 123 36.9091 123H66.2273C67.4 123 68.1819 122.218 68.1819 121.045V52.6364C68.1819 51.4636 67.4 50.6818 66.2273 50.6818Z" fill="#1687A7"/>
<path d="M59.3864 51.6591V37L92.6136 54.5909V80.9773" stroke="#1687A7" stroke-width="2" stroke-miterlimit="10" stroke-linecap="round" stroke-linejoin="round"/>
<path d="M124.864 81.9545V121.045H83.8182V81.9545H124.864ZM124.864 80H83.8182C82.6455 80 81.8636 80.7818 81.8636 81.9545V121.045C81.8636 122.218 82.6455 123 83.8182 123H124.864C126.036 123 126.818 122.218 126.818 121.045V81.9545C126.818 80.7818 126.036 80 124.864 80Z" fill="#1687A7"/>
<path d="M104.341 103.455C111.377 103.455 117.046 109.123 117.046 116.159V121.045H91.6364V116.159C91.6364 109.123 97.3046 103.455 104.341 103.455ZM104.341 101.5C96.3273 101.5 89.6819 108.145 89.6819 116.159V121.045C89.6819 122.218 90.4637 123 91.6364 123H117.046C118.218 123 119 122.218 119 121.045V116.159C119 108.145 112.355 101.5 104.341 101.5Z" fill="#1687A7"/>
<path d="M83.8181 98.5682H124.864" stroke="#1687A7" stroke-miterlimit="10" stroke-linecap="round" stroke-linejoin="round"/>
<path d="M107.273 87.8182V89.7727H101.409V87.8182H107.273ZM107.273 85.8636H101.409C100.236 85.8636 99.4546 86.6455 99.4546 87.8182V89.7727C99.4546 90.9455 100.236 91.7273 101.409 91.7273H107.273C108.445 91.7273 109.227 90.9455 109.227 89.7727V87.8182C109.227 86.6455 108.445 85.8636 107.273 85.8636ZM93.5909 87.8182V89.7727H89.6818V87.8182H93.5909ZM93.5909 85.8636H89.6818C88.5091 85.8636 87.7273 86.6455 87.7273 87.8182V89.7727C87.7273 90.9455 88.5091 91.7273 89.6818 91.7273H93.5909C94.7637 91.7273 95.5455 90.9455 95.5455 89.7727V87.8182C95.5455 86.6455 94.7637 85.8636 93.5909 85.8636ZM119 87.8182V89.7727H115.091V87.8182H119ZM119 85.8636H115.091C113.918 85.8636 113.136 86.6455 113.136 87.8182V89.7727C113.136 90.9455 113.918 91.7273 115.091 91.7273H119C120.173 91.7273 120.955 90.9455 120.955 89.7727V87.8182C120.955 86.6455 120.173 85.8636 119 85.8636Z" fill="#1687A7"/>
<path d="M86.75 57.5227V63.3863" stroke="#1687A7" stroke-width="2" stroke-miterlimit="10" stroke-linecap="round" stroke-linejoin="round"/>
<path d="M86.75 69.25V75.1136" stroke="#1687A7" stroke-width="2" stroke-miterlimit="10" stroke-linecap="round" stroke-linejoin="round"/>
<path d="M80.8864 57.5227V63.3863" stroke="#1687A7" stroke-width="2" stroke-miterlimit="10" stroke-linecap="round" stroke-linejoin="round"/>
<path d="M80.8864 69.25V75.1136" stroke="#1687A7" stroke-width="2" stroke-miterlimit="10" stroke-linecap="round" stroke-linejoin="round"/>
<path d="M75.0227 57.5227V63.3863" stroke="#1687A7" stroke-width="2" stroke-miterlimit="10" stroke-linecap="round" stroke-linejoin="round"/>
<path d="M75.0227 69.25V75.1136" stroke="#1687A7" stroke-width="2" stroke-miterlimit="10" stroke-linecap="round" stroke-linejoin="round"/>
<path d="M120.955 74.1364V80H103.364V74.1364H120.955ZM120.955 72.1818H103.364C102.191 72.1818 101.409 72.9636 101.409 74.1364V80C101.409 81.1727 102.191 81.9546 103.364 81.9546H120.955C122.127 81.9546 122.909 81.1727 122.909 80V74.1364C122.909 72.9636 122.127 72.1818 120.955 72.1818Z" fill="#1687A7"/>
<path d="M112.159 62.4091V72.1818" stroke="#1687A7" stroke-width="2" stroke-miterlimit="10" stroke-linecap="round" stroke-linejoin="round"/>
<path d="M60.3636 61.4318H42.7727C41.5999 61.4318 40.8181 60.65 40.8181 59.4773C40.8181 58.3045 41.5999 57.5227 42.7727 57.5227H60.3636C61.5363 57.5227 62.3181 58.3045 62.3181 59.4773C62.3181 60.65 61.5363 61.4318 60.3636 61.4318ZM60.3636 71.2045H42.7727C41.5999 71.2045 40.8181 70.4227 40.8181 69.25C40.8181 68.0773 41.5999 67.2954 42.7727 67.2954H60.3636C61.5363 67.2954 62.3181 68.0773 62.3181 69.25C62.3181 70.4227 61.5363 71.2045 60.3636 71.2045ZM60.3636 80.9773H42.7727C41.5999 80.9773 40.8181 80.1954 40.8181 79.0227C40.8181 77.85 41.5999 77.0682 42.7727 77.0682H60.3636C61.5363 77.0682 62.3181 77.85 62.3181 79.0227C62.3181 80.1954 61.5363 80.9773 60.3636 80.9773ZM60.3636 90.75H42.7727C41.5999 90.75 40.8181 89.9682 40.8181 88.7954C40.8181 87.6227 41.5999 86.8409 42.7727 86.8409H60.3636C61.5363 86.8409 62.3181 87.6227 62.3181 88.7954C62.3181 89.9682 61.5363 90.75 60.3636 90.75ZM60.3636 100.523H42.7727C41.5999 100.523 40.8181 99.7409 40.8181 98.5682C40.8181 97.3954 41.5999 96.6136 42.7727 96.6136H60.3636C61.5363 96.6136 62.3181 97.3954 62.3181 98.5682C62.3181 99.7409 61.5363 100.523 60.3636 100.523ZM60.3636 110.295H42.7727C41.5999 110.295 40.8181 109.514 40.8181 108.341C40.8181 107.168 41.5999 106.386 42.7727 106.386H60.3636C61.5363 106.386 62.3181 107.168 62.3181 108.341C62.3181 109.514 61.5363 110.295 60.3636 110.295Z" stroke="#1687A7" stroke-width="2" stroke-miterlimit="10" stroke-linecap="round" stroke-linejoin="round"/>
</svg>
