<svg width="176" height="176" viewBox="0 0 176 176" fill="none" xmlns="http://www.w3.org/2000/svg">
<g filter="url(#filter0_d)">
<rect x="8" y="8" width="160" height="160" fill="white"/>
</g>
<path d="M136.35 129.545H134.168V79.3418C134.168 77.7411 133.44 76.286 132.13 75.2673L130.966 74.3942C130.675 74.2487 130.384 74.2487 130.093 74.3942L128.929 75.2673C128.783 75.4129 128.492 75.5584 128.347 75.8494V72.357C128.347 70.7563 127.474 69.3012 126.164 68.4281L123.981 67.264V64.7902C123.981 64.3536 123.69 64.0626 123.254 64.0626C122.817 64.0626 122.526 64.3536 122.526 64.7902V67.264L120.343 68.4281C120.052 68.5736 119.761 68.8646 119.616 69.0102V64.6447C119.616 63.044 118.888 61.5888 117.579 60.5702L116.415 59.6971C116.124 59.5516 115.832 59.5516 115.541 59.6971L114.377 60.5702C114.232 60.7157 113.941 60.8613 113.795 61.1523V60.2792C113.795 58.6785 113.068 57.2234 111.758 56.2047L110.594 55.3316C110.303 55.1861 110.012 55.1861 109.721 55.3316L108.557 56.2047C108.266 56.3503 108.12 56.6413 107.829 56.9323C107.538 55.6227 106.81 54.4585 105.646 53.8765L103.464 52.7124V50.2386C103.464 49.802 103.173 49.511 102.736 49.511C102.299 49.511 102.008 49.802 102.008 50.2386V52.7124L99.8257 53.8765C99.5347 54.022 99.2437 54.313 98.9526 54.4585C98.9526 52.8579 98.225 51.4027 96.9154 50.3841L95.7513 49.511C95.4602 49.3655 95.1692 49.3655 94.8782 49.511L93.714 50.3841C93.2775 50.6751 92.9865 51.1117 92.6954 51.4027C92.2589 50.5296 91.6768 49.802 90.9492 49.3655L88.7665 48.2014V45.7276C88.7665 45.291 88.4755 45 88.0389 45C87.6024 45 87.3113 45.291 87.3113 45.7276V48.2014L85.1286 49.3655C84.2555 49.802 83.6734 50.5296 83.3824 51.4027C83.0914 50.9662 82.8003 50.6751 82.3638 50.3841L81.1997 49.511C80.9086 49.3655 80.6176 49.3655 80.3266 49.511L79.1624 50.3841C77.8528 51.2572 77.1252 52.8579 77.1252 54.4585C76.8342 54.1675 76.6887 54.022 76.2521 53.8765L74.0694 52.7124V50.2386C74.0694 49.802 73.7783 49.511 73.3418 49.511C72.9052 49.511 72.6142 49.802 72.6142 50.2386V52.7124L70.4315 53.8765C69.2673 54.6041 68.5398 55.6227 68.2487 56.9323C68.1032 56.6413 67.8122 56.4958 67.5212 56.2047L66.357 55.3316C66.066 55.1861 65.775 55.1861 65.4839 55.3316L64.3198 56.2047C63.0102 57.2234 62.2826 58.6785 62.2826 60.2792V61.1523C62.1371 61.0068 61.846 60.7157 61.7005 60.5702L60.5364 59.6971C60.2453 59.5516 59.9543 59.5516 59.6633 59.6971L58.4992 60.5702C57.1895 61.5888 56.4619 63.044 56.4619 64.6447V69.0102C56.1709 68.7191 56.0254 68.5736 55.7343 68.4281L53.5516 67.264V64.7902C53.5516 64.3536 53.2606 64.0626 52.824 64.0626C52.3875 64.0626 52.0964 64.3536 52.0964 64.7902V67.264L49.9137 68.4281C48.4585 69.1557 47.731 70.7563 47.731 72.357V75.8494C47.5854 75.7039 47.2944 75.4129 47.1489 75.2673L45.9848 74.3942C45.6937 74.2487 45.4027 74.2487 45.1117 74.3942L43.9475 75.2673C42.6379 76.286 41.9103 77.7411 41.9103 79.3418V129.545H39.7276C39.291 129.545 39 129.836 39 130.272C39 130.709 39.291 131 39.7276 131H135.768C136.205 131 136.496 130.709 136.496 130.272C136.496 129.836 136.787 129.545 136.35 129.545ZM43.9475 89.5279C43.9475 88.3638 44.5296 87.3452 45.4027 86.6176L46.1303 86.0355L46.8579 86.6176C47.731 87.3452 48.313 88.3638 48.313 89.5279V96.2217C48.1675 96.0761 47.8765 95.7851 47.731 95.6396L46.5668 94.7665C46.2758 94.621 45.9848 94.621 45.6937 94.7665L44.5296 95.6396C44.3841 95.7851 44.0931 95.9306 43.9475 96.2217V89.5279ZM49.7682 78.1777C49.7682 77.1591 50.3503 76.1404 51.2233 75.5584L53.4061 74.3942L55.5888 75.5584C56.4619 76.1404 57.044 77.1591 57.044 78.1777V85.1624C56.753 84.8714 56.6074 84.7259 56.3164 84.5804L53.8426 83.1252C53.5516 82.9797 53.4061 82.9797 53.1151 83.1252L50.6413 84.5804C50.3503 84.7259 50.0592 85.0169 49.9137 85.1624V78.1777H49.7682ZM49.7682 88.3638C49.7682 87.3452 50.3503 86.3266 51.2233 85.7445L53.4061 84.5804L55.5888 85.7445C56.4619 86.3266 57.044 87.3452 57.044 88.3638V95.3486C56.753 95.0575 56.6074 94.912 56.3164 94.7665L53.8426 93.3113C53.5516 93.1658 53.4061 93.1658 53.1151 93.3113L50.6413 94.7665C50.3503 94.912 50.0592 95.203 49.9137 95.3486V88.3638H49.7682ZM119.616 98.5499C119.616 97.5313 120.198 96.5127 121.071 95.9306L123.254 94.7665L125.437 95.9306C126.31 96.5127 126.892 97.5313 126.892 98.5499V106.262H119.616V98.5499ZM126.892 89.5279V95.3486C126.601 95.0575 126.455 94.912 126.164 94.7665L123.69 93.3113C123.399 93.1658 123.254 93.1658 122.963 93.3113L120.489 94.7665C120.198 94.912 119.907 95.203 119.761 95.3486V88.3638C119.761 87.3452 120.343 86.3266 121.217 85.7445L123.399 84.5804L125.582 85.7445C126.455 86.3266 127.037 87.3452 127.037 88.3638V89.5279H126.892ZM118.161 93.3113C118.015 93.1658 117.724 92.8748 117.579 92.7293L116.415 91.8562C116.124 91.7107 115.832 91.7107 115.541 91.8562L114.377 92.7293C114.232 92.8748 113.941 93.0203 113.795 93.3113V86.6176C113.795 85.4535 114.377 84.4349 115.25 83.7073L115.978 83.1252L116.706 83.7073C117.579 84.4349 118.161 85.4535 118.161 86.6176V93.3113ZM112.34 93.3113C112.195 93.1658 111.904 92.8748 111.758 92.7293L110.594 91.8562C110.303 91.7107 110.012 91.7107 109.721 91.8562L108.557 92.7293C108.411 92.8748 108.12 93.0203 107.975 93.3113V85.1624C107.975 83.9983 108.557 82.9797 109.43 82.2521L110.157 81.67L110.885 82.2521C111.758 82.9797 112.34 83.9983 112.34 85.1624V93.3113ZM99.2437 106.262V97.0948C99.2437 96.0761 99.8257 95.0575 100.699 94.4755L102.882 93.3113L105.064 94.4755C105.937 95.0575 106.519 96.0761 106.519 97.0948V106.262H99.2437ZM106.519 85.1624V93.8934C106.228 93.6024 106.083 93.4568 105.792 93.3113L103.318 91.8562C103.027 91.7107 102.882 91.7107 102.591 91.8562L100.117 93.3113C99.8257 93.4568 99.5347 93.7479 99.3892 93.8934V83.9983C99.3892 82.9797 99.9712 81.9611 100.844 81.379L103.027 80.2149L105.21 81.379C106.083 81.9611 106.665 82.9797 106.665 83.9983V85.1624H106.519ZM97.7885 93.3113C97.643 93.1658 97.3519 92.8748 97.2064 92.7293L96.0423 91.8562C95.7513 91.7107 95.4602 91.7107 95.1692 91.8562L94.0051 92.7293C93.8596 92.8748 93.5685 93.0203 93.423 93.3113V82.2521C93.423 81.088 94.0051 80.0694 94.8782 79.3418L95.6058 78.7597L96.3333 79.3418C97.2064 80.0694 97.7885 81.088 97.7885 82.2521V93.3113ZM84.692 106.262V97.0948C84.692 96.0761 85.2741 95.0575 86.1472 94.4755L88.33 93.3113L90.5127 94.4755C91.3858 95.0575 91.9679 96.0761 91.9679 97.0948V106.262H84.692ZM91.9679 90.401V93.8934C91.6768 93.6024 91.5313 93.4568 91.2403 93.3113L88.7665 91.8562C88.4755 91.7107 88.3299 91.7107 88.0389 91.8562L85.5651 93.3113C85.2741 93.4568 84.9831 93.7479 84.8376 93.8934V82.5431C84.8376 81.5245 85.4196 80.5059 86.2927 79.9239L88.4755 78.7597L90.6582 79.9239C91.5313 80.5059 92.1134 81.5245 92.1134 82.5431V90.401H91.9679ZM83.2369 93.3113C83.0914 93.1658 82.8003 92.8748 82.6548 92.7293L81.4907 91.8562C81.1997 91.7107 80.9086 91.7107 80.6176 91.8562L79.4535 92.7293C79.308 92.8748 79.0169 93.0203 78.8714 93.3113V82.2521C78.8714 81.088 79.4535 80.0694 80.3266 79.3418L81.0541 78.7597L81.7817 79.3418C82.6548 80.0694 83.2369 81.088 83.2369 82.2521V93.3113ZM70.1404 106.262V97.0948C70.1404 96.0761 70.7225 95.0575 71.5956 94.4755L73.7783 93.3113L75.9611 94.4755C76.8342 95.0575 77.4162 96.0761 77.4162 97.0948V106.262H70.1404ZM77.4162 91.8562V93.8934C77.1252 93.6024 76.9797 93.4568 76.6887 93.3113L74.2149 91.8562C73.9239 91.7107 73.7783 91.7107 73.4873 91.8562L71.0135 93.3113C70.7225 93.4568 70.4315 93.7479 70.286 93.8934V83.9983C70.286 82.9797 70.868 81.9611 71.7411 81.379L73.9239 80.2149L76.1066 81.379C76.9797 81.9611 77.5618 82.9797 77.5618 83.9983V91.8562H77.4162ZM68.6853 93.3113C68.5398 93.1658 68.2487 92.8748 68.1032 92.7293L66.9391 91.8562C66.6481 91.7107 66.357 91.7107 66.066 91.8562L64.9019 92.7293C64.7563 92.8748 64.4653 93.0203 64.3198 93.3113V85.1624C64.3198 83.9983 64.9019 82.9797 65.775 82.2521L66.5025 81.67L67.2301 82.2521C68.1032 82.9797 68.6853 83.9983 68.6853 85.1624V93.3113ZM62.8646 93.3113C62.7191 93.1658 62.4281 92.8748 62.2826 92.7293L61.1184 91.8562C60.8274 91.7107 60.5364 91.7107 60.2453 91.8562L59.0812 92.7293C58.9357 92.8748 58.6447 93.0203 58.4992 93.3113V86.6176C58.4992 85.4535 59.0812 84.4349 59.9543 83.7073L60.6819 83.1252L61.4095 83.7073C62.2826 84.4349 62.8646 85.4535 62.8646 86.6176V93.3113ZM49.7682 98.5499C49.7682 97.5313 50.3503 96.5127 51.2233 95.9306L53.4061 94.7665L55.5888 95.9306C56.4619 96.5127 57.044 97.5313 57.044 98.5499V106.262H49.7682V98.5499ZM49.7682 107.717H57.044V112.228C56.6074 112.083 56.3164 112.083 55.8799 112.083C55.4433 111.21 54.4247 110.628 53.4061 110.628C52.3875 110.628 51.3689 111.21 50.9323 112.083C50.4958 111.937 50.2047 112.083 49.7682 112.228V107.717ZM58.4992 96.8037C58.4992 95.6396 59.0812 94.621 59.9543 93.8934L60.6819 93.3113L61.4095 93.8934C62.2826 94.621 62.8646 95.6396 62.8646 96.8037V106.262H58.4992V96.8037ZM64.3198 96.8037C64.3198 95.6396 64.9019 94.621 65.775 93.8934L66.5025 93.3113L67.2301 93.8934C68.1032 94.621 68.6853 95.6396 68.6853 96.8037V106.262H64.3198V96.8037ZM70.1404 107.717H77.4162V112.228C76.9797 112.083 76.6887 112.083 76.2521 112.083C75.8156 111.21 74.797 110.628 73.7783 110.628C72.7597 110.628 71.7411 111.21 71.3046 112.083C70.868 111.937 70.577 112.083 70.1404 112.228V107.717ZM78.8714 96.8037C78.8714 95.6396 79.4535 94.621 80.3266 93.8934L81.0541 93.3113L81.7817 93.8934C82.6548 94.621 83.2369 95.6396 83.2369 96.8037V106.262H78.8714V96.8037ZM84.692 107.717H91.9679V112.228C91.5313 112.083 91.2403 112.083 90.8037 112.083C90.3672 111.21 89.3486 110.628 88.33 110.628C87.3113 110.628 86.2927 111.21 85.8562 112.083C85.4196 111.937 85.1286 112.083 84.692 112.228V107.717ZM93.423 96.8037C93.423 95.6396 94.0051 94.621 94.8782 93.8934L95.6058 93.3113L96.3333 93.8934C97.2064 94.621 97.7885 95.6396 97.7885 96.8037V106.262H93.423V96.8037ZM99.2437 107.717H106.519V112.228C106.083 112.083 105.792 112.083 105.355 112.083C104.919 111.21 103.9 110.628 102.882 110.628C101.863 110.628 100.844 111.21 100.408 112.083C99.9712 111.937 99.6802 112.083 99.2437 112.228V107.717ZM107.975 96.8037C107.975 95.6396 108.557 94.621 109.43 93.8934L110.157 93.3113L110.885 93.8934C111.758 94.621 112.34 95.6396 112.34 96.8037V106.262H107.975V96.8037ZM113.795 96.8037C113.795 95.6396 114.377 94.621 115.25 93.8934L115.978 93.3113L116.706 93.8934C117.579 94.621 118.161 95.6396 118.161 96.8037V106.262H113.795V96.8037ZM119.616 107.717H126.892V112.228C126.455 112.083 126.164 112.083 125.728 112.083C125.291 111.21 124.272 110.628 123.254 110.628C122.235 110.628 121.217 111.21 120.78 112.083C120.343 111.937 120.052 112.083 119.616 112.228V107.717ZM128.347 99.714C128.347 98.5499 128.929 97.5313 129.802 96.8037L130.53 96.2217L131.257 96.8037C132.13 97.5313 132.712 98.5499 132.712 99.714V106.262H128.347V99.714ZM132.712 96.2217C132.567 96.0761 132.276 95.7851 132.13 95.6396L130.966 94.7665C130.675 94.621 130.384 94.621 130.093 94.7665L128.929 95.6396C128.783 95.7851 128.492 95.9306 128.347 96.2217V89.5279C128.347 88.3638 128.929 87.3452 129.802 86.6176L130.53 86.0355L131.257 86.6176C132.13 87.3452 132.712 88.3638 132.712 89.5279V96.2217ZM126.892 79.3418V85.1624C126.601 84.8714 126.455 84.7259 126.164 84.5804L123.69 83.1252C123.399 82.9797 123.254 82.9797 122.963 83.1252L120.489 84.5804C120.198 84.7259 119.907 85.0169 119.761 85.1624V78.1777C119.761 77.1591 120.343 76.1404 121.217 75.5584L123.399 74.3942L125.582 75.5584C126.455 76.1404 127.037 77.1591 127.037 78.1777V79.3418H126.892ZM118.161 83.1252C118.015 82.9797 117.724 82.6887 117.579 82.5431L116.415 81.67C116.124 81.5245 115.832 81.5245 115.541 81.67L114.377 82.5431C114.232 82.6887 113.941 82.8342 113.795 83.1252V74.9763C113.795 73.8122 114.377 72.7936 115.25 72.066L115.978 71.4839L116.706 72.066C117.579 72.7936 118.161 73.8122 118.161 74.9763V83.1252ZM112.34 81.67C112.195 81.5245 111.904 81.2335 111.758 81.088L110.594 80.2149C110.303 80.0694 110.012 80.0694 109.721 80.2149L108.557 81.088C108.411 81.2335 108.12 81.379 107.975 81.67V73.5212C107.975 72.357 108.557 71.3384 109.43 70.6108L110.157 70.0288L110.885 70.6108C111.758 71.3384 112.34 72.357 112.34 73.5212V81.67ZM106.519 73.5212V80.797C106.228 80.5059 106.083 80.3604 105.792 80.2149L103.318 78.7597C103.027 78.6142 102.882 78.6142 102.591 78.7597L100.117 80.2149C99.8257 80.3604 99.5347 80.6514 99.3892 80.797V70.9019C99.3892 69.8833 99.9712 68.8646 100.844 68.2826L103.027 67.1184L105.21 68.2826C106.083 68.8646 106.665 69.8833 106.665 70.9019V73.5212H106.519ZM97.7885 78.7597C97.643 78.6142 97.3519 78.3232 97.2064 78.1777L96.0423 77.3046C95.7513 77.1591 95.4602 77.1591 95.1692 77.3046L94.0051 78.1777C93.8596 78.3232 93.5685 78.4687 93.423 78.7597V69.1557C93.423 67.9915 94.0051 66.9729 94.8782 66.2453L95.6058 65.6633L96.3333 66.2453C97.2064 66.9729 97.7885 67.9915 97.7885 69.1557V78.7597ZM91.9679 69.1557V79.3418C91.6768 79.0508 91.5313 78.9052 91.2403 78.7597L88.7665 77.3046C88.4755 77.1591 88.3299 77.1591 88.0389 77.3046L85.5651 78.7597C85.2741 78.9052 84.9831 79.1963 84.8376 79.3418V67.9915C84.8376 66.9729 85.4196 65.9543 86.2927 65.3723L88.4755 64.2081L90.6582 65.3723C91.5313 65.9543 92.1134 66.9729 92.1134 67.9915V69.1557H91.9679ZM83.2369 78.7597C83.0914 78.6142 82.8003 78.3232 82.6548 78.1777L81.4907 77.3046C81.1997 77.1591 80.9086 77.1591 80.6176 77.3046L79.4535 78.1777C79.308 78.3232 79.0169 78.4687 78.8714 78.7597V69.1557C78.8714 67.9915 79.4535 66.9729 80.3266 66.2453L81.0541 65.6633L81.7817 66.2453C82.6548 66.9729 83.2369 67.9915 83.2369 69.1557V78.7597ZM77.4162 78.7597V80.797C77.1252 80.5059 76.9797 80.3604 76.6887 80.2149L74.2149 78.7597C73.9239 78.6142 73.7783 78.6142 73.4873 78.7597L71.0135 80.2149C70.7225 80.3604 70.4315 80.6514 70.286 80.797V70.9019C70.286 69.8833 70.868 68.8646 71.7411 68.2826L73.9239 67.1184L76.1066 68.2826C76.9797 68.8646 77.5618 69.8833 77.5618 70.9019V78.7597H77.4162ZM68.6853 81.67C68.5398 81.5245 68.2487 81.2335 68.1032 81.088L66.9391 80.2149C66.6481 80.0694 66.357 80.0694 66.066 80.2149L64.9019 81.088C64.7563 81.2335 64.4653 81.379 64.3198 81.67V73.5212C64.3198 72.357 64.9019 71.3384 65.775 70.6108L66.5025 70.0288L67.2301 70.6108C68.1032 71.3384 68.6853 72.357 68.6853 73.5212V81.67ZM62.8646 83.1252C62.7191 82.9797 62.4281 82.6887 62.2826 82.5431L61.1184 81.67C60.8274 81.5245 60.5364 81.5245 60.2453 81.67L59.0812 82.5431C58.9357 82.6887 58.6447 82.8342 58.4992 83.1252V74.9763C58.4992 73.8122 59.0812 72.7936 59.9543 72.066L60.6819 71.4839L61.4095 72.066C62.2826 72.7936 62.8646 73.8122 62.8646 74.9763V83.1252ZM43.9475 99.714C43.9475 98.5499 44.5296 97.5313 45.4027 96.8037L46.1303 96.2217L46.8579 96.8037C47.731 97.5313 48.313 98.5499 48.313 99.714V106.262H43.9475V99.714ZM49.7682 129.545V114.266C49.7682 113.829 50.0592 113.538 50.4958 113.538C50.6413 113.538 50.7868 113.538 50.9323 113.684C51.0778 113.829 51.3689 113.829 51.6599 113.684C51.9509 113.538 52.0964 113.393 52.0964 113.102C52.242 112.374 52.824 111.937 53.5516 111.937C54.2792 111.937 54.8613 112.374 55.0068 113.102C55.0068 113.393 55.1523 113.538 55.4433 113.684C55.7344 113.829 55.8799 113.684 56.1709 113.684C56.3164 113.538 56.4619 113.538 56.6074 113.538C57.044 113.538 57.335 113.829 57.335 114.266V129.545H49.7682ZM58.4992 129.545V107.717H62.8646V129.545H58.4992ZM64.3198 129.545V107.717H68.6853V129.545H64.3198ZM70.1404 129.545V114.266C70.1404 113.829 70.4315 113.538 70.868 113.538C71.0135 113.538 71.1591 113.538 71.3046 113.684C71.4501 113.829 71.7411 113.829 72.0321 113.684C72.3232 113.538 72.4687 113.393 72.4687 113.102C72.6142 112.374 73.1963 111.937 73.9239 111.937C74.6514 111.937 75.2335 112.374 75.379 113.102C75.379 113.393 75.5245 113.538 75.8156 113.684C75.9611 113.829 76.2521 113.684 76.5431 113.684C76.6887 113.538 76.8342 113.538 76.9797 113.538C77.4162 113.538 77.7073 113.829 77.7073 114.266V129.545H70.1404ZM78.8714 129.545V107.717H83.2369V129.545H78.8714ZM84.692 129.545V114.266C84.692 113.829 84.9831 113.538 85.4196 113.538C85.5651 113.538 85.7107 113.538 85.8562 113.684C86.0017 113.829 86.2927 113.829 86.5838 113.684C86.8748 113.538 87.0203 113.393 87.0203 113.102C87.1658 112.374 87.7479 111.937 88.4755 111.937C89.203 111.937 89.7851 112.374 89.9306 113.102C89.9306 113.393 90.0761 113.538 90.3672 113.684C90.5127 113.829 90.8037 113.684 91.0948 113.684C91.2403 113.538 91.3858 113.538 91.5313 113.538C91.9678 113.538 92.2589 113.829 92.2589 114.266V129.545H84.692ZM93.423 129.545V107.717H97.7885V129.545H93.423ZM99.2437 129.545V114.266C99.2437 113.829 99.5347 113.538 99.9712 113.538C100.117 113.538 100.262 113.538 100.408 113.684C100.553 113.829 100.844 113.829 101.135 113.684C101.426 113.538 101.572 113.393 101.572 113.102C101.717 112.374 102.299 111.937 103.027 111.937C103.755 111.937 104.337 112.374 104.482 113.102C104.482 113.393 104.628 113.538 104.919 113.684C105.064 113.829 105.355 113.684 105.646 113.684C105.792 113.538 105.937 113.538 106.083 113.538C106.519 113.538 106.81 113.829 106.81 114.266V129.545H99.2437ZM107.975 129.545V107.717H112.34V129.545H107.975ZM113.795 129.545V107.717H118.161V129.545H113.795ZM119.616 129.545V114.266C119.616 113.829 119.907 113.538 120.343 113.538C120.489 113.538 120.635 113.538 120.78 113.684C120.926 113.829 121.217 113.829 121.508 113.684C121.799 113.538 121.944 113.393 121.944 113.102C122.09 112.374 122.672 111.937 123.399 111.937C124.127 111.937 124.709 112.374 124.854 113.102C124.854 113.393 125 113.538 125.291 113.684C125.437 113.829 125.728 113.684 126.019 113.684C126.164 113.538 126.31 113.538 126.455 113.538C126.892 113.538 127.183 113.829 127.183 114.266V129.545H119.616ZM128.347 129.545V107.717H132.712V129.545H128.347ZM129.802 76.4315L130.53 75.8494L131.257 76.4315C132.13 77.1591 132.712 78.1777 132.712 79.3418V86.0355C132.567 85.89 132.276 85.599 132.13 85.4535L130.966 84.5804C130.675 84.4349 130.384 84.4349 130.093 84.5804L128.929 85.4535C128.783 85.599 128.492 85.7445 128.347 86.0355V79.3418C128.347 78.1777 128.929 77.1591 129.802 76.4315ZM121.071 69.7377L123.254 68.5736L125.437 69.7377C126.31 70.3198 126.892 71.3384 126.892 72.357V74.9763C126.601 74.6853 126.455 74.5398 126.164 74.3942L123.69 72.9391C123.399 72.7936 123.254 72.7936 122.963 72.9391L120.489 74.3942C120.198 74.5398 119.907 74.8308 119.761 74.9763V72.357C119.616 71.3384 120.198 70.3198 121.071 69.7377ZM115.25 61.8799L115.978 61.2978L116.706 61.8799C117.579 62.6074 118.161 63.6261 118.161 64.7902V71.4839C118.015 71.3384 117.724 71.0474 117.579 70.9019L116.415 70.0288C116.124 69.8832 115.832 69.8832 115.541 70.0288L114.377 70.9019C114.232 71.0474 113.941 71.1929 113.795 71.4839V64.7902C113.795 63.6261 114.377 62.6074 115.25 61.8799ZM109.43 57.5144L110.157 56.9323L110.885 57.5144C111.758 58.242 112.34 59.2606 112.34 60.4247V70.0288C112.195 69.8832 111.904 69.5922 111.758 69.4467L110.594 68.5736C110.303 68.4281 110.012 68.4281 109.721 68.5736L108.557 69.4467C108.411 69.5922 108.12 69.7377 107.975 70.0288V60.4247C107.975 59.2606 108.557 58.242 109.43 57.5144ZM100.699 55.1861L102.882 54.022L105.064 55.1861C105.937 55.7682 106.519 56.7868 106.519 57.8054V67.7005C106.228 67.4095 106.083 67.264 105.792 67.1184L103.318 65.6633C103.027 65.5178 102.882 65.5178 102.591 65.6633L100.117 67.1184C99.8257 67.264 99.5347 67.555 99.3892 67.7005V57.8054C99.2437 56.7868 99.8257 55.7682 100.699 55.1861ZM94.8782 51.6937L95.6058 51.1117L96.3333 51.6937C97.2064 52.4213 97.7885 53.4399 97.7885 54.6041V65.6633C97.643 65.5178 97.3519 65.2267 97.2064 65.0812L96.0423 64.2081C95.7513 64.0626 95.4602 64.0626 95.1692 64.2081L94.0051 65.0812C93.8596 65.2267 93.5685 65.3722 93.423 65.6633V54.6041C93.423 53.4399 94.0051 52.4213 94.8782 51.6937ZM84.692 53.4399C84.692 52.4213 85.2741 51.4027 86.1472 50.8206L88.33 49.6565L90.5127 50.8206C91.3858 51.4027 91.9679 52.4213 91.9679 53.4399V64.7902C91.6768 64.4992 91.5313 64.3536 91.2403 64.2081L88.7665 62.753C88.4755 62.6074 88.3299 62.6074 88.0389 62.753L85.5651 64.2081C85.2741 64.3536 84.9831 64.6447 84.8376 64.7902V53.4399H84.692ZM78.8714 54.6041C78.8714 53.4399 79.4535 52.4213 80.3266 51.6937L81.0541 51.1117L81.7817 51.6937C82.6548 52.4213 83.2369 53.4399 83.2369 54.6041V65.6633C83.0914 65.5178 82.8003 65.2267 82.6548 65.0812L81.4907 64.2081C81.1997 64.0626 80.9086 64.0626 80.6176 64.2081L79.4535 65.0812C79.308 65.2267 79.0169 65.3722 78.8714 65.6633V54.6041ZM70.1404 57.8054C70.1404 56.7868 70.7225 55.7682 71.5956 55.1861L73.7783 54.022L75.9611 55.1861C76.8342 55.7682 77.4162 56.7868 77.4162 57.8054V67.7005C77.1252 67.4095 76.9797 67.264 76.6887 67.1184L74.2149 65.6633C73.9239 65.5178 73.7783 65.5178 73.4873 65.6633L71.0135 67.1184C70.7225 67.264 70.4315 67.555 70.286 67.7005V57.8054H70.1404ZM64.3198 60.4247C64.3198 59.2606 64.9019 58.242 65.775 57.5144L66.5025 56.9323L67.2301 57.5144C68.1032 58.242 68.6853 59.2606 68.6853 60.4247V70.0288C68.5398 69.8832 68.2487 69.5922 68.1032 69.4467L66.9391 68.5736C66.6481 68.4281 66.357 68.4281 66.066 68.5736L64.9019 69.4467C64.7563 69.5922 64.4653 69.7377 64.3198 70.0288V60.4247ZM59.9543 61.8799L60.6819 61.2978L61.4095 61.8799C62.2826 62.6074 62.8646 63.6261 62.8646 64.7902V71.4839C62.7191 71.3384 62.4281 71.0474 62.2826 70.9019L61.1184 70.0288C60.8274 69.8832 60.5364 69.8832 60.2453 70.0288L59.0812 70.9019C58.9357 71.0474 58.6447 71.1929 58.4992 71.4839V64.7902C58.4992 63.6261 59.0812 62.6074 59.9543 61.8799ZM51.2233 69.7377L53.4061 68.5736L55.5888 69.7377C56.4619 70.3198 57.044 71.3384 57.044 72.357V74.9763C56.753 74.6853 56.6074 74.5398 56.3164 74.3942L53.8426 72.9391C53.5516 72.7936 53.4061 72.7936 53.1151 72.9391L50.6413 74.3942C50.3503 74.5398 50.0592 74.8308 49.9137 74.9763V72.357C49.7682 71.3384 50.3503 70.3198 51.2233 69.7377ZM45.4027 76.4315L46.1303 75.8494L46.8579 76.4315C47.731 77.1591 48.313 78.1777 48.313 79.3418V86.0355C48.1675 85.89 47.8765 85.599 47.731 85.4535L46.5668 84.5804C46.2758 84.4349 45.9848 84.4349 45.6937 84.5804L44.5296 85.4535C44.3841 85.599 44.0931 85.7445 43.9475 86.0355V79.3418C43.9475 78.1777 44.5296 77.1591 45.4027 76.4315ZM43.9475 107.717H48.313V129.545H43.9475V107.717Z" fill="#1687A7"/>
<path d="M51.9509 81.5245H54.8613C55.2978 81.5245 55.5888 81.2335 55.5888 80.797V78.0321C55.5888 77.3046 55.1523 76.7225 54.5702 76.286L53.6971 75.8494C53.4061 75.7039 53.2606 75.7039 52.9695 75.8494L52.242 76.286C51.6599 76.577 51.2233 77.3046 51.2233 78.0321V80.797C51.2233 81.2335 51.5144 81.5245 51.9509 81.5245ZM52.6785 78.0321C52.6785 77.8866 52.824 77.7411 52.9695 77.5956L53.4061 77.3046L53.8426 77.5956C53.9882 77.7411 54.1337 77.8866 54.1337 78.0321V80.0694H52.6785V78.0321ZM89.4941 95.203L88.621 94.7665C88.3299 94.621 88.1844 94.621 87.8934 94.7665L87.1658 95.203C86.5838 95.4941 86.1472 96.2217 86.1472 96.9492V99.714C86.1472 100.151 86.4382 100.442 86.8748 100.442H89.7851C90.2217 100.442 90.5127 100.151 90.5127 99.714V96.9492C90.5127 96.2217 90.0761 95.4941 89.4941 95.203ZM89.0575 98.9865H87.6024V96.9492C87.6024 96.8037 87.7479 96.6582 87.8934 96.5127L88.33 96.2217L88.7665 96.5127C88.912 96.6582 89.0575 96.8037 89.0575 96.9492V98.9865ZM89.4941 66.0998L88.621 65.6633C88.3299 65.5178 88.1844 65.5178 87.8934 65.6633L87.1658 66.0998C86.5838 66.3909 86.1472 67.1184 86.1472 67.846V70.6108C86.1472 71.0474 86.4382 71.3384 86.8748 71.3384H89.7851C90.2217 71.3384 90.5127 71.0474 90.5127 70.6108V67.846C90.5127 67.1184 90.0761 66.3909 89.4941 66.0998ZM89.0575 69.8832H87.6024V67.846C87.6024 67.7005 87.7479 67.555 87.8934 67.4095L88.33 67.1184L88.7665 67.4095C88.912 67.555 89.0575 67.7005 89.0575 67.846V69.8832ZM86.8748 56.7868H89.7851C90.2217 56.7868 90.5127 56.4958 90.5127 56.0592V53.2944C90.5127 52.5668 90.0761 51.9848 89.4941 51.5482L88.621 51.1117C88.3299 50.9662 88.1844 50.9662 87.8934 51.1117L87.1658 51.5482C86.5838 51.8393 86.1472 52.5668 86.1472 53.2944V56.0592C86.1472 56.4958 86.4382 56.7868 86.8748 56.7868ZM87.6024 53.2944C87.6024 53.1489 87.7479 53.0034 87.8934 52.8579L88.33 52.5668L88.7665 52.8579C88.912 53.0034 89.0575 53.1489 89.0575 53.2944V55.3316H87.6024V53.2944ZM101.426 61.1523H104.337C104.773 61.1523 105.064 60.8613 105.064 60.4247V57.6599C105.064 56.9323 104.628 56.3503 104.046 55.9137L103.173 55.4772C102.882 55.3316 102.736 55.3316 102.445 55.4772L101.717 55.9137C101.135 56.2047 100.699 56.9323 100.699 57.6599V60.4247C100.699 60.8613 100.99 61.1523 101.426 61.1523ZM102.154 57.6599C102.154 57.5144 102.299 57.3689 102.445 57.2233L102.882 56.9323L103.318 57.2233C103.464 57.3689 103.609 57.5144 103.609 57.6599V59.6971H102.154V57.6599ZM104.046 69.0102L103.173 68.5736C102.882 68.4281 102.736 68.4281 102.445 68.5736L101.717 69.0102C101.135 69.3012 100.699 70.0288 100.699 70.7563V73.5211C100.699 73.9577 100.99 74.2487 101.426 74.2487H104.337C104.773 74.2487 105.064 73.9577 105.064 73.5211V70.7563C105.064 70.0288 104.628 69.3012 104.046 69.0102ZM103.609 72.7936H102.154V70.7563C102.154 70.6108 102.299 70.4653 102.445 70.3198L102.882 70.0288L103.318 70.3198C103.464 70.4653 103.609 70.6108 103.609 70.7563V72.7936ZM104.046 95.203L103.173 94.7665C102.882 94.621 102.736 94.621 102.445 94.7665L101.717 95.203C101.135 95.4941 100.699 96.2217 100.699 96.9492V99.714C100.699 100.151 100.99 100.442 101.426 100.442H104.337C104.773 100.442 105.064 100.151 105.064 99.714V96.9492C105.064 96.2217 104.628 95.4941 104.046 95.203ZM103.609 98.9865H102.154V96.9492C102.154 96.8037 102.299 96.6582 102.445 96.5127L102.882 96.2217L103.318 96.5127C103.464 96.6582 103.609 96.8037 103.609 96.9492V98.9865ZM72.3232 61.1523H75.2335C75.6701 61.1523 75.9611 60.8613 75.9611 60.4247V57.6599C75.9611 56.9323 75.5245 56.3503 74.9425 55.9137L74.0694 55.4772C73.7783 55.3316 73.6328 55.3316 73.3418 55.4772L72.6142 55.9137C72.0321 56.2047 71.5956 56.9323 71.5956 57.6599V60.4247C71.5956 60.8613 71.8866 61.1523 72.3232 61.1523ZM73.0508 57.6599C73.0508 57.5144 73.1963 57.3689 73.3418 57.2233L73.7783 56.9323L74.2149 57.2233C74.3604 57.3689 74.5059 57.5144 74.5059 57.6599V59.6971H73.0508V57.6599ZM74.9425 69.0102L74.0694 68.5736C73.7783 68.4281 73.6328 68.4281 73.3418 68.5736L72.6142 69.0102C72.0321 69.3012 71.5956 70.0288 71.5956 70.7563V73.5211C71.5956 73.9577 71.8866 74.2487 72.3232 74.2487H75.2335C75.6701 74.2487 75.9611 73.9577 75.9611 73.5211V70.7563C75.9611 70.0288 75.5245 69.3012 74.9425 69.0102ZM74.5059 72.7936H73.0508V70.7563C73.0508 70.6108 73.1963 70.4653 73.3418 70.3198L73.7783 70.0288L74.2149 70.3198C74.3604 70.4653 74.5059 70.6108 74.5059 70.7563V72.7936ZM74.9425 95.203L74.0694 94.7665C73.7783 94.621 73.6328 94.621 73.3418 94.7665L72.6142 95.203C72.0321 95.4941 71.5956 96.2217 71.5956 96.9492V99.714C71.5956 100.151 71.8866 100.442 72.3232 100.442H75.2335C75.6701 100.442 75.9611 100.151 75.9611 99.714V96.9492C75.9611 96.2217 75.5245 95.4941 74.9425 95.203ZM74.5059 98.9865H73.0508V96.9492C73.0508 96.8037 73.1963 96.6582 73.3418 96.5127L73.7783 96.2217L74.2149 96.5127C74.3604 96.6582 74.5059 96.8037 74.5059 96.9492V98.9865ZM124.418 96.6582L123.545 96.2217C123.254 96.0761 123.108 96.0761 122.817 96.2217L122.09 96.6582C121.508 96.9492 121.071 97.6768 121.071 98.4044V101.169C121.071 101.606 121.362 101.897 121.799 101.897H124.709C125.146 101.897 125.437 101.606 125.437 101.169V98.4044C125.437 97.6768 125 96.9492 124.418 96.6582ZM123.981 100.442H122.526V98.4044C122.526 98.2589 122.672 98.1134 122.817 97.9678L123.254 97.6768L123.69 97.9678C123.836 98.1134 123.981 98.2589 123.981 98.4044V100.442ZM124.418 76.286L123.545 75.8494C123.254 75.7039 123.108 75.7039 122.817 75.8494L122.09 76.286C121.508 76.577 121.071 77.3046 121.071 78.0321V80.797C121.071 81.2335 121.362 81.5245 121.799 81.5245H124.709C125.146 81.5245 125.437 81.2335 125.437 80.797V78.0321C125.437 77.3046 125 76.577 124.418 76.286ZM123.981 80.0694H122.526V78.0321C122.526 77.8866 122.672 77.7411 122.817 77.5956L123.254 77.3046L123.69 77.5956C123.836 77.7411 123.981 77.8866 123.981 78.0321V80.0694ZM75.2335 116.448H72.3232C71.8866 116.448 71.5956 116.739 71.5956 117.176V122.997C71.5956 123.433 71.8866 123.724 72.3232 123.724H75.2335C75.6701 123.724 75.9611 123.433 75.9611 122.997V117.176C75.9611 116.739 75.6701 116.448 75.2335 116.448ZM74.5059 122.269H73.0508V117.904H74.5059V122.269ZM54.8613 116.448H51.9509C51.5144 116.448 51.2233 116.739 51.2233 117.176V122.997C51.2233 123.433 51.5144 123.724 51.9509 123.724H54.8613C55.2978 123.724 55.5888 123.433 55.5888 122.997V117.176C55.5888 116.739 55.2978 116.448 54.8613 116.448ZM54.1337 122.269H52.6785V117.904H54.1337V122.269ZM89.7851 116.448H86.8748C86.4382 116.448 86.1472 116.739 86.1472 117.176V122.997C86.1472 123.433 86.4382 123.724 86.8748 123.724H89.7851C90.2217 123.724 90.5127 123.433 90.5127 122.997V117.176C90.5127 116.739 90.2217 116.448 89.7851 116.448ZM89.0575 122.269H87.6024V117.904H89.0575V122.269ZM104.337 116.448H101.426C100.99 116.448 100.699 116.739 100.699 117.176V122.997C100.699 123.433 100.99 123.724 101.426 123.724H104.337C104.773 123.724 105.064 123.433 105.064 122.997V117.176C105.064 116.739 104.773 116.448 104.337 116.448ZM103.609 122.269H102.154V117.904H103.609V122.269ZM124.709 116.448H121.799C121.362 116.448 121.071 116.739 121.071 117.176V122.997C121.071 123.433 121.362 123.724 121.799 123.724H124.709C125.146 123.724 125.437 123.433 125.437 122.997V117.176C125.437 116.739 125.146 116.448 124.709 116.448ZM123.981 122.269H122.526V117.904H123.981V122.269ZM54.5702 96.6582L53.6971 96.2217C53.4061 96.0761 53.2606 96.0761 52.9695 96.2217L52.242 96.6582C51.6599 96.9492 51.2233 97.6768 51.2233 98.4044V101.169C51.2233 101.606 51.5144 101.897 51.9509 101.897H54.8613C55.2978 101.897 55.5888 101.606 55.5888 101.169V98.4044C55.5888 97.6768 55.1523 96.9492 54.5702 96.6582ZM54.1337 100.442H52.6785V98.4044C52.6785 98.2589 52.824 98.1134 52.9695 97.9678L53.4061 97.6768L53.8426 97.9678C53.9882 98.1134 54.1337 98.2589 54.1337 98.4044V100.442ZM51.9509 91.7107H54.8613C55.2978 91.7107 55.5888 91.4196 55.5888 90.9831V88.2183C55.5888 87.4907 55.1523 86.9086 54.5702 86.4721L53.6971 86.0355C53.4061 85.89 53.2606 85.89 52.9695 86.0355L52.242 86.4721C51.6599 86.7631 51.2233 87.4907 51.2233 88.2183V90.9831C51.2233 91.4196 51.5144 91.7107 51.9509 91.7107ZM52.6785 88.2183C52.6785 88.0728 52.824 87.9272 52.9695 87.7817L53.4061 87.4907L53.8426 87.7817C53.9882 87.9272 54.1337 88.0728 54.1337 88.2183V90.2555H52.6785V88.2183ZM89.4941 80.6514L88.621 80.2149C88.3299 80.0694 88.1844 80.0694 87.8934 80.2149L87.1658 80.6514C86.5838 80.9425 86.1472 81.67 86.1472 82.3976V85.1624C86.1472 85.599 86.4382 85.89 86.8748 85.89H89.7851C90.2217 85.89 90.5127 85.599 90.5127 85.1624V82.3976C90.5127 81.67 90.0761 80.9425 89.4941 80.6514ZM89.0575 84.4349H87.6024V82.3976C87.6024 82.2521 87.7479 82.1066 87.8934 81.9611L88.33 81.67L88.7665 81.9611C88.912 82.1066 89.0575 82.2521 89.0575 82.3976V84.4349ZM104.046 82.1066L103.173 81.67C102.882 81.5245 102.736 81.5245 102.445 81.67L101.717 82.1066C101.135 82.3976 100.699 83.1252 100.699 83.8528V86.6176C100.699 87.0541 100.99 87.3452 101.426 87.3452H104.337C104.773 87.3452 105.064 87.0541 105.064 86.6176V83.8528C105.064 83.1252 104.628 82.3976 104.046 82.1066ZM103.609 85.89H102.154V83.8528C102.154 83.7073 102.299 83.5618 102.445 83.4162L102.882 83.1252L103.318 83.4162C103.464 83.5618 103.609 83.7073 103.609 83.8528V85.89ZM74.9425 82.1066L74.0694 81.67C73.7783 81.5245 73.6328 81.5245 73.3418 81.67L72.6142 82.1066C72.0321 82.3976 71.5956 83.1252 71.5956 83.8528V86.6176C71.5956 87.0541 71.8866 87.3452 72.3232 87.3452H75.2335C75.6701 87.3452 75.9611 87.0541 75.9611 86.6176V83.8528C75.9611 83.1252 75.5245 82.3976 74.9425 82.1066ZM74.5059 85.89H73.0508V83.8528C73.0508 83.7073 73.1963 83.5618 73.3418 83.4162L73.7783 83.1252L74.2149 83.4162C74.3604 83.5618 74.5059 83.7073 74.5059 83.8528V85.89ZM124.418 86.4721L123.545 86.0355C123.254 85.89 123.108 85.89 122.817 86.0355L122.09 86.4721C121.508 86.7631 121.071 87.4907 121.071 88.2183V90.9831C121.071 91.4196 121.362 91.7107 121.799 91.7107H124.709C125.146 91.7107 125.437 91.4196 125.437 90.9831V88.2183C125.437 87.4907 125 86.7631 124.418 86.4721ZM123.981 90.2555H122.526V88.2183C122.526 88.0728 122.672 87.9272 122.817 87.7817L123.254 87.4907L123.69 87.7817C123.836 87.9272 123.981 88.0728 123.981 88.2183V90.2555ZM95.6058 68.4281C95.1692 68.4281 94.8782 68.7191 94.8782 69.1557V74.9763C94.8782 75.4129 95.1692 75.7039 95.6058 75.7039C96.0423 75.7039 96.3333 75.4129 96.3333 74.9763V69.1557C96.3333 68.7191 96.0423 68.4281 95.6058 68.4281ZM95.6058 81.5245C95.1692 81.5245 94.8782 81.8156 94.8782 82.2521V89.5279C94.8782 89.9645 95.1692 90.2555 95.6058 90.2555C96.0423 90.2555 96.3333 89.9645 96.3333 89.5279V82.2521C96.3333 81.8156 96.0423 81.5245 95.6058 81.5245ZM81.0541 68.4281C80.6176 68.4281 80.3266 68.7191 80.3266 69.1557V74.9763C80.3266 75.4129 80.6176 75.7039 81.0541 75.7039C81.4907 75.7039 81.7817 75.4129 81.7817 74.9763V69.1557C81.7817 68.7191 81.4907 68.4281 81.0541 68.4281ZM95.6058 62.6074C96.0423 62.6074 96.3333 62.3164 96.3333 61.8799V54.6041C96.3333 54.1675 96.0423 53.8765 95.6058 53.8765C95.1692 53.8765 94.8782 54.1675 94.8782 54.6041V61.8799C94.8782 62.3164 95.1692 62.6074 95.6058 62.6074ZM81.0541 62.6074C81.4907 62.6074 81.7817 62.3164 81.7817 61.8799V54.6041C81.7817 54.1675 81.4907 53.8765 81.0541 53.8765C80.6176 53.8765 80.3266 54.1675 80.3266 54.6041V61.8799C80.3266 62.3164 80.6176 62.6074 81.0541 62.6074ZM81.0541 81.5245C80.6176 81.5245 80.3266 81.8156 80.3266 82.2521V89.5279C80.3266 89.9645 80.6176 90.2555 81.0541 90.2555C81.4907 90.2555 81.7817 89.9645 81.7817 89.5279V82.2521C81.7817 81.8156 81.4907 81.5245 81.0541 81.5245ZM66.5025 72.7936C66.066 72.7936 65.775 73.0846 65.775 73.5211V77.8866C65.775 78.3232 66.066 78.6142 66.5025 78.6142C66.9391 78.6142 67.2301 78.3232 67.2301 77.8866V73.5211C67.2301 73.0846 66.9391 72.7936 66.5025 72.7936ZM66.5025 84.4349C66.066 84.4349 65.775 84.7259 65.775 85.1624V89.5279C65.775 89.9645 66.066 90.2555 66.5025 90.2555C66.9391 90.2555 67.2301 89.9645 67.2301 89.5279V85.1624C67.2301 84.7259 66.9391 84.4349 66.5025 84.4349ZM60.6819 74.2487C60.2453 74.2487 59.9543 74.5398 59.9543 74.9763V79.3418C59.9543 79.7783 60.2453 80.0694 60.6819 80.0694C61.1184 80.0694 61.4095 79.7783 61.4095 79.3418V74.9763C61.4095 74.5398 61.1184 74.2487 60.6819 74.2487ZM66.5025 66.9729C66.9391 66.9729 67.2301 66.6819 67.2301 66.2453V60.4247C67.2301 59.9882 66.9391 59.6971 66.5025 59.6971C66.066 59.6971 65.775 59.9882 65.775 60.4247V66.2453C65.775 66.6819 66.066 66.9729 66.5025 66.9729ZM60.6819 68.4281C61.1184 68.4281 61.4095 68.1371 61.4095 67.7005V64.7902C61.4095 64.3536 61.1184 64.0626 60.6819 64.0626C60.2453 64.0626 59.9543 64.3536 59.9543 64.7902V67.7005C59.9543 68.1371 60.2453 68.4281 60.6819 68.4281ZM60.6819 85.89C60.2453 85.89 59.9543 86.181 59.9543 86.6176V89.5279C59.9543 89.9645 60.2453 90.2555 60.6819 90.2555C61.1184 90.2555 61.4095 89.9645 61.4095 89.5279V86.6176C61.4095 86.181 61.1184 85.89 60.6819 85.89ZM46.1303 82.9797C46.5668 82.9797 46.8579 82.6887 46.8579 82.2521V79.3418C46.8579 78.9052 46.5668 78.6142 46.1303 78.6142C45.6937 78.6142 45.4027 78.9052 45.4027 79.3418V82.2521C45.4027 82.6887 45.6937 82.9797 46.1303 82.9797ZM46.1303 93.1658C46.5668 93.1658 46.8579 92.8748 46.8579 92.4382V89.5279C46.8579 89.0914 46.5668 88.8003 46.1303 88.8003C45.6937 88.8003 45.4027 89.0914 45.4027 89.5279V92.4382C45.4027 92.8748 45.6937 93.1658 46.1303 93.1658ZM46.1303 98.9865C45.6937 98.9865 45.4027 99.2775 45.4027 99.714V104.08C45.4027 104.516 45.6937 104.807 46.1303 104.807C46.5668 104.807 46.8579 104.516 46.8579 104.08V99.714C46.8579 99.2775 46.5668 98.9865 46.1303 98.9865ZM60.6819 112.083C60.2453 112.083 59.9543 112.374 59.9543 112.81V124.452C59.9543 124.888 60.2453 125.179 60.6819 125.179C61.1184 125.179 61.4095 124.888 61.4095 124.452V112.81C61.4095 112.374 61.1184 112.083 60.6819 112.083ZM66.5025 112.083C66.066 112.083 65.775 112.374 65.775 112.81V124.452C65.775 124.888 66.066 125.179 66.5025 125.179C66.9391 125.179 67.2301 124.888 67.2301 124.452V112.81C67.2301 112.374 66.9391 112.083 66.5025 112.083ZM81.0541 112.083C80.6176 112.083 80.3266 112.374 80.3266 112.81V124.452C80.3266 124.888 80.6176 125.179 81.0541 125.179C81.4907 125.179 81.7817 124.888 81.7817 124.452V112.81C81.7817 112.374 81.4907 112.083 81.0541 112.083ZM130.53 88.8003C130.093 88.8003 129.802 89.0914 129.802 89.5279V92.4382C129.802 92.8748 130.093 93.1658 130.53 93.1658C130.966 93.1658 131.257 92.8748 131.257 92.4382V89.5279C131.257 89.0914 130.966 88.8003 130.53 88.8003ZM130.53 98.9865C130.093 98.9865 129.802 99.2775 129.802 99.714V104.08C129.802 104.516 130.093 104.807 130.53 104.807C130.966 104.807 131.257 104.516 131.257 104.08V99.714C131.257 99.2775 130.966 98.9865 130.53 98.9865ZM46.1303 112.083C45.6937 112.083 45.4027 112.374 45.4027 112.81V124.452C45.4027 124.888 45.6937 125.179 46.1303 125.179C46.5668 125.179 46.8579 124.888 46.8579 124.452V112.81C46.8579 112.374 46.5668 112.083 46.1303 112.083ZM95.6058 112.083C95.1692 112.083 94.8782 112.374 94.8782 112.81V124.452C94.8782 124.888 95.1692 125.179 95.6058 125.179C96.0423 125.179 96.3333 124.888 96.3333 124.452V112.81C96.3333 112.374 96.0423 112.083 95.6058 112.083ZM110.157 112.083C109.721 112.083 109.43 112.374 109.43 112.81V124.452C109.43 124.888 109.721 125.179 110.157 125.179C110.594 125.179 110.885 124.888 110.885 124.452V112.81C110.885 112.374 110.594 112.083 110.157 112.083ZM115.978 112.083C115.541 112.083 115.25 112.374 115.25 112.81V124.452C115.25 124.888 115.541 125.179 115.978 125.179C116.415 125.179 116.706 124.888 116.706 124.452V112.81C116.706 112.374 116.415 112.083 115.978 112.083ZM130.53 112.083C130.093 112.083 129.802 112.374 129.802 112.81V124.452C129.802 124.888 130.093 125.179 130.53 125.179C130.966 125.179 131.257 124.888 131.257 124.452V112.81C131.257 112.374 130.966 112.083 130.53 112.083ZM95.6058 96.0761C95.1692 96.0761 94.8782 96.3672 94.8782 96.8037V104.08C94.8782 104.516 95.1692 104.807 95.6058 104.807C96.0423 104.807 96.3333 104.516 96.3333 104.08V96.8037C96.3333 96.3672 96.0423 96.0761 95.6058 96.0761ZM81.0541 96.0761C80.6176 96.0761 80.3266 96.3672 80.3266 96.8037V104.08C80.3266 104.516 80.6176 104.807 81.0541 104.807C81.4907 104.807 81.7817 104.516 81.7817 104.08V96.8037C81.7817 96.3672 81.4907 96.0761 81.0541 96.0761ZM66.5025 96.0761C66.066 96.0761 65.775 96.3672 65.775 96.8037V104.08C65.775 104.516 66.066 104.807 66.5025 104.807C66.9391 104.807 67.2301 104.516 67.2301 104.08V96.8037C67.2301 96.3672 66.9391 96.0761 66.5025 96.0761ZM60.6819 96.0761C60.2453 96.0761 59.9543 96.3672 59.9543 96.8037V104.08C59.9543 104.516 60.2453 104.807 60.6819 104.807C61.1184 104.807 61.4095 104.516 61.4095 104.08V96.8037C61.4095 96.3672 61.1184 96.0761 60.6819 96.0761ZM130.53 82.9797C130.966 82.9797 131.257 82.6887 131.257 82.2521V79.3418C131.257 78.9052 130.966 78.6142 130.53 78.6142C130.093 78.6142 129.802 78.9052 129.802 79.3418V82.2521C129.802 82.6887 130.093 82.9797 130.53 82.9797ZM110.157 72.7936C109.721 72.7936 109.43 73.0846 109.43 73.5211V77.8866C109.43 78.3232 109.721 78.6142 110.157 78.6142C110.594 78.6142 110.885 78.3232 110.885 77.8866V73.5211C110.885 73.0846 110.594 72.7936 110.157 72.7936ZM110.157 84.4349C109.721 84.4349 109.43 84.7259 109.43 85.1624V89.5279C109.43 89.9645 109.721 90.2555 110.157 90.2555C110.594 90.2555 110.885 89.9645 110.885 89.5279V85.1624C110.885 84.7259 110.594 84.4349 110.157 84.4349ZM110.157 96.0761C109.721 96.0761 109.43 96.3672 109.43 96.8037V104.08C109.43 104.516 109.721 104.807 110.157 104.807C110.594 104.807 110.885 104.516 110.885 104.08V96.8037C110.885 96.3672 110.594 96.0761 110.157 96.0761ZM115.978 74.2487C115.541 74.2487 115.25 74.5398 115.25 74.9763V79.3418C115.25 79.7783 115.541 80.0694 115.978 80.0694C116.415 80.0694 116.706 79.7783 116.706 79.3418V74.9763C116.706 74.5398 116.415 74.2487 115.978 74.2487ZM110.157 66.9729C110.594 66.9729 110.885 66.6819 110.885 66.2453V60.4247C110.885 59.9882 110.594 59.6971 110.157 59.6971C109.721 59.6971 109.43 59.9882 109.43 60.4247V66.2453C109.43 66.6819 109.721 66.9729 110.157 66.9729ZM115.978 68.4281C116.415 68.4281 116.706 68.1371 116.706 67.7005V64.7902C116.706 64.3536 116.415 64.0626 115.978 64.0626C115.541 64.0626 115.25 64.3536 115.25 64.7902V67.7005C115.25 68.1371 115.541 68.4281 115.978 68.4281ZM115.978 85.89C115.541 85.89 115.25 86.181 115.25 86.6176V89.5279C115.25 89.9645 115.541 90.2555 115.978 90.2555C116.415 90.2555 116.706 89.9645 116.706 89.5279V86.6176C116.706 86.181 116.415 85.89 115.978 85.89ZM115.978 96.0761C115.541 96.0761 115.25 96.3672 115.25 96.8037V104.08C115.25 104.516 115.541 104.807 115.978 104.807C116.415 104.807 116.706 104.516 116.706 104.08V96.8037C116.706 96.3672 116.415 96.0761 115.978 96.0761Z" fill="#1687A7"/>
<defs>
<filter id="filter0_d" x="0" y="0" width="176" height="176" filterUnits="userSpaceOnUse" color-interpolation-filters="sRGB">
<feFlood flood-opacity="0" result="BackgroundImageFix"/>
<feColorMatrix in="SourceAlpha" type="matrix" values="0 0 0 0 0 0 0 0 0 0 0 0 0 0 0 0 0 0 127 0" result="hardAlpha"/>
<feOffset/>
<feGaussianBlur stdDeviation="4"/>
<feComposite in2="hardAlpha" operator="out"/>
<feColorMatrix type="matrix" values="0 0 0 0 0.666667 0 0 0 0 0.666667 0 0 0 0 0.666667 0 0 0 0.25 0"/>
<feBlend mode="normal" in2="BackgroundImageFix" result="effect1_dropShadow"/>
<feBlend mode="normal" in="SourceGraphic" in2="effect1_dropShadow" result="shape"/>
</filter>
</defs>
</svg>
