<svg width="160" height="160" viewBox="0 0 160 160" fill="none" xmlns="http://www.w3.org/2000/svg">
<path d="M128.35 121.545H126.168V71.3418C126.168 69.7411 125.44 68.286 124.13 67.2673L122.966 66.3942C122.675 66.2487 122.384 66.2487 122.093 66.3942L120.929 67.2673C120.783 67.4129 120.492 67.5584 120.347 67.8494V64.357C120.347 62.7563 119.474 61.3012 118.164 60.4281L115.981 59.264V56.7902C115.981 56.3536 115.69 56.0626 115.254 56.0626C114.817 56.0626 114.526 56.3536 114.526 56.7902V59.264L112.343 60.4281C112.052 60.5736 111.761 60.8646 111.616 61.0102V56.6447C111.616 55.044 110.888 53.5888 109.579 52.5702L108.415 51.6971C108.124 51.5516 107.832 51.5516 107.541 51.6971L106.377 52.5702C106.232 52.7157 105.941 52.8613 105.795 53.1523V52.2792C105.795 50.6785 105.068 49.2234 103.758 48.2047L102.594 47.3316C102.303 47.1861 102.012 47.1861 101.721 47.3316L100.557 48.2047C100.266 48.3503 100.12 48.6413 99.8291 48.9323C99.5381 47.6227 98.8105 46.4585 97.6464 45.8765L95.4636 44.7124V42.2386C95.4636 41.802 95.1726 41.511 94.736 41.511C94.2995 41.511 94.0085 41.802 94.0085 42.2386V44.7124L91.8257 45.8765C91.5347 46.022 91.2436 46.313 90.9526 46.4585C90.9526 44.8579 90.225 43.4027 88.9154 42.3841L87.7513 41.511C87.4602 41.3655 87.1692 41.3655 86.8782 41.511L85.714 42.3841C85.2775 42.6751 84.9865 43.1117 84.6954 43.4027C84.2589 42.5296 83.6768 41.802 82.9492 41.3655L80.7665 40.2014V37.7276C80.7665 37.291 80.4755 37 80.0389 37C79.6024 37 79.3113 37.291 79.3113 37.7276V40.2014L77.1286 41.3655C76.2555 41.802 75.6734 42.5296 75.3824 43.4027C75.0914 42.9662 74.8003 42.6751 74.3638 42.3841L73.1997 41.511C72.9086 41.3655 72.6176 41.3655 72.3266 41.511L71.1624 42.3841C69.8528 43.2572 69.1252 44.8579 69.1252 46.4585C68.8342 46.1675 68.6887 46.022 68.2521 45.8765L66.0694 44.7124V42.2386C66.0694 41.802 65.7783 41.511 65.3418 41.511C64.9052 41.511 64.6142 41.802 64.6142 42.2386V44.7124L62.4315 45.8765C61.2673 46.6041 60.5398 47.6227 60.2487 48.9323C60.1032 48.6413 59.8122 48.4958 59.5212 48.2047L58.357 47.3316C58.066 47.1861 57.775 47.1861 57.4839 47.3316L56.3198 48.2047C55.0102 49.2234 54.2826 50.6785 54.2826 52.2792V53.1523C54.1371 53.0068 53.846 52.7157 53.7005 52.5702L52.5364 51.6971C52.2453 51.5516 51.9543 51.5516 51.6633 51.6971L50.4992 52.5702C49.1895 53.5888 48.4619 55.044 48.4619 56.6447V61.0102C48.1709 60.7191 48.0254 60.5736 47.7343 60.4281L45.5516 59.264V56.7902C45.5516 56.3536 45.2606 56.0626 44.824 56.0626C44.3875 56.0626 44.0964 56.3536 44.0964 56.7902V59.264L41.9137 60.4281C40.4585 61.1557 39.731 62.7563 39.731 64.357V67.8494C39.5854 67.7039 39.2944 67.4129 39.1489 67.2673L37.9848 66.3942C37.6937 66.2487 37.4027 66.2487 37.1117 66.3942L35.9475 67.2673C34.6379 68.286 33.9103 69.7411 33.9103 71.3418V121.545H31.7276C31.291 121.545 31 121.836 31 122.272C31 122.709 31.291 123 31.7276 123H127.768C128.205 123 128.496 122.709 128.496 122.272C128.496 121.836 128.787 121.545 128.35 121.545ZM35.9475 81.5279C35.9475 80.3638 36.5296 79.3452 37.4027 78.6176L38.1303 78.0355L38.8579 78.6176C39.731 79.3452 40.313 80.3638 40.313 81.5279V88.2217C40.1675 88.0761 39.8765 87.7851 39.731 87.6396L38.5668 86.7665C38.2758 86.621 37.9848 86.621 37.6937 86.7665L36.5296 87.6396C36.3841 87.7851 36.0931 87.9306 35.9475 88.2217V81.5279ZM41.7682 70.1777C41.7682 69.1591 42.3503 68.1404 43.2233 67.5584L45.4061 66.3942L47.5888 67.5584C48.4619 68.1404 49.044 69.1591 49.044 70.1777V77.1624C48.753 76.8714 48.6074 76.7259 48.3164 76.5804L45.8426 75.1252C45.5516 74.9797 45.4061 74.9797 45.1151 75.1252L42.6413 76.5804C42.3503 76.7259 42.0592 77.0169 41.9137 77.1624V70.1777H41.7682ZM41.7682 80.3638C41.7682 79.3452 42.3503 78.3266 43.2233 77.7445L45.4061 76.5804L47.5888 77.7445C48.4619 78.3266 49.044 79.3452 49.044 80.3638V87.3486C48.753 87.0575 48.6074 86.912 48.3164 86.7665L45.8426 85.3113C45.5516 85.1658 45.4061 85.1658 45.1151 85.3113L42.6413 86.7665C42.3503 86.912 42.0592 87.203 41.9137 87.3486V80.3638H41.7682ZM111.616 90.5499C111.616 89.5313 112.198 88.5127 113.071 87.9306L115.254 86.7665L117.437 87.9306C118.31 88.5127 118.892 89.5313 118.892 90.5499V98.2623H111.616V90.5499ZM118.892 81.5279V87.3486C118.601 87.0575 118.455 86.912 118.164 86.7665L115.69 85.3113C115.399 85.1658 115.254 85.1658 114.963 85.3113L112.489 86.7665C112.198 86.912 111.907 87.203 111.761 87.3486V80.3638C111.761 79.3452 112.343 78.3266 113.217 77.7445L115.399 76.5804L117.582 77.7445C118.455 78.3266 119.037 79.3452 119.037 80.3638V81.5279H118.892ZM110.161 85.3113C110.015 85.1658 109.724 84.8748 109.579 84.7293L108.415 83.8562C108.124 83.7107 107.832 83.7107 107.541 83.8562L106.377 84.7293C106.232 84.8748 105.941 85.0203 105.795 85.3113V78.6176C105.795 77.4535 106.377 76.4349 107.25 75.7073L107.978 75.1252L108.706 75.7073C109.579 76.4349 110.161 77.4535 110.161 78.6176V85.3113ZM104.34 85.3113C104.195 85.1658 103.904 84.8748 103.758 84.7293L102.594 83.8562C102.303 83.7107 102.012 83.7107 101.721 83.8562L100.557 84.7293C100.411 84.8748 100.12 85.0203 99.9746 85.3113V77.1624C99.9746 75.9983 100.557 74.9797 101.43 74.2521L102.157 73.67L102.885 74.2521C103.758 74.9797 104.34 75.9983 104.34 77.1624V85.3113ZM91.2437 98.2623V89.0948C91.2437 88.0761 91.8257 87.0575 92.6988 86.4755L94.8816 85.3113L97.0643 86.4755C97.9374 87.0575 98.5195 88.0761 98.5195 89.0948V98.2623H91.2437ZM98.5195 77.1624V85.8934C98.2284 85.6024 98.0829 85.4568 97.7919 85.3113L95.3181 83.8562C95.0271 83.7107 94.8816 83.7107 94.5905 83.8562L92.1168 85.3113C91.8257 85.4568 91.5347 85.7479 91.3892 85.8934V75.9983C91.3892 74.9797 91.9712 73.9611 92.8443 73.379L95.0271 72.2149L97.2098 73.379C98.0829 73.9611 98.665 74.9797 98.665 75.9983V77.1624H98.5195ZM89.7885 85.3113C89.643 85.1658 89.3519 84.8748 89.2064 84.7293L88.0423 83.8562C87.7513 83.7107 87.4602 83.7107 87.1692 83.8562L86.0051 84.7293C85.8596 84.8748 85.5685 85.0203 85.423 85.3113V74.2521C85.423 73.088 86.0051 72.0694 86.8782 71.3418L87.6058 70.7597L88.3333 71.3418C89.2064 72.0694 89.7885 73.088 89.7885 74.2521V85.3113ZM76.692 98.2623V89.0948C76.692 88.0761 77.2741 87.0575 78.1472 86.4755L80.33 85.3113L82.5127 86.4755C83.3858 87.0575 83.9679 88.0761 83.9679 89.0948V98.2623H76.692ZM83.9679 82.401V85.8934C83.6768 85.6024 83.5313 85.4568 83.2403 85.3113L80.7665 83.8562C80.4755 83.7107 80.3299 83.7107 80.0389 83.8562L77.5651 85.3113C77.2741 85.4568 76.9831 85.7479 76.8376 85.8934V74.5431C76.8376 73.5245 77.4196 72.5059 78.2927 71.9239L80.4755 70.7597L82.6582 71.9239C83.5313 72.5059 84.1134 73.5245 84.1134 74.5431V82.401H83.9679ZM75.2369 85.3113C75.0914 85.1658 74.8003 84.8748 74.6548 84.7293L73.4907 83.8562C73.1997 83.7107 72.9086 83.7107 72.6176 83.8562L71.4535 84.7293C71.308 84.8748 71.0169 85.0203 70.8714 85.3113V74.2521C70.8714 73.088 71.4535 72.0694 72.3266 71.3418L73.0541 70.7597L73.7817 71.3418C74.6548 72.0694 75.2369 73.088 75.2369 74.2521V85.3113ZM62.1404 98.2623V89.0948C62.1404 88.0761 62.7225 87.0575 63.5956 86.4755L65.7783 85.3113L67.9611 86.4755C68.8342 87.0575 69.4162 88.0761 69.4162 89.0948V98.2623H62.1404ZM69.4162 83.8562V85.8934C69.1252 85.6024 68.9797 85.4568 68.6887 85.3113L66.2149 83.8562C65.9239 83.7107 65.7783 83.7107 65.4873 83.8562L63.0135 85.3113C62.7225 85.4568 62.4315 85.7479 62.286 85.8934V75.9983C62.286 74.9797 62.868 73.9611 63.7411 73.379L65.9239 72.2149L68.1066 73.379C68.9797 73.9611 69.5618 74.9797 69.5618 75.9983V83.8562H69.4162ZM60.6853 85.3113C60.5398 85.1658 60.2487 84.8748 60.1032 84.7293L58.9391 83.8562C58.6481 83.7107 58.357 83.7107 58.066 83.8562L56.9019 84.7293C56.7563 84.8748 56.4653 85.0203 56.3198 85.3113V77.1624C56.3198 75.9983 56.9019 74.9797 57.775 74.2521L58.5025 73.67L59.2301 74.2521C60.1032 74.9797 60.6853 75.9983 60.6853 77.1624V85.3113ZM54.8646 85.3113C54.7191 85.1658 54.4281 84.8748 54.2826 84.7293L53.1184 83.8562C52.8274 83.7107 52.5364 83.7107 52.2453 83.8562L51.0812 84.7293C50.9357 84.8748 50.6447 85.0203 50.4992 85.3113V78.6176C50.4992 77.4535 51.0812 76.4349 51.9543 75.7073L52.6819 75.1252L53.4095 75.7073C54.2826 76.4349 54.8646 77.4535 54.8646 78.6176V85.3113ZM41.7682 90.5499C41.7682 89.5313 42.3503 88.5127 43.2233 87.9306L45.4061 86.7665L47.5888 87.9306C48.4619 88.5127 49.044 89.5313 49.044 90.5499V98.2623H41.7682V90.5499ZM41.7682 99.7174H49.044V104.228C48.6074 104.083 48.3164 104.083 47.8799 104.083C47.4433 103.21 46.4247 102.628 45.4061 102.628C44.3875 102.628 43.3689 103.21 42.9323 104.083C42.4958 103.937 42.2047 104.083 41.7682 104.228V99.7174ZM50.4992 88.8037C50.4992 87.6396 51.0812 86.621 51.9543 85.8934L52.6819 85.3113L53.4095 85.8934C54.2826 86.621 54.8646 87.6396 54.8646 88.8037V98.2623H50.4992V88.8037ZM56.3198 88.8037C56.3198 87.6396 56.9019 86.621 57.775 85.8934L58.5025 85.3113L59.2301 85.8934C60.1032 86.621 60.6853 87.6396 60.6853 88.8037V98.2623H56.3198V88.8037ZM62.1404 99.7174H69.4162V104.228C68.9797 104.083 68.6887 104.083 68.2521 104.083C67.8156 103.21 66.797 102.628 65.7783 102.628C64.7597 102.628 63.7411 103.21 63.3046 104.083C62.868 103.937 62.577 104.083 62.1404 104.228V99.7174ZM70.8714 88.8037C70.8714 87.6396 71.4535 86.621 72.3266 85.8934L73.0541 85.3113L73.7817 85.8934C74.6548 86.621 75.2369 87.6396 75.2369 88.8037V98.2623H70.8714V88.8037ZM76.692 99.7174H83.9679V104.228C83.5313 104.083 83.2403 104.083 82.8037 104.083C82.3672 103.21 81.3486 102.628 80.33 102.628C79.3113 102.628 78.2927 103.21 77.8562 104.083C77.4196 103.937 77.1286 104.083 76.692 104.228V99.7174ZM85.423 88.8037C85.423 87.6396 86.0051 86.621 86.8782 85.8934L87.6058 85.3113L88.3333 85.8934C89.2064 86.621 89.7885 87.6396 89.7885 88.8037V98.2623H85.423V88.8037ZM91.2437 99.7174H98.5195V104.228C98.0829 104.083 97.7919 104.083 97.3553 104.083C96.9188 103.21 95.9002 102.628 94.8816 102.628C93.8629 102.628 92.8443 103.21 92.4078 104.083C91.9712 103.937 91.6802 104.083 91.2437 104.228V99.7174ZM99.9746 88.8037C99.9746 87.6396 100.557 86.621 101.43 85.8934L102.157 85.3113L102.885 85.8934C103.758 86.621 104.34 87.6396 104.34 88.8037V98.2623H99.9746V88.8037ZM105.795 88.8037C105.795 87.6396 106.377 86.621 107.25 85.8934L107.978 85.3113L108.706 85.8934C109.579 86.621 110.161 87.6396 110.161 88.8037V98.2623H105.795V88.8037ZM111.616 99.7174H118.892V104.228C118.455 104.083 118.164 104.083 117.728 104.083C117.291 103.21 116.272 102.628 115.254 102.628C114.235 102.628 113.217 103.21 112.78 104.083C112.343 103.937 112.052 104.083 111.616 104.228V99.7174ZM120.347 91.714C120.347 90.5499 120.929 89.5313 121.802 88.8037L122.53 88.2217L123.257 88.8037C124.13 89.5313 124.712 90.5499 124.712 91.714V98.2623H120.347V91.714ZM124.712 88.2217C124.567 88.0761 124.276 87.7851 124.13 87.6396L122.966 86.7665C122.675 86.621 122.384 86.621 122.093 86.7665L120.929 87.6396C120.783 87.7851 120.492 87.9306 120.347 88.2217V81.5279C120.347 80.3638 120.929 79.3452 121.802 78.6176L122.53 78.0355L123.257 78.6176C124.13 79.3452 124.712 80.3638 124.712 81.5279V88.2217ZM118.892 71.3418V77.1624C118.601 76.8714 118.455 76.7259 118.164 76.5804L115.69 75.1252C115.399 74.9797 115.254 74.9797 114.963 75.1252L112.489 76.5804C112.198 76.7259 111.907 77.0169 111.761 77.1624V70.1777C111.761 69.1591 112.343 68.1404 113.217 67.5584L115.399 66.3942L117.582 67.5584C118.455 68.1404 119.037 69.1591 119.037 70.1777V71.3418H118.892ZM110.161 75.1252C110.015 74.9797 109.724 74.6887 109.579 74.5431L108.415 73.67C108.124 73.5245 107.832 73.5245 107.541 73.67L106.377 74.5431C106.232 74.6887 105.941 74.8342 105.795 75.1252V66.9763C105.795 65.8122 106.377 64.7936 107.25 64.066L107.978 63.4839L108.706 64.066C109.579 64.7936 110.161 65.8122 110.161 66.9763V75.1252ZM104.34 73.67C104.195 73.5245 103.904 73.2335 103.758 73.088L102.594 72.2149C102.303 72.0694 102.012 72.0694 101.721 72.2149L100.557 73.088C100.411 73.2335 100.12 73.379 99.9746 73.67V65.5212C99.9746 64.357 100.557 63.3384 101.43 62.6108L102.157 62.0288L102.885 62.6108C103.758 63.3384 104.34 64.357 104.34 65.5212V73.67ZM98.5195 65.5212V72.797C98.2284 72.5059 98.0829 72.3604 97.7919 72.2149L95.3181 70.7597C95.0271 70.6142 94.8816 70.6142 94.5905 70.7597L92.1168 72.2149C91.8257 72.3604 91.5347 72.6514 91.3892 72.797V62.9019C91.3892 61.8833 91.9712 60.8646 92.8443 60.2826L95.0271 59.1184L97.2098 60.2826C98.0829 60.8646 98.665 61.8833 98.665 62.9019V65.5212H98.5195ZM89.7885 70.7597C89.643 70.6142 89.3519 70.3232 89.2064 70.1777L88.0423 69.3046C87.7513 69.159 87.4602 69.159 87.1692 69.3046L86.0051 70.1777C85.8596 70.3232 85.5685 70.4687 85.423 70.7597V61.1557C85.423 59.9915 86.0051 58.9729 86.8782 58.2453L87.6058 57.6633L88.3333 58.2453C89.2064 58.9729 89.7885 59.9915 89.7885 61.1557V70.7597ZM83.9679 61.1557V71.3418C83.6768 71.0508 83.5313 70.9052 83.2403 70.7597L80.7665 69.3046C80.4755 69.159 80.3299 69.159 80.0389 69.3046L77.5651 70.7597C77.2741 70.9052 76.9831 71.1963 76.8376 71.3418V59.9915C76.8376 58.9729 77.4196 57.9543 78.2927 57.3723L80.4755 56.2081L82.6582 57.3723C83.5313 57.9543 84.1134 58.9729 84.1134 59.9915V61.1557H83.9679ZM75.2369 70.7597C75.0914 70.6142 74.8003 70.3232 74.6548 70.1777L73.4907 69.3046C73.1997 69.159 72.9086 69.159 72.6176 69.3046L71.4535 70.1777C71.308 70.3232 71.0169 70.4687 70.8714 70.7597V61.1557C70.8714 59.9915 71.4535 58.9729 72.3266 58.2453L73.0541 57.6633L73.7817 58.2453C74.6548 58.9729 75.2369 59.9915 75.2369 61.1557V70.7597ZM69.4162 70.7597V72.797C69.1252 72.5059 68.9797 72.3604 68.6887 72.2149L66.2149 70.7597C65.9239 70.6142 65.7783 70.6142 65.4873 70.7597L63.0135 72.2149C62.7225 72.3604 62.4315 72.6514 62.286 72.797V62.9019C62.286 61.8833 62.868 60.8646 63.7411 60.2826L65.9239 59.1184L68.1066 60.2826C68.9797 60.8646 69.5618 61.8833 69.5618 62.9019V70.7597H69.4162ZM60.6853 73.67C60.5398 73.5245 60.2487 73.2335 60.1032 73.088L58.9391 72.2149C58.6481 72.0694 58.357 72.0694 58.066 72.2149L56.9019 73.088C56.7563 73.2335 56.4653 73.379 56.3198 73.67V65.5212C56.3198 64.357 56.9019 63.3384 57.775 62.6108L58.5025 62.0288L59.2301 62.6108C60.1032 63.3384 60.6853 64.357 60.6853 65.5212V73.67ZM54.8646 75.1252C54.7191 74.9797 54.4281 74.6887 54.2826 74.5431L53.1184 73.67C52.8274 73.5245 52.5364 73.5245 52.2453 73.67L51.0812 74.5431C50.9357 74.6887 50.6447 74.8342 50.4992 75.1252V66.9763C50.4992 65.8122 51.0812 64.7936 51.9543 64.066L52.6819 63.4839L53.4095 64.066C54.2826 64.7936 54.8646 65.8122 54.8646 66.9763V75.1252ZM35.9475 91.714C35.9475 90.5499 36.5296 89.5313 37.4027 88.8037L38.1303 88.2217L38.8579 88.8037C39.731 89.5313 40.313 90.5499 40.313 91.714V98.2623H35.9475V91.714ZM41.7682 121.545V106.266C41.7682 105.829 42.0592 105.538 42.4958 105.538C42.6413 105.538 42.7868 105.538 42.9323 105.684C43.0778 105.829 43.3689 105.829 43.6599 105.684C43.9509 105.538 44.0964 105.393 44.0964 105.102C44.242 104.374 44.824 103.937 45.5516 103.937C46.2792 103.937 46.8613 104.374 47.0068 105.102C47.0068 105.393 47.1523 105.538 47.4433 105.684C47.7344 105.829 47.8799 105.684 48.1709 105.684C48.3164 105.538 48.4619 105.538 48.6074 105.538C49.044 105.538 49.335 105.829 49.335 106.266V121.545H41.7682ZM50.4992 121.545V99.7174H54.8646V121.545H50.4992ZM56.3198 121.545V99.7174H60.6853V121.545H56.3198ZM62.1404 121.545V106.266C62.1404 105.829 62.4315 105.538 62.868 105.538C63.0135 105.538 63.159 105.538 63.3046 105.684C63.4501 105.829 63.7411 105.829 64.0321 105.684C64.3232 105.538 64.4687 105.393 64.4687 105.102C64.6142 104.374 65.1963 103.937 65.9239 103.937C66.6514 103.937 67.2335 104.374 67.379 105.102C67.379 105.393 67.5245 105.538 67.8156 105.684C67.9611 105.829 68.2521 105.684 68.5431 105.684C68.6887 105.538 68.8342 105.538 68.9797 105.538C69.4162 105.538 69.7073 105.829 69.7073 106.266V121.545H62.1404ZM70.8714 121.545V99.7174H75.2369V121.545H70.8714ZM76.692 121.545V106.266C76.692 105.829 76.9831 105.538 77.4196 105.538C77.5651 105.538 77.7107 105.538 77.8562 105.684C78.0017 105.829 78.2927 105.829 78.5838 105.684C78.8748 105.538 79.0203 105.393 79.0203 105.102C79.1658 104.374 79.7479 103.937 80.4755 103.937C81.203 103.937 81.7851 104.374 81.9306 105.102C81.9306 105.393 82.0761 105.538 82.3672 105.684C82.5127 105.829 82.8037 105.684 83.0948 105.684C83.2403 105.538 83.3858 105.538 83.5313 105.538C83.9678 105.538 84.2589 105.829 84.2589 106.266V121.545H76.692ZM85.423 121.545V99.7174H89.7885V121.545H85.423ZM91.2437 121.545V106.266C91.2437 105.829 91.5347 105.538 91.9712 105.538C92.1168 105.538 92.2623 105.538 92.4078 105.684C92.5533 105.829 92.8443 105.829 93.1354 105.684C93.4264 105.538 93.5719 105.393 93.5719 105.102C93.7174 104.374 94.2995 103.937 95.0271 103.937C95.7547 103.937 96.3367 104.374 96.4822 105.102C96.4822 105.393 96.6278 105.538 96.9188 105.684C97.0643 105.829 97.3553 105.684 97.6464 105.684C97.7919 105.538 97.9374 105.538 98.0829 105.538C98.5195 105.538 98.8105 105.829 98.8105 106.266V121.545H91.2437ZM99.9746 121.545V99.7174H104.34V121.545H99.9746ZM105.795 121.545V99.7174H110.161V121.545H105.795ZM111.616 121.545V106.266C111.616 105.829 111.907 105.538 112.343 105.538C112.489 105.538 112.635 105.538 112.78 105.684C112.926 105.829 113.217 105.829 113.508 105.684C113.799 105.538 113.944 105.393 113.944 105.102C114.09 104.374 114.672 103.937 115.399 103.937C116.127 103.937 116.709 104.374 116.854 105.102C116.854 105.393 117 105.538 117.291 105.684C117.437 105.829 117.728 105.684 118.019 105.684C118.164 105.538 118.31 105.538 118.455 105.538C118.892 105.538 119.183 105.829 119.183 106.266V121.545H111.616ZM120.347 121.545V99.7174H124.712V121.545H120.347ZM121.802 68.4315L122.53 67.8494L123.257 68.4315C124.13 69.1591 124.712 70.1777 124.712 71.3418V78.0355C124.567 77.89 124.276 77.599 124.13 77.4535L122.966 76.5804C122.675 76.4349 122.384 76.4349 122.093 76.5804L120.929 77.4535C120.783 77.599 120.492 77.7445 120.347 78.0355V71.3418C120.347 70.1777 120.929 69.1591 121.802 68.4315ZM113.071 61.7377L115.254 60.5736L117.437 61.7377C118.31 62.3198 118.892 63.3384 118.892 64.357V66.9763C118.601 66.6853 118.455 66.5398 118.164 66.3942L115.69 64.9391C115.399 64.7936 115.254 64.7936 114.963 64.9391L112.489 66.3942C112.198 66.5398 111.907 66.8308 111.761 66.9763V64.357C111.616 63.3384 112.198 62.3198 113.071 61.7377ZM107.25 53.8799L107.978 53.2978L108.706 53.8799C109.579 54.6074 110.161 55.6261 110.161 56.7902V63.4839C110.015 63.3384 109.724 63.0474 109.579 62.9019L108.415 62.0288C108.124 61.8832 107.832 61.8832 107.541 62.0288L106.377 62.9019C106.232 63.0474 105.941 63.1929 105.795 63.4839V56.7902C105.795 55.6261 106.377 54.6074 107.25 53.8799ZM101.43 49.5144L102.157 48.9323L102.885 49.5144C103.758 50.242 104.34 51.2606 104.34 52.4247V62.0288C104.195 61.8832 103.904 61.5922 103.758 61.4467L102.594 60.5736C102.303 60.4281 102.012 60.4281 101.721 60.5736L100.557 61.4467C100.411 61.5922 100.12 61.7377 99.9746 62.0288V52.4247C99.9746 51.2606 100.557 50.242 101.43 49.5144ZM92.6988 47.1861L94.8816 46.022L97.0643 47.1861C97.9374 47.7682 98.5195 48.7868 98.5195 49.8054V59.7005C98.2284 59.4095 98.0829 59.264 97.7919 59.1184L95.3181 57.6633C95.0271 57.5178 94.8816 57.5178 94.5905 57.6633L92.1168 59.1184C91.8257 59.264 91.5347 59.555 91.3892 59.7005V49.8054C91.2437 48.7868 91.8257 47.7682 92.6988 47.1861ZM86.8782 43.6937L87.6058 43.1117L88.3333 43.6937C89.2064 44.4213 89.7885 45.4399 89.7885 46.6041V57.6633C89.643 57.5178 89.3519 57.2267 89.2064 57.0812L88.0423 56.2081C87.7513 56.0626 87.4602 56.0626 87.1692 56.2081L86.0051 57.0812C85.8596 57.2267 85.5685 57.3722 85.423 57.6633V46.6041C85.423 45.4399 86.0051 44.4213 86.8782 43.6937ZM76.692 45.4399C76.692 44.4213 77.2741 43.4027 78.1472 42.8206L80.33 41.6565L82.5127 42.8206C83.3858 43.4027 83.9679 44.4213 83.9679 45.4399V56.7902C83.6768 56.4992 83.5313 56.3536 83.2403 56.2081L80.7665 54.753C80.4755 54.6074 80.3299 54.6074 80.0389 54.753L77.5651 56.2081C77.2741 56.3536 76.9831 56.6447 76.8376 56.7902V45.4399H76.692ZM70.8714 46.6041C70.8714 45.4399 71.4535 44.4213 72.3266 43.6937L73.0541 43.1117L73.7817 43.6937C74.6548 44.4213 75.2369 45.4399 75.2369 46.6041V57.6633C75.0914 57.5178 74.8003 57.2267 74.6548 57.0812L73.4907 56.2081C73.1997 56.0626 72.9086 56.0626 72.6176 56.2081L71.4535 57.0812C71.308 57.2267 71.0169 57.3722 70.8714 57.6633V46.6041ZM62.1404 49.8054C62.1404 48.7868 62.7225 47.7682 63.5956 47.1861L65.7783 46.022L67.9611 47.1861C68.8342 47.7682 69.4162 48.7868 69.4162 49.8054V59.7005C69.1252 59.4095 68.9797 59.264 68.6887 59.1184L66.2149 57.6633C65.9239 57.5178 65.7783 57.5178 65.4873 57.6633L63.0135 59.1184C62.7225 59.264 62.4315 59.555 62.286 59.7005V49.8054H62.1404ZM56.3198 52.4247C56.3198 51.2606 56.9019 50.242 57.775 49.5144L58.5025 48.9323L59.2301 49.5144C60.1032 50.242 60.6853 51.2606 60.6853 52.4247V62.0288C60.5398 61.8832 60.2487 61.5922 60.1032 61.4467L58.9391 60.5736C58.6481 60.4281 58.357 60.4281 58.066 60.5736L56.9019 61.4467C56.7563 61.5922 56.4653 61.7377 56.3198 62.0288V52.4247ZM51.9543 53.8799L52.6819 53.2978L53.4095 53.8799C54.2826 54.6074 54.8646 55.6261 54.8646 56.7902V63.4839C54.7191 63.3384 54.4281 63.0474 54.2826 62.9019L53.1184 62.0288C52.8274 61.8832 52.5364 61.8832 52.2453 62.0288L51.0812 62.9019C50.9357 63.0474 50.6447 63.1929 50.4992 63.4839V56.7902C50.4992 55.6261 51.0812 54.6074 51.9543 53.8799ZM43.2233 61.7377L45.4061 60.5736L47.5888 61.7377C48.4619 62.3198 49.044 63.3384 49.044 64.357V66.9763C48.753 66.6853 48.6074 66.5398 48.3164 66.3942L45.8426 64.9391C45.5516 64.7936 45.4061 64.7936 45.1151 64.9391L42.6413 66.3942C42.3503 66.5398 42.0592 66.8308 41.9137 66.9763V64.357C41.7682 63.3384 42.3503 62.3198 43.2233 61.7377ZM37.4027 68.4315L38.1303 67.8494L38.8579 68.4315C39.731 69.1591 40.313 70.1777 40.313 71.3418V78.0355C40.1675 77.89 39.8765 77.599 39.731 77.4535L38.5668 76.5804C38.2758 76.4349 37.9848 76.4349 37.6937 76.5804L36.5296 77.4535C36.3841 77.599 36.0931 77.7445 35.9475 78.0355V71.3418C35.9475 70.1777 36.5296 69.1591 37.4027 68.4315ZM35.9475 99.7174H40.313V121.545H35.9475V99.7174Z" fill="#1687A7"/>
<path d="M43.9509 73.5245H46.8613C47.2978 73.5245 47.5888 73.2335 47.5888 72.797V70.0321C47.5888 69.3046 47.1523 68.7225 46.5702 68.286L45.6971 67.8494C45.4061 67.7039 45.2606 67.7039 44.9695 67.8494L44.242 68.286C43.6599 68.577 43.2233 69.3046 43.2233 70.0321V72.797C43.2233 73.2335 43.5144 73.5245 43.9509 73.5245ZM44.6785 70.0321C44.6785 69.8866 44.824 69.7411 44.9695 69.5956L45.4061 69.3046L45.8426 69.5956C45.9882 69.7411 46.1337 69.8866 46.1337 70.0321V72.0694H44.6785V70.0321ZM81.4941 87.203L80.621 86.7665C80.3299 86.621 80.1844 86.621 79.8934 86.7665L79.1658 87.203C78.5838 87.4941 78.1472 88.2217 78.1472 88.9492V91.714C78.1472 92.1506 78.4382 92.4416 78.8748 92.4416H81.7851C82.2217 92.4416 82.5127 92.1506 82.5127 91.714V88.9492C82.5127 88.2217 82.0761 87.4941 81.4941 87.203ZM81.0575 90.9865H79.6024V88.9492C79.6024 88.8037 79.7479 88.6582 79.8934 88.5127L80.33 88.2217L80.7665 88.5127C80.912 88.6582 81.0575 88.8037 81.0575 88.9492V90.9865ZM81.4941 58.0998L80.621 57.6633C80.3299 57.5178 80.1844 57.5178 79.8934 57.6633L79.1658 58.0998C78.5838 58.3909 78.1472 59.1184 78.1472 59.846V62.6108C78.1472 63.0474 78.4382 63.3384 78.8748 63.3384H81.7851C82.2217 63.3384 82.5127 63.0474 82.5127 62.6108V59.846C82.5127 59.1184 82.0761 58.3909 81.4941 58.0998ZM81.0575 61.8832H79.6024V59.846C79.6024 59.7005 79.7479 59.555 79.8934 59.4095L80.33 59.1184L80.7665 59.4095C80.912 59.555 81.0575 59.7005 81.0575 59.846V61.8832ZM78.8748 48.7868H81.7851C82.2217 48.7868 82.5127 48.4958 82.5127 48.0592V45.2944C82.5127 44.5668 82.0761 43.9848 81.4941 43.5482L80.621 43.1117C80.3299 42.9662 80.1844 42.9662 79.8934 43.1117L79.1658 43.5482C78.5838 43.8393 78.1472 44.5668 78.1472 45.2944V48.0592C78.1472 48.4958 78.4382 48.7868 78.8748 48.7868ZM79.6024 45.2944C79.6024 45.1489 79.7479 45.0034 79.8934 44.8579L80.33 44.5668L80.7665 44.8579C80.912 45.0034 81.0575 45.1489 81.0575 45.2944V47.3316H79.6024V45.2944ZM93.4264 53.1523H96.3367C96.7733 53.1523 97.0643 52.8613 97.0643 52.4247V49.6599C97.0643 48.9323 96.6277 48.3503 96.0457 47.9137L95.1726 47.4772C94.8816 47.3316 94.736 47.3316 94.445 47.4772L93.7174 47.9137C93.1354 48.2047 92.6988 48.9323 92.6988 49.6599V52.4247C92.6988 52.8613 92.9898 53.1523 93.4264 53.1523ZM94.154 49.6599C94.154 49.5144 94.2995 49.3689 94.445 49.2233L94.8816 48.9323L95.3181 49.2233C95.4636 49.3689 95.6091 49.5144 95.6091 49.6599V51.6971H94.154V49.6599ZM96.0457 61.0102L95.1726 60.5736C94.8816 60.4281 94.736 60.4281 94.445 60.5736L93.7174 61.0102C93.1354 61.3012 92.6988 62.0288 92.6988 62.7563V65.5211C92.6988 65.9577 92.9898 66.2487 93.4264 66.2487H96.3367C96.7733 66.2487 97.0643 65.9577 97.0643 65.5211V62.7563C97.0643 62.0288 96.6277 61.3012 96.0457 61.0102ZM95.6091 64.7936H94.154V62.7563C94.154 62.6108 94.2995 62.4653 94.445 62.3198L94.8816 62.0288L95.3181 62.3198C95.4636 62.4653 95.6091 62.6108 95.6091 62.7563V64.7936ZM96.0457 87.203L95.1726 86.7665C94.8816 86.621 94.736 86.621 94.445 86.7665L93.7174 87.203C93.1354 87.4941 92.6988 88.2217 92.6988 88.9492V91.714C92.6988 92.1506 92.9898 92.4416 93.4264 92.4416H96.3367C96.7733 92.4416 97.0643 92.1506 97.0643 91.714V88.9492C97.0643 88.2217 96.6277 87.4941 96.0457 87.203ZM95.6091 90.9865H94.154V88.9492C94.154 88.8037 94.2995 88.6582 94.445 88.5127L94.8816 88.2217L95.3181 88.5127C95.4636 88.6582 95.6091 88.8037 95.6091 88.9492V90.9865ZM64.3232 53.1523H67.2335C67.6701 53.1523 67.9611 52.8613 67.9611 52.4247V49.6599C67.9611 48.9323 67.5245 48.3503 66.9425 47.9137L66.0694 47.4772C65.7783 47.3316 65.6328 47.3316 65.3418 47.4772L64.6142 47.9137C64.0322 48.2047 63.5956 48.9323 63.5956 49.6599V52.4247C63.5956 52.8613 63.8866 53.1523 64.3232 53.1523ZM65.0508 49.6599C65.0508 49.5144 65.1963 49.3689 65.3418 49.2233L65.7783 48.9323L66.2149 49.2233C66.3604 49.3689 66.5059 49.5144 66.5059 49.6599V51.6971H65.0508V49.6599ZM66.9425 61.0102L66.0694 60.5736C65.7783 60.4281 65.6328 60.4281 65.3418 60.5736L64.6142 61.0102C64.0322 61.3012 63.5956 62.0288 63.5956 62.7563V65.5211C63.5956 65.9577 63.8866 66.2487 64.3232 66.2487H67.2335C67.6701 66.2487 67.9611 65.9577 67.9611 65.5211V62.7563C67.9611 62.0288 67.5245 61.3012 66.9425 61.0102ZM66.5059 64.7936H65.0508V62.7563C65.0508 62.6108 65.1963 62.4653 65.3418 62.3198L65.7783 62.0288L66.2149 62.3198C66.3604 62.4653 66.5059 62.6108 66.5059 62.7563V64.7936ZM66.9425 87.203L66.0694 86.7665C65.7783 86.621 65.6328 86.621 65.3418 86.7665L64.6142 87.203C64.0322 87.4941 63.5956 88.2217 63.5956 88.9492V91.714C63.5956 92.1506 63.8866 92.4416 64.3232 92.4416H67.2335C67.6701 92.4416 67.9611 92.1506 67.9611 91.714V88.9492C67.9611 88.2217 67.5245 87.4941 66.9425 87.203ZM66.5059 90.9865H65.0508V88.9492C65.0508 88.8037 65.1963 88.6582 65.3418 88.5127L65.7783 88.2217L66.2149 88.5127C66.3604 88.6582 66.5059 88.8037 66.5059 88.9492V90.9865ZM116.418 88.6582L115.545 88.2217C115.254 88.0761 115.108 88.0761 114.817 88.2217L114.09 88.6582C113.508 88.9492 113.071 89.6768 113.071 90.4044V93.1692C113.071 93.6058 113.362 93.8968 113.799 93.8968H116.709C117.146 93.8968 117.437 93.6058 117.437 93.1692V90.4044C117.437 89.6768 117 88.9492 116.418 88.6582ZM115.981 92.4416H114.526V90.4044C114.526 90.2589 114.672 90.1134 114.817 89.9678L115.254 89.6768L115.69 89.9678C115.836 90.1134 115.981 90.2589 115.981 90.4044V92.4416ZM116.418 68.286L115.545 67.8494C115.254 67.7039 115.108 67.7039 114.817 67.8494L114.09 68.286C113.508 68.577 113.071 69.3046 113.071 70.0321V72.797C113.071 73.2335 113.362 73.5245 113.799 73.5245H116.709C117.146 73.5245 117.437 73.2335 117.437 72.797V70.0321C117.437 69.3046 117 68.577 116.418 68.286ZM115.981 72.0694H114.526V70.0321C114.526 69.8866 114.672 69.7411 114.817 69.5956L115.254 69.3046L115.69 69.5956C115.836 69.7411 115.981 69.8866 115.981 70.0321V72.0694ZM67.2335 108.448H64.3232C63.8866 108.448 63.5956 108.739 63.5956 109.176V114.997C63.5956 115.433 63.8866 115.724 64.3232 115.724H67.2335C67.6701 115.724 67.9611 115.433 67.9611 114.997V109.176C67.9611 108.739 67.6701 108.448 67.2335 108.448ZM66.5059 114.269H65.0508V109.904H66.5059V114.269ZM46.8613 108.448H43.9509C43.5144 108.448 43.2233 108.739 43.2233 109.176V114.997C43.2233 115.433 43.5144 115.724 43.9509 115.724H46.8613C47.2978 115.724 47.5888 115.433 47.5888 114.997V109.176C47.5888 108.739 47.2978 108.448 46.8613 108.448ZM46.1337 114.269H44.6785V109.904H46.1337V114.269ZM81.7851 108.448H78.8748C78.4382 108.448 78.1472 108.739 78.1472 109.176V114.997C78.1472 115.433 78.4382 115.724 78.8748 115.724H81.7851C82.2217 115.724 82.5127 115.433 82.5127 114.997V109.176C82.5127 108.739 82.2217 108.448 81.7851 108.448ZM81.0575 114.269H79.6024V109.904H81.0575V114.269ZM96.3367 108.448H93.4264C92.9898 108.448 92.6988 108.739 92.6988 109.176V114.997C92.6988 115.433 92.9898 115.724 93.4264 115.724H96.3367C96.7733 115.724 97.0643 115.433 97.0643 114.997V109.176C97.0643 108.739 96.7733 108.448 96.3367 108.448ZM95.6091 114.269H94.154V109.904H95.6091V114.269ZM116.709 108.448H113.799C113.362 108.448 113.071 108.739 113.071 109.176V114.997C113.071 115.433 113.362 115.724 113.799 115.724H116.709C117.146 115.724 117.437 115.433 117.437 114.997V109.176C117.437 108.739 117.146 108.448 116.709 108.448ZM115.981 114.269H114.526V109.904H115.981V114.269ZM46.5702 88.6582L45.6971 88.2217C45.4061 88.0761 45.2606 88.0761 44.9695 88.2217L44.242 88.6582C43.6599 88.9492 43.2233 89.6768 43.2233 90.4044V93.1692C43.2233 93.6058 43.5144 93.8968 43.9509 93.8968H46.8613C47.2978 93.8968 47.5888 93.6058 47.5888 93.1692V90.4044C47.5888 89.6768 47.1523 88.9492 46.5702 88.6582ZM46.1337 92.4416H44.6785V90.4044C44.6785 90.2589 44.824 90.1134 44.9695 89.9678L45.4061 89.6768L45.8426 89.9678C45.9882 90.1134 46.1337 90.2589 46.1337 90.4044V92.4416ZM43.9509 83.7107H46.8613C47.2978 83.7107 47.5888 83.4196 47.5888 82.9831V80.2183C47.5888 79.4907 47.1523 78.9086 46.5702 78.4721L45.6971 78.0355C45.4061 77.89 45.2606 77.89 44.9695 78.0355L44.242 78.4721C43.6599 78.7631 43.2233 79.4907 43.2233 80.2183V82.9831C43.2233 83.4196 43.5144 83.7107 43.9509 83.7107ZM44.6785 80.2183C44.6785 80.0728 44.824 79.9272 44.9695 79.7817L45.4061 79.4907L45.8426 79.7817C45.9882 79.9272 46.1337 80.0728 46.1337 80.2183V82.2555H44.6785V80.2183ZM81.4941 72.6514L80.621 72.2149C80.3299 72.0694 80.1844 72.0694 79.8934 72.2149L79.1658 72.6514C78.5838 72.9425 78.1472 73.67 78.1472 74.3976V77.1624C78.1472 77.599 78.4382 77.89 78.8748 77.89H81.7851C82.2217 77.89 82.5127 77.599 82.5127 77.1624V74.3976C82.5127 73.67 82.0761 72.9425 81.4941 72.6514ZM81.0575 76.4349H79.6024V74.3976C79.6024 74.2521 79.7479 74.1066 79.8934 73.9611L80.33 73.67L80.7665 73.9611C80.912 74.1066 81.0575 74.2521 81.0575 74.3976V76.4349ZM96.0457 74.1066L95.1726 73.67C94.8816 73.5245 94.736 73.5245 94.445 73.67L93.7174 74.1066C93.1354 74.3976 92.6988 75.1252 92.6988 75.8528V78.6176C92.6988 79.0541 92.9898 79.3452 93.4264 79.3452H96.3367C96.7733 79.3452 97.0643 79.0541 97.0643 78.6176V75.8528C97.0643 75.1252 96.6277 74.3976 96.0457 74.1066ZM95.6091 77.89H94.154V75.8528C94.154 75.7073 94.2995 75.5618 94.445 75.4162L94.8816 75.1252L95.3181 75.4162C95.4636 75.5618 95.6091 75.7073 95.6091 75.8528V77.89ZM66.9425 74.1066L66.0694 73.67C65.7783 73.5245 65.6328 73.5245 65.3418 73.67L64.6142 74.1066C64.0322 74.3976 63.5956 75.1252 63.5956 75.8528V78.6176C63.5956 79.0541 63.8866 79.3452 64.3232 79.3452H67.2335C67.6701 79.3452 67.9611 79.0541 67.9611 78.6176V75.8528C67.9611 75.1252 67.5245 74.3976 66.9425 74.1066ZM66.5059 77.89H65.0508V75.8528C65.0508 75.7073 65.1963 75.5618 65.3418 75.4162L65.7783 75.1252L66.2149 75.4162C66.3604 75.5618 66.5059 75.7073 66.5059 75.8528V77.89ZM116.418 78.4721L115.545 78.0355C115.254 77.89 115.108 77.89 114.817 78.0355L114.09 78.4721C113.508 78.7631 113.071 79.4907 113.071 80.2183V82.9831C113.071 83.4196 113.362 83.7107 113.799 83.7107H116.709C117.146 83.7107 117.437 83.4196 117.437 82.9831V80.2183C117.437 79.4907 117 78.7631 116.418 78.4721ZM115.981 82.2555H114.526V80.2183C114.526 80.0728 114.672 79.9272 114.817 79.7817L115.254 79.4907L115.69 79.7817C115.836 79.9272 115.981 80.0728 115.981 80.2183V82.2555ZM87.6058 60.4281C87.1692 60.4281 86.8782 60.7191 86.8782 61.1557V66.9763C86.8782 67.4129 87.1692 67.7039 87.6058 67.7039C88.0423 67.7039 88.3333 67.4129 88.3333 66.9763V61.1557C88.3333 60.7191 88.0423 60.4281 87.6058 60.4281ZM87.6058 73.5245C87.1692 73.5245 86.8782 73.8156 86.8782 74.2521V81.5279C86.8782 81.9645 87.1692 82.2555 87.6058 82.2555C88.0423 82.2555 88.3333 81.9645 88.3333 81.5279V74.2521C88.3333 73.8156 88.0423 73.5245 87.6058 73.5245ZM73.0541 60.4281C72.6176 60.4281 72.3266 60.7191 72.3266 61.1557V66.9763C72.3266 67.4129 72.6176 67.7039 73.0541 67.7039C73.4907 67.7039 73.7817 67.4129 73.7817 66.9763V61.1557C73.7817 60.7191 73.4907 60.4281 73.0541 60.4281ZM87.6058 54.6074C88.0423 54.6074 88.3333 54.3164 88.3333 53.8799V46.6041C88.3333 46.1675 88.0423 45.8765 87.6058 45.8765C87.1692 45.8765 86.8782 46.1675 86.8782 46.6041V53.8799C86.8782 54.3164 87.1692 54.6074 87.6058 54.6074ZM73.0541 54.6074C73.4907 54.6074 73.7817 54.3164 73.7817 53.8799V46.6041C73.7817 46.1675 73.4907 45.8765 73.0541 45.8765C72.6176 45.8765 72.3266 46.1675 72.3266 46.6041V53.8799C72.3266 54.3164 72.6176 54.6074 73.0541 54.6074ZM73.0541 73.5245C72.6176 73.5245 72.3266 73.8156 72.3266 74.2521V81.5279C72.3266 81.9645 72.6176 82.2555 73.0541 82.2555C73.4907 82.2555 73.7817 81.9645 73.7817 81.5279V74.2521C73.7817 73.8156 73.4907 73.5245 73.0541 73.5245ZM58.5025 64.7936C58.066 64.7936 57.775 65.0846 57.775 65.5211V69.8866C57.775 70.3232 58.066 70.6142 58.5025 70.6142C58.9391 70.6142 59.2301 70.3232 59.2301 69.8866V65.5211C59.2301 65.0846 58.9391 64.7936 58.5025 64.7936ZM58.5025 76.4349C58.066 76.4349 57.775 76.7259 57.775 77.1624V81.5279C57.775 81.9645 58.066 82.2555 58.5025 82.2555C58.9391 82.2555 59.2301 81.9645 59.2301 81.5279V77.1624C59.2301 76.7259 58.9391 76.4349 58.5025 76.4349ZM52.6819 66.2487C52.2453 66.2487 51.9543 66.5398 51.9543 66.9763V71.3418C51.9543 71.7783 52.2453 72.0694 52.6819 72.0694C53.1184 72.0694 53.4095 71.7783 53.4095 71.3418V66.9763C53.4095 66.5398 53.1184 66.2487 52.6819 66.2487ZM58.5025 58.9729C58.9391 58.9729 59.2301 58.6819 59.2301 58.2453V52.4247C59.2301 51.9882 58.9391 51.6971 58.5025 51.6971C58.066 51.6971 57.775 51.9882 57.775 52.4247V58.2453C57.775 58.6819 58.066 58.9729 58.5025 58.9729ZM52.6819 60.4281C53.1184 60.4281 53.4095 60.1371 53.4095 59.7005V56.7902C53.4095 56.3536 53.1184 56.0626 52.6819 56.0626C52.2453 56.0626 51.9543 56.3536 51.9543 56.7902V59.7005C51.9543 60.1371 52.2453 60.4281 52.6819 60.4281ZM52.6819 77.89C52.2453 77.89 51.9543 78.181 51.9543 78.6176V81.5279C51.9543 81.9645 52.2453 82.2555 52.6819 82.2555C53.1184 82.2555 53.4095 81.9645 53.4095 81.5279V78.6176C53.4095 78.181 53.1184 77.89 52.6819 77.89ZM38.1303 74.9797C38.5668 74.9797 38.8579 74.6887 38.8579 74.2521V71.3418C38.8579 70.9052 38.5668 70.6142 38.1303 70.6142C37.6937 70.6142 37.4027 70.9052 37.4027 71.3418V74.2521C37.4027 74.6887 37.6937 74.9797 38.1303 74.9797ZM38.1303 85.1658C38.5668 85.1658 38.8579 84.8748 38.8579 84.4382V81.5279C38.8579 81.0914 38.5668 80.8003 38.1303 80.8003C37.6937 80.8003 37.4027 81.0914 37.4027 81.5279V84.4382C37.4027 84.8748 37.6937 85.1658 38.1303 85.1658ZM38.1303 90.9865C37.6937 90.9865 37.4027 91.2775 37.4027 91.714V96.0795C37.4027 96.5161 37.6937 96.8071 38.1303 96.8071C38.5668 96.8071 38.8579 96.5161 38.8579 96.0795V91.714C38.8579 91.2775 38.5668 90.9865 38.1303 90.9865ZM52.6819 104.083C52.2453 104.083 51.9543 104.374 51.9543 104.81V116.452C51.9543 116.888 52.2453 117.179 52.6819 117.179C53.1184 117.179 53.4095 116.888 53.4095 116.452V104.81C53.4095 104.374 53.1184 104.083 52.6819 104.083ZM58.5025 104.083C58.066 104.083 57.775 104.374 57.775 104.81V116.452C57.775 116.888 58.066 117.179 58.5025 117.179C58.9391 117.179 59.2301 116.888 59.2301 116.452V104.81C59.2301 104.374 58.9391 104.083 58.5025 104.083ZM73.0541 104.083C72.6176 104.083 72.3266 104.374 72.3266 104.81V116.452C72.3266 116.888 72.6176 117.179 73.0541 117.179C73.4907 117.179 73.7817 116.888 73.7817 116.452V104.81C73.7817 104.374 73.4907 104.083 73.0541 104.083ZM122.53 80.8003C122.093 80.8003 121.802 81.0914 121.802 81.5279V84.4382C121.802 84.8748 122.093 85.1658 122.53 85.1658C122.966 85.1658 123.257 84.8748 123.257 84.4382V81.5279C123.257 81.0914 122.966 80.8003 122.53 80.8003ZM122.53 90.9865C122.093 90.9865 121.802 91.2775 121.802 91.714V96.0795C121.802 96.5161 122.093 96.8071 122.53 96.8071C122.966 96.8071 123.257 96.5161 123.257 96.0795V91.714C123.257 91.2775 122.966 90.9865 122.53 90.9865ZM38.1303 104.083C37.6937 104.083 37.4027 104.374 37.4027 104.81V116.452C37.4027 116.888 37.6937 117.179 38.1303 117.179C38.5668 117.179 38.8579 116.888 38.8579 116.452V104.81C38.8579 104.374 38.5668 104.083 38.1303 104.083ZM87.6058 104.083C87.1692 104.083 86.8782 104.374 86.8782 104.81V116.452C86.8782 116.888 87.1692 117.179 87.6058 117.179C88.0423 117.179 88.3333 116.888 88.3333 116.452V104.81C88.3333 104.374 88.0423 104.083 87.6058 104.083ZM102.157 104.083C101.721 104.083 101.43 104.374 101.43 104.81V116.452C101.43 116.888 101.721 117.179 102.157 117.179C102.594 117.179 102.885 116.888 102.885 116.452V104.81C102.885 104.374 102.594 104.083 102.157 104.083ZM107.978 104.083C107.541 104.083 107.25 104.374 107.25 104.81V116.452C107.25 116.888 107.541 117.179 107.978 117.179C108.415 117.179 108.706 116.888 108.706 116.452V104.81C108.706 104.374 108.415 104.083 107.978 104.083ZM122.53 104.083C122.093 104.083 121.802 104.374 121.802 104.81V116.452C121.802 116.888 122.093 117.179 122.53 117.179C122.966 117.179 123.257 116.888 123.257 116.452V104.81C123.257 104.374 122.966 104.083 122.53 104.083ZM87.6058 88.0761C87.1692 88.0761 86.8782 88.3672 86.8782 88.8037V96.0795C86.8782 96.5161 87.1692 96.8071 87.6058 96.8071C88.0423 96.8071 88.3333 96.5161 88.3333 96.0795V88.8037C88.3333 88.3672 88.0423 88.0761 87.6058 88.0761ZM73.0541 88.0761C72.6176 88.0761 72.3266 88.3672 72.3266 88.8037V96.0795C72.3266 96.5161 72.6176 96.8071 73.0541 96.8071C73.4907 96.8071 73.7817 96.5161 73.7817 96.0795V88.8037C73.7817 88.3672 73.4907 88.0761 73.0541 88.0761ZM58.5025 88.0761C58.066 88.0761 57.775 88.3672 57.775 88.8037V96.0795C57.775 96.5161 58.066 96.8071 58.5025 96.8071C58.9391 96.8071 59.2301 96.5161 59.2301 96.0795V88.8037C59.2301 88.3672 58.9391 88.0761 58.5025 88.0761ZM52.6819 88.0761C52.2453 88.0761 51.9543 88.3672 51.9543 88.8037V96.0795C51.9543 96.5161 52.2453 96.8071 52.6819 96.8071C53.1184 96.8071 53.4095 96.5161 53.4095 96.0795V88.8037C53.4095 88.3672 53.1184 88.0761 52.6819 88.0761ZM122.53 74.9797C122.966 74.9797 123.257 74.6887 123.257 74.2521V71.3418C123.257 70.9052 122.966 70.6142 122.53 70.6142C122.093 70.6142 121.802 70.9052 121.802 71.3418V74.2521C121.802 74.6887 122.093 74.9797 122.53 74.9797ZM102.157 64.7936C101.721 64.7936 101.43 65.0846 101.43 65.5211V69.8866C101.43 70.3232 101.721 70.6142 102.157 70.6142C102.594 70.6142 102.885 70.3232 102.885 69.8866V65.5211C102.885 65.0846 102.594 64.7936 102.157 64.7936ZM102.157 76.4349C101.721 76.4349 101.43 76.7259 101.43 77.1624V81.5279C101.43 81.9645 101.721 82.2555 102.157 82.2555C102.594 82.2555 102.885 81.9645 102.885 81.5279V77.1624C102.885 76.7259 102.594 76.4349 102.157 76.4349ZM102.157 88.0761C101.721 88.0761 101.43 88.3672 101.43 88.8037V96.0795C101.43 96.5161 101.721 96.8071 102.157 96.8071C102.594 96.8071 102.885 96.5161 102.885 96.0795V88.8037C102.885 88.3672 102.594 88.0761 102.157 88.0761ZM107.978 66.2487C107.541 66.2487 107.25 66.5398 107.25 66.9763V71.3418C107.25 71.7783 107.541 72.0694 107.978 72.0694C108.415 72.0694 108.706 71.7783 108.706 71.3418V66.9763C108.706 66.5398 108.415 66.2487 107.978 66.2487ZM102.157 58.9729C102.594 58.9729 102.885 58.6819 102.885 58.2453V52.4247C102.885 51.9882 102.594 51.6971 102.157 51.6971C101.721 51.6971 101.43 51.9882 101.43 52.4247V58.2453C101.43 58.6819 101.721 58.9729 102.157 58.9729ZM107.978 60.4281C108.415 60.4281 108.706 60.1371 108.706 59.7005V56.7902C108.706 56.3536 108.415 56.0626 107.978 56.0626C107.541 56.0626 107.25 56.3536 107.25 56.7902V59.7005C107.25 60.1371 107.541 60.4281 107.978 60.4281ZM107.978 77.89C107.541 77.89 107.25 78.181 107.25 78.6176V81.5279C107.25 81.9645 107.541 82.2555 107.978 82.2555C108.415 82.2555 108.706 81.9645 108.706 81.5279V78.6176C108.706 78.181 108.415 77.89 107.978 77.89ZM107.978 88.0761C107.541 88.0761 107.25 88.3672 107.25 88.8037V96.0795C107.25 96.5161 107.541 96.8071 107.978 96.8071C108.415 96.8071 108.706 96.5161 108.706 96.0795V88.8037C108.706 88.3672 108.415 88.0761 107.978 88.0761Z" fill="#1687A7"/>
</svg>
