<svg width="176" height="176" viewBox="0 0 176 176" fill="none" xmlns="http://www.w3.org/2000/svg">
<g filter="url(#filter0_d)">
<rect x="8" y="8" width="160" height="160" fill="white"/>
</g>
<path d="M138.162 86.1663C138.686 86.1663 139.035 85.8171 139.035 85.2931V80.0541C139.035 79.5301 138.686 79.1809 138.162 79.1809H135.543V67.8295C135.543 67.3056 135.193 66.9563 134.669 66.9563H133.796V58.2245H134.669C135.193 58.2245 135.543 57.8753 135.543 57.3514C135.543 56.8274 135.193 56.4782 134.669 56.4782H133.796V55.0811C133.796 53.1601 132.923 51.4137 131.177 50.3659L130.304 49.842V46.8732C130.304 46.3493 129.954 46 129.43 46C128.906 46 128.557 46.3493 128.557 46.8732V49.842L127.684 50.5405C126.112 51.5884 125.064 53.3347 125.064 55.2557V56.6528H124.191C123.667 56.6528 123.318 57.0021 123.318 57.526C123.318 58.0499 123.667 58.3992 124.191 58.3992H125.064V61.7173C124.89 61.7173 124.89 61.5426 124.715 61.5426L124.191 60.8441V59.9709C124.191 59.447 123.842 59.0977 123.318 59.0977C122.794 59.0977 122.445 59.447 122.445 59.9709V60.8441L121.746 61.1933C121.222 61.5426 120.873 61.8919 120.699 62.2412C120.349 61.8919 120 61.368 119.476 61.1933L118.952 60.8441V59.9709C118.952 59.447 118.603 59.0977 118.079 59.0977C117.555 59.0977 117.206 59.447 117.206 59.9709V60.8441L116.507 61.1933C115.983 61.5426 115.634 61.8919 115.459 62.2412C115.11 61.8919 114.761 61.368 114.237 61.1933L113.713 60.8441V59.9709C113.713 59.447 113.364 59.0977 112.84 59.0977C112.316 59.0977 111.967 59.447 111.967 59.9709V60.8441L111.268 61.1933C110.744 61.5426 110.395 61.8919 110.22 62.2412C109.871 61.8919 109.522 61.368 108.998 61.1933L108.474 60.8441V59.9709C108.474 59.447 108.125 59.0977 107.601 59.0977C107.077 59.0977 106.728 59.447 106.728 59.9709V60.8441L106.029 61.1933C105.505 61.5426 105.156 61.8919 104.981 62.2412C104.632 61.8919 104.283 61.368 103.759 61.1933L103.235 60.8441V59.9709C103.235 59.447 102.886 59.0977 102.362 59.0977C101.838 59.0977 101.489 59.447 101.489 59.9709V60.8441L100.79 61.1933C99.5676 62.0665 98.869 63.289 98.869 64.8607V66.7817H96.2495V59.447C96.2495 57.7006 95.2017 56.1289 93.4553 55.605C93.4553 55.605 93.4553 55.605 93.4553 55.4304V54.5572C93.4553 54.0333 93.106 53.684 92.5821 53.684C92.0582 53.684 91.7089 54.0333 91.7089 54.5572V55.605H88.2162V54.7318C88.2162 54.2079 87.8669 53.8586 87.343 53.8586C86.8191 53.8586 86.4699 54.2079 86.4699 54.7318V55.605H82.9771V54.7318C82.9771 54.2079 82.6279 53.8586 82.104 53.8586C81.58 53.8586 81.2308 54.2079 81.2308 54.7318V55.7796C79.659 56.4782 78.6112 57.8753 78.6112 59.6216V66.7817H75.9917V64.8607C75.9917 63.289 75.2931 62.0665 73.8961 61.1933L73.5468 60.8441V59.9709C73.5468 59.447 73.1975 59.0977 72.6736 59.0977C72.1497 59.0977 71.8004 59.447 71.8004 59.9709V60.8441L71.1019 61.1933C70.578 61.5426 70.2287 61.8919 70.0541 62.2412C69.7048 61.8919 69.3555 61.368 68.8316 61.1933L68.3077 60.8441V59.9709C68.3077 59.447 67.9584 59.0977 67.4345 59.0977C66.9106 59.0977 66.5613 59.447 66.5613 59.9709V60.8441L65.8628 61.1933C65.3389 61.5426 64.9896 61.8919 64.815 62.2412C64.4657 61.8919 64.1164 61.368 63.5925 61.1933L63.0686 60.8441V59.9709C63.0686 59.447 62.7193 59.0977 62.1954 59.0977C61.6715 59.0977 61.3222 59.447 61.3222 59.9709V60.8441L60.6237 61.1933C60.0998 61.5426 59.7505 61.8919 59.5759 62.2412C59.2266 61.8919 58.8773 61.368 58.3534 61.1933L57.8295 60.8441V59.9709C57.8295 59.447 57.4803 59.0977 56.9563 59.0977C56.4324 59.0977 56.0832 59.447 56.0832 59.9709V60.8441L55.3846 61.1933C54.8607 61.5426 54.5114 61.8919 54.3368 62.2412C53.9875 61.8919 53.6383 61.368 53.1143 61.1933L52.5904 60.8441V59.9709C52.5904 59.447 52.2412 59.0977 51.7173 59.0977C51.1933 59.0977 50.8441 59.447 50.8441 59.9709V60.8441L50.1455 61.1933C49.9709 61.1933 49.9709 61.368 49.9709 61.368V58.0499H50.8441C51.368 58.0499 51.7173 57.7006 51.7173 57.1767C51.7173 56.6528 51.368 56.3035 50.8441 56.3035H49.9709V54.9064C49.9709 52.9854 49.0977 51.2391 47.3514 50.1913L46.4782 49.6674V46.8732C46.4782 46.3493 46.1289 46 45.605 46C45.0811 46 44.7318 46.3493 44.7318 46.8732V49.842L43.8586 50.5405C42.2869 51.5884 41.2391 53.3347 41.2391 55.2557V56.6528H40.3659C39.842 56.6528 39.4927 57.0021 39.4927 57.526C39.4927 58.0499 39.842 58.3992 40.3659 58.3992H41.2391V67.131H40.3659C39.842 67.131 39.4927 67.4802 39.4927 68.0042V79.3555H36.8732C36.3493 79.3555 36 79.7048 36 80.2287V85.4678C36 85.9917 36.3493 86.341 36.8732 86.341H39.4927V128.254H36.8732C36.3493 128.254 36 128.603 36 129.127C36 129.651 36.3493 130 36.8732 130H138.162C138.686 130 139.035 129.651 139.035 129.127C139.035 128.603 138.686 128.254 138.162 128.254H135.543V86.341H138.162V86.1663ZM128.557 51.9376L129.43 51.4137L130.304 51.9376C131.351 52.6362 132.05 53.8586 132.05 55.0811V56.4782H126.811V55.0811C126.811 53.8586 127.509 52.6362 128.557 51.9376ZM132.05 58.2245V66.9563H130.304V62.5904C130.304 62.0665 129.954 61.7173 129.43 61.7173C128.906 61.7173 128.557 62.0665 128.557 62.5904V66.9563H126.811V58.2245H132.05ZM122.794 62.7651L123.318 62.4158L123.842 62.7651C124.541 63.289 125.064 63.9875 125.064 65.0353V66.9563H121.572V65.0353C121.572 63.9875 122.096 63.289 122.794 62.7651ZM117.555 62.7651L118.079 62.4158L118.603 62.7651C119.301 63.289 119.825 63.9875 119.825 65.0353V66.9563H116.333V65.0353C116.333 63.9875 116.857 63.289 117.555 62.7651ZM112.316 62.7651L112.84 62.4158L113.364 62.7651C114.062 63.289 114.586 63.9875 114.586 65.0353V66.9563H111.094V65.0353C111.094 63.9875 111.617 63.289 112.316 62.7651ZM107.077 62.7651L107.601 62.4158L108.125 62.7651C108.823 63.289 109.347 63.9875 109.347 65.0353V66.9563H105.854V65.0353C105.854 63.9875 106.378 63.289 107.077 62.7651ZM100.615 65.0353C100.615 64.1622 101.139 63.289 101.838 62.7651L102.362 62.4158L102.886 62.7651C103.584 63.289 104.108 63.9875 104.108 65.0353V66.9563H100.615V65.0353ZM85.7713 66.9563V65.0353C85.7713 64.1622 86.2952 63.289 86.9938 62.7651L87.5177 62.4158L88.0416 62.7651C88.7401 63.289 89.264 63.9875 89.264 65.0353V66.9563H85.7713ZM80.5322 66.9563V64.6861C80.5322 63.8129 81.0561 63.1143 81.7547 62.7651L82.2786 62.4158L82.8025 62.7651C83.501 63.289 84.025 63.9875 84.025 65.0353V66.9563H80.5322ZM92.0582 62.7651L92.5821 62.4158L93.106 62.7651C93.8046 63.289 94.3285 63.9875 94.3285 65.0353V66.9563H90.8358V65.0353C91.0104 63.9875 91.3597 63.289 92.0582 62.7651ZM82.2786 57.3514H92.5821C93.6299 57.7006 94.5031 58.5738 94.5031 59.6216V61.5426C94.3285 61.368 94.3285 61.368 94.1538 61.1933L93.4553 60.8441V59.9709C93.4553 59.447 93.106 59.0977 92.5821 59.0977C92.0582 59.0977 91.7089 59.447 91.7089 59.9709V60.8441L91.0104 61.1933C90.4865 61.5426 90.1372 61.8919 89.9626 62.2412C89.6133 61.8919 89.264 61.368 88.7401 61.1933L88.2162 60.8441V59.9709C88.2162 59.447 87.8669 59.0977 87.343 59.0977C86.8191 59.0977 86.4699 59.447 86.4699 59.9709V60.8441L85.7713 61.1933C85.2474 61.5426 84.8981 61.8919 84.7235 62.2412C84.3742 61.8919 84.025 61.368 83.501 61.1933L82.9771 60.8441V59.9709C82.9771 59.447 82.6279 59.0977 82.104 59.0977C81.58 59.0977 81.2308 59.447 81.2308 59.9709V60.8441L80.5322 61.1933L80.3576 61.368V59.6216C80.5322 58.5738 81.2308 57.526 82.2786 57.3514ZM72.1497 62.7651L72.6736 62.4158L73.1975 62.7651C73.8961 63.289 74.42 63.9875 74.42 65.0353V66.9563H70.9272V65.0353C70.9272 63.9875 71.4511 63.289 72.1497 62.7651ZM66.9106 62.7651L67.4345 62.4158L67.9584 62.7651C68.657 63.289 69.1809 63.9875 69.1809 65.0353V66.9563H65.6882V65.0353C65.6882 63.9875 66.2121 63.289 66.9106 62.7651ZM61.6715 62.7651L62.1954 62.4158L62.7193 62.7651C63.4179 63.289 63.9418 63.9875 63.9418 65.0353V66.9563H60.4491V65.0353C60.4491 63.9875 60.973 63.289 61.6715 62.7651ZM56.4324 62.7651L56.9563 62.4158L57.4802 62.7651C58.1788 63.289 58.7027 63.9875 58.7027 65.0353V66.9563H55.21V65.0353C55.21 63.9875 55.7339 63.289 56.4324 62.7651ZM51.1933 62.7651L51.7173 62.4158L52.2412 62.7651C52.9397 63.289 53.4636 63.9875 53.4636 65.0353V66.9563H49.9709V65.0353C49.9709 63.9875 50.4948 63.289 51.1933 62.7651ZM44.7318 51.9376L45.605 51.4137L46.4782 51.9376C47.526 52.6362 48.2245 53.8586 48.2245 55.0811V56.4782H42.9854V55.0811C42.9854 53.8586 43.684 52.6362 44.7318 51.9376ZM42.9854 58.2245H48.2245V66.9563H46.4782V62.5904C46.4782 62.0665 46.1289 61.7173 45.605 61.7173C45.0811 61.7173 44.7318 62.0665 44.7318 62.5904V66.9563H42.9854V58.2245ZM41.2391 68.7027H133.796V79.1809H41.2391V68.7027ZM37.7464 84.42V80.9272H137.289V84.42H37.7464ZM123.318 100.137H107.601V86.1663H123.318V100.137ZM91.8836 128.079H83.1518V113.41C83.1518 111.314 84.1996 109.393 85.9459 108.345L87.5177 107.297L89.0894 108.345C90.8358 109.393 91.8836 111.314 91.8836 113.584V128.079ZM89.9626 106.773L88.0416 105.551C87.6923 105.376 87.343 105.376 87.1684 105.551L85.0728 106.773C82.8025 108.17 81.4054 110.615 81.4054 113.41V128.079H79.659V101.884H95.3763V128.079H93.6299V113.41C93.6299 110.79 92.2329 108.17 89.9626 106.773ZM79.659 100.137V86.1663H95.3763V100.137H79.659ZM51.7173 86.1663H67.4345V100.137H51.7173V86.1663ZM69.1809 86.1663H77.9127V100.137H69.1809V86.1663ZM97.1227 86.1663H105.854V100.137H97.1227V86.1663ZM41.2391 86.1663H49.9709V128.079H41.2391V86.1663ZM51.7173 101.884H67.4345V128.079H65.6882V113.41C65.6882 110.79 64.2911 108.17 62.0208 106.773L60.0998 105.551C59.7505 105.376 59.4012 105.376 59.2266 105.551L57.131 106.773C54.8607 108.17 53.4636 110.615 53.4636 113.41V128.079H51.7173V101.884ZM63.9418 128.079H55.21V113.41C55.21 111.314 56.2578 109.393 58.0042 108.345L59.5759 107.297L61.1476 108.345C62.894 109.393 63.9418 111.314 63.9418 113.584V128.079ZM69.1809 128.079V101.884H77.9127V128.079H69.1809ZM97.1227 128.079V101.884H105.854V128.079H97.1227ZM119.825 128.079H111.094V113.41C111.094 111.314 112.141 109.393 113.888 108.345L115.459 107.297L117.031 108.345C118.778 109.393 119.825 111.314 119.825 113.584V128.079ZM121.572 128.079V113.41C121.572 110.79 120.175 108.17 117.904 106.773L115.983 105.551C115.634 105.376 115.285 105.376 115.11 105.551L113.015 106.773C110.744 108.17 109.347 110.615 109.347 113.41V128.079H107.601V101.884H123.318V128.079H121.572ZM133.796 128.079H125.064V86.1663H133.796V128.079Z" fill="#1687A7"/>
<path d="M45.605 115.854C44.2079 115.854 42.9854 117.077 42.9854 118.474V123.713C42.9854 124.237 43.3347 124.586 43.8586 124.586H47.3514C47.8753 124.586 48.2245 124.237 48.2245 123.713V118.474C48.2245 117.077 47.0021 115.854 45.605 115.854ZM46.4782 122.84H44.7318V118.474C44.7318 117.95 45.0811 117.601 45.605 117.601C46.1289 117.601 46.4782 117.95 46.4782 118.474V122.84ZM45.605 70.4491C44.2079 70.4491 42.9854 71.6715 42.9854 73.0686V76.5613C42.9854 77.0852 43.3347 77.4345 43.8586 77.4345H47.3514C47.8753 77.4345 48.2245 77.0852 48.2245 76.5613V73.0686C48.2245 71.6715 47.0021 70.4491 45.605 70.4491ZM46.4782 75.6882H44.7318V73.0686C44.7318 72.5447 45.0811 72.1954 45.605 72.1954C46.1289 72.1954 46.4782 72.5447 46.4782 73.0686V75.6882ZM45.605 103.63C44.2079 103.63 42.9854 104.852 42.9854 106.249V111.489C42.9854 112.012 43.3347 112.362 43.8586 112.362H47.3514C47.8753 112.362 48.2245 112.012 48.2245 111.489V106.249C48.2245 104.852 47.0021 103.63 45.605 103.63ZM46.4782 110.615H44.7318V106.249C44.7318 105.726 45.0811 105.376 45.605 105.376C46.1289 105.376 46.4782 105.726 46.4782 106.249V110.615ZM45.605 89.659C44.2079 89.659 42.9854 90.8815 42.9854 92.2786V97.5177C42.9854 98.0416 43.3347 98.3909 43.8586 98.3909H47.3514C47.8753 98.3909 48.2245 98.0416 48.2245 97.5177V92.2786C48.2245 90.8815 47.0021 89.659 45.605 89.659ZM46.4782 96.6445H44.7318V92.2786C44.7318 91.7547 45.0811 91.4054 45.605 91.4054C46.1289 91.4054 46.4782 91.7547 46.4782 92.2786V96.6445ZM73.5468 89.659C72.1497 89.659 70.9272 90.8815 70.9272 92.2786V97.5177C70.9272 98.0416 71.2765 98.3909 71.8004 98.3909H75.2931C75.8171 98.3909 76.1663 98.0416 76.1663 97.5177V92.2786C76.1663 90.8815 74.9439 89.659 73.5468 89.659ZM74.42 96.6445H72.6736V92.2786C72.6736 91.7547 73.0229 91.4054 73.5468 91.4054C74.0707 91.4054 74.42 91.7547 74.42 92.2786V96.6445ZM56.0832 89.659C54.6861 89.659 53.4636 90.8815 53.4636 92.2786V97.5177C53.4636 98.0416 53.8129 98.3909 54.3368 98.3909H57.8295C58.3534 98.3909 58.7027 98.0416 58.7027 97.5177V92.2786C58.7027 90.8815 57.4803 89.659 56.0832 89.659ZM56.9563 96.6445H55.21V92.2786C55.21 91.7547 55.5593 91.4054 56.0832 91.4054C56.6071 91.4054 56.9563 91.7547 56.9563 92.2786V96.6445ZM63.0686 89.659C61.6715 89.659 60.4491 90.8815 60.4491 92.2786V97.5177C60.4491 98.0416 60.7983 98.3909 61.3222 98.3909H64.815C65.3389 98.3909 65.6882 98.0416 65.6882 97.5177V92.2786C65.6882 90.8815 64.4657 89.659 63.0686 89.659ZM63.9418 96.6445H62.1954V92.2786C62.1954 91.7547 62.5447 91.4054 63.0686 91.4054C63.5925 91.4054 63.9418 91.7547 63.9418 92.2786V96.6445ZM84.025 89.659C82.6279 89.659 81.4054 90.8815 81.4054 92.2786V97.5177C81.4054 98.0416 81.7547 98.3909 82.2786 98.3909H85.7713C86.2952 98.3909 86.6445 98.0416 86.6445 97.5177V92.2786C86.6445 90.8815 85.422 89.659 84.025 89.659ZM84.8981 96.6445H83.1518V92.2786C83.1518 91.7547 83.501 91.4054 84.025 91.4054C84.5489 91.4054 84.8981 91.7547 84.8981 92.2786V96.6445ZM91.0104 89.659C89.6133 89.659 88.3909 90.8815 88.3909 92.2786V97.5177C88.3909 98.0416 88.7401 98.3909 89.264 98.3909H92.7568C93.2807 98.3909 93.6299 98.0416 93.6299 97.5177V92.2786C93.6299 90.8815 92.4075 89.659 91.0104 89.659ZM91.8836 96.6445H90.1372V92.2786C90.1372 91.7547 90.4865 91.4054 91.0104 91.4054C91.5343 91.4054 91.8836 91.7547 91.8836 92.2786V96.6445ZM117.206 98.3909H120.699C121.222 98.3909 121.572 98.0416 121.572 97.5177V92.2786C121.572 90.8815 120.349 89.659 118.952 89.659C117.555 89.659 116.333 90.8815 116.333 92.2786V97.5177C116.333 98.0416 116.682 98.3909 117.206 98.3909ZM118.079 92.2786C118.079 91.7547 118.428 91.4054 118.952 91.4054C119.476 91.4054 119.825 91.7547 119.825 92.2786V96.6445H118.079V92.2786ZM127.684 98.3909H131.177C131.701 98.3909 132.05 98.0416 132.05 97.5177V92.2786C132.05 90.8815 130.827 89.659 129.43 89.659C128.033 89.659 126.811 90.8815 126.811 92.2786V97.5177C126.811 98.0416 127.16 98.3909 127.684 98.3909ZM128.557 92.2786C128.557 91.7547 128.906 91.4054 129.43 91.4054C129.954 91.4054 130.304 91.7547 130.304 92.2786V96.6445H128.557V92.2786ZM101.489 89.659C100.091 89.659 98.869 90.8815 98.869 92.2786V97.5177C98.869 98.0416 99.2183 98.3909 99.7422 98.3909H103.235C103.759 98.3909 104.108 98.0416 104.108 97.5177V92.2786C104.108 90.8815 102.886 89.659 101.489 89.659ZM102.362 96.6445H100.615V92.2786C100.615 91.7547 100.965 91.4054 101.489 91.4054C102.012 91.4054 102.362 91.7547 102.362 92.2786V96.6445ZM110.22 98.3909H113.713C114.237 98.3909 114.586 98.0416 114.586 97.5177V92.2786C114.586 90.8815 113.364 89.659 111.967 89.659C110.57 89.659 109.347 90.8815 109.347 92.2786V97.5177C109.347 98.0416 109.696 98.3909 110.22 98.3909ZM111.094 92.2786C111.094 91.7547 111.443 91.4054 111.967 91.4054C112.491 91.4054 112.84 91.7547 112.84 92.2786V96.6445H111.094V92.2786ZM73.5468 115.854C72.1497 115.854 70.9272 117.077 70.9272 118.474V123.713C70.9272 124.237 71.2765 124.586 71.8004 124.586H75.2931C75.8171 124.586 76.1663 124.237 76.1663 123.713V118.474C76.1663 117.077 74.9439 115.854 73.5468 115.854ZM74.42 122.84H72.6736V118.474C72.6736 117.95 73.0229 117.601 73.5468 117.601C74.0707 117.601 74.42 117.95 74.42 118.474V122.84ZM127.684 124.586H131.177C131.701 124.586 132.05 124.237 132.05 123.713V118.474C132.05 117.077 130.827 115.854 129.43 115.854C128.033 115.854 126.811 117.077 126.811 118.474V123.713C126.811 124.237 127.16 124.586 127.684 124.586ZM128.557 118.474C128.557 117.95 128.906 117.601 129.43 117.601C129.954 117.601 130.304 117.95 130.304 118.474V122.84H128.557V118.474ZM101.489 115.854C100.091 115.854 98.869 117.077 98.869 118.474V123.713C98.869 124.237 99.2183 124.586 99.7422 124.586H103.235C103.759 124.586 104.108 124.237 104.108 123.713V118.474C104.108 117.077 102.886 115.854 101.489 115.854ZM102.362 122.84H100.615V118.474C100.615 117.95 100.965 117.601 101.489 117.601C102.012 117.601 102.362 117.95 102.362 118.474V122.84ZM73.5468 103.63C72.1497 103.63 70.9272 104.852 70.9272 106.249V111.489C70.9272 112.012 71.2765 112.362 71.8004 112.362H75.2931C75.8171 112.362 76.1663 112.012 76.1663 111.489V106.249C76.1663 104.852 74.9439 103.63 73.5468 103.63ZM74.42 110.615H72.6736V106.249C72.6736 105.726 73.0229 105.376 73.5468 105.376C74.0707 105.376 74.42 105.726 74.42 106.249V110.615ZM127.684 112.362H131.177C131.701 112.362 132.05 112.012 132.05 111.489V106.249C132.05 104.852 130.827 103.63 129.43 103.63C128.033 103.63 126.811 104.852 126.811 106.249V111.489C126.811 112.012 127.16 112.362 127.684 112.362ZM128.557 106.249C128.557 105.726 128.906 105.376 129.43 105.376C129.954 105.376 130.304 105.726 130.304 106.249V110.615H128.557V106.249ZM101.489 103.63C100.091 103.63 98.869 104.852 98.869 106.249V111.489C98.869 112.012 99.2183 112.362 99.7422 112.362H103.235C103.759 112.362 104.108 112.012 104.108 111.489V106.249C104.108 104.852 102.886 103.63 101.489 103.63ZM102.362 110.615H100.615V106.249C100.615 105.726 100.965 105.376 101.489 105.376C102.012 105.376 102.362 105.726 102.362 106.249V110.615ZM56.0832 70.4491C54.6861 70.4491 53.4636 71.6715 53.4636 73.0686V76.5613C53.4636 77.0852 53.8129 77.4345 54.3368 77.4345H57.8295C58.3534 77.4345 58.7027 77.0852 58.7027 76.5613V73.0686C58.7027 71.6715 57.4803 70.4491 56.0832 70.4491ZM56.9563 75.6882H55.21V73.0686C55.21 72.5447 55.5593 72.1954 56.0832 72.1954C56.6071 72.1954 56.9563 72.5447 56.9563 73.0686V75.6882ZM73.5468 70.4491C72.1497 70.4491 70.9272 71.6715 70.9272 73.0686V76.5613C70.9272 77.0852 71.2765 77.4345 71.8004 77.4345H75.2931C75.8171 77.4345 76.1663 77.0852 76.1663 76.5613V73.0686C76.1663 71.6715 74.9439 70.4491 73.5468 70.4491ZM74.42 75.6882H72.6736V73.0686C72.6736 72.5447 73.0229 72.1954 73.5468 72.1954C74.0707 72.1954 74.42 72.5447 74.42 73.0686V75.6882ZM91.0104 70.4491C89.6133 70.4491 88.3909 71.6715 88.3909 73.0686V76.5613C88.3909 77.0852 88.7401 77.4345 89.264 77.4345H92.7568C93.2807 77.4345 93.6299 77.0852 93.6299 76.5613V73.0686C93.6299 71.6715 92.4075 70.4491 91.0104 70.4491ZM91.8836 75.6882H90.1372V73.0686C90.1372 72.5447 90.4865 72.1954 91.0104 72.1954C91.5343 72.1954 91.8836 72.5447 91.8836 73.0686V75.6882ZM101.489 70.4491C100.091 70.4491 98.869 71.6715 98.869 73.0686V76.5613C98.869 77.0852 99.2183 77.4345 99.7422 77.4345H103.235C103.759 77.4345 104.108 77.0852 104.108 76.5613V73.0686C104.108 71.6715 102.886 70.4491 101.489 70.4491ZM102.362 75.6882H100.615V73.0686C100.615 72.5447 100.965 72.1954 101.489 72.1954C102.012 72.1954 102.362 72.5447 102.362 73.0686V75.6882ZM118.952 70.4491C117.555 70.4491 116.333 71.6715 116.333 73.0686V76.5613C116.333 77.0852 116.682 77.4345 117.206 77.4345H120.699C121.222 77.4345 121.572 77.0852 121.572 76.5613V73.0686C121.572 71.6715 120.349 70.4491 118.952 70.4491ZM119.825 75.6882H118.079V73.0686C118.079 72.5447 118.428 72.1954 118.952 72.1954C119.476 72.1954 119.825 72.5447 119.825 73.0686V75.6882ZM129.43 70.4491C128.033 70.4491 126.811 71.6715 126.811 73.0686V76.5613C126.811 77.0852 127.16 77.4345 127.684 77.4345H131.177C131.701 77.4345 132.05 77.0852 132.05 76.5613V73.0686C132.05 71.6715 130.827 70.4491 129.43 70.4491ZM130.304 75.6882H128.557V73.0686C128.557 72.5447 128.906 72.1954 129.43 72.1954C129.954 72.1954 130.304 72.5447 130.304 73.0686V75.6882ZM111.967 70.4491C110.57 70.4491 109.347 71.6715 109.347 73.0686V76.5613C109.347 77.0852 109.696 77.4345 110.22 77.4345H113.713C114.237 77.4345 114.586 77.0852 114.586 76.5613V73.0686C114.586 71.6715 113.364 70.4491 111.967 70.4491ZM112.84 75.6882H111.094V73.0686C111.094 72.5447 111.443 72.1954 111.967 72.1954C112.491 72.1954 112.84 72.5447 112.84 73.0686V75.6882ZM63.0686 70.4491C61.6715 70.4491 60.4491 71.6715 60.4491 73.0686V76.5613C60.4491 77.0852 60.7983 77.4345 61.3222 77.4345H64.815C65.3389 77.4345 65.6882 77.0852 65.6882 76.5613V73.0686C65.6882 71.6715 64.4657 70.4491 63.0686 70.4491ZM63.9418 75.6882H62.1954V73.0686C62.1954 72.5447 62.5447 72.1954 63.0686 72.1954C63.5925 72.1954 63.9418 72.5447 63.9418 73.0686V75.6882ZM84.025 70.4491C82.6279 70.4491 81.4054 71.6715 81.4054 73.0686V76.5613C81.4054 77.0852 81.7547 77.4345 82.2786 77.4345H85.7713C86.2952 77.4345 86.6445 77.0852 86.6445 76.5613V73.0686C86.6445 71.6715 85.422 70.4491 84.025 70.4491ZM84.8981 75.6882H83.1518V73.0686C83.1518 72.5447 83.501 72.1954 84.025 72.1954C84.5489 72.1954 84.8981 72.5447 84.8981 73.0686V75.6882Z" fill="#1687A7"/>
<defs>
<filter id="filter0_d" x="0" y="0" width="176" height="176" filterUnits="userSpaceOnUse" color-interpolation-filters="sRGB">
<feFlood flood-opacity="0" result="BackgroundImageFix"/>
<feColorMatrix in="SourceAlpha" type="matrix" values="0 0 0 0 0 0 0 0 0 0 0 0 0 0 0 0 0 0 127 0" result="hardAlpha"/>
<feOffset/>
<feGaussianBlur stdDeviation="4"/>
<feComposite in2="hardAlpha" operator="out"/>
<feColorMatrix type="matrix" values="0 0 0 0 0.666667 0 0 0 0 0.666667 0 0 0 0 0.666667 0 0 0 0.25 0"/>
<feBlend mode="normal" in2="BackgroundImageFix" result="effect1_dropShadow"/>
<feBlend mode="normal" in="SourceGraphic" in2="effect1_dropShadow" result="shape"/>
</filter>
</defs>
</svg>
