<svg width="160" height="160" viewBox="0 0 160 160" fill="none" xmlns="http://www.w3.org/2000/svg">
<path d="M130.162 78.1663C130.686 78.1663 131.035 77.8171 131.035 77.2931V72.0541C131.035 71.5301 130.686 71.1809 130.162 71.1809H127.543V59.8295C127.543 59.3056 127.193 58.9563 126.669 58.9563H125.796V50.2245H126.669C127.193 50.2245 127.543 49.8753 127.543 49.3514C127.543 48.8274 127.193 48.4782 126.669 48.4782H125.796V47.0811C125.796 45.1601 124.923 43.4137 123.177 42.3659L122.304 41.842V38.8732C122.304 38.3493 121.954 38 121.43 38C120.906 38 120.557 38.3493 120.557 38.8732V41.842L119.684 42.5405C118.112 43.5884 117.064 45.3347 117.064 47.2557V48.6528H116.191C115.667 48.6528 115.318 49.0021 115.318 49.526C115.318 50.0499 115.667 50.3992 116.191 50.3992H117.064V53.7173C116.89 53.7173 116.89 53.5426 116.715 53.5426L116.191 52.8441V51.9709C116.191 51.447 115.842 51.0977 115.318 51.0977C114.794 51.0977 114.445 51.447 114.445 51.9709V52.8441L113.746 53.1933C113.222 53.5426 112.873 53.8919 112.699 54.2412C112.349 53.8919 112 53.368 111.476 53.1933L110.952 52.8441V51.9709C110.952 51.447 110.603 51.0977 110.079 51.0977C109.555 51.0977 109.206 51.447 109.206 51.9709V52.8441L108.507 53.1933C107.983 53.5426 107.634 53.8919 107.459 54.2412C107.11 53.8919 106.761 53.368 106.237 53.1933L105.713 52.8441V51.9709C105.713 51.447 105.364 51.0977 104.84 51.0977C104.316 51.0977 103.967 51.447 103.967 51.9709V52.8441L103.268 53.1933C102.744 53.5426 102.395 53.8919 102.22 54.2412C101.871 53.8919 101.522 53.368 100.998 53.1933L100.474 52.8441V51.9709C100.474 51.447 100.125 51.0977 99.6008 51.0977C99.0769 51.0977 98.7277 51.447 98.7277 51.9709V52.8441L98.0291 53.1933C97.5052 53.5426 97.1559 53.8919 96.9813 54.2412C96.632 53.8919 96.2827 53.368 95.7588 53.1933L95.2349 52.8441V51.9709C95.2349 51.447 94.8857 51.0977 94.3617 51.0977C93.8378 51.0977 93.4886 51.447 93.4886 51.9709V52.8441L92.79 53.1933C91.5676 54.0665 90.869 55.289 90.869 56.8607V58.7817H88.2495V51.447C88.2495 49.7006 87.2017 48.1289 85.4553 47.605C85.4553 47.605 85.4553 47.605 85.4553 47.4304V46.5572C85.4553 46.0333 85.106 45.684 84.5821 45.684C84.0582 45.684 83.7089 46.0333 83.7089 46.5572V47.605H80.2162V46.7318C80.2162 46.2079 79.867 45.8586 79.343 45.8586C78.8191 45.8586 78.4699 46.2079 78.4699 46.7318V47.605H74.9771V46.7318C74.9771 46.2079 74.6279 45.8586 74.104 45.8586C73.58 45.8586 73.2308 46.2079 73.2308 46.7318V47.7796C71.659 48.4782 70.6112 49.8753 70.6112 51.6216V58.7817H67.9917V56.8607C67.9917 55.289 67.2931 54.0665 65.8961 53.1933L65.5468 52.8441V51.9709C65.5468 51.447 65.1975 51.0977 64.6736 51.0977C64.1497 51.0977 63.8004 51.447 63.8004 51.9709V52.8441L63.1019 53.1933C62.578 53.5426 62.2287 53.8919 62.0541 54.2412C61.7048 53.8919 61.3555 53.368 60.8316 53.1933L60.3077 52.8441V51.9709C60.3077 51.447 59.9584 51.0977 59.4345 51.0977C58.9106 51.0977 58.5613 51.447 58.5613 51.9709V52.8441L57.8628 53.1933C57.3389 53.5426 56.9896 53.8919 56.815 54.2412C56.4657 53.8919 56.1164 53.368 55.5925 53.1933L55.0686 52.8441V51.9709C55.0686 51.447 54.7193 51.0977 54.1954 51.0977C53.6715 51.0977 53.3222 51.447 53.3222 51.9709V52.8441L52.6237 53.1933C52.0998 53.5426 51.7505 53.8919 51.5759 54.2412C51.2266 53.8919 50.8773 53.368 50.3534 53.1933L49.8295 52.8441V51.9709C49.8295 51.447 49.4803 51.0977 48.9563 51.0977C48.4324 51.0977 48.0832 51.447 48.0832 51.9709V52.8441L47.3846 53.1933C46.8607 53.5426 46.5114 53.8919 46.3368 54.2412C45.9875 53.8919 45.6383 53.368 45.1143 53.1933L44.5904 52.8441V51.9709C44.5904 51.447 44.2412 51.0977 43.7173 51.0977C43.1933 51.0977 42.8441 51.447 42.8441 51.9709V52.8441L42.1455 53.1933C41.9709 53.1933 41.9709 53.368 41.9709 53.368V50.0499H42.8441C43.368 50.0499 43.7173 49.7006 43.7173 49.1767C43.7173 48.6528 43.368 48.3035 42.8441 48.3035H41.9709V46.9064C41.9709 44.9854 41.0977 43.2391 39.3514 42.1913L38.4782 41.6674V38.8732C38.4782 38.3493 38.1289 38 37.605 38C37.0811 38 36.7318 38.3493 36.7318 38.8732V41.842L35.8586 42.5405C34.2869 43.5884 33.2391 45.3347 33.2391 47.2557V48.6528H32.3659C31.842 48.6528 31.4927 49.0021 31.4927 49.526C31.4927 50.0499 31.842 50.3992 32.3659 50.3992H33.2391V59.131H32.3659C31.842 59.131 31.4927 59.4802 31.4927 60.0042V71.3555H28.8732C28.3493 71.3555 28 71.7048 28 72.2287V77.4678C28 77.9917 28.3493 78.341 28.8732 78.341H31.4927V120.254H28.8732C28.3493 120.254 28 120.603 28 121.127C28 121.651 28.3493 122 28.8732 122H130.162C130.686 122 131.035 121.651 131.035 121.127C131.035 120.603 130.686 120.254 130.162 120.254H127.543V78.341H130.162V78.1663ZM120.557 43.9376L121.43 43.4137L122.304 43.9376C123.351 44.6362 124.05 45.8586 124.05 47.0811V48.4782H118.811V47.0811C118.811 45.8586 119.509 44.6362 120.557 43.9376ZM124.05 50.2245V58.9563H122.304V54.5904C122.304 54.0665 121.954 53.7173 121.43 53.7173C120.906 53.7173 120.557 54.0665 120.557 54.5904V58.9563H118.811V50.2245H124.05ZM114.794 54.7651L115.318 54.4158L115.842 54.7651C116.541 55.289 117.064 55.9875 117.064 57.0353V58.9563H113.572V57.0353C113.572 55.9875 114.096 55.289 114.794 54.7651ZM109.555 54.7651L110.079 54.4158L110.603 54.7651C111.301 55.289 111.825 55.9875 111.825 57.0353V58.9563H108.333V57.0353C108.333 55.9875 108.857 55.289 109.555 54.7651ZM104.316 54.7651L104.84 54.4158L105.364 54.7651C106.062 55.289 106.586 55.9875 106.586 57.0353V58.9563H103.094V57.0353C103.094 55.9875 103.617 55.289 104.316 54.7651ZM99.0769 54.7651L99.6008 54.4158L100.125 54.7651C100.823 55.289 101.347 55.9875 101.347 57.0353V58.9563H97.8545V57.0353C97.8545 55.9875 98.3784 55.289 99.0769 54.7651ZM92.6154 57.0353C92.6154 56.1622 93.1393 55.289 93.8378 54.7651L94.3617 54.4158L94.8857 54.7651C95.5842 55.289 96.1081 55.9875 96.1081 57.0353V58.9563H92.6154V57.0353ZM77.7713 58.9563V57.0353C77.7713 56.1622 78.2952 55.289 78.9938 54.7651L79.5177 54.4158L80.0416 54.7651C80.7401 55.289 81.264 55.9875 81.264 57.0353V58.9563H77.7713ZM72.5322 58.9563V56.6861C72.5322 55.8129 73.0561 55.1143 73.7547 54.7651L74.2786 54.4158L74.8025 54.7651C75.501 55.289 76.025 55.9875 76.025 57.0353V58.9563H72.5322ZM84.0582 54.7651L84.5821 54.4158L85.106 54.7651C85.8046 55.289 86.3285 55.9875 86.3285 57.0353V58.9563H82.8358V57.0353C83.0104 55.9875 83.3597 55.289 84.0582 54.7651ZM74.2786 49.3514H84.5821C85.6299 49.7006 86.5031 50.5738 86.5031 51.6216V53.5426C86.3285 53.368 86.3285 53.368 86.1538 53.1933L85.4553 52.8441V51.9709C85.4553 51.447 85.106 51.0977 84.5821 51.0977C84.0582 51.0977 83.7089 51.447 83.7089 51.9709V52.8441L83.0104 53.1933C82.4865 53.5426 82.1372 53.8919 81.9626 54.2412C81.6133 53.8919 81.264 53.368 80.7401 53.1933L80.2162 52.8441V51.9709C80.2162 51.447 79.867 51.0977 79.343 51.0977C78.8191 51.0977 78.4699 51.447 78.4699 51.9709V52.8441L77.7713 53.1933C77.2474 53.5426 76.8981 53.8919 76.7235 54.2412C76.3742 53.8919 76.025 53.368 75.501 53.1933L74.9771 52.8441V51.9709C74.9771 51.447 74.6279 51.0977 74.104 51.0977C73.58 51.0977 73.2308 51.447 73.2308 51.9709V52.8441L72.5322 53.1933L72.3576 53.368V51.6216C72.5322 50.5738 73.2308 49.526 74.2786 49.3514ZM64.1497 54.7651L64.6736 54.4158L65.1975 54.7651C65.896 55.289 66.42 55.9875 66.42 57.0353V58.9563H62.9272V57.0353C62.9272 55.9875 63.4511 55.289 64.1497 54.7651ZM58.9106 54.7651L59.4345 54.4158L59.9584 54.7651C60.657 55.289 61.1809 55.9875 61.1809 57.0353V58.9563H57.6882V57.0353C57.6882 55.9875 58.2121 55.289 58.9106 54.7651ZM53.6715 54.7651L54.1954 54.4158L54.7193 54.7651C55.4179 55.289 55.9418 55.9875 55.9418 57.0353V58.9563H52.4491V57.0353C52.4491 55.9875 52.973 55.289 53.6715 54.7651ZM48.4324 54.7651L48.9563 54.4158L49.4802 54.7651C50.1788 55.289 50.7027 55.9875 50.7027 57.0353V58.9563H47.21V57.0353C47.21 55.9875 47.7339 55.289 48.4324 54.7651ZM43.1933 54.7651L43.7173 54.4158L44.2412 54.7651C44.9397 55.289 45.4636 55.9875 45.4636 57.0353V58.9563H41.9709V57.0353C41.9709 55.9875 42.4948 55.289 43.1933 54.7651ZM36.7318 43.9376L37.605 43.4137L38.4782 43.9376C39.526 44.6362 40.2245 45.8586 40.2245 47.0811V48.4782H34.9854V47.0811C34.9854 45.8586 35.684 44.6362 36.7318 43.9376ZM34.9854 50.2245H40.2245V58.9563H38.4782V54.5904C38.4782 54.0665 38.1289 53.7173 37.605 53.7173C37.0811 53.7173 36.7318 54.0665 36.7318 54.5904V58.9563H34.9854V50.2245ZM33.2391 60.7027H125.796V71.1809H33.2391V60.7027ZM29.7464 76.42V72.9272H129.289V76.42H29.7464ZM115.318 92.1372H99.6008V78.1663H115.318V92.1372ZM83.8836 120.079H75.1518V105.41C75.1518 103.314 76.1996 101.393 77.9459 100.345L79.5177 99.2973L81.0894 100.345C82.8358 101.393 83.8836 103.314 83.8836 105.584V120.079ZM81.9626 98.7734L80.0416 97.5509C79.6923 97.3763 79.343 97.3763 79.1684 97.5509L77.0728 98.7734C74.8025 100.17 73.4054 102.615 73.4054 105.41V120.079H71.659V93.8836H87.3763V120.079H85.6299V105.41C85.6299 102.79 84.2329 100.17 81.9626 98.7734ZM71.659 92.1372V78.1663H87.3763V92.1372H71.659ZM43.7173 78.1663H59.4345V92.1372H43.7173V78.1663ZM61.1809 78.1663H69.9127V92.1372H61.1809V78.1663ZM89.1227 78.1663H97.8545V92.1372H89.1227V78.1663ZM33.2391 78.1663H41.9709V120.079H33.2391V78.1663ZM43.7173 93.8836H59.4345V120.079H57.6882V105.41C57.6882 102.79 56.2911 100.17 54.0208 98.7734L52.0998 97.5509C51.7505 97.3763 51.4012 97.3763 51.2266 97.5509L49.131 98.7734C46.8607 100.17 45.4636 102.615 45.4636 105.41V120.079H43.7173V93.8836ZM55.9418 120.079H47.21V105.41C47.21 103.314 48.2578 101.393 50.0042 100.345L51.5759 99.2973L53.1476 100.345C54.894 101.393 55.9418 103.314 55.9418 105.584V120.079ZM61.1809 120.079V93.8836H69.9127V120.079H61.1809ZM89.1227 120.079V93.8836H97.8545V120.079H89.1227ZM111.825 120.079H103.094V105.41C103.094 103.314 104.141 101.393 105.888 100.345L107.459 99.2973L109.031 100.345C110.778 101.393 111.825 103.314 111.825 105.584V120.079ZM113.572 120.079V105.41C113.572 102.79 112.175 100.17 109.904 98.7734L107.983 97.5509C107.634 97.3763 107.285 97.3763 107.11 97.5509L105.015 98.7734C102.744 100.17 101.347 102.615 101.347 105.41V120.079H99.6008V93.8836H115.318V120.079H113.572ZM125.796 120.079H117.064V78.1663H125.796V120.079Z" fill="#1687A7"/>
<path d="M37.605 107.854C36.2079 107.854 34.9854 109.077 34.9854 110.474V115.713C34.9854 116.237 35.3347 116.586 35.8586 116.586H39.3514C39.8753 116.586 40.2245 116.237 40.2245 115.713V110.474C40.2245 109.077 39.0021 107.854 37.605 107.854ZM38.4782 114.84H36.7318V110.474C36.7318 109.95 37.0811 109.601 37.605 109.601C38.1289 109.601 38.4782 109.95 38.4782 110.474V114.84ZM37.605 62.4491C36.2079 62.4491 34.9854 63.6715 34.9854 65.0686V68.5613C34.9854 69.0852 35.3347 69.4345 35.8586 69.4345H39.3514C39.8753 69.4345 40.2245 69.0852 40.2245 68.5613V65.0686C40.2245 63.6715 39.0021 62.4491 37.605 62.4491ZM38.4782 67.6882H36.7318V65.0686C36.7318 64.5447 37.0811 64.1954 37.605 64.1954C38.1289 64.1954 38.4782 64.5447 38.4782 65.0686V67.6882ZM37.605 95.6299C36.2079 95.6299 34.9854 96.8524 34.9854 98.2495V103.489C34.9854 104.012 35.3347 104.362 35.8586 104.362H39.3514C39.8753 104.362 40.2245 104.012 40.2245 103.489V98.2495C40.2245 96.8524 39.0021 95.6299 37.605 95.6299ZM38.4782 102.615H36.7318V98.2495C36.7318 97.7256 37.0811 97.3763 37.605 97.3763C38.1289 97.3763 38.4782 97.7256 38.4782 98.2495V102.615ZM37.605 81.659C36.2079 81.659 34.9854 82.8815 34.9854 84.2786V89.5177C34.9854 90.0416 35.3347 90.3909 35.8586 90.3909H39.3514C39.8753 90.3909 40.2245 90.0416 40.2245 89.5177V84.2786C40.2245 82.8815 39.0021 81.659 37.605 81.659ZM38.4782 88.6445H36.7318V84.2786C36.7318 83.7547 37.0811 83.4054 37.605 83.4054C38.1289 83.4054 38.4782 83.7547 38.4782 84.2786V88.6445ZM65.5468 81.659C64.1497 81.659 62.9272 82.8815 62.9272 84.2786V89.5177C62.9272 90.0416 63.2765 90.3909 63.8004 90.3909H67.2931C67.8171 90.3909 68.1663 90.0416 68.1663 89.5177V84.2786C68.1663 82.8815 66.9439 81.659 65.5468 81.659ZM66.42 88.6445H64.6736V84.2786C64.6736 83.7547 65.0229 83.4054 65.5468 83.4054C66.0707 83.4054 66.42 83.7547 66.42 84.2786V88.6445ZM48.0832 81.659C46.6861 81.659 45.4636 82.8815 45.4636 84.2786V89.5177C45.4636 90.0416 45.8129 90.3909 46.3368 90.3909H49.8295C50.3534 90.3909 50.7027 90.0416 50.7027 89.5177V84.2786C50.7027 82.8815 49.4803 81.659 48.0832 81.659ZM48.9563 88.6445H47.21V84.2786C47.21 83.7547 47.5593 83.4054 48.0832 83.4054C48.6071 83.4054 48.9563 83.7547 48.9563 84.2786V88.6445ZM55.0686 81.659C53.6715 81.659 52.4491 82.8815 52.4491 84.2786V89.5177C52.4491 90.0416 52.7983 90.3909 53.3222 90.3909H56.815C57.3389 90.3909 57.6882 90.0416 57.6882 89.5177V84.2786C57.6882 82.8815 56.4657 81.659 55.0686 81.659ZM55.9418 88.6445H54.1954V84.2786C54.1954 83.7547 54.5447 83.4054 55.0686 83.4054C55.5925 83.4054 55.9418 83.7547 55.9418 84.2786V88.6445ZM76.025 81.659C74.6279 81.659 73.4054 82.8815 73.4054 84.2786V89.5177C73.4054 90.0416 73.7547 90.3909 74.2786 90.3909H77.7713C78.2952 90.3909 78.6445 90.0416 78.6445 89.5177V84.2786C78.6445 82.8815 77.422 81.659 76.025 81.659ZM76.8981 88.6445H75.1518V84.2786C75.1518 83.7547 75.501 83.4054 76.025 83.4054C76.5489 83.4054 76.8981 83.7547 76.8981 84.2786V88.6445ZM83.0104 81.659C81.6133 81.659 80.3909 82.8815 80.3909 84.2786V89.5177C80.3909 90.0416 80.7401 90.3909 81.264 90.3909H84.7568C85.2807 90.3909 85.6299 90.0416 85.6299 89.5177V84.2786C85.6299 82.8815 84.4075 81.659 83.0104 81.659ZM83.8836 88.6445H82.1372V84.2786C82.1372 83.7547 82.4865 83.4054 83.0104 83.4054C83.5343 83.4054 83.8836 83.7547 83.8836 84.2786V88.6445ZM109.206 90.3909H112.699C113.222 90.3909 113.572 90.0416 113.572 89.5177V84.2786C113.572 82.8815 112.349 81.659 110.952 81.659C109.555 81.659 108.333 82.8815 108.333 84.2786V89.5177C108.333 90.0416 108.682 90.3909 109.206 90.3909ZM110.079 84.2786C110.079 83.7547 110.428 83.4054 110.952 83.4054C111.476 83.4054 111.825 83.7547 111.825 84.2786V88.6445H110.079V84.2786ZM119.684 90.3909H123.177C123.701 90.3909 124.05 90.0416 124.05 89.5177V84.2786C124.05 82.8815 122.827 81.659 121.43 81.659C120.033 81.659 118.811 82.8815 118.811 84.2786V89.5177C118.811 90.0416 119.16 90.3909 119.684 90.3909ZM120.557 84.2786C120.557 83.7547 120.906 83.4054 121.43 83.4054C121.954 83.4054 122.304 83.7547 122.304 84.2786V88.6445H120.557V84.2786ZM93.4886 81.659C92.0915 81.659 90.869 82.8815 90.869 84.2786V89.5177C90.869 90.0416 91.2183 90.3909 91.7422 90.3909H95.2349C95.7588 90.3909 96.1081 90.0416 96.1081 89.5177V84.2786C96.1081 82.8815 94.8857 81.659 93.4886 81.659ZM94.3617 88.6445H92.6154V84.2786C92.6154 83.7547 92.9647 83.4054 93.4886 83.4054C94.0125 83.4054 94.3617 83.7547 94.3617 84.2786V88.6445ZM102.22 90.3909H105.713C106.237 90.3909 106.586 90.0416 106.586 89.5177V84.2786C106.586 82.8815 105.364 81.659 103.967 81.659C102.57 81.659 101.347 82.8815 101.347 84.2786V89.5177C101.347 90.0416 101.696 90.3909 102.22 90.3909ZM103.094 84.2786C103.094 83.7547 103.443 83.4054 103.967 83.4054C104.491 83.4054 104.84 83.7547 104.84 84.2786V88.6445H103.094V84.2786ZM65.5468 107.854C64.1497 107.854 62.9272 109.077 62.9272 110.474V115.713C62.9272 116.237 63.2765 116.586 63.8004 116.586H67.2931C67.8171 116.586 68.1663 116.237 68.1663 115.713V110.474C68.1663 109.077 66.9439 107.854 65.5468 107.854ZM66.42 114.84H64.6736V110.474C64.6736 109.95 65.0229 109.601 65.5468 109.601C66.0707 109.601 66.42 109.95 66.42 110.474V114.84ZM119.684 116.586H123.177C123.701 116.586 124.05 116.237 124.05 115.713V110.474C124.05 109.077 122.827 107.854 121.43 107.854C120.033 107.854 118.811 109.077 118.811 110.474V115.713C118.811 116.237 119.16 116.586 119.684 116.586ZM120.557 110.474C120.557 109.95 120.906 109.601 121.43 109.601C121.954 109.601 122.304 109.95 122.304 110.474V114.84H120.557V110.474ZM93.4886 107.854C92.0915 107.854 90.869 109.077 90.869 110.474V115.713C90.869 116.237 91.2183 116.586 91.7422 116.586H95.2349C95.7588 116.586 96.1081 116.237 96.1081 115.713V110.474C96.1081 109.077 94.8857 107.854 93.4886 107.854ZM94.3617 114.84H92.6154V110.474C92.6154 109.95 92.9647 109.601 93.4886 109.601C94.0125 109.601 94.3617 109.95 94.3617 110.474V114.84ZM65.5468 95.6299C64.1497 95.6299 62.9272 96.8524 62.9272 98.2495V103.489C62.9272 104.012 63.2765 104.362 63.8004 104.362H67.2931C67.8171 104.362 68.1663 104.012 68.1663 103.489V98.2495C68.1663 96.8524 66.9439 95.6299 65.5468 95.6299ZM66.42 102.615H64.6736V98.2495C64.6736 97.7256 65.0229 97.3763 65.5468 97.3763C66.0707 97.3763 66.42 97.7256 66.42 98.2495V102.615ZM119.684 104.362H123.177C123.701 104.362 124.05 104.012 124.05 103.489V98.2495C124.05 96.8524 122.827 95.6299 121.43 95.6299C120.033 95.6299 118.811 96.8524 118.811 98.2495V103.489C118.811 104.012 119.16 104.362 119.684 104.362ZM120.557 98.2495C120.557 97.7256 120.906 97.3763 121.43 97.3763C121.954 97.3763 122.304 97.7256 122.304 98.2495V102.615H120.557V98.2495ZM93.4886 95.6299C92.0915 95.6299 90.869 96.8524 90.869 98.2495V103.489C90.869 104.012 91.2183 104.362 91.7422 104.362H95.2349C95.7588 104.362 96.1081 104.012 96.1081 103.489V98.2495C96.1081 96.8524 94.8857 95.6299 93.4886 95.6299ZM94.3617 102.615H92.6154V98.2495C92.6154 97.7256 92.9647 97.3763 93.4886 97.3763C94.0125 97.3763 94.3617 97.7256 94.3617 98.2495V102.615ZM48.0832 62.4491C46.6861 62.4491 45.4636 63.6715 45.4636 65.0686V68.5613C45.4636 69.0852 45.8129 69.4345 46.3368 69.4345H49.8295C50.3534 69.4345 50.7027 69.0852 50.7027 68.5613V65.0686C50.7027 63.6715 49.4803 62.4491 48.0832 62.4491ZM48.9563 67.6882H47.21V65.0686C47.21 64.5447 47.5593 64.1954 48.0832 64.1954C48.6071 64.1954 48.9563 64.5447 48.9563 65.0686V67.6882ZM65.5468 62.4491C64.1497 62.4491 62.9272 63.6715 62.9272 65.0686V68.5613C62.9272 69.0852 63.2765 69.4345 63.8004 69.4345H67.2931C67.8171 69.4345 68.1663 69.0852 68.1663 68.5613V65.0686C68.1663 63.6715 66.9439 62.4491 65.5468 62.4491ZM66.42 67.6882H64.6736V65.0686C64.6736 64.5447 65.0229 64.1954 65.5468 64.1954C66.0707 64.1954 66.42 64.5447 66.42 65.0686V67.6882ZM83.0104 62.4491C81.6133 62.4491 80.3909 63.6715 80.3909 65.0686V68.5613C80.3909 69.0852 80.7401 69.4345 81.264 69.4345H84.7568C85.2807 69.4345 85.6299 69.0852 85.6299 68.5613V65.0686C85.6299 63.6715 84.4075 62.4491 83.0104 62.4491ZM83.8836 67.6882H82.1372V65.0686C82.1372 64.5447 82.4865 64.1954 83.0104 64.1954C83.5343 64.1954 83.8836 64.5447 83.8836 65.0686V67.6882ZM93.4886 62.4491C92.0915 62.4491 90.869 63.6715 90.869 65.0686V68.5613C90.869 69.0852 91.2183 69.4345 91.7422 69.4345H95.2349C95.7588 69.4345 96.1081 69.0852 96.1081 68.5613V65.0686C96.1081 63.6715 94.8857 62.4491 93.4886 62.4491ZM94.3617 67.6882H92.6154V65.0686C92.6154 64.5447 92.9647 64.1954 93.4886 64.1954C94.0125 64.1954 94.3617 64.5447 94.3617 65.0686V67.6882ZM110.952 62.4491C109.555 62.4491 108.333 63.6715 108.333 65.0686V68.5613C108.333 69.0852 108.682 69.4345 109.206 69.4345H112.699C113.222 69.4345 113.572 69.0852 113.572 68.5613V65.0686C113.572 63.6715 112.349 62.4491 110.952 62.4491ZM111.825 67.6882H110.079V65.0686C110.079 64.5447 110.428 64.1954 110.952 64.1954C111.476 64.1954 111.825 64.5447 111.825 65.0686V67.6882ZM121.43 62.4491C120.033 62.4491 118.811 63.6715 118.811 65.0686V68.5613C118.811 69.0852 119.16 69.4345 119.684 69.4345H123.177C123.701 69.4345 124.05 69.0852 124.05 68.5613V65.0686C124.05 63.6715 122.827 62.4491 121.43 62.4491ZM122.304 67.6882H120.557V65.0686C120.557 64.5447 120.906 64.1954 121.43 64.1954C121.954 64.1954 122.304 64.5447 122.304 65.0686V67.6882ZM103.967 62.4491C102.57 62.4491 101.347 63.6715 101.347 65.0686V68.5613C101.347 69.0852 101.696 69.4345 102.22 69.4345H105.713C106.237 69.4345 106.586 69.0852 106.586 68.5613V65.0686C106.586 63.6715 105.364 62.4491 103.967 62.4491ZM104.84 67.6882H103.094V65.0686C103.094 64.5447 103.443 64.1954 103.967 64.1954C104.491 64.1954 104.84 64.5447 104.84 65.0686V67.6882ZM55.0686 62.4491C53.6715 62.4491 52.4491 63.6715 52.4491 65.0686V68.5613C52.4491 69.0852 52.7983 69.4345 53.3222 69.4345H56.815C57.3389 69.4345 57.6882 69.0852 57.6882 68.5613V65.0686C57.6882 63.6715 56.4657 62.4491 55.0686 62.4491ZM55.9418 67.6882H54.1954V65.0686C54.1954 64.5447 54.5447 64.1954 55.0686 64.1954C55.5925 64.1954 55.9418 64.5447 55.9418 65.0686V67.6882ZM76.025 62.4491C74.6279 62.4491 73.4054 63.6715 73.4054 65.0686V68.5613C73.4054 69.0852 73.7547 69.4345 74.2786 69.4345H77.7713C78.2952 69.4345 78.6445 69.0852 78.6445 68.5613V65.0686C78.6445 63.6715 77.422 62.4491 76.025 62.4491ZM76.8981 67.6882H75.1518V65.0686C75.1518 64.5447 75.501 64.1954 76.025 64.1954C76.5489 64.1954 76.8981 64.5447 76.8981 65.0686V67.6882Z" fill="#1687A7"/>
</svg>
