<svg width="160" height="160" viewBox="0 0 160 160" fill="none" xmlns="http://www.w3.org/2000/svg">
<path d="M133.418 121.265H129.082V84.8367H131.684C132.031 84.8367 132.378 84.6633 132.551 84.3163L134.286 79.1123C134.459 78.7653 134.286 78.5918 134.112 78.2449C133.939 78.0714 133.765 77.898 133.418 77.898H129.082V70.9592H129.949C130.469 70.9592 130.816 70.6122 130.816 70.0918V64.8878C130.816 64.3673 130.469 64.0204 129.949 64.0204H104.796V57.949C104.796 57.4286 104.449 57.0816 103.929 57.0816H103.061V48.4082V47.5408V44.9388C103.061 43.3776 102.02 41.9898 100.459 41.6429V38.8673C100.459 38.3469 100.112 38 99.5918 38C99.0714 38 98.7245 38.3469 98.7245 38.8673V41.6429C97.1633 41.9898 96.1224 43.3776 96.1224 44.9388V47.5408V48.4082V51.8776H63.1633V48.4082V47.5408V44.9388C63.1633 43.3776 62.1224 41.9898 60.5612 41.6429V38.8673C60.5612 38.3469 60.2143 38 59.6939 38C59.1735 38 58.8265 38.3469 58.8265 38.8673V41.6429C57.2653 41.9898 56.2245 43.3776 56.2245 44.9388V47.5408V48.4082V57.0816H55.3571C54.8367 57.0816 54.4898 57.4286 54.4898 57.949V64.0204H29.3367C28.8163 64.0204 28.4694 64.3673 28.4694 64.8878V70.0918C28.4694 70.6122 28.8163 70.9592 29.3367 70.9592H30.2041V77.898H25.8673C25.5204 77.898 25.3469 78.0714 25.1735 78.2449C25 78.4184 25 78.7653 25 79.1123L26.7347 84.3163C26.9082 84.6633 27.2551 84.8367 27.602 84.8367H30.2041V121.265H25.8673C25.3469 121.265 25 121.612 25 122.133C25 122.653 25.3469 123 25.8673 123H31.0714H40.6122H47.551H55.3571H64.0306H95.2551H103.929H111.735H118.673H128.214H133.418C133.939 123 134.286 122.653 134.286 122.133C134.286 121.612 133.939 121.265 133.418 121.265ZM130.99 83.102H104.796V79.6327H132.204L130.99 83.102ZM64.898 58.8163H94.3878V69.2245H64.898V58.8163ZM103.061 58.8163V69.2245H96.1224V58.8163H96.9898H102.194H103.061ZM73.5714 70.9592V77.898H70.102V70.9592H73.5714ZM75.3061 70.9592H78.7755V77.898H75.3061V70.9592ZM80.5102 70.9592H83.9796V77.898H80.5102V70.9592ZM85.7143 70.9592H89.1837V77.898H85.7143V70.9592ZM90.9184 70.9592H94.3878V77.898H90.9184V70.9592ZM96.1224 77.898V70.9592H103.061V77.898H96.1224ZM68.3673 70.9592V77.898H64.898V70.9592H68.3673ZM63.1633 77.898H56.2245V70.9592H63.1633V77.898ZM63.1633 79.6327V83.102H56.2245V79.6327H63.1633ZM96.1224 79.6327H103.061V83.102H96.1224V79.6327ZM127.347 77.898H104.796V70.9592H127.347V77.898ZM129.082 65.7551V69.2245H128.214H104.796V65.7551H129.082ZM97.8571 57.0816V48.4082H101.327V57.0816H97.8571ZM99.5918 43.2041C100.633 43.2041 101.327 43.898 101.327 44.9388V46.6735H97.8571V44.9388C97.8571 43.898 98.551 43.2041 99.5918 43.2041ZM96.1224 53.6122V57.0816H95.7755H95.2551H64.0306H63.1633V53.6122H96.1224ZM59.6939 43.2041C60.7347 43.2041 61.4286 43.898 61.4286 44.9388V46.6735H57.9592V44.9388C57.9592 43.898 58.6531 43.2041 59.6939 43.2041ZM57.9592 48.4082H61.4286V57.0816H57.9592V48.4082ZM57.0918 58.8163H62.2959H63.1633V69.2245H56.2245V64.8878V58.8163H57.0918ZM30.2041 65.7551H54.4898V69.2245H31.0714H30.2041V65.7551ZM31.9388 70.9592H54.4898V77.898H31.9388V70.9592ZM27.0816 79.6327H54.4898V83.102H28.2959L27.0816 79.6327ZM31.9388 84.8367H54.4898V121.265H51.8878V101.49C51.8878 96.8061 49.2857 92.6429 44.949 90.5612C44.4286 90.2143 43.7347 90.2143 43.0408 90.5612C38.8776 92.6429 36.2755 96.8061 36.102 101.49V121.265H31.7653V84.8367H31.9388ZM39.7449 121.265H38.0102V102.184H50.1531V121.265H48.4184V109.99C48.4184 105.48 44.602 104.092 44.4286 103.918C44.2551 103.918 44.0816 103.918 43.9082 103.918C43.7347 103.918 39.7449 105.48 39.7449 109.99V121.265ZM38.0102 100.449C38.3571 96.8061 40.4388 93.5102 43.9082 91.7755C44.0816 91.7755 44.0816 91.7755 44.2551 91.7755C47.551 93.5102 49.8061 96.6327 50.1531 100.449H38.0102ZM41.4796 121.265V109.99C41.4796 107.388 43.3878 106.173 44.0816 105.653C44.949 106.173 46.6837 107.388 46.6837 109.99V121.265H41.4796ZM56.2245 121.265V84.8367H63.1633V121.265H56.2245ZM68.3673 121.265V102.357C68.3673 97.1531 70.9694 92.2959 75.4796 89.5204L79.6429 86.7449L83.8061 89.3469C88.3163 92.1224 90.9184 96.9796 90.9184 102.357V121.439H68.3673V121.265ZM84.6735 87.9592L79.9898 85.0102C79.6429 84.8367 79.2959 84.8367 79.1224 85.0102L74.4388 87.9592C69.5816 91.0816 66.6326 96.4592 66.6326 102.357V121.265H64.898V79.6327H94.3878V121.265H92.6531V102.184C92.6531 96.4592 89.7041 91.0816 84.6735 87.9592ZM96.1224 121.265V84.8367H103.061V121.265H96.1224ZM109.133 102.184H121.276V121.265H119.541V109.99C119.541 105.48 115.724 104.092 115.551 103.918C115.378 103.918 115.204 103.918 115.031 103.918C114.857 103.918 110.867 105.48 110.867 109.99V121.265H109.133V102.184ZM109.133 100.449C109.48 96.8061 111.561 93.5102 115.031 91.7755C115.204 91.7755 115.204 91.7755 115.378 91.7755C118.673 93.5102 120.929 96.6327 121.276 100.449H109.133ZM112.602 121.265V109.99C112.602 107.388 114.51 106.173 115.204 105.653C116.071 106.173 117.806 107.388 117.806 109.99V121.265H112.602ZM123.01 121.265V101.49C123.01 96.8061 120.408 92.6429 116.071 90.3878C115.551 90.0408 114.857 90.0408 114.163 90.3878C110 92.4694 107.224 96.8061 107.224 101.49V121.265H104.622V84.8367H127.173V121.265H123.01Z" fill="#1687A7"/>
</svg>
