<svg width="176" height="176" viewBox="0 0 176 176" fill="none" xmlns="http://www.w3.org/2000/svg">
<g filter="url(#filter0_d)">
<rect x="8" y="8" width="160" height="160" fill="white"/>
</g>
<path d="M141.418 129.265H137.082V92.8367H139.684C140.031 92.8367 140.378 92.6633 140.551 92.3163L142.286 87.1123C142.459 86.7653 142.286 86.5918 142.112 86.2449C141.939 86.0714 141.765 85.898 141.418 85.898H137.082V78.9592H137.949C138.469 78.9592 138.816 78.6122 138.816 78.0918V72.8878C138.816 72.3673 138.469 72.0204 137.949 72.0204H112.796V65.949C112.796 65.4286 112.449 65.0816 111.929 65.0816H111.061V56.4082V55.5408V52.9388C111.061 51.3776 110.02 49.9898 108.459 49.6429V46.8673C108.459 46.3469 108.112 46 107.592 46C107.071 46 106.724 46.3469 106.724 46.8673V49.6429C105.163 49.9898 104.122 51.3776 104.122 52.9388V55.5408V56.4082V59.8776H71.1633V56.4082V55.5408V52.9388C71.1633 51.3776 70.1224 49.9898 68.5612 49.6429V46.8673C68.5612 46.3469 68.2143 46 67.6939 46C67.1735 46 66.8265 46.3469 66.8265 46.8673V49.6429C65.2653 49.9898 64.2245 51.3776 64.2245 52.9388V55.5408V56.4082V65.0816H63.3571C62.8367 65.0816 62.4898 65.4286 62.4898 65.949V72.0204H37.3367C36.8163 72.0204 36.4694 72.3673 36.4694 72.8878V78.0918C36.4694 78.6122 36.8163 78.9592 37.3367 78.9592H38.2041V85.898H33.8673C33.5204 85.898 33.3469 86.0714 33.1735 86.2449C33 86.4184 33 86.7653 33 87.1123L34.7347 92.3163C34.9082 92.6633 35.2551 92.8367 35.602 92.8367H38.2041V129.265H33.8673C33.3469 129.265 33 129.612 33 130.133C33 130.653 33.3469 131 33.8673 131H39.0714H48.6122H55.551H63.3571H72.0306H103.255H111.929H119.735H126.673H136.214H141.418C141.939 131 142.286 130.653 142.286 130.133C142.286 129.612 141.939 129.265 141.418 129.265ZM138.99 91.102H112.796V87.6327H140.204L138.99 91.102ZM72.898 66.8163H102.388V77.2245H72.898V66.8163ZM111.061 66.8163V77.2245H104.122V66.8163H104.99H110.194H111.061ZM81.5714 78.9592V85.898H78.102V78.9592H81.5714ZM83.3061 78.9592H86.7755V85.898H83.3061V78.9592ZM88.5102 78.9592H91.9796V85.898H88.5102V78.9592ZM93.7143 78.9592H97.1837V85.898H93.7143V78.9592ZM98.9184 78.9592H102.388V85.898H98.9184V78.9592ZM104.122 85.898V78.9592H111.061V85.898H104.122ZM76.3673 78.9592V85.898H72.898V78.9592H76.3673ZM71.1633 85.898H64.2245V78.9592H71.1633V85.898ZM71.1633 87.6327V91.102H64.2245V87.6327H71.1633ZM104.122 87.6327H111.061V91.102H104.122V87.6327ZM135.347 85.898H112.796V78.9592H135.347V85.898ZM137.082 73.7551V77.2245H136.214H112.796V73.7551H137.082ZM105.857 65.0816V56.4082H109.327V65.0816H105.857ZM107.592 51.2041C108.633 51.2041 109.327 51.898 109.327 52.9388V54.6735H105.857V52.9388C105.857 51.898 106.551 51.2041 107.592 51.2041ZM104.122 61.6122V65.0816H103.776H103.255H72.0306H71.1633V61.6122H104.122ZM67.6939 51.2041C68.7347 51.2041 69.4286 51.898 69.4286 52.9388V54.6735H65.9592V52.9388C65.9592 51.898 66.6531 51.2041 67.6939 51.2041ZM65.9592 56.4082H69.4286V65.0816H65.9592V56.4082ZM65.0918 66.8163H70.2959H71.1633V77.2245H64.2245V72.8878V66.8163H65.0918ZM38.2041 73.7551H62.4898V77.2245H39.0714H38.2041V73.7551ZM39.9388 78.9592H62.4898V85.898H39.9388V78.9592ZM35.0816 87.6327H62.4898V91.102H36.2959L35.0816 87.6327ZM39.9388 92.8367H62.4898V129.265H59.8878V109.49C59.8878 104.806 57.2857 100.643 52.949 98.5612C52.4286 98.2143 51.7347 98.2143 51.0408 98.5612C46.8776 100.643 44.2755 104.806 44.102 109.49V129.265H39.7653V92.8367H39.9388ZM47.7449 129.265H46.0102V110.184H58.1531V129.265H56.4184V117.99C56.4184 113.48 52.602 112.092 52.4286 111.918C52.2551 111.918 52.0816 111.918 51.9082 111.918C51.7347 111.918 47.7449 113.48 47.7449 117.99V129.265ZM46.0102 108.449C46.3571 104.806 48.4388 101.51 51.9082 99.7755C52.0816 99.7755 52.0816 99.7755 52.2551 99.7755C55.551 101.51 57.8061 104.633 58.1531 108.449H46.0102ZM49.4796 129.265V117.99C49.4796 115.388 51.3878 114.173 52.0816 113.653C52.949 114.173 54.6837 115.388 54.6837 117.99V129.265H49.4796ZM64.2245 129.265V92.8367H71.1633V129.265H64.2245ZM76.3673 129.265V110.357C76.3673 105.153 78.9694 100.296 83.4796 97.5204L87.6429 94.7449L91.8061 97.3469C96.3163 100.122 98.9184 104.98 98.9184 110.357V129.439H76.3673V129.265ZM92.6735 95.9592L87.9898 93.0102C87.6429 92.8367 87.2959 92.8367 87.1224 93.0102L82.4388 95.9592C77.5816 99.0816 74.6326 104.459 74.6326 110.357V129.265H72.898V87.6327H102.388V129.265H100.653V110.184C100.653 104.459 97.7041 99.0816 92.6735 95.9592ZM104.122 129.265V92.8367H111.061V129.265H104.122ZM117.133 110.184H129.276V129.265H127.541V117.99C127.541 113.48 123.724 112.092 123.551 111.918C123.378 111.918 123.204 111.918 123.031 111.918C122.857 111.918 118.867 113.48 118.867 117.99V129.265H117.133V110.184ZM117.133 108.449C117.48 104.806 119.561 101.51 123.031 99.7755C123.204 99.7755 123.204 99.7755 123.378 99.7755C126.673 101.51 128.929 104.633 129.276 108.449H117.133ZM120.602 129.265V117.99C120.602 115.388 122.51 114.173 123.204 113.653C124.071 114.173 125.806 115.388 125.806 117.99V129.265H120.602ZM131.01 129.265V109.49C131.01 104.806 128.408 100.643 124.071 98.3878C123.551 98.0408 122.857 98.0408 122.163 98.3878C118 100.469 115.224 104.806 115.224 109.49V129.265H112.622V92.8367H135.173V129.265H131.01Z" fill="#1687A7"/>
<defs>
<filter id="filter0_d" x="0" y="0" width="176" height="176" filterUnits="userSpaceOnUse" color-interpolation-filters="sRGB">
<feFlood flood-opacity="0" result="BackgroundImageFix"/>
<feColorMatrix in="SourceAlpha" type="matrix" values="0 0 0 0 0 0 0 0 0 0 0 0 0 0 0 0 0 0 127 0" result="hardAlpha"/>
<feOffset/>
<feGaussianBlur stdDeviation="4"/>
<feComposite in2="hardAlpha" operator="out"/>
<feColorMatrix type="matrix" values="0 0 0 0 0.666667 0 0 0 0 0.666667 0 0 0 0 0.666667 0 0 0 0.25 0"/>
<feBlend mode="normal" in2="BackgroundImageFix" result="effect1_dropShadow"/>
<feBlend mode="normal" in="SourceGraphic" in2="effect1_dropShadow" result="shape"/>
</filter>
</defs>
</svg>
