<svg width="9" height="9" viewBox="0 0 9 9" fill="none" xmlns="http://www.w3.org/2000/svg">
<path d="M7.08804 0.546646C6.03126 0.18466 4.70942 0.502634 3.91671 1.07281C3.88951 0.96649 3.79258 0.887368 3.67736 0.887368H1.20478C1.06829 0.887368 0.95752 0.998139 0.95752 1.13463V8.55237C0.95752 8.68886 1.06829 8.79963 1.20478 8.79963H3.67736C3.81385 8.79963 3.92462 8.68886 3.92462 8.55237V3.22149C4.32419 2.8773 4.83898 2.76752 5.26031 2.94653C5.66878 3.11912 5.90269 3.54045 5.90269 4.10172V8.55237C5.90269 8.68886 6.01346 8.79963 6.14994 8.79963H8.62253C8.75902 8.79963 8.86979 8.68886 8.86979 8.55237V3.60375C8.8416 1.57178 7.8857 0.819619 7.08804 0.546646Z" fill="#1687A7"/>
</svg>
