<svg width="60" height="60" viewBox="0 0 60 60" fill="none" xmlns="http://www.w3.org/2000/svg">
<path d="M45.9375 46.875H41.25C39.7703 46.769 38.3829 46.1168 37.3572 45.045C36.3315 43.9733 35.7409 42.5585 35.7 41.0756L38.2519 39.2194C40.1132 37.864 41.4687 35.9259 42.1031 33.7125L42.3525 32.8369C42.5119 32.8643 42.6728 32.8824 42.8344 32.8912C43.7681 32.8908 44.6737 32.572 45.4018 31.9875C46.1299 31.403 46.6369 30.5877 46.8393 29.6762C47.0416 28.7647 46.9271 27.8115 46.5146 26.9738C46.1022 26.1362 45.4164 25.4642 44.5706 25.0687L44.8012 24.2625C45.3787 24.108 45.8914 23.7724 46.2642 23.3051C46.6369 22.8377 46.85 22.2632 46.8722 21.6659C46.8945 21.0685 46.7246 20.4798 46.3877 19.986C46.0507 19.4923 45.5644 19.1195 45 18.9225V18.75C45.0041 16.78 44.6172 14.8288 43.8618 13.0093C43.1064 11.1899 41.9975 9.53844 40.5994 8.15061C40.2133 7.77801 39.8044 7.42983 39.375 7.10811V6.56249C39.375 5.81657 39.0787 5.1012 38.5512 4.57375C38.0238 4.0463 37.3084 3.74999 36.5625 3.74999H34.11L34.0931 3.61124C33.9667 2.61514 33.4814 1.69934 32.728 1.03553C31.9746 0.371726 31.005 0.00549316 30.0009 0.00549316C28.9969 0.00549316 28.0272 0.371726 27.2739 1.03553C26.5205 1.69934 26.0351 2.61514 25.9088 3.61124L25.89 3.74999H23.4375C22.6916 3.74999 21.9762 4.0463 21.4488 4.57375C20.9213 5.1012 20.625 5.81657 20.625 6.56249V7.10249C18.8747 8.49849 17.4605 10.27 16.4868 12.286C15.5132 14.3021 15.0051 16.5112 15 18.75V18.9225C14.4349 19.119 13.9477 19.4917 13.6102 19.9857C13.2726 20.4797 13.1025 21.069 13.1247 21.6669C13.147 22.2648 13.3604 22.8398 13.7338 23.3073C14.1071 23.7749 14.6206 24.1103 15.1987 24.2644L15.4294 25.0706C14.5836 25.466 13.8978 26.138 13.4854 26.9757C13.0729 27.8133 12.9584 28.7666 13.1607 29.6781C13.3631 30.5896 13.8701 31.4049 14.5982 31.9894C15.3263 32.5739 16.2319 32.8927 17.1656 32.8931C17.3272 32.8843 17.4881 32.8662 17.6475 32.8387L17.8969 33.7144C18.5322 35.9273 19.8883 37.8648 21.75 39.2194L24.3019 41.0756C24.261 42.5588 23.6701 43.9738 22.644 45.0456C21.6179 46.1174 20.23 46.7695 18.75 46.875H14.0625C11.8247 46.875 9.67862 47.7639 8.09629 49.3463C6.51395 50.9286 5.625 53.0747 5.625 55.3125V59.0625C5.625 59.3111 5.72377 59.5496 5.89959 59.7254C6.0754 59.9012 6.31386 60 6.5625 60H53.4375C53.6861 60 53.9246 59.9012 54.1004 59.7254C54.2762 59.5496 54.375 59.3111 54.375 59.0625V55.3125C54.375 53.0747 53.486 50.9286 51.9037 49.3463C50.3214 47.7639 48.1753 46.875 45.9375 46.875ZM45 29.2875C44.8844 29.7652 44.6126 30.1905 44.2278 30.4962C43.8429 30.8019 43.3671 30.9704 42.8756 30.975L44.0306 26.9344C44.4142 27.1797 44.7129 27.5371 44.8864 27.9581C45.0598 28.379 45.0995 28.8432 45 29.2875ZM20.625 9.61874V12.1875C20.625 12.4361 20.7238 12.6746 20.8996 12.8504C21.0754 13.0262 21.3139 13.125 21.5625 13.125C21.8111 13.125 22.0496 13.0262 22.2254 12.8504C22.4012 12.6746 22.5 12.4361 22.5 12.1875V6.56249C22.5 6.31385 22.5988 6.07539 22.7746 5.89958C22.9504 5.72376 23.1889 5.62499 23.4375 5.62499H25.5544C25.5797 5.66913 25.6085 5.71115 25.6406 5.75061L24.375 15.8212C24.3588 15.9445 24.3672 16.0698 24.3998 16.1897C24.4324 16.3097 24.4886 16.422 24.565 16.5201C24.6414 16.6181 24.7366 16.7 24.845 16.7609C24.9533 16.8219 25.0728 16.8606 25.1962 16.875C25.4443 16.9027 25.6934 16.8323 25.8903 16.6789C26.0872 16.5254 26.2163 16.3011 26.25 16.0537L27.7688 3.84374C27.8375 3.30027 28.1022 2.80058 28.5132 2.43836C28.9242 2.07614 29.4531 1.8763 30.0009 1.8763C30.5487 1.8763 31.0777 2.07614 31.4887 2.43836C31.8996 2.80058 32.1643 3.30027 32.2331 3.84374L33.75 16.0537C33.7785 16.2817 33.8897 16.4913 34.0625 16.6427C34.2353 16.7941 34.4577 16.8768 34.6875 16.875C34.7268 16.8774 34.7663 16.8774 34.8056 16.875C34.929 16.8604 35.0482 16.8215 35.1563 16.7604C35.2645 16.6994 35.3594 16.6175 35.4357 16.5194C35.5119 16.4214 35.5679 16.3092 35.6004 16.1893C35.6329 16.0695 35.6413 15.9444 35.625 15.8212L34.3594 5.69624C34.3744 5.67374 34.395 5.65686 34.41 5.63436H36.5625C36.8111 5.63436 37.0496 5.73313 37.2254 5.90895C37.4012 6.08476 37.5 6.32322 37.5 6.57186V12.1969C37.5 12.4455 37.5988 12.684 37.7746 12.8598C37.9504 13.0356 38.1889 13.1344 38.4375 13.1344C38.6861 13.1344 38.9246 13.0356 39.1004 12.8598C39.2762 12.684 39.375 12.4455 39.375 12.1969V9.58686C41.7823 12.0286 43.1298 15.3211 43.125 18.75H16.875C16.8844 15.3333 18.2304 12.0559 20.625 9.61874ZM15.9375 20.625H44.0625C44.3111 20.625 44.5496 20.7238 44.7254 20.8996C44.9012 21.0754 45 21.3138 45 21.5625C45 21.8111 44.9012 22.0496 44.7254 22.2254C44.5496 22.4012 44.3111 22.5 44.0625 22.5H15.9375C15.6889 22.5 15.4504 22.4012 15.2746 22.2254C15.0988 22.0496 15 21.8111 15 21.5625C15 21.3138 15.0988 21.0754 15.2746 20.8996C15.4504 20.7238 15.6889 20.625 15.9375 20.625ZM15 29.2894C14.9004 28.8448 14.94 28.3803 15.1134 27.959C15.2868 27.5377 15.5857 27.18 15.9694 26.9344L17.1244 30.975C16.6332 30.9705 16.1575 30.8023 15.7727 30.497C15.3879 30.1917 15.116 29.7667 15 29.2894ZM19.7081 33.1987L17.1806 24.375H42.8194L40.2994 33.1987C39.7771 35.0069 38.6683 36.5899 37.1475 37.6987L32.7562 40.8862C31.9557 41.4706 30.9902 41.7856 29.9991 41.7856C29.0079 41.7856 28.0424 41.4706 27.2419 40.8862L22.8506 37.6987C21.3306 36.5896 20.2224 35.0066 19.7006 33.1987H19.7081ZM26.0344 42.3319L26.1488 42.4144C27.2692 43.2328 28.6209 43.6738 30.0084 43.6738C31.396 43.6738 32.7476 43.2328 33.8681 42.4144L33.9825 42.3319C34.2155 43.4994 34.6992 44.6024 35.4 45.5649C36.1008 46.5273 37.0022 47.3261 38.0419 47.9062C37.2188 49.3052 36.0447 50.465 34.6356 51.2709C33.2266 52.0767 31.6316 52.5006 30.0084 52.5006C28.3853 52.5006 26.7903 52.0767 25.3812 51.2709C23.9722 50.465 22.7981 49.3052 21.975 47.9062C23.0133 47.3253 23.9132 46.5261 24.6127 45.5637C25.3122 44.6014 25.7947 43.4987 26.0269 42.3319H26.0344ZM52.5 58.125H7.5V55.3125C7.5 53.572 8.1914 51.9028 9.42211 50.6721C10.6528 49.4414 12.322 48.75 14.0625 48.75H18.75C19.24 48.7498 19.7285 48.6964 20.2069 48.5906C21.1722 50.3431 22.5901 51.8044 24.3126 52.8221C26.0352 53.8398 27.9993 54.3767 30 54.3767C32.0007 54.3767 33.9648 53.8398 35.6874 52.8221C37.4099 51.8044 38.8278 50.3431 39.7931 48.5906C40.2715 48.6964 40.76 48.7498 41.25 48.75H45.9375C47.678 48.75 49.3472 49.4414 50.5779 50.6721C51.8086 51.9028 52.5 53.572 52.5 55.3125V58.125Z" fill="#3A3A3A"/>
</svg>
